<svg width="217" height="135" xmlns="http://www.w3.org/2000/svg" viewBox="0 0 216.45 125.87"><defs><style>.cls-1{fill:#584e3f;opacity:0.7;isolation:isolate;}.cls-2{fill:#f0875a;}</style></defs><g id="레이어_2" data-name="레이어 2"><g id="레이어_1-2" data-name="레이어 1"><path class="cls-1" d="M82.57,107.2l1.68-.34c0,.31,0,.71-.07,1.2a9.89,9.89,0,0,1-.29,1.54,6.4,6.4,0,0,1-.55,1.44,2.41,2.41,0,0,1-.94,1l-.22-.12c.16-.7.28-1.3.34-1.78a11,11,0,0,0,.1-1.36A14.15,14.15,0,0,0,82.57,107.2Zm12.6,4.73v1.65h4.15v-1.65Zm-4.06-5.71v4.12c0,3.72-1.78,7.61-4.75,9.36l1.25,1.52c3.16-2,5.06-6.34,5.06-10.88v-4.12Zm.38,0v4c0,4.23,1.76,8.55,4.88,10.47l1.15-1.56c-2.86-1.73-4.49-5.43-4.49-8.91v-4Zm11.64-2v21.69h1.92V104.18Zm-4.39.45v20.16h1.87V104.63Zm10,16.9v1.65h19.66v-1.65Zm8.76-5.62v6.36h2v-6.36Zm-7.06-9.67v1.63h16.11v-1.63Zm0,8.74v1.6h16V115Zm3.34-7.42v7.7h2v-7.7Zm7.39,0v7.7h2v-7.7Zm9.62-.36,1.68-.34c0,.31,0,.71-.07,1.2a8.84,8.84,0,0,1-.29,1.54,6.4,6.4,0,0,1-.55,1.44,2.35,2.35,0,0,1-.94,1l-.21-.12c.16-.7.27-1.3.33-1.78a9.38,9.38,0,0,0,.1-1.36A12,12,0,0,0,130.8,107.2Z"/><path class="cls-2" d="M72.66,25.8h4.08s-5.21-18.55-27.39-24A33.39,33.39,0,0,0,44,.83S23.13-2.34,9.45,14.47c0,0-18.21,20-4.08,45.94A41.29,41.29,0,0,0,38.32,80c-2-.19,26.59,2.87,38.72-25.24l.27-1-1.1-.26s-6.16,20.33-27.28,24a45.09,45.09,0,0,1-6.12.45s-12-.34-21.08-6.76a46.83,46.83,0,0,1-8.65-7.37,30.06,30.06,0,0,1-5.33-7.1A39.4,39.4,0,0,1,2.69,39S1.25,24.44,10.55,14.66a11.66,11.66,0,0,1,1.13-1.21,13.44,13.44,0,0,0,1-1C15.38,9.6,24.45,1.74,41.76,3a27.12,27.12,0,0,1,4.94.9C55.51,6.35,66.09,11.11,72.66,25.8Z"/><path class="cls-2" d="M82.71.08V.64l3,1.7V76.66L82.9,78.21v1.24h28.64V70.8h-1.1v3.1L107.76,78H91.4l-1.74-1.36V40.16h6l2.83,3.89v2.31h1V32.94h-1v3l-2.69,2.68H89.59V2.34L91.21.72h16.06l2.94,2.94V7.22h1.06V.08S83.88.08,82.71.08Z"/><path class="cls-2" d="M115.5,0V.76h1.44l2.15,2.07V76.24L117.73,78h-2.11v1.36h33.92V78H123.29l-1-1.67V2.91L124.53.76h1.36V0Z"/><path class="cls-2" d="M153.55,0V.76H155l2.16,2.07V76.24L155.78,78h-2.12v1.36h62.79V71.52h-.64V75L212.71,78H161.37l-1-1.67V2.83L162.58.76h1.36V0Z"/></g></g></svg>