<svg width="340" height="135" xmlns="http://www.w3.org/2000/svg" viewBox="0 0 336.33 125.9"><defs><style>.cls-1{fill:#584e3f;opacity:0.7;isolation:isolate;}.cls-2{fill:#f0875a;}</style></defs><g id="레이어_2" data-name="레이어 2"><g id="레이어_1-2" data-name="레이어 1"><path class="cls-1" d="M13.9,104.18v12.88h2V104.18Zm1.41,5.64v1.65h3.77v-1.65ZM9,117.52c-4.39,0-7.13,1.56-7.13,4.18s2.74,4.15,7.13,4.15,7.13-1.54,7.13-4.15S13.34,117.52,9,117.52Zm0,1.63c3.22,0,5.19.91,5.19,2.55s-2,2.52-5.19,2.52-5.18-.94-5.18-2.52S5.74,119.15,9,119.15ZM0,113.73v1.63H1.68a47.92,47.92,0,0,0,10.15-.74L11.59,113a45.36,45.36,0,0,1-9.91.75Zm0-7.9v9H2v-7.32H9.58v-1.63Zm36.89-1.63v15.89h2V104.2ZM25,123.76v1.63H39.55v-1.63Zm0-5.14v5.91h2v-5.91Zm1.8-13.24v2.2a8.49,8.49,0,0,1-5.43,7.8l1,1.61a10,10,0,0,0,6-9.41v-2.2Zm.36,0v2.2a9.48,9.48,0,0,0,6,9l1.05-1.6a8,8,0,0,1-5.42-7.4v-2.2Zm23.11.36c-3.39,0-5.83,2.08-5.83,5.11S46.84,116,50.23,116,56,113.9,56,110.85,53.61,105.74,50.23,105.74Zm0,1.72c2.23,0,3.86,1.37,3.86,3.39s-1.63,3.41-3.86,3.41-3.89-1.4-3.89-3.41S48,107.46,50.23,107.46Zm8.64-3.31V125.9h2V104.15Zm-15.29,17a75.89,75.89,0,0,0,14-1l-.17-1.46a96.11,96.11,0,0,1-14.16.77ZM71.3,107.2l1.68-.34c0,.31,0,.71-.07,1.2a9.89,9.89,0,0,1-.29,1.54,6.4,6.4,0,0,1-.55,1.44,2.41,2.41,0,0,1-.94,1l-.22-.12c.16-.7.28-1.3.34-1.78a11,11,0,0,0,.1-1.36A14.15,14.15,0,0,0,71.3,107.2Zm12.6,4.73v1.65h4.15v-1.65Zm-4.06-5.71v4.12c0,3.72-1.78,7.61-4.75,9.36l1.25,1.52c3.16-2,5.06-6.34,5.06-10.88v-4.12Zm.38,0v4c0,4.23,1.76,8.55,4.88,10.47l1.15-1.56c-2.86-1.73-4.49-5.43-4.49-8.91v-4Zm11.64-2v21.69h1.92V104.18Zm-4.39.45v20.16h1.87V104.63Zm10,16.9v1.65h19.66v-1.65Zm8.76-5.62v6.36h2v-6.36Zm-7.06-9.67v1.63h16.11v-1.63Zm.05,8.74v1.6h16V115Zm3.34-7.42v7.7h2v-7.7Zm7.39,0v7.7h2v-7.7Zm18.38,5v1.66h4.11V112.6Zm7.73-8.42v21.69h1.92V104.18Zm-4.3.45v20.16h1.9V104.63ZM124.38,106c-2.81,0-4.61,2.9-4.61,7.56s1.8,7.56,4.61,7.56,4.63-2.91,4.63-7.56S127.19,106,124.38,106Zm0,1.84c1.73,0,2.81,2.21,2.81,5.72s-1.08,5.71-2.81,5.71-2.78-2.21-2.78-5.71S122.68,107.82,124.38,107.82Zm34.77,1.35v1.63h5.6v-1.63Zm-9,7.49v1.53h5.06v2.07h-5v4.48h1.92v-3h5v-5Zm8.3,0v9.07h6.94v-9.07Zm5.16,1.51v6h-3.41v-6Zm-13.41,6v1.54h1.12a34.05,34.05,0,0,0,6.48-.39l-.19-1.53a31.89,31.89,0,0,1-6.29.38Zm13.2-19.94v11.44h2V104.18Zm-10.37,2v1.44c0,2.79-2.23,5.52-5.4,6.6l1,1.56a8.75,8.75,0,0,0,6.07-8.16v-1.44Zm.38,0v1.47a8.14,8.14,0,0,0,5.91,7.63l1-1.56c-3.12-1-5.24-3.48-5.24-6.07v-1.47Zm-5.18-.74V107h11.59V105.4Zm31.2-.74c-4.71,0-7.64,1.53-7.64,4.1s2.93,4.08,7.64,4.08,7.63-1.51,7.63-4.08S184.14,104.66,179.46,104.66Zm0,1.58c3.43,0,5.59.91,5.59,2.52s-2.16,2.52-5.59,2.52-5.6-.94-5.6-2.52S176,106.24,179.46,106.24ZM172,118.43v7.15h14.81v-7.15ZM184.9,120V124H174V120Zm-15.26-5.33v1.61h19.61v-1.61Zm22.13-7.51,1.68-.34c0,.31,0,.71-.07,1.2a9.89,9.89,0,0,1-.29,1.54,6.4,6.4,0,0,1-.55,1.44,2.41,2.41,0,0,1-.94,1l-.22-.12c.16-.7.28-1.3.34-1.78a11,11,0,0,0,.1-1.36A14.15,14.15,0,0,0,191.77,107.2Zm13.84-2.66c-4.8,0-7.63,1.34-7.63,3.76s2.83,3.77,7.63,3.77,7.64-1.34,7.64-3.77S210.39,104.54,205.61,104.54Zm0,1.51c3.53,0,5.57.81,5.57,2.25s-2,2.26-5.57,2.26-5.59-.82-5.59-2.26S202.06,106.05,205.61,106.05Zm-9.81,7.46v1.61h19.61v-1.61Zm2.37,3.46v1.53h12.77v1.92H198.22v4.08h2v-2.64h12.72V117Zm.05,7.1v1.56h15.34v-1.56ZM235,109.29v1.65h5.47v-1.65Zm-5.69-3.79v2.66a8.23,8.23,0,0,1-5.4,7.58l1,1.59a9.67,9.67,0,0,0,6-9.17V105.5Zm.39,0v2.73a9.13,9.13,0,0,0,5.78,8.57l1.08-1.54a7.73,7.73,0,0,1-5.25-7V105.5Zm10-1.3v16.22h2V104.2Zm-12,19.56v1.63h14.47v-1.63Zm0-5.14v5.91h2v-5.91Zm23.49-12.57v3.89c0,4-2.47,8.13-5.61,9.72l1.22,1.58c3.43-1.82,6-6.5,6-11.3v-3.89Zm.36,0v3.89c0,4.65,2.52,9.09,5.88,10.89l1.23-1.58a11,11,0,0,1-5.5-9.31v-3.89Zm9-1.87v21.69h2V104.18Zm1.54,8.78v1.68h4V113Zm20.71-8.78v12.6h2v-12.6ZM284,109.7v1.68h4.08V109.7Zm-12.77,8v7.84h13.63v-7.84h-2V120h-9.72v-2.3Zm1.94,3.84h9.72V124h-9.72Zm-5.09-15.2V108h12.82v-1.64Zm6.41,2.62c-3.12,0-5.21,1.51-5.21,3.82s2.09,3.81,5.21,3.81,5.19-1.51,5.19-3.81S277.61,109,274.51,109Zm0,1.51c1.95,0,3.29.91,3.29,2.31s-1.34,2.3-3.29,2.3-3.31-.91-3.31-2.3S272.52,110.51,274.51,110.51Zm-1-6.55v3.31h2V104Zm32.4.22v21.69h2V104.18Zm-14.4,2.11v13.44h2V106.29Zm0,12.26v1.73h1.78a51.92,51.92,0,0,0,10.63-1l-.24-1.71a49.87,49.87,0,0,1-10.39,1Zm35.38-14.4V125.9h2V104.15Zm1.53,8.57v1.68h4v-1.68Zm-15.29,6.1v1.68h1.71a51.81,51.81,0,0,0,10.27-.75l-.22-1.68a51.61,51.61,0,0,1-10.05.75Zm0-12.56v13.3h2V107.9h8.11v-1.64Zm22.13,17.84a1.06,1.06,0,0,1-.77-.32,1,1,0,0,1-.31-.76,1,1,0,0,1,.31-.77,1.11,1.11,0,0,1,1.54,0,1,1,0,0,1,.31.77,1,1,0,0,1-.31.76A1.06,1.06,0,0,1,335.25,124.1Z"/><path class="cls-2" d="M131.58,41.25v.28l1.47.82V78.49l-1.38.76v.6H145.6v-4.2h-.54v1.5l-1.3,2h-8l-.84-.66V60.74h2.92l1.38,1.9v1.12h.46V57.24h-.48v1.47L137.93,60h-3V42.35l.79-.79h7.81L145,43v1.72h.51V41.25Z"/><path class="cls-2" d="M200.16,41.25v.28l1.47.82V78.49l-1.37.74v.6h13.92v-4.2h-.53v1.5l-1.3,2h-8l-.85-.67V60.73h2.93l1.37,1.89v1.12h.46V57.22h-.47v1.47L206.52,60h-3V42.33l.79-.79h7.81L213.56,43V44.7h.51V41.23S200.73,41.25,200.16,41.25Z"/><path class="cls-2" d="M123,41.21v.37h1l.66.81V71A9.42,9.42,0,0,1,119,78.73a4,4,0,0,1-.53.2,13.14,13.14,0,0,1-3.12.3A8.22,8.22,0,0,1,110.41,78,4.22,4.22,0,0,1,109,76V74.45h-.39v3.12a9.7,9.7,0,0,0,6.54,2.28,6.24,6.24,0,0,0,.66,0A10.32,10.32,0,0,0,126,73.09a5.48,5.48,0,0,0,.41-2.09V42.41l.71-.83h1v-.37S123,41.23,123,41.21Z"/><path class="cls-2" d="M148.76,41.25v.51H150l.72,1V71.27s1,8.73,10.89,8.73H163s6.41-.2,9.08-7.51l0-29.86.83-.94h.87v-.46h-3.75v.46H171l.7.92V72.14s-2.11,7.38-9.55,7.35l-1.05,0-.94-.07a8.64,8.64,0,0,1-7.57-6.64,5.87,5.87,0,0,1-.26-1.85V42.78l.87-1h.95v-.54S148.77,41.27,148.76,41.25Z"/><path class="cls-2" d="M176.94,41.2v.49h.79l.59,1.12V78.62l-.57.46h-1.6v.72h4.08v-.7h-1l-.5-.5V43.29L193.33,78l.07,1-1.34.62,0,.3h5.29v-.53h-.75l-.94-1V42.44l.61-.82H197v-.35h-3.56v.38h1l.48.85v34L180.67,43v-.52l1-.75h.57V41.2Z"/><path class="cls-2" d="M144,12.52h2A18.21,18.21,0,0,0,132.67.86a17.12,17.12,0,0,0-2.6-.46S120-1.14,113.32,7a19.64,19.64,0,0,0-2,22.28,19.42,19.42,0,0,0,34.76-2.75l.13-.49-.53-.13s-3,9.86-13.23,11.66a24,24,0,0,1-3,.22,21.11,21.11,0,0,1-10.22-3.28,22.79,22.79,0,0,1-4.2-3.58,14.71,14.71,0,0,1-2.59-3.44A19.26,19.26,0,0,1,110,18.89s-.7-7,3.81-11.78a6,6,0,0,1,.55-.59s.2-.18.48-.49C116.2,4.65,120.59.84,129,1.43a12.74,12.74,0,0,1,2.4.44C135.66,3.08,140.79,5.39,144,12.52Z"/><path class="cls-2" d="M148.85,0V.31l1.47.83v36l-1.37.75v.61h13.89v-4.2h-.54v1.51l-1.3,2h-7.93l-.84-.66V19.48h2.89l1.38,1.89v1.12H157V16h-.47v1.47l-1.3,1.3h-3V1.14L153,.35h7.79l1.42,1.43V3.5h.52V0S149.42,0,148.85,0Z"/><path class="cls-2" d="M164.76,0V.37h.7l1,1V37l-.66.86h-1v.66h16.45v-.66H168.54l-.48-.8V1.41l1.08-1h.66V0Z"/><path class="cls-2" d="M183.21,0V.37h.7l1.05,1V37l-.66.86h-1v.66h30.46V34.69h-.31v1.67l-1.51,1.48H187l-.5-.8V1.37l1.08-1h.66V0Z"/></g></g></svg>