<svg width="227" height="159" xmlns="http://www.w3.org/2000/svg" viewBox="0 0 224.22 153.26"><defs><style>.cls-1{fill:#2e2a26;opacity:0.7;isolation:isolate;}.cls-2{fill:#f0875a;}</style></defs><g id="레이어_2" data-name="레이어 2"><g id="레이어_1-2" data-name="레이어 1"><path class="cls-1" d="M9.26,138.78v8.6h1.33v-8.6Zm1,3.76v1.11h2.51v-1.11ZM6,147.68c-2.93,0-4.75,1-4.75,2.78S3,153.23,6,153.23s4.75-1,4.75-2.77S8.9,147.68,6,147.68Zm0,1.09c2.14,0,3.45.61,3.45,1.69S8.11,152.14,6,152.14s-3.46-.62-3.46-1.68S3.82,148.77,6,148.77Zm-6-3.62v1.09H1.12a31.88,31.88,0,0,0,6.77-.5l-.16-1.08a30.42,30.42,0,0,1-6.61.49Zm0-5.26v6H1.31V141H6.38v-1.09Zm24.59-1.09v10.59h1.34V138.8Zm-7.95,13v1.09h9.73v-1.09Zm0-3.42v3.93H18v-3.93Zm1.2-8.84v1.48a5.66,5.66,0,0,1-3.62,5.2l.69,1.07a6.68,6.68,0,0,0,4-6.27v-1.48Zm.24,0v1.48a6.33,6.33,0,0,0,4,6l.7-1.08a5.32,5.32,0,0,1-3.61-4.92v-1.48Zm15.41.24c-2.26,0-3.89,1.4-3.89,3.41s1.63,3.43,3.89,3.43,3.87-1.4,3.87-3.43S35.74,139.82,33.49,139.82Zm0,1.16a2.28,2.28,0,1,1,0,4.52,2.28,2.28,0,1,1,0-4.52Zm5.76-2.21v14.49h1.32V138.77ZM29.05,150.1a51.1,51.1,0,0,0,9.36-.64l-.11-1a63.12,63.12,0,0,1-9.44.51Zm18.48-9.3,1.12-.22a6.75,6.75,0,0,1,0,.8,5.52,5.52,0,0,1-.19,1,4,4,0,0,1-.37,1,1.53,1.53,0,0,1-.62.64l-.14-.08c.1-.47.18-.86.22-1.18a7.47,7.47,0,0,0,.06-.92A9.2,9.2,0,0,0,47.53,140.8Zm8.4,3.15v1.11H58.7V144Zm-2.7-3.81v2.76a7.36,7.36,0,0,1-3.17,6.24l.83,1c2.11-1.29,3.38-4.22,3.38-7.24v-2.76Zm.25,0v2.71c0,2.81,1.17,5.69,3.25,7l.77-1a7,7,0,0,1-3-5.93v-2.71Zm7.76-1.36v14.47h1.28V138.78Zm-2.93.31v13.44h1.25V139.09ZM65,150.35v1.11H78.06v-1.11Zm5.84-3.74v4.24h1.33v-4.24Zm-4.7-6.45v1.09H76.83v-1.09Zm0,5.82v1.08H76.81V146ZM68.35,141v5.14h1.32V141Zm4.92,0v5.14h1.32V141Zm12.26,3.36v1.1h2.73v-1.1Zm5.15-5.62v14.47H92V138.78Zm-2.86.31v13.44h1.26V139.09Zm-4.9.89c-1.87,0-3.07,1.94-3.07,5s1.2,5,3.07,5S86,148.13,86,145,84.79,140,82.92,140Zm0,1.24c1.15,0,1.87,1.47,1.87,3.8s-.72,3.81-1.87,3.81-1.86-1.47-1.86-3.81S81.78,141.22,82.92,141.22Zm23.18.89v1.09h3.73v-1.09Zm-6,5v1h3.38v1.37h-3.35v3h1.28v-2h3.35V147.1Zm5.54,0v6.05h4.62V147.1Zm3.44,1v4h-2.28v-4Zm-8.95,4v1h.75a22.8,22.8,0,0,0,4.32-.25l-.12-1a21.33,21.33,0,0,1-4.2.26Zm8.8-13.3v7.64h1.33v-7.64ZM102,140.1v1a5,5,0,0,1-3.6,4.4l.64,1a5.84,5.84,0,0,0,4-5.44v-1Zm.26,0v1a5.42,5.42,0,0,0,3.93,5.09l.64-1a4.6,4.6,0,0,1-3.49-4.05v-1Zm-3.46-.5v1.07h7.73V139.6Zm20.8-.5c-3.14,0-5.09,1-5.09,2.74s2,2.72,5.09,2.72,5.09-1,5.09-2.72S122.76,139.1,119.64,139.1Zm0,1.06c2.29,0,3.73.61,3.73,1.68s-1.44,1.68-3.73,1.68-3.73-.62-3.73-1.68S117.33,140.16,119.64,140.16Zm-5,8.13v4.77h9.88v-4.77Zm8.58,1.07V152H116v-2.62Zm-10.18-3.55v1.07h13.08v-1.07Zm14.75-5,1.12-.22c0,.2,0,.46,0,.8a6.55,6.55,0,0,1-.2,1,4,4,0,0,1-.36,1,1.55,1.55,0,0,1-.63.64l-.14-.08a11.51,11.51,0,0,0,.22-1.18,6,6,0,0,0,.07-.92A7.4,7.4,0,0,0,127.84,140.8Zm9.24-1.78c-3.2,0-5.09.9-5.09,2.52s1.89,2.51,5.09,2.51,5.08-.9,5.08-2.51S140.26,139,137.08,139Zm0,1c2.35,0,3.71.55,3.71,1.51s-1.36,1.5-3.71,1.5-3.73-.54-3.73-1.5S134.71,140,137.08,140Zm-6.55,5v1.07H143.6V145Zm1.59,2.3v1h8.51v1.28h-8.48v2.72h1.31v-1.76h8.48v-3.27Zm0,4.74v1h10.22v-1Zm24.52-9.86v1.11h3.65v-1.11Zm-3.79-2.53v1.78a5.48,5.48,0,0,1-3.6,5.06l.69,1.05a6.42,6.42,0,0,0,4-6.11v-1.78Zm.26,0v1.83A6.1,6.1,0,0,0,157,147.2l.72-1a5.17,5.17,0,0,1-3.5-4.69v-1.83Zm6.69-.86v10.82h1.32V138.8Zm-8,13v1.09h9.65v-1.09Zm0-3.42v3.93h1.33v-3.93ZM167.52,140v2.59a7.64,7.64,0,0,1-3.74,6.48l.81,1.06c2.29-1.22,4-4.34,4-7.54V140Zm.24,0v2.59a8.42,8.42,0,0,0,3.92,7.27l.82-1.06a7.29,7.29,0,0,1-3.67-6.21V140Zm6-1.25v14.47h1.34V138.78Zm1,5.86v1.12h2.69v-1.12Zm13.81-5.86v8.4h1.33v-8.4Zm.75,3.68v1.12h2.72v-1.12Zm-8.51,5.36v5.24h9.09v-5.24h-1.31v1.54h-6.48v-1.54Zm1.3,2.56h6.48V152h-6.48Zm-3.39-10.12v1.08h8.54v-1.08ZM183,142c-2.08,0-3.47,1-3.47,2.54s1.39,2.55,3.47,2.55,3.45-1,3.45-2.55S185.07,142,183,142Zm0,1c1.29,0,2.19.61,2.19,1.53s-.9,1.54-2.19,1.54-2.21-.61-2.21-1.54S181.68,143,183,143Zm-.67-4.37v2.21h1.32v-2.21Zm21.59.14v14.47h1.33V138.78Zm-9.6,1.41v9h1.32v-9Zm0,8.18v1.15h1.19a34.91,34.91,0,0,0,7.09-.69l-.16-1.13a33.53,33.53,0,0,1-6.93.67Zm23.59-9.6v14.49h1.34V138.77Zm1,5.71v1.12h2.69v-1.12Zm-10.19,4.06v1.12h1.14a35.24,35.24,0,0,0,6.84-.49l-.14-1.12a34.48,34.48,0,0,1-6.7.49Zm0-8.36V149h1.31v-7.78h5.41v-1.08Zm14.75,11.88a.73.73,0,0,1-.51-.2.72.72,0,1,1,1,0A.73.73,0,0,1,223.5,152.06Z"/><path class="cls-2" d="M65.13,64.45v.43l2.29,1.3v56.47l-2.15,1.17v1H87V118.2H86.2v2.35l-2,3.13H71.73l-1.32-1V94.91H75l2.16,3v1.75h.71V89.43H77.1v2.3l-2,2H70.38V66.18l1.23-1.24h12.2l2.24,2.24v2.7h.81V64.45Z"/><path class="cls-2" d="M172.29,64.45v.43l2.3,1.3v56.47l-2.15,1.14v.95H194.2v-6.57h-.83v2.35l-2,3.13H178.9l-1.32-1V94.88h4.56l2.15,3v1.75H185V89.4h-.75v2.3l-2,2h-4.68V66.15l1.23-1.24H191l2.24,2.24v2.7H194V64.43C194,64.45,173.18,64.45,172.29,64.45Z"/><path class="cls-2" d="M51.78,64.4V65h1.63l1,1.26V110.9A14.75,14.75,0,0,1,45.4,123a6,6,0,0,1-.83.31,20.36,20.36,0,0,1-4.88.46s-4.59.38-7.64-1.89a6.58,6.58,0,0,1-2.21-3.22v-2.35h-.6v4.88a15.22,15.22,0,0,0,10.22,3.56,10.17,10.17,0,0,0,1,0c3.13,0,12.06-.6,15.88-10.56a8.73,8.73,0,0,0,.63-3.28V66.26L58.12,65H59.7V64.4S51.75,64.43,51.78,64.4Z"/><path class="cls-2" d="M92,64.45v.81h2l1.12,1.58v44.52s1.49,13.64,17,13.64h2.15s10-.32,14.19-11.74l0-46.65,1.3-1.47h1.34v-.71H125.3v.71h1.49l1.09,1.44v46.13s-3.3,11.54-14.93,11.49l-1.63-.06-1.47-.12A13.47,13.47,0,0,1,98,113.66a9.21,9.21,0,0,1-.41-2.9V66.84L99,65.23h1.5V64.4S92,64.48,92,64.45Z"/><path class="cls-2" d="M136,64.37v.77h1.23l.92,1.75v56l-.89.72h-2.5v1.11h6.37v-1.09h-1.6l-.78-.77V67.64l22.85,54.17.12,1.61-2.1,1,0,.46h8.27V124H166.7l-1.47-1.63V66.32l1-1.29h1.23v-.55h-5.57v.61h1.53l.74,1.32v53.16L141.83,67.12v-.8l1.61-1.18h.89v-.77Z"/><path class="cls-2" d="M84.5,19.56h3.1S83.65,5.5,66.84,1.35A25.54,25.54,0,0,0,62.77.63S47-1.78,36.6,11c0,0-13.8,15.12-3.09,34.82a31.26,31.26,0,0,0,25,14.83C57,60.48,78.63,62.79,87.83,41.49l.2-.77-.83-.2s-4.67,15.4-20.68,18.21a35,35,0,0,1-4.64.34s-9.07-.26-16-5.12a35,35,0,0,1-6.56-5.59,22.93,22.93,0,0,1-4-5.38,29.87,29.87,0,0,1-3.84-13.46s-1.08-11,6-18.41a10.54,10.54,0,0,1,.86-.92A10.2,10.2,0,0,0,39,9.42c2.06-2.15,8.94-8.1,22-7.19a20.85,20.85,0,0,1,3.75.69C71.5,4.81,79.52,8.42,84.5,19.56Z"/><path class="cls-2" d="M92.12.06V.49l2.29,1.29V58.1l-2.15,1.17v.95H114V53.66h-.83V56l-2,3.12H98.71l-1.32-1V30.44h4.52l2.15,2.95v1.74h.72V25H104v2.29l-2,2H97.33V1.78L98.56.54h12.17L113,2.78V5.47h.8V.06S93,.06,92.12.06Z"/><path class="cls-2" d="M117,0V.57h1.09l1.64,1.58V57.78l-1,1.35h-1.6v1h25.71v-1h-19.9l-.74-1.26V2.2L123.82.57h1V0Z"/><path class="cls-2" d="M145.81,0V.57h1.09l1.63,1.58V57.78l-1,1.35h-1.6v1h47.59v-6H193v2.61l-2.35,2.32H151.74L151,57.87V2.15L152.65.57h1V0Z"/></g></g></svg>