<svg width="69" height="69" viewBox="0 0 69 69" fill="none" xmlns="http://www.w3.org/2000/svg">
<g clip-path="url(#clip0_3_195)">
<path d="M25.6 60.2999C25.4 60.2999 25.2 60.1999 25 60.0999C24.5 59.7999 24.2 59.1999 24.4 58.6999L30.1 38.2999H16C15.5 38.2999 15.1 37.9999 14.9 37.5999C14.7 37.0999 14.8 36.5999 15.1 36.2999L40.2 8.99992C40.6 8.59992 41.2 8.49992 41.7 8.79992C42.2 9.09992 42.4999 9.69992 42.2999 10.1999L37.5 27.4999H52.7999C53.2999 27.4999 53.7 27.7999 53.9 28.1999C54.1 28.6999 54 29.1999 53.7 29.4999L26.5 59.8999C26.3 60.1999 26 60.2999 25.6 60.2999ZM18.9 35.7999H31.7999C32.1999 35.7999 32.5999 35.9999 32.7999 36.2999C32.9999 36.5999 33.1 36.9999 33 37.3999L28.2999 54.1999L50 29.8999H35.9C35.5 29.8999 35.1 29.6999 34.9 29.3999C34.7 29.0999 34.6 28.6999 34.7 28.2999L38.5999 14.4999L18.9 35.7999Z" fill="#F8971B"/>
<path d="M34.4 68.9C15.5 68.9 0 53.4 0 34.4C0 15.4 15.5 0 34.4 0C53.3 0 68.8 15.5 68.8 34.4C68.9 53.4 53.4 68.9 34.4 68.9ZM34.4 2.5C16.8 2.5 2.5 16.8 2.5 34.4C2.5 52 16.8 66.3 34.4 66.3C52 66.3 66.3 52 66.3 34.4C66.4 16.8 52.1 2.5 34.4 2.5Z" fill="#555555"/>
</g>
<defs>
<clipPath id="clip0_3_195">
<rect width="69" height="69" fill="white"/>
</clipPath>
</defs>
</svg>
