<svg width="17" height="18" viewBox="0 0 17 18" fill="none" xmlns="http://www.w3.org/2000/svg">
<path d="M15.7567 13.3111C15.1116 12.0744 14.1536 11.0056 12.997 10.2231C12.5084 9.88725 11.9741 9.61625 11.4283 9.38342C12.3252 8.74217 13.0237 7.81846 13.3673 6.76498C13.7261 5.67715 13.707 4.46336 13.3062 3.3908C12.9092 2.3106 12.1382 1.37163 11.1572 0.768549C10.3213 0.249443 9.33656 -0.0215606 8.35179 0.00134113C7.36701 -0.0215606 6.38224 0.249443 5.54632 0.768549C4.56537 1.37163 3.79434 2.30678 3.39738 3.3908C2.99278 4.46336 2.97751 5.67715 3.33631 6.76498C3.67602 7.81846 4.37834 8.73835 5.27532 9.38342C4.7295 9.61243 4.19512 9.88344 3.70655 10.2231C2.55383 11.0056 1.59196 12.0744 0.946894 13.3111C0.317097 14.5096 -0.0111612 15.8608 0.000289671 17.212C0.000289671 17.4296 0.0842627 17.6509 0.248392 17.7922C0.530846 18.0403 0.97743 18.067 1.29042 17.8609C1.45837 17.754 1.57287 17.5746 1.60723 17.3761C1.64158 17.1929 1.62631 17.0097 1.63776 16.8265C1.67975 16.0096 1.86678 15.1966 2.19504 14.4485C2.7256 13.2309 3.63021 12.1812 4.74858 11.4713C5.71045 10.8568 6.82882 10.498 7.97009 10.4331C8.09605 10.4254 8.22201 10.4216 8.34797 10.4216C8.47393 10.4216 8.59989 10.4254 8.72585 10.4331C9.8633 10.5018 10.9855 10.8606 11.9474 11.4713C13.0695 12.1851 13.9703 13.2309 14.5009 14.4485C14.833 15.1966 15.0162 16.0096 15.0582 16.8265C15.0696 17.0097 15.0544 17.1967 15.0887 17.3761C15.1231 17.5708 15.2414 17.7502 15.4055 17.8609C15.7147 18.067 16.1651 18.0441 16.4475 17.7922C16.6117 17.6471 16.6956 17.4257 16.6956 17.212C16.7071 15.8608 16.3788 14.5096 15.7567 13.3111ZM10.4969 8.06275C9.87475 8.50552 9.10754 8.73453 8.34797 8.70782C7.5884 8.73453 6.81737 8.50552 6.19902 8.06275C5.4967 7.57418 4.98905 6.81842 4.7982 5.98633C4.61499 5.20767 4.70278 4.36412 5.05012 3.64272C5.55778 2.56252 6.64561 1.78386 7.8365 1.6579C8.00826 1.63881 8.18002 1.63118 8.35179 1.63881C8.52355 1.635 8.69531 1.63881 8.86707 1.6579C10.0541 1.78386 11.1458 2.56252 11.6535 3.64272C12.0008 4.36412 12.0886 5.20767 11.9054 5.98633C11.7069 6.81842 11.1992 7.57418 10.4969 8.06275Z" fill="#E0C180"/>
</svg>
