<svg xmlns="http://www.w3.org/2000/svg" viewBox="0 0 16.7 18"><defs><style>.cls-1{fill:#fff;}</style></defs><g id="레이어_2" data-name="레이어 2"><g id="레이어_1-2" data-name="레이어 1"><path class="cls-1" d="M15.76,13.31A8.63,8.63,0,0,0,13,10.22a10.29,10.29,0,0,0-1.57-.84,5.25,5.25,0,0,0,1.94-2.62,5.12,5.12,0,0,0-.06-3.37A5.23,5.23,0,0,0,11.16.77,5.15,5.15,0,0,0,8.35,0a5.12,5.12,0,0,0-2.8.77A5.18,5.18,0,0,0,3.4,3.39a5.06,5.06,0,0,0-.06,3.37A5.19,5.19,0,0,0,5.28,9.38,8.52,8.52,0,0,0,1,13.31,8.29,8.29,0,0,0,0,17.21a.74.74,0,0,0,.25.58.87.87,0,0,0,1,.07.76.76,0,0,0,.32-.48,5.21,5.21,0,0,0,0-.55,6.75,6.75,0,0,1,3.11-5.36,6.81,6.81,0,0,1,3.22-1h.76a6.85,6.85,0,0,1,3.22,1,6.75,6.75,0,0,1,3.11,5.36,3.38,3.38,0,0,0,0,.55.72.72,0,0,0,.32.48.87.87,0,0,0,1-.07.78.78,0,0,0,.25-.58A8.41,8.41,0,0,0,15.76,13.31ZM10.5,8.06a3.54,3.54,0,0,1-2.15.65,3.54,3.54,0,0,1-.51-7,2.9,2.9,0,0,1,.51,0,3,3,0,0,1,.52,0,3.52,3.52,0,0,1,2.78,2A3.51,3.51,0,0,1,10.5,8.06Z"/></g></g></svg>