<svg width="29" height="31" viewBox="0 0 29 31" fill="none" xmlns="http://www.w3.org/2000/svg">
<g filter="url(#filter0_d_1635_442)">
<path d="M7.5 3C6.11929 3 5 4.11929 5 5.5V20.5C5 21.8807 6.11929 23 7.5 23H21.25C22.6307 23 23.75 21.8807 23.75 20.5V5.5C23.75 4.11929 22.6307 3 21.25 3H7.5ZM13.75 5.5H15C15.6904 5.5 16.25 6.05964 16.25 6.75V10.5C16.25 11.1904 15.6904 11.75 15 11.75H13.75C13.0596 11.75 12.5 11.1904 12.5 10.5V6.75C12.5 6.05964 13.0596 5.5 13.75 5.5ZM7.5 6.75C7.5 6.05964 8.05964 5.5 8.75 5.5H10C10.6904 5.5 11.25 6.05964 11.25 6.75V15.5C11.25 16.1904 10.6904 16.75 10 16.75H8.75C8.05964 16.75 7.5 16.1904 7.5 15.5V6.75ZM18.75 5.5H20C20.6904 5.5 21.25 6.05964 21.25 6.75V19.25C21.25 19.9404 20.6904 20.5 20 20.5H18.75C18.0596 20.5 17.5 19.9404 17.5 19.25V6.75C17.5 6.05964 18.0596 5.5 18.75 5.5Z" fill="white"/>
</g>
<defs>
<filter id="filter0_d_1635_442" x="0" y="0.5" width="28.75" height="30" filterUnits="userSpaceOnUse" color-interpolation-filters="sRGB">
<feFlood flood-opacity="0" result="BackgroundImageFix"/>
<feColorMatrix in="SourceAlpha" type="matrix" values="0 0 0 0 0 0 0 0 0 0 0 0 0 0 0 0 0 0 127 0" result="hardAlpha"/>
<feOffset dy="2.5"/>
<feGaussianBlur stdDeviation="2.5"/>
<feComposite in2="hardAlpha" operator="out"/>
<feColorMatrix type="matrix" values="0 0 0 0 0 0 0 0 0 0 0 0 0 0 0 0 0 0 0.15 0"/>
<feBlend mode="normal" in2="BackgroundImageFix" result="effect1_dropShadow_1635_442"/>
<feBlend mode="normal" in="SourceGraphic" in2="effect1_dropShadow_1635_442" result="shape"/>
</filter>
</defs>
</svg>
