<svg width="31" height="31" viewBox="0 0 31 31" fill="none" xmlns="http://www.w3.org/2000/svg">
<g filter="url(#filter0_d_1635_438)">
<path d="M24.9333 10.6162C24.7824 10.9336 24.3765 11.1001 24.0539 10.9596C24.0123 10.9388 23.9759 10.918 23.9342 10.8972C21.3847 8.98242 18.8351 7.07283 16.2803 5.15804C15.557 4.6117 14.4904 4.6117 13.7671 5.15804C11.1967 7.08844 8.61592 9.01884 6.04553 10.9544C5.95187 11.0065 5.85301 11.0377 5.74374 11.0429C5.41594 11.0689 5.09334 10.8296 5.02049 10.507C4.95285 10.2468 5.05691 9.95022 5.27025 9.78892C8.0956 7.6608 10.9314 5.53267 13.7619 3.40975C14.4852 2.86342 15.5518 2.86342 16.2751 3.40975C19.09 5.51186 21.8946 7.61917 24.7043 9.72648C24.9853 9.9242 25.0894 10.3144 24.9333 10.6162ZM23.8874 12.4842C21.3534 10.5798 18.8195 8.68583 16.2803 6.78665C15.557 6.24031 14.4904 6.24031 13.7671 6.78665C11.2175 8.69624 8.66796 10.611 6.12358 12.5258C6.12358 15.7518 6.12358 18.6812 6.12358 19.4357C6.12358 19.6282 6.10276 19.8156 6.09756 20.0081C6.07675 20.8406 6.43577 21.6731 7.05495 22.2351C7.58568 22.7242 8.29853 23.0051 9.02178 22.9999C10.1821 22.9427 11.3476 22.9947 12.5079 22.9687C12.6016 22.9687 13.7931 22.9739 15.0055 22.9739C16.2178 22.9687 17.4146 22.9687 17.503 22.9687C18.6634 22.9947 19.8289 22.9427 20.9892 22.9999C21.7125 23.0051 22.4253 22.7242 22.956 22.2351C23.5752 21.6731 23.9342 20.8406 23.9134 20.0081C23.9082 19.8156 23.8874 19.6282 23.8874 19.4357C23.8874 18.6604 23.8874 15.6998 23.8874 12.4842Z" fill="white"/>
</g>
<defs>
<filter id="filter0_d_1635_438" x="0" y="0.5" width="30.0059" height="30" filterUnits="userSpaceOnUse" color-interpolation-filters="sRGB">
<feFlood flood-opacity="0" result="BackgroundImageFix"/>
<feColorMatrix in="SourceAlpha" type="matrix" values="0 0 0 0 0 0 0 0 0 0 0 0 0 0 0 0 0 0 127 0" result="hardAlpha"/>
<feOffset dy="2.5"/>
<feGaussianBlur stdDeviation="2.5"/>
<feComposite in2="hardAlpha" operator="out"/>
<feColorMatrix type="matrix" values="0 0 0 0 0 0 0 0 0 0 0 0 0 0 0 0 0 0 0.15 0"/>
<feBlend mode="normal" in2="BackgroundImageFix" result="effect1_dropShadow_1635_438"/>
<feBlend mode="normal" in="SourceGraphic" in2="effect1_dropShadow_1635_438" result="shape"/>
</filter>
</defs>
</svg>
