<svg width="40" height="42" viewBox="0 0 40 42" fill="none" xmlns="http://www.w3.org/2000/svg">
<path d="M5 40C2.23858 40 0 37.7614 0 35V5C0 2.23858 2.23858 0 5 0H35C37.7614 0 40 2.23858 40 5V35C40 37.7614 37.7614 40 35 40H5Z" fill="#E0C180"/>
<g filter="url(#filter0_d_1635_1115)">
<path d="M26.2108 12.4622C25.4447 12.4622 24.8291 13.0778 24.8291 13.8302C24.8291 14.5963 25.4447 15.2119 26.2108 15.2119C26.9768 15.2119 27.5924 14.5963 27.5924 13.8302C27.5788 13.0778 26.9632 12.4622 26.2108 12.4622Z" fill="#040404"/>
<path d="M20.0958 14.2272C16.9084 14.2272 14.3229 16.8127 14.3229 20.0001C14.3229 23.1875 16.9084 25.773 20.0958 25.773C23.2832 25.773 25.8687 23.1875 25.8687 20.0001C25.8687 16.8264 23.2832 14.2272 20.0958 14.2272ZM20.0958 23.7074C18.0575 23.7074 16.4023 22.0521 16.4023 20.0138C16.4023 17.9755 18.0575 16.3202 20.0958 16.3202C22.1341 16.3202 23.7894 17.9755 23.7894 20.0138C23.7894 22.0521 22.1341 23.7074 20.0958 23.7074Z" fill="#040404"/>
<path d="M24.6786 31.7374H15.3215C11.4364 31.7374 8.27637 28.5773 8.27637 24.6922V15.3215C8.27637 11.4364 11.4364 8.27637 15.3215 8.27637H24.6786C28.5637 8.27637 31.7237 11.4364 31.7237 15.3215V24.6786C31.7237 28.5773 28.5637 31.7374 24.6786 31.7374ZM15.3215 10.4925C12.6539 10.4925 10.4788 12.6676 10.4788 15.3352V24.6922C10.4788 27.3598 12.6539 29.5349 15.3215 29.5349H24.6786C27.3461 29.5349 29.5212 27.3598 29.5212 24.6922V15.3215C29.5212 12.6539 27.3461 10.4788 24.6786 10.4788H15.3215V10.4925Z" fill="#040404"/>
</g>
<defs>
<filter id="filter0_d_1635_1115" x="3.27637" y="8.27637" width="33.4474" height="33.4609" filterUnits="userSpaceOnUse" color-interpolation-filters="sRGB">
<feFlood flood-opacity="0" result="BackgroundImageFix"/>
<feColorMatrix in="SourceAlpha" type="matrix" values="0 0 0 0 0 0 0 0 0 0 0 0 0 0 0 0 0 0 127 0" result="hardAlpha"/>
<feOffset dy="5"/>
<feGaussianBlur stdDeviation="2.5"/>
<feComposite in2="hardAlpha" operator="out"/>
<feColorMatrix type="matrix" values="0 0 0 0 0 0 0 0 0 0 0 0 0 0 0 0 0 0 0.15 0"/>
<feBlend mode="normal" in2="BackgroundImageFix" result="effect1_dropShadow_1635_1115"/>
<feBlend mode="normal" in="SourceGraphic" in2="effect1_dropShadow_1635_1115" result="shape"/>
</filter>
</defs>
</svg>
