<svg xmlns="http://www.w3.org/2000/svg" viewBox="0 0 38.23 24.53"><defs><style>.cls-1{fill:#c6aa94;}</style></defs><g id="레이어_2" data-name="레이어 2"><g id="Layer_1" data-name="Layer 1"><path class="cls-1" d="M12,6.76h0L10,2.24,8,6.76ZM7.21,8.47,6.12,11h-2L9,0h2l4.83,11h-2L12.7,8.47Z"/><rect class="cls-1" x="17.29" width="1.85" height="10.96"/><polygon class="cls-1" points="30.4 0 32.25 0 32.25 10.96 30.25 10.96 24.04 2.96 24.04 10.96 22.19 10.96 22.19 0 24.04 0 30.4 8.19 30.4 0"/><path class="cls-1" d="M5.71,22.72a3.78,3.78,0,0,0,1.64-.32,5.7,5.7,0,0,0,1.45-1L10,22.6a5.51,5.51,0,0,1-4.23,1.93,5.69,5.69,0,0,1-4.12-1.6A5.44,5.44,0,0,1,0,18.88,5.49,5.49,0,0,1,1.67,14.8a5.82,5.82,0,0,1,4.22-1.63,5.49,5.49,0,0,1,4.25,1.89L9,16.34a5.22,5.22,0,0,0-1.48-1.05A4.17,4.17,0,0,0,5.85,15a3.87,3.87,0,0,0-2.79,1.08,3.58,3.58,0,0,0-1.13,2.74A3.78,3.78,0,0,0,3.05,21.6a3.62,3.62,0,0,0,2.66,1.12"/><polygon class="cls-1" points="19.94 13.44 19.94 15.18 14.1 15.18 14.1 18.08 19.35 18.08 19.35 19.73 14.1 19.73 14.1 22.66 20.13 22.66 20.13 24.4 12.25 24.4 12.25 13.44 19.94 13.44"/><polygon class="cls-1" points="22.5 24.4 22.5 13.44 24.35 13.44 24.35 22.64 29.35 22.64 29.35 24.4 22.5 24.4"/><polygon class="cls-1" points="31.38 24.4 31.38 13.44 33.23 13.44 33.23 22.64 38.23 22.64 38.23 24.4 31.38 24.4"/></g></g></svg>