<svg width="1920" height="40" viewBox="0 0 1920 40" fill="none" xmlns="http://www.w3.org/2000/svg">
<path opacity="0.15" d="M1026.25 -26C1017.82 -0.0282879 979.198 9.03161 957.347 19.2995C936.005 29.2654 921.674 50.3045 923.097 71.2429C929.703 59.8677 942.916 48.6938 964.868 40.3386C1009.38 23.3261 1017.41 9.23294 1017.41 9.23294C1017.41 9.23294 1017.62 22.5208 967.104 45.8752C923.809 65.9076 929.805 91.1747 938.545 95C943.119 81.8128 955.518 72.9542 976.658 67.7196C1032.05 54.1298 1046.58 13.1589 1026.25 -26Z" fill="url(#paint0_linear_190_4912)"/>
<path opacity="0.15" d="M98.3403 -110.656C51.5985 -43.7986 64.0169 -24.6404 -11.9886 13.5251C32.7162 -12.929 44.4638 -32.9899 62.1218 -60.7911C68.3438 -70.5742 75.2607 -81.3167 84.6036 -93.6221C88.6782 -98.9887 93.204 -104.641 98.3403 -110.656ZM79.1821 207.559C39.5833 161.157 43.2554 113.571 -30.807 63.2368C48.5285 106.008 44.5522 151.877 79.1821 207.559ZM258.661 53.8887C147.019 45.4184 102.766 9.95438 -15.3591 41.1258C90.5134 -8.3187 185.845 44.1345 258.661 53.8887ZM31.7703 5.21376C110.241 -38.7129 80.3116 -56.646 117.75 -133C74.5608 -104.836 42.9141 -112.742 15.7235 -77.106C4.65627 -62.5736 1.12651 -47.3806 -1.81435 -32.9632C-6.32098 -11.013 -9.43755 9.15038 -35.6645 22.4292C-19.8727 23.7326 3.07647 15.8298 9.10405 14.8174C-11.6602 25.0041 -29.1731 35.938 -45.9317 53.4223C-49.1882 52.638 -51.4137 52.5693 -54 53.0198C-18.8495 77.6197 -25.9685 94.3195 -21.1105 123.171C-9.61749 178.356 16.3901 194.307 62.9661 213.432C74.9153 218.032 90.2053 228.732 103.433 238C90.2464 214.56 84.5611 193.372 81.459 161.987C76.8592 105.62 9.85829 64.7352 -40.8156 54.7575C14.6699 32.9422 73.2221 119.543 142.704 111.278C182.68 113.773 257.166 62.5645 306 57.8036C181.939 30.1751 189.449 -52.1556 31.7703 5.21376Z" fill="url(#paint1_linear_190_4912)"/>
<path opacity="0.15" d="M671.406 7.59192C702.68 29.9545 711.651 24.2498 729.486 60.1609C717.121 39.0131 707.736 33.3718 694.731 24.9074C690.155 21.925 685.129 18.6103 679.373 14.1472C676.863 12.2008 674.22 10.0407 671.406 7.59192ZM820.331 18.6212C798.599 36.9061 776.329 34.878 752.745 69.3103C772.792 32.3551 794.258 34.5149 820.331 18.6212ZM748.474 -66.5866C744.47 -14.2513 727.856 6.28773 742.403 61.9194C719.299 11.9205 743.883 -32.4788 748.474 -66.5866ZM725.612 39.5732C705.081 2.46852 696.677 16.3982 660.956 -1.65967C674.122 18.7881 670.41 33.5881 687.079 46.5759C693.876 51.8625 700.986 53.6162 707.732 55.0886C718.004 57.3441 727.439 58.9358 733.645 71.3282C734.261 63.926 730.57 53.1062 730.098 50.2712C734.859 60.0804 739.97 68.3686 748.147 76.3448C747.778 77.868 747.745 78.9119 747.955 80.1284C759.481 63.7912 767.295 67.2389 780.799 65.1441C806.631 60.1044 814.106 48.0023 823.074 26.2684C825.231 20.6905 830.244 13.5841 834.586 7.43605C823.611 13.474 813.693 16.0061 799.003 17.2607C772.62 19.058 753.461 50.2371 748.773 73.9526C738.583 47.7755 779.135 20.854 775.292 -11.8043C776.474 -30.5474 752.534 -65.8291 750.323 -88.7757C737.348 -30.7357 698.818 -34.787 725.612 39.5732Z" fill="url(#paint2_linear_190_4912)"/>
<path opacity="0.15" d="M1761.28 146.922C1809.79 79.8162 1797.61 60.4316 1875.15 22.421C1829.47 48.8156 1817.21 68.9648 1798.84 96.88C1792.36 106.703 1785.17 117.489 1775.49 129.836C1771.27 135.221 1766.59 140.89 1761.28 146.922ZM1786.7 -173.699C1825.84 -126.691 1821.22 -78.7497 1895.12 -27.5715C1815.75 -71.1587 1820.64 -117.367 1786.7 -173.699ZM1602.38 -19.8908C1715.05 -10.6817 1759.1 25.3295 1879.08 -5.37818C1771.14 43.8211 1675.79 -9.62119 1602.38 -19.8908ZM1830.77 30.5348C1750.62 74.3374 1780.53 92.5926 1741.24 169.326C1785.43 141.199 1817.26 149.358 1845.42 113.603C1856.88 99.0224 1860.74 83.7302 1863.98 69.2163C1868.96 47.1194 1872.49 26.8149 1899.25 13.5887C1883.31 12.18 1859.97 20.0073 1853.86 20.9915C1875.04 10.849 1892.95 -0.0662269 1910.22 -17.5882C1913.49 -16.7781 1915.74 -16.6954 1918.36 -17.1339C1883.31 -42.1402 1890.82 -58.9295 1886.46 -88.0386C1875.89 -143.73 1849.91 -159.964 1803.2 -179.521C1791.21 -184.229 1775.96 -195.105 1762.77 -204.527C1775.65 -180.822 1780.99 -159.432 1783.53 -127.78C1787.11 -70.9381 1854.05 -29.3263 1905.07 -18.9647C1848.58 2.68954 1791.05 -84.9492 1720.67 -77.0368C1680.31 -79.792 1604.06 -28.6263 1554.61 -24.1215C1679.47 4.47222 1670.32 87.4101 1830.77 30.5348Z" fill="url(#paint3_linear_190_4912)"/>
<defs>
<linearGradient id="paint0_linear_190_4912" x1="979.335" y1="-25.2912" x2="973.722" y2="93.9924" gradientUnits="userSpaceOnUse">
<stop stop-color="#316E00" stop-opacity="0.5"/>
<stop offset="1" stop-color="#6DCE30"/>
</linearGradient>
<linearGradient id="paint1_linear_190_4912" x1="127.076" y1="-130.827" x2="110.658" y2="234.983" gradientUnits="userSpaceOnUse">
<stop stop-color="#316E00"/>
<stop offset="1" stop-color="#6DCE30"/>
</linearGradient>
<linearGradient id="paint2_linear_190_4912" x1="689.174" y1="50.1983" x2="804.269" y2="-30.3684" gradientUnits="userSpaceOnUse">
<stop stop-color="#316E00" stop-opacity="0.5"/>
<stop offset="1" stop-color="#6DCE30"/>
</linearGradient>
<linearGradient id="paint3_linear_190_4912" x1="1853.24" y1="109.131" x2="1681.01" y2="-139.655" gradientUnits="userSpaceOnUse">
<stop stop-color="#316E00" stop-opacity="0.5"/>
<stop offset="1" stop-color="#6DCE30"/>
</linearGradient>
</defs>
</svg>
