<svg width="74" height="65" viewBox="0 0 74 65" fill="none" xmlns="http://www.w3.org/2000/svg">
<path d="M33.8589 1.83792L0.411123 59.8678C-0.797832 61.8827 0.814095 64.7036 3.23201 64.7036H70.1275C72.5454 64.7036 74.1574 62.2857 72.9484 59.8678L39.5007 1.83792C38.2917 -0.17701 35.0678 -0.17701 33.8589 1.83792Z" fill="#FBC93B"/>
<path d="M32.2468 53.42C32.2468 50.5991 34.2618 48.5842 37.0827 48.5842C39.9036 48.5842 41.9185 50.5991 41.9185 53.42C41.9185 55.8379 39.9036 58.2558 37.0827 58.2558C34.2618 58.2558 32.2468 55.8379 32.2468 53.42ZM37.0827 21.1812C39.9036 21.1812 41.9185 23.5991 41.5155 26.017L40.3065 44.9573H33.8588L32.6498 26.017C32.2469 23.1961 34.2618 21.1812 37.0827 21.1812Z" fill="#F6FCFF"/>
</svg>
