<svg width="68" height="70" viewBox="0 0 68 70" fill="none" xmlns="http://www.w3.org/2000/svg">
<path d="M33.0563 51.3851C32.8759 51.3851 32.6865 51.3824 32.504 51.3659C22.4351 51.1677 13.374 45.0524 9.40735 35.7731C8.04626 32.5687 7.35611 29.1764 7.35611 25.6881C7.35611 11.5237 18.8849 0 33.0556 0C47.2318 0 58.7647 11.5237 58.7647 25.6881C58.7647 29.1702 58.0753 32.5598 56.7149 35.7614C52.7558 45.0483 43.6905 51.1677 33.6086 51.3659C33.4261 51.383 33.2367 51.3851 33.0563 51.3851ZM33.0563 48.6422C33.1578 48.6422 33.2642 48.6456 33.365 48.6333C33.4103 48.6278 33.4563 48.6251 33.5022 48.6244C42.527 48.4673 50.6476 42.9966 54.1903 34.6869C55.4045 31.8274 56.0213 28.7993 56.0213 25.6874C56.0213 13.035 45.7191 2.74225 33.0563 2.74225C20.3983 2.74225 10.1009 13.0357 10.1009 25.6874C10.1009 28.8054 10.717 31.8363 11.9326 34.6979C15.4808 43 23.598 48.4673 32.6111 48.6244C32.657 48.6251 32.7023 48.6278 32.7483 48.6333C32.8498 48.6463 32.9561 48.6429 33.0563 48.6422Z" fill="#739E3C"/>
<path d="M25.4106 70C25.1067 70 24.8069 69.8992 24.5627 69.7065L14.1837 61.5491L1.28692 60.7488C0.850599 60.7214 0.453386 60.4889 0.217391 60.1207C-0.018605 59.7531 -0.065254 59.2944 0.0911618 58.8871L9.38898 34.7419C9.5893 34.2207 10.0867 33.8731 10.6451 33.8635C11.2042 33.8518 11.7119 34.1823 11.9314 34.6959C15.481 43.0008 23.5981 48.4681 32.6112 48.6251C33.0592 48.6327 33.4749 48.8583 33.7254 49.23C33.9758 49.6016 34.0286 50.0714 33.868 50.489L26.6914 69.1216C26.5343 69.5275 26.1948 69.8354 25.7749 69.9506C25.6548 69.9835 25.5327 70 25.4106 70ZM3.32444 58.1266L14.7805 58.8377C15.0584 58.8548 15.3245 58.9563 15.5434 59.1285L24.798 66.402L30.63 51.2597C22.3756 50.4896 14.9959 45.7471 10.8372 38.6162L3.32444 58.1266Z" fill="#739E3C"/>
<path d="M41.6412 69.9997C41.5197 69.9997 41.3969 69.984 41.2769 69.9504C40.857 69.8345 40.5174 69.5273 40.3603 69.1213L33.1837 50.4887C33.0232 50.0711 33.076 49.6007 33.3264 49.2297C33.5768 48.858 33.9926 48.6324 34.4405 48.6249C43.4537 48.4678 51.5708 43.0005 55.1197 34.6957C55.3392 34.1821 55.8311 33.8412 56.4067 33.8632C56.9651 33.8735 57.4618 34.2211 57.6628 34.7416L66.9606 58.8868C67.1177 59.2941 67.071 59.7529 66.8344 60.1204C66.5984 60.488 66.2012 60.7211 65.7648 60.7486L52.8681 61.5488L42.4891 69.7062C42.2449 69.8982 41.9451 69.9997 41.6412 69.9997ZM36.4218 51.2601L42.2538 66.4024L51.5084 59.1289C51.7272 58.9567 51.9934 58.8553 52.2712 58.8381L63.7273 58.127L56.2146 38.6167C52.0558 45.7476 44.6762 50.4894 36.4218 51.2601Z" fill="#739E3C"/>
<path d="M16.9789 56.0987C16.8032 56.0987 16.6242 56.0644 16.4513 55.9931C15.7522 55.7017 15.4216 54.8987 15.7124 54.1993L16.9548 51.2205C17.2464 50.5217 18.0497 50.1925 18.7495 50.4819C19.4492 50.7734 19.7799 51.5763 19.4884 52.2758L18.2459 55.2546C18.0264 55.7812 17.5167 56.0987 16.9789 56.0987Z" fill="#739E3C"/>
<path d="M50.0734 56.0987C49.5356 56.0987 49.0259 55.7812 48.8063 55.2546L47.5646 52.2758C47.273 51.5763 47.6037 50.774 48.3035 50.4826C49.0032 50.1918 49.8059 50.5217 50.0974 51.2211L51.3392 54.1999C51.6307 54.8987 51.3001 55.7017 50.6003 55.9931C50.4274 56.0644 50.2491 56.0987 50.0734 56.0987Z" fill="#739E3C"/>
<path d="M41.4495 40.7817C40.983 40.7817 40.533 40.6692 40.1124 40.4484L33.0614 36.7434L26.0103 40.4484C24.8317 41.0683 23.3232 40.7618 22.4718 39.7531C21.9285 39.1085 21.6986 38.2589 21.8427 37.4216L23.1894 29.5741L17.485 24.0163C16.6961 23.2476 16.4175 22.1196 16.7578 21.0725C17.0981 20.0254 17.9865 19.2765 19.0766 19.1181L26.9598 17.973L30.4853 10.8325C30.9731 9.84502 31.9603 9.23199 33.0614 9.23199C34.1625 9.23199 35.1497 9.84572 35.6375 10.8332L39.163 17.9736L47.0469 19.1188C48.137 19.2772 49.0254 20.026 49.3657 21.0732C49.7059 22.1203 49.4274 23.2483 48.6385 24.0163L42.9341 29.5741L44.2808 37.4223C44.4242 38.2589 44.195 39.1085 43.6517 39.7531C43.1001 40.4066 42.2975 40.7817 41.4495 40.7817ZM33.0614 33.8222C33.2809 33.8222 33.4998 33.875 33.7001 33.9799L41.4495 38.0387C41.4838 38.0387 41.5264 38.0161 41.5531 37.9846C41.5778 37.9551 41.5833 37.9297 41.5758 37.8851L40.107 29.3259C40.0308 28.8815 40.1783 28.4269 40.5014 28.1121L46.7224 22.051C46.7423 22.0318 46.7793 21.9948 46.7546 21.9193C46.7299 21.8432 46.6785 21.8357 46.651 21.8316L38.0537 20.5829C37.6071 20.5184 37.2208 20.2379 37.0205 19.8327L33.1753 12.0455C33.1629 12.0202 33.1396 11.9735 33.06 11.9735C32.9798 11.9735 32.9571 12.0202 32.9441 12.0455L29.0989 19.8327C28.8985 20.2372 28.513 20.5184 28.0657 20.5829L19.4683 21.8316C19.4409 21.8357 19.3894 21.8432 19.3647 21.9193C19.34 21.9954 19.3771 22.0318 19.397 22.051L25.6179 28.1121C25.9411 28.4276 26.0886 28.8815 26.0124 29.3259L24.5436 37.8845C24.5361 37.929 24.5422 37.9558 24.5662 37.9846C24.593 38.0161 24.6355 38.0387 24.6698 38.0387L32.42 33.9799C32.623 33.875 32.8419 33.8222 33.0614 33.8222Z" fill="#739E3C"/>
</svg>
