<svg width="168" height="60" viewBox="0 0 168 60" fill="none" xmlns="http://www.w3.org/2000/svg">
<g opacity="0.1">
<path d="M162 57C162 55.3431 163.343 54 165 54C166.657 54 168 55.3431 168 57C168 58.6568 166.657 60 165 60C163.343 60 162 58.6568 162 57Z" fill="#242529"/>
<path d="M144 57C144 55.3431 145.343 54 147 54C148.657 54 150 55.3431 150 57C150 58.6568 148.657 60 147 60C145.343 60 144 58.6568 144 57Z" fill="#242529"/>
<path d="M126 57C126 55.3431 127.343 54 129 54C130.657 54 132 55.3431 132 57C132 58.6568 130.657 60 129 60C127.343 60 126 58.6568 126 57Z" fill="#242529"/>
<path d="M108 57C108 55.3431 109.343 54 111 54C112.657 54 114 55.3431 114 57C114 58.6568 112.657 60 111 60C109.343 60 108 58.6568 108 57Z" fill="#242529"/>
<path d="M90 57C90 55.3431 91.3431 54 93 54C94.6568 54 96 55.3431 96 57C96 58.6568 94.6568 60 93 60C91.3431 60 90 58.6568 90 57Z" fill="#242529"/>
<path d="M72 57C72 55.3431 73.3431 54 75 54C76.6568 54 78 55.3431 78 57C78 58.6568 76.6568 60 75 60C73.3431 60 72 58.6568 72 57Z" fill="#242529"/>
<path d="M54 57C54 55.3431 55.3431 54 57 54C58.6568 54 60 55.3431 60 57C60 58.6568 58.6568 60 57 60C55.3431 60 54 58.6568 54 57Z" fill="#242529"/>
<path d="M36 57C36 55.3431 37.3431 54 39 54C40.6568 54 42 55.3431 42 57C42 58.6568 40.6568 60 39 60C37.3431 60 36 58.6568 36 57Z" fill="#242529"/>
<path d="M18 57C18 55.3432 19.3431 54 21 54C22.6569 54 24 55.3431 24 57C24 58.6569 22.6569 60 21 60C19.3431 60 18 58.6569 18 57Z" fill="#242529"/>
<path d="M4.72083e-06 57C4.57598e-06 55.3431 1.34315 54 3 54C4.65686 54 6 55.3432 6 57C6 58.6569 4.65686 60 3 60C1.34315 60 4.86567e-06 58.6569 4.72083e-06 57Z" fill="#242529"/>
<path d="M162 39C162 37.3431 163.343 36 165 36C166.657 36 168 37.3431 168 39C168 40.6568 166.657 42 165 42C163.343 42 162 40.6568 162 39Z" fill="#242529"/>
<path d="M144 39C144 37.3431 145.343 36 147 36C148.657 36 150 37.3431 150 39C150 40.6568 148.657 42 147 42C145.343 42 144 40.6568 144 39Z" fill="#242529"/>
<path d="M126 39C126 37.3431 127.343 36 129 36C130.657 36 132 37.3431 132 39C132 40.6569 130.657 42 129 42C127.343 42 126 40.6569 126 39Z" fill="#242529"/>
<path d="M108 39C108 37.3431 109.343 36 111 36C112.657 36 114 37.3431 114 39C114 40.6569 112.657 42 111 42C109.343 42 108 40.6569 108 39Z" fill="#242529"/>
<path d="M90 39C90 37.3431 91.3431 36 93 36C94.6568 36 96 37.3431 96 39C96 40.6569 94.6568 42 93 42C91.3431 42 90 40.6569 90 39Z" fill="#242529"/>
<path d="M72 39C72 37.3431 73.3431 36 75 36C76.6568 36 78 37.3431 78 39C78 40.6569 76.6568 42 75 42C73.3431 42 72 40.6569 72 39Z" fill="#242529"/>
<path d="M54 39C54 37.3431 55.3431 36 57 36C58.6568 36 60 37.3431 60 39C60 40.6569 58.6568 42 57 42C55.3431 42 54 40.6569 54 39Z" fill="#242529"/>
<path d="M36 39C36 37.3431 37.3431 36 39 36C40.6568 36 42 37.3431 42 39C42 40.6569 40.6568 42 39 42C37.3431 42 36 40.6569 36 39Z" fill="#242529"/>
<path d="M18 39C18 37.3432 19.3431 36 21 36C22.6569 36 24 37.3432 24 39C24 40.6569 22.6569 42 21 42C19.3431 42 18 40.6569 18 39Z" fill="#242529"/>
<path d="M3.14722e-06 39C3.00237e-06 37.3432 1.34315 36 3 36C4.65686 36 6 37.3432 6 39C6 40.6569 4.65686 42 3 42C1.34315 42 3.29207e-06 40.6569 3.14722e-06 39Z" fill="#242529"/>
<path d="M162 21C162 19.3431 163.343 18 165 18C166.657 18 168 19.3431 168 21C168 22.6568 166.657 24 165 24C163.343 24 162 22.6568 162 21Z" fill="#242529"/>
<path d="M144 21C144 19.3431 145.343 18 147 18C148.657 18 150 19.3431 150 21C150 22.6569 148.657 24 147 24C145.343 24 144 22.6569 144 21Z" fill="#242529"/>
<path d="M126 21C126 19.3431 127.343 18 129 18C130.657 18 132 19.3431 132 21C132 22.6569 130.657 24 129 24C127.343 24 126 22.6569 126 21Z" fill="#242529"/>
<path d="M108 21C108 19.3431 109.343 18 111 18C112.657 18 114 19.3431 114 21C114 22.6569 112.657 24 111 24C109.343 24 108 22.6569 108 21Z" fill="#242529"/>
<path d="M90 21C90 19.3431 91.3431 18 93 18C94.6568 18 96 19.3431 96 21C96 22.6569 94.6568 24 93 24C91.3431 24 90 22.6569 90 21Z" fill="#242529"/>
<path d="M72 21C72 19.3432 73.3431 18 75 18C76.6568 18 78 19.3431 78 21C78 22.6569 76.6568 24 75 24C73.3431 24 72 22.6569 72 21Z" fill="#242529"/>
<path d="M54 21C54 19.3432 55.3431 18 57 18C58.6568 18 60 19.3432 60 21C60 22.6569 58.6568 24 57 24C55.3431 24 54 22.6569 54 21Z" fill="#242529"/>
<path d="M36 21C36 19.3432 37.3431 18 39 18C40.6568 18 42 19.3432 42 21C42 22.6569 40.6568 24 39 24C37.3431 24 36 22.6569 36 21Z" fill="#242529"/>
<path d="M18 21C18 19.3432 19.3431 18 21 18C22.6569 18 24 19.3432 24 21C24 22.6569 22.6569 24 21 24C19.3431 24 18 22.6569 18 21Z" fill="#242529"/>
<path d="M1.57361e-06 21C1.42876e-06 19.3432 1.34315 18 3 18C4.65685 18 6 19.3432 6 21C6 22.6569 4.65685 24 3 24C1.34315 24 1.71846e-06 22.6569 1.57361e-06 21Z" fill="#242529"/>
<path d="M162 3C162 1.34315 163.343 1.44847e-07 165 0C166.657 -1.44847e-07 168 1.34315 168 3C168 4.65685 166.657 6 165 6C163.343 6 162 4.65685 162 3Z" fill="#242529"/>
<path d="M144 3C144 1.34315 145.343 9.31652e-07 147 7.86806e-07C148.657 6.41959e-07 150 1.34315 150 3C150 4.65685 148.657 6 147 6C145.343 6 144 4.65686 144 3Z" fill="#242529"/>
<path d="M126 3C126 1.34315 127.343 1.71846e-06 129 1.57361e-06C130.657 1.42876e-06 132 1.34315 132 3C132 4.65686 130.657 6 129 6C127.343 6 126 4.65686 126 3Z" fill="#242529"/>
<path d="M108 3C108 1.34315 109.343 2.50526e-06 111 2.36042e-06C112.657 2.21557e-06 114 1.34315 114 3C114 4.65686 112.657 6 111 6C109.343 6 108 4.65686 108 3Z" fill="#242529"/>
<path d="M90 3C90 1.34315 91.3431 3.29207e-06 93 3.14722e-06C94.6568 3.00237e-06 96 1.34315 96 3C96 4.65686 94.6568 6 93 6C91.3431 6 90 4.65686 90 3Z" fill="#242529"/>
<path d="M72 3C72 1.34315 73.3431 9.80092e-06 75 9.65607e-06C76.6568 9.51123e-06 78 1.34315 78 3C78 4.65686 76.6568 6 75 6C73.3431 6 72 4.65686 72 3Z" fill="#242529"/>
<path d="M54 3.00001C54 1.34316 55.3431 1.05877e-05 57 1.04429e-05C58.6568 1.0298e-05 60 1.34316 60 3.00001C60 4.65686 58.6568 6.00001 57 6.00001C55.3431 6.00001 54 4.65686 54 3.00001Z" fill="#242529"/>
<path d="M36 3.00001C36 1.34316 37.3431 1.13745e-05 39 1.12297e-05C40.6568 1.10848e-05 42 1.34316 42 3.00001C42 4.65687 40.6568 6.00001 39 6.00001C37.3431 6.00001 36 4.65687 36 3.00001Z" fill="#242529"/>
<path d="M18 3.00001C18 1.34316 19.3431 1.21613e-05 21 1.20165e-05C22.6568 1.18716e-05 24 1.34316 24 3.00001C24 4.65687 22.6568 6.00001 21 6.00001C19.3431 6.00001 18 4.65687 18 3.00001Z" fill="#242529"/>
<path d="M0 3.00001C-1.44847e-07 1.34316 1.34315 1.29481e-05 3 1.28033e-05C4.65685 1.26584e-05 6 1.34316 6 3.00001C6 4.65687 4.65685 6.00001 3 6.00001C1.34315 6.00001 1.44847e-07 4.65687 0 3.00001Z" fill="#242529"/>
</g>
</svg>
