<svg width="47" height="50" viewBox="0 0 47 50" fill="none" xmlns="http://www.w3.org/2000/svg">
<path d="M22.9752 36.7702C20.2237 36.7702 17.9854 34.5318 17.9854 31.7804C17.9854 29.0289 20.2237 26.7905 22.9752 26.7905C25.7266 26.7905 27.965 29.0289 27.965 31.7804C27.965 34.5318 25.7265 36.7702 22.9752 36.7702ZM22.9752 28.3031C21.0579 28.3031 19.498 29.8631 19.498 31.7804C19.498 33.6977 21.0579 35.2576 22.9752 35.2576C24.8926 35.2576 26.4524 33.6977 26.4524 31.7804C26.4524 29.8631 24.8925 28.3031 22.9752 28.3031Z" fill="#242529"/>
<path d="M17.2373 50.0002C17.2258 50.0002 17.2143 50 17.2028 49.9994C16.7855 49.9807 16.4624 49.6273 16.4812 49.21L16.7645 42.8987L12.7736 43.3722C11.6972 43.4998 10.6182 43.4308 9.56688 43.1669L1.90466 41.2434C0.631435 40.9108 -0.170954 39.6863 0.0310306 38.3934C0.139637 37.6982 0.518399 37.0953 1.09763 36.6957C1.67485 36.2974 2.37014 36.1573 3.05637 36.2997L9.88906 37.6162C10.944 37.8195 12.0518 37.7871 13.0927 37.5229L18.5596 36.1357C18.9647 36.033 19.376 36.2779 19.4787 36.6828C19.5814 37.0877 19.3365 37.4992 18.9316 37.6019L13.4647 38.989C12.2097 39.3075 10.8743 39.3463 9.60289 39.1014L2.76413 37.7839C2.7598 37.7831 2.75546 37.7822 2.75112 37.7814C2.4727 37.7226 2.19064 37.7793 1.95659 37.9408C1.72254 38.1023 1.56936 38.346 1.52549 38.6269C1.44381 39.1496 1.76812 39.6445 2.27989 39.7781L9.93515 41.6999C10.8072 41.9189 11.7022 41.9761 12.5953 41.8701L17.4708 41.2917C17.6914 41.2661 17.9121 41.3376 18.0748 41.4887C18.2374 41.6399 18.3254 41.8548 18.3155 42.0767L17.9921 49.2778C17.974 49.6836 17.6393 50.0002 17.2373 50.0002Z" fill="#242529"/>
<path d="M28.9964 50.0002C28.5943 50.0002 28.2596 49.6836 28.2414 49.2779L27.918 42.0767C27.908 41.8549 27.996 41.6399 28.1587 41.4887C28.3213 41.3377 28.5422 41.2663 28.7626 41.2917L33.6381 41.8701C34.5312 41.9761 35.4261 41.9187 36.2983 41.6999L43.9605 39.7764C44.4652 39.6445 44.7896 39.1496 44.7079 38.6271C44.6641 38.3461 44.5109 38.1025 44.2768 37.9409C44.0428 37.7794 43.7606 37.7227 43.4823 37.7815C43.478 37.7824 43.4736 37.7833 43.4693 37.784L36.6306 39.1015C35.359 39.3466 34.0237 39.3076 32.7688 38.9892L27.3019 37.602C26.8971 37.4992 26.6521 37.0877 26.7549 36.6829C26.8575 36.2781 27.2688 36.0327 27.6739 36.1359L33.1408 37.523C34.1818 37.7872 35.2897 37.8194 36.3446 37.6163L43.1773 36.2998C43.8637 36.1573 44.5589 36.2977 45.136 36.6958C45.7152 37.0955 46.094 37.6983 46.2026 38.3936C46.4047 39.6864 45.6022 40.9109 44.336 41.2417L36.6667 43.167C35.6156 43.4309 34.5367 43.4999 33.46 43.3723L29.4691 42.8988L29.7526 49.21C29.7713 49.6274 29.4482 49.9809 29.031 49.9995C29.0194 50 29.0078 50.0002 28.9964 50.0002Z" fill="#242529"/>
<path d="M22.9389 39.7817C22.5212 39.7817 22.1826 39.4432 22.1826 39.0254V38.622C22.1826 38.2043 22.5212 37.8657 22.9389 37.8657C23.3566 37.8657 23.6952 38.2043 23.6952 38.622V39.0254C23.6952 39.4432 23.3566 39.7817 22.9389 39.7817Z" fill="#242529"/>
<path d="M22.9389 49.9667C22.5212 49.9667 22.1826 49.6281 22.1826 49.2103V41.143C22.1826 40.7252 22.5212 40.3867 22.9389 40.3867C23.3566 40.3867 23.6952 40.7252 23.6952 41.143V49.2103C23.6952 49.6281 23.3566 49.9667 22.9389 49.9667Z" fill="#242529"/>
<path d="M22.8897 25.611C22.6694 25.611 22.46 25.515 22.3163 25.348L19.232 21.7627H10.1291C6.0306 21.7627 2.69629 18.4283 2.69629 14.3298V7.43291C2.69629 3.33431 6.0306 0 10.1291 0H36.1031C40.2015 0 43.5359 3.33431 43.5359 7.43291V14.3298C43.5359 18.4283 40.2015 21.7627 36.1031 21.7627H26.5474L23.4631 25.348C23.3194 25.515 23.11 25.611 22.8897 25.611ZM10.1291 1.51262C6.86466 1.51262 4.20891 4.16847 4.20891 7.43291V14.3298C4.20891 17.5942 6.86466 20.25 10.1291 20.25H19.579C19.7994 20.25 20.0087 20.346 20.1524 20.513L22.8897 23.695L25.6271 20.513C25.7708 20.346 25.9801 20.25 26.2005 20.25H36.1031C39.3676 20.25 42.0233 17.5942 42.0233 14.3298V7.43291C42.0233 4.16847 39.3676 1.51262 36.1031 1.51262H10.1291Z" fill="#242529"/>
<path d="M10.352 18.0001C9.93433 18.0001 9.5957 17.6616 9.5957 17.2438V14.8295C9.5957 14.4118 9.93433 14.0732 10.352 14.0732C10.7697 14.0732 11.1083 14.4118 11.1083 14.8295V17.2438C11.1083 17.6616 10.7697 18.0001 10.352 18.0001Z" fill="#242529"/>
<path d="M13.1762 18.0003C12.7585 18.0003 12.4199 17.6617 12.4199 17.244V13.7324C12.4199 13.3146 12.7585 12.9761 13.1762 12.9761C13.5939 12.9761 13.9325 13.3146 13.9325 13.7324V17.244C13.9325 17.6617 13.5939 18.0003 13.1762 18.0003Z" fill="#242529"/>
<path d="M15.9985 17.9998C15.5808 17.9998 15.2422 17.6613 15.2422 17.2435V11.5371C15.2422 11.1193 15.5808 10.7808 15.9985 10.7808C16.4162 10.7808 16.7548 11.1193 16.7548 11.5371V17.2435C16.7548 17.6613 16.4162 17.9998 15.9985 17.9998Z" fill="#242529"/>
<path d="M18.8227 18.0003C18.405 18.0003 18.0664 17.6617 18.0664 17.2439V9.34273C18.0664 8.92495 18.405 8.58643 18.8227 8.58643C19.2404 8.58643 19.579 8.92495 19.579 9.34273V17.2439C19.579 17.6617 19.2404 18.0003 18.8227 18.0003Z" fill="#242529"/>
<path d="M21.646 17.9998C21.2283 17.9998 20.8896 17.6613 20.8896 17.2435V11.5371C20.8896 11.1193 21.2283 10.7808 21.646 10.7808C22.0636 10.7808 22.4023 11.1193 22.4023 11.5371V17.2435C22.4023 17.6613 22.0636 17.9998 21.646 17.9998Z" fill="#242529"/>
<path d="M24.4692 18.0003C24.0515 18.0003 23.7129 17.6617 23.7129 17.2439V9.34273C23.7129 8.92495 24.0515 8.58643 24.4692 8.58643C24.8869 8.58643 25.2255 8.92495 25.2255 9.34273V17.2439C25.2255 17.6617 24.8869 18.0003 24.4692 18.0003Z" fill="#242529"/>
<path d="M27.2934 18.0002C26.8757 18.0002 26.5371 17.6617 26.5371 17.2439V11.0986C26.5371 10.6808 26.8757 10.3423 27.2934 10.3423C27.7111 10.3423 28.0497 10.6808 28.0497 11.0986V17.2439C28.0497 17.6617 27.7111 18.0002 27.2934 18.0002Z" fill="#242529"/>
<path d="M30.1167 18.0008C29.699 18.0008 29.3604 17.6623 29.3604 17.2445V7.69722C29.3604 7.27944 29.699 6.94092 30.1167 6.94092C30.5343 6.94092 30.873 7.27944 30.873 7.69722V17.2445C30.873 17.6623 30.5343 18.0008 30.1167 18.0008Z" fill="#242529"/>
<path d="M32.9409 17.9999C32.5232 17.9999 32.1846 17.6614 32.1846 17.2436V6.05025C32.1846 5.63247 32.5232 5.29395 32.9409 5.29395C33.3586 5.29395 33.6972 5.63247 33.6972 6.05025V17.2436C33.6972 17.6614 33.3586 17.9999 32.9409 17.9999Z" fill="#242529"/>
<path d="M35.7631 18.0002C35.3455 18.0002 35.0068 17.6617 35.0068 17.2439V4.18502C35.0068 3.76723 35.3455 3.42871 35.7631 3.42871C36.1808 3.42871 36.5194 3.76723 36.5194 4.18502V17.2439C36.5194 17.6617 36.1808 18.0002 35.7631 18.0002Z" fill="#242529"/>
</svg>
