<svg width="52" height="51" viewBox="0 0 52 51" fill="none" xmlns="http://www.w3.org/2000/svg">
<path d="M20.5212 50.7281C20.006 50.7281 19.491 50.6799 18.9793 50.5831C18.9643 50.5803 18.9495 50.577 18.9346 50.5733L0.612228 46.0236C0.180062 45.9163 -0.083323 45.4789 0.0240733 45.0468C0.131362 44.6146 0.568687 44.3511 1.00085 44.4586L19.3005 49.0028C20.1141 49.1537 20.9386 49.1531 21.7519 49.0009C25.7345 48.2552 35.2488 46.4861 37.5773 46.1651C37.9128 46.1188 38.2333 46.0127 38.5301 45.8496L49.3237 38.9636C49.3442 38.9504 49.3653 38.9383 49.3869 38.9271C50.0026 38.6087 50.272 37.8608 49.9878 37.2599C49.8408 36.9493 49.5811 36.7178 49.2566 36.6082C48.9319 36.4985 48.5854 36.5247 48.2812 36.6819L37.6149 42.2852C37.6054 42.2903 37.5957 42.2951 37.5859 42.2997C37.3113 42.4301 37.0228 42.4673 36.9128 42.4772C36.7848 42.4925 36.6165 42.5058 36.428 42.4865L24.2116 41.2919C22.9872 41.1642 22.0988 40.0687 22.2258 38.8496C22.3527 37.6312 23.448 36.7421 24.667 36.8688L28.8732 37.3075L32.6802 37.693C33.1318 37.7387 33.5717 37.6022 33.9185 37.3089C34.2649 37.0157 34.4721 36.604 34.5018 36.1495C34.5595 35.2704 33.8657 34.4801 32.9555 34.388L22.6937 33.3488C22.5056 33.3298 22.3145 33.344 22.1255 33.3913C22.0913 33.3998 22.0567 33.4061 22.0216 33.4101C20.4378 33.5914 15.5561 36.516 12.9337 38.0872C12.102 38.5855 11.3838 39.0158 10.8836 39.2971C10.6809 39.4113 10.4388 39.4323 10.2195 39.3547L0.537833 35.9332C0.118031 35.7849 -0.102133 35.3242 0.04633 34.9044C0.194578 34.4846 0.655017 34.2645 1.07514 34.4129L10.4085 37.7112C10.8626 37.4482 11.448 37.0975 12.1048 36.7038C16.1765 34.2645 19.9799 32.0559 21.7849 31.8147C22.1391 31.7318 22.4993 31.7083 22.8563 31.7445L33.1178 32.7836C34.8819 32.9622 36.2246 34.5193 36.1109 36.2549C36.0523 37.15 35.6435 37.9614 34.96 38.5397C34.2762 39.1183 33.4084 39.3871 32.5177 39.2972L28.7082 38.9115L24.5001 38.4727C24.1651 38.4381 23.8642 38.682 23.8294 39.0168C23.7945 39.3517 24.0386 39.6526 24.3735 39.6875L36.5896 40.882C36.6347 40.8868 36.7079 40.8776 36.732 40.8748C36.7347 40.8744 36.7373 40.8741 36.74 40.8738C36.7502 40.8726 36.7604 40.8716 36.7706 40.8709C36.8031 40.8677 36.8608 40.8554 36.8881 40.8453L47.5356 35.2519C48.2366 34.8894 49.0295 34.8293 49.7724 35.0804C50.5152 35.3314 51.1091 35.8605 51.445 36.5703C52.1018 37.9587 51.5382 39.6071 50.1621 40.3412L39.3761 47.2224C39.3629 47.2308 39.3496 47.2388 39.3361 47.2463C38.8577 47.514 38.3399 47.6876 37.7971 47.7625C35.5033 48.0788 26.0193 49.8424 22.0482 50.5859C21.5419 50.6807 21.0315 50.7281 20.5212 50.7281Z" fill="#242529"/>
<path d="M37.7318 38.0713C37.4332 38.0713 37.1462 37.9047 37.0065 37.6182C36.8114 37.218 36.9777 36.7353 37.3779 36.5402L42.7977 33.898C43.7816 33.4183 44.9763 33.6552 45.7027 34.4742C45.9982 34.8073 45.9677 35.3169 45.6345 35.6124C45.3014 35.908 44.7918 35.8773 44.4963 35.5443C44.2481 35.2645 43.8401 35.1836 43.5042 35.3475L38.0845 37.9896C37.9708 38.0451 37.8504 38.0713 37.7318 38.0713Z" fill="#242529"/>
<path d="M34.8666 35.2965C34.5668 35.2965 34.279 35.1286 34.1399 34.8405C33.9464 34.4395 34.1145 33.9574 34.5156 33.7639L37.7042 32.225C38.6853 31.7469 39.8798 31.9837 40.6063 32.8024C40.9018 33.1356 40.8713 33.6452 40.5382 33.9407C40.2051 34.2363 39.6955 34.2057 39.4 33.8726C39.1519 33.5929 38.7439 33.5121 38.4079 33.6759L35.2164 35.2162C35.1036 35.2706 34.9841 35.2964 34.8666 35.2965Z" fill="#242529"/>
<path d="M11.9782 34.6544C11.5329 34.6544 11.1719 34.2934 11.1719 33.8481V18.4323C11.1719 17.987 11.5329 17.626 11.9782 17.626H40.4654C40.9107 17.626 41.2717 17.987 41.2717 18.4323V29.9779C41.2717 30.4232 40.9107 30.7842 40.4654 30.7842C40.0201 30.7842 39.6591 30.4232 39.6591 29.9779V19.2385H12.7844V33.8481C12.7844 34.2934 12.4234 34.6544 11.9782 34.6544Z" fill="#242529"/>
<path d="M42.1851 19.2384H10.2565C9.81119 19.2384 9.4502 18.8774 9.4502 18.4321V10.4977C9.4502 10.0524 9.81119 9.69141 10.2565 9.69141H42.1851C42.6304 9.69141 42.9914 10.0524 42.9914 10.4977V18.4321C42.9914 18.8774 42.6304 19.2384 42.1851 19.2384ZM11.0628 17.6258H41.3788V11.304H11.0628V17.6258Z" fill="#242529"/>
<path d="M30.5221 19.2384H21.9186C21.4733 19.2384 21.1123 18.8774 21.1123 18.4321V10.4977C21.1123 10.0524 21.4733 9.69141 21.9186 9.69141H30.5221C30.9674 9.69141 31.3284 10.0524 31.3284 10.4977V18.4321C31.3284 18.8774 30.9674 19.2384 30.5221 19.2384ZM22.7249 17.6258H29.7158V11.304H22.7249V17.6258Z" fill="#242529"/>
<path d="M29.8059 31.1067C29.3606 31.1067 28.9996 30.7457 28.9996 30.3005V19.2385H23.4426V29.5479C23.4426 29.9932 23.0816 30.3542 22.6364 30.3542C22.1911 30.3542 21.8301 29.9932 21.8301 29.5479V18.4323C21.8301 17.987 22.1911 17.626 22.6364 17.626H29.8059C30.2512 17.626 30.6122 17.987 30.6122 18.4323V30.3005C30.6122 30.7457 30.2512 31.1067 29.8059 31.1067Z" fill="#242529"/>
<path d="M48.3932 5.84799C47.9775 5.84799 47.6406 5.51107 47.6406 5.09546V4.39217C47.6406 3.97657 47.9775 3.63965 48.3932 3.63965C48.8088 3.63965 49.1457 3.97657 49.1457 4.39217V5.09546C49.1457 5.51107 48.8088 5.84799 48.3932 5.84799Z" fill="#242529"/>
<path d="M48.3932 10.6703C47.9775 10.6703 47.6406 10.3333 47.6406 9.91773V9.21444C47.6406 8.79883 47.9775 8.46191 48.3932 8.46191C48.8088 8.46191 49.1457 8.79883 49.1457 9.21444V9.91773C49.1457 10.3333 48.8088 10.6703 48.3932 10.6703Z" fill="#242529"/>
<path d="M46.3338 7.9074H45.6305C45.2148 7.9074 44.8779 7.57048 44.8779 7.15487C44.8779 6.73926 45.2148 6.40234 45.6305 6.40234H46.3338C46.7494 6.40234 47.0863 6.73926 47.0863 7.15487C47.0863 7.57048 46.7494 7.9074 46.3338 7.9074Z" fill="#242529"/>
<path d="M51.156 7.9074H50.4527C50.0371 7.9074 49.7002 7.57048 49.7002 7.15487C49.7002 6.73926 50.0371 6.40234 50.4527 6.40234H51.156C51.5716 6.40234 51.9085 6.73926 51.9085 7.15487C51.9085 7.57048 51.5716 7.9074 51.156 7.9074Z" fill="#242529"/>
<path d="M5.30136 3.37339C4.88575 3.37339 4.54883 3.03647 4.54883 2.62086V1.91757C4.54883 1.50196 4.88575 1.16504 5.30136 1.16504C5.71697 1.16504 6.05389 1.50196 6.05389 1.91757V2.62086C6.05389 3.03647 5.71697 3.37339 5.30136 3.37339Z" fill="#242529"/>
<path d="M5.30136 8.19565C4.88575 8.19565 4.54883 7.85873 4.54883 7.44312V6.73983C4.54883 6.32422 4.88575 5.9873 5.30136 5.9873C5.71697 5.9873 6.05389 6.32422 6.05389 6.73983V7.44312C6.05389 7.85884 5.71697 8.19565 5.30136 8.19565Z" fill="#242529"/>
<path d="M3.24195 5.43279H2.53866C2.12305 5.43279 1.78613 5.09587 1.78613 4.68026C1.78613 4.26465 2.12305 3.92773 2.53866 3.92773H3.24195C3.65756 3.92773 3.99447 4.26465 3.99447 4.68026C3.99447 5.09598 3.65756 5.43279 3.24195 5.43279Z" fill="#242529"/>
<path d="M8.06423 5.43279H7.36093C6.94532 5.43279 6.6084 5.09587 6.6084 4.68026C6.6084 4.26465 6.94532 3.92773 7.36093 3.92773H8.06423C8.47984 3.92773 8.81676 4.26465 8.81676 4.68026C8.81676 5.09598 8.47984 5.43279 8.06423 5.43279Z" fill="#242529"/>
<path d="M41.9604 2.74217C42.5168 2.74217 42.9677 2.29118 42.9677 1.73485C42.9677 1.17853 42.5168 0.727539 41.9604 0.727539C41.4041 0.727539 40.9531 1.17853 40.9531 1.73485C40.9531 2.29118 41.4041 2.74217 41.9604 2.74217Z" fill="#242529"/>
<path d="M2.91552 16.0776C3.47184 16.0776 3.92283 15.6266 3.92283 15.0703C3.92283 14.514 3.47184 14.063 2.91552 14.063C2.35919 14.063 1.9082 14.514 1.9082 15.0703C1.9082 15.6266 2.35919 16.0776 2.91552 16.0776Z" fill="#242529"/>
<path d="M46.9663 24.3745C47.5226 24.3745 47.9736 23.9235 47.9736 23.3672C47.9736 22.8109 47.5226 22.3599 46.9663 22.3599C46.41 22.3599 45.959 22.8109 45.959 23.3672C45.959 23.9235 46.41 24.3745 46.9663 24.3745Z" fill="#242529"/>
</svg>
