<svg width="52" height="50" viewBox="0 0 52 50" fill="none" xmlns="http://www.w3.org/2000/svg">
<path d="M33.0254 0.818195C33.7796 0.0873095 34.962 -0.225493 35.952 0.177405C36.6687 0.445666 37.1242 1.09253 37.6436 1.6169C38.3623 2.36399 39.0426 3.14852 39.7886 3.86726C42.5542 3.06653 45.3027 2.20404 48.0612 1.37901C48.2738 1.32637 48.5127 1.26665 48.7222 1.3699C48.9824 1.5015 49.1778 1.72522 49.3823 1.92667C49.7963 2.3569 50.2285 2.76992 50.6487 3.19408C50.8663 3.41375 51.086 3.69517 51.0323 4.02619C51.007 4.3471 50.7276 4.55057 50.4735 4.69837C48.3153 5.902 46.15 7.09449 43.9958 8.30622C44.261 8.71418 44.6366 9.02901 44.9595 9.38838C45.6124 10.0616 46.232 10.7682 46.8991 11.4292C47.8233 11.2642 48.6848 10.8532 49.606 10.6781C50.0038 10.6123 50.2761 10.9615 50.5262 11.2105C50.9615 11.6964 51.4676 12.1246 51.83 12.6723V13.1187C51.6589 13.3627 51.4352 13.5672 51.171 13.7038C50.0969 14.2829 49.0259 14.87 47.9529 15.4501C47.7312 15.5584 47.5642 15.7467 47.4558 15.9653C46.894 17.0191 46.3129 18.0628 45.7501 19.1166C45.5912 19.4092 45.3826 19.7453 45.0192 19.7908C44.6183 19.8698 44.3389 19.5185 44.0869 19.2685C43.6982 18.8474 43.2558 18.4769 42.8883 18.0355C42.695 17.8219 42.7031 17.5172 42.783 17.2581C43.0047 16.4523 43.2882 15.6657 43.4967 14.8569C43.025 14.3294 42.4773 13.878 41.9712 13.385C41.4367 12.898 40.9396 12.3706 40.3808 11.911C39.905 12.7037 39.4424 13.5095 39.0415 14.3426C39.7654 15.3478 40.4568 16.3804 40.9852 17.503C43.4198 22.3894 43.5099 28.3631 41.2403 33.3264C40.1804 35.7073 38.586 37.8372 36.6545 39.5794C34.1835 41.7893 31.1091 43.3128 27.8546 43.9425C24.3074 44.6501 20.5528 44.2836 17.2091 42.9008C12.7935 41.0979 9.11271 37.5366 7.22982 33.1462C5.71946 29.7337 5.28923 25.8576 5.99683 22.1961C6.89981 17.3198 9.87295 12.8778 14.0163 10.1587C16.8133 8.30116 20.1276 7.23622 23.4804 7.09652C26.7815 6.9467 30.1201 7.70188 33.0295 9.27197C33.7543 9.61716 34.3819 10.1284 35.0905 10.5029C35.3719 9.56958 35.6787 8.64434 35.9257 7.70188C35.0004 6.76651 34.0094 5.89896 33.0781 4.96966C32.8219 4.72367 32.6347 4.37746 32.2834 4.25295C31.8764 4.07985 31.425 4.00494 31.0565 3.75186C30.6597 3.46335 30.6839 2.79827 31.0808 2.52089C31.3754 2.29515 31.7651 2.41966 32.1012 2.44295C32.2976 1.84771 32.5425 1.24134 33.0254 0.818195ZM33.6439 3.10095C33.6976 3.4512 33.9648 3.70833 34.2098 3.94116C35.2221 4.88463 36.2253 5.83923 37.2386 6.78372C37.4026 6.94467 37.5757 7.13195 37.596 7.37389C37.6071 7.6462 37.5069 7.90636 37.434 8.1645C36.6606 10.671 35.9145 13.1855 35.1401 15.691C35.1047 15.8368 35.0328 15.9846 35.0591 16.1374C35.2879 16.4219 35.5643 16.6648 35.8346 16.9088C37.0119 14.8639 38.1426 12.7928 39.2956 10.7337C39.4829 10.429 39.6095 10.0059 39.9982 9.90769C40.3333 9.79735 40.6572 9.98969 40.887 10.2195C42.2212 11.4839 43.5635 12.7381 44.8988 14.0015C45.1437 14.21 45.252 14.5481 45.1458 14.8579C44.9251 15.7062 44.6052 16.5282 44.4128 17.3846C44.5293 17.5071 44.6457 17.6316 44.7631 17.7551C45.3766 16.7802 45.904 15.7517 46.4364 14.7313C46.5346 14.5329 46.7158 14.3973 46.9102 14.3001C47.8982 13.8041 48.8589 13.2554 49.8216 12.7138C49.7113 12.5812 49.5959 12.4547 49.4774 12.3291C48.5593 12.5265 47.6846 12.896 46.7675 13.0954C46.4486 13.1612 46.1773 12.9416 45.9779 12.7219C44.7125 11.3573 43.438 10.0008 42.1675 8.64231C41.9084 8.39328 41.8871 7.94989 42.1109 7.67252C42.2354 7.52169 42.4095 7.42349 42.5775 7.32631C44.4736 6.29275 46.3625 5.24501 48.2566 4.20942C48.5157 4.06365 48.7931 3.94318 49.0199 3.74579C48.7749 3.47651 48.5177 3.21736 48.2545 2.96732C47.8203 3.05134 47.4042 3.2042 46.9811 3.32973C44.5981 4.0434 42.2192 4.77226 39.8362 5.4829C39.4708 5.62159 39.0962 5.44039 38.8684 5.15188C37.8875 4.10718 36.8975 3.07361 35.9176 2.02891C35.7252 1.8305 35.5045 1.63614 35.2252 1.58147C34.3789 1.40736 33.5083 2.25263 33.6439 3.10095ZM15.4295 11.165C10.7526 13.9822 7.62664 19.2078 7.38976 24.6671C8.67033 24.7673 9.68163 25.6248 10.6342 26.4002C11.4977 27.1584 12.3663 27.9106 13.2389 28.6576C14.7401 29.9088 16.459 30.9606 18.3773 31.4162C19.3178 31.6389 20.2926 31.653 21.2533 31.6055C21.9062 31.563 22.5572 31.4334 23.1605 31.1752C22.3577 30.3138 21.2098 29.919 20.1853 29.3936C19.0586 28.8571 17.8773 28.2203 17.2294 27.1058C16.7202 26.2362 16.8781 25.1459 17.3276 24.2875C18.0058 22.9756 19.1437 21.9956 20.2086 21.0056C21.3606 19.9953 22.5379 19.0154 23.6828 17.998C24.6233 17.0475 25.668 16.1749 26.3867 15.032C26.9941 14.0986 27.4446 12.9831 27.2775 11.8503C27.0953 10.6031 26.3128 9.51593 25.3805 8.70609C24.6202 8.57854 23.8428 8.67875 23.0765 8.69799C20.3797 8.89235 17.7284 9.73965 15.4295 11.165ZM27.8161 8.96827C28.052 9.39142 28.3384 9.78723 28.5298 10.2347C28.9792 11.2247 29.1048 12.3686 28.8233 13.4224C28.4619 14.8842 27.5721 16.1455 26.5851 17.255C25.9636 17.8837 25.341 18.5113 24.7083 19.1278C23.1898 20.4762 21.6187 21.7679 20.156 23.178C19.5182 23.8714 18.761 24.5558 18.5373 25.5083C18.3753 26.386 19.1406 27.042 19.8077 27.455C21.2908 28.3286 23.0259 28.8348 24.2649 30.083C24.6617 30.4525 24.8946 31.0112 24.7721 31.5528C24.6526 32.0327 24.274 32.4254 23.8195 32.6066C22.8497 33.0025 21.7999 33.1857 20.7532 33.1826C18.9007 33.2515 17.031 32.8283 15.3931 31.9567C12.923 30.748 11.0422 28.6931 8.91733 27.0025C8.44155 26.6735 7.95058 26.2848 7.34927 26.2483C7.44848 29.4432 8.48812 32.6036 10.2961 35.2386C12.7185 38.808 16.5542 41.3864 20.7765 42.2711C23.1828 42.8107 25.6994 42.754 28.1046 42.2428C28.0985 41.9573 28.0621 41.6739 28.0428 41.3894C27.9588 40.0987 28.2463 38.7858 28.8638 37.65C29.7557 36.1386 30.9451 34.8114 32.3168 33.7192C34.065 32.1946 35.9125 30.6033 36.8398 28.4197C37.4269 27.1159 37.1485 25.563 37.9149 24.329C38.6295 23.2175 39.8372 22.5949 40.9467 21.9531C40.557 20.0763 39.8028 18.2835 38.8057 16.6497C38.6184 16.3551 38.4412 16.0504 38.2044 15.7912C37.7458 16.6233 37.2862 17.4555 36.8307 18.2896C36.6728 18.5994 36.4268 18.9425 36.037 18.9263C35.6756 18.9597 35.4408 18.651 35.209 18.4293C34.6805 17.8776 34.0995 17.3785 33.5802 16.8187C33.3625 16.6031 33.3433 16.2781 33.4324 15.9987C33.814 14.6807 34.2483 13.3769 34.6137 12.0538C32.6195 10.5373 30.2831 9.43191 27.8161 8.96827ZM39.3655 24.9779C38.7935 25.7088 38.8684 26.6857 38.6832 27.5492C38.34 29.5454 37.0898 31.236 35.7009 32.6492C34.9387 33.4762 34.0671 34.1909 33.2258 34.9339C32.1751 35.7681 31.26 36.7703 30.5149 37.8868C29.7314 39.0156 29.451 40.4378 29.621 41.7923C30.3175 41.6243 30.9745 41.3236 31.6224 41.024C35.5744 39.1735 38.7439 35.7316 40.2654 31.6419C41.2443 29.0818 41.5521 26.2848 41.2393 23.5657C40.5195 23.8795 39.8534 24.3594 39.3655 24.9779Z" fill="#242529"/>
<path d="M25.4476 1.34553C25.7644 1.23823 26.1066 1.31111 26.4325 1.32731C27.0187 1.3921 27.6119 1.42651 28.1858 1.5652C28.7426 1.70085 28.9147 2.49551 28.4936 2.86905C28.1271 3.22842 27.5744 3.06139 27.1239 3.02596C26.5409 2.92675 25.9274 2.96421 25.3686 2.75972C24.7946 2.4864 24.8513 1.55609 25.4476 1.34553Z" fill="#242529"/>
<path d="M21.2037 1.46486C21.5469 1.42943 21.9002 1.34642 22.2433 1.42741C22.7131 1.56913 22.9307 2.18765 22.6533 2.59358C22.4539 2.9408 22.0176 2.97016 21.6633 3.02685C21.0529 3.09974 20.4495 3.22425 19.8361 3.2698C19.4413 3.32042 19.0566 3.00559 19.01 2.61383C18.9382 2.23219 19.1973 1.83233 19.5749 1.74325C20.1084 1.60557 20.6591 1.54585 21.2037 1.46486Z" fill="#242529"/>
<path d="M15.9279 2.75258C16.2468 2.62098 16.6537 2.66148 16.8784 2.94492C17.1852 3.28506 17.1123 3.89852 16.6972 4.11819C16.2174 4.37531 15.6961 4.54133 15.201 4.76606C14.867 4.89867 14.538 5.08595 14.1715 5.09304C13.72 5.06773 13.3829 4.58891 13.4852 4.15463C13.5358 3.8479 13.8031 3.64746 14.0683 3.52599C14.6746 3.23849 15.2952 2.97732 15.9279 2.75258Z" fill="#242529"/>
<path d="M10.6676 5.49283C11.2689 5.20432 11.9684 5.90383 11.687 6.50615C11.4187 7.0042 10.8387 7.21375 10.4348 7.58426C10.0076 7.892 9.55911 8.46699 8.96792 8.22808C8.40913 8.02967 8.31296 7.19958 8.79887 6.86552C9.4184 6.40593 10.0055 5.89067 10.6676 5.49283Z" fill="#242529"/>
<path d="M6.42246 9.34488C6.88711 9.24162 7.36796 9.64553 7.35885 10.1183C7.35986 10.4787 7.07945 10.7439 6.878 11.0132C6.50649 11.4515 6.18457 11.9323 5.78674 12.3484C5.51544 12.6521 4.99714 12.6663 4.7066 12.3818C4.41101 12.1328 4.36748 11.6641 4.58918 11.3533C4.93741 10.834 5.34233 10.3541 5.73814 9.86925C5.92542 9.65262 6.1208 9.39347 6.42246 9.34488Z" fill="#242529"/>
<path d="M2.97609 14.3063C3.35368 14.1393 3.85073 14.3144 4.00865 14.7041C4.20706 15.1101 3.9307 15.5231 3.76468 15.8865C3.4944 16.3815 3.34356 16.9332 3.06315 17.4232C2.8283 17.8362 2.19054 17.8909 1.86863 17.5518C1.63681 17.327 1.58012 16.9677 1.70261 16.6731C1.92228 16.0677 2.19459 15.4826 2.47601 14.9046C2.59344 14.6728 2.72201 14.4126 2.97609 14.3063Z" fill="#242529"/>
<path d="M47.006 18.9466C47.421 18.8505 47.8604 19.142 47.9403 19.5591C48.1003 20.2586 48.2542 20.9611 48.3797 21.6677C48.4921 22.2073 47.916 22.7124 47.3957 22.5322C46.9868 22.4391 46.8298 22.0068 46.7701 21.6384C46.6547 21.0279 46.4867 20.4266 46.3986 19.8112C46.3267 19.4194 46.6193 19.0195 47.006 18.9466Z" fill="#242529"/>
<path d="M1.04705 19.7684C1.58358 19.5356 2.23247 20.061 2.0958 20.634C1.96623 21.3993 1.85791 22.1696 1.68987 22.9268C1.58763 23.4046 0.97923 23.6547 0.564184 23.4046C0.264541 23.2467 0.140028 22.8843 0.184569 22.5624C0.260492 21.8538 0.392092 21.1512 0.534827 20.4528C0.588479 20.1642 0.751461 19.8656 1.04705 19.7684Z" fill="#242529"/>
<path d="M47.6059 24.8081C48.0513 24.6096 48.6456 24.8961 48.7002 25.3972C48.7549 26.0441 48.6861 26.696 48.6597 27.3439C48.6273 27.7195 48.6456 28.1892 48.2913 28.425C47.8529 28.7652 47.1119 28.4878 47.0573 27.9219C47.0127 27.1799 47.1129 26.4369 47.122 25.6948C47.1099 25.3395 47.2557 24.9508 47.6059 24.8081Z" fill="#242529"/>
<path d="M0 26.232C0.231818 25.8625 0.685331 25.5558 1.12265 25.7795C1.62981 26.0022 1.59641 26.6319 1.64196 27.0945C1.66018 27.6958 1.81608 28.3052 1.69966 28.9025C1.51137 29.5413 0.515264 29.5858 0.266237 28.9723C0.0607384 28.3224 0.0809845 27.627 0 26.9548V26.232Z" fill="#242529"/>
<path d="M46.8147 30.8077C47.3218 30.5111 48.0456 30.9687 47.9586 31.5609C47.8654 32.1227 47.6377 32.6522 47.4919 33.2018C47.3613 33.5946 47.2813 34.1109 46.84 34.2759C46.3348 34.4996 45.7082 34.041 45.7801 33.4924C45.8621 32.9609 46.1141 32.476 46.2326 31.9526C46.3591 31.5487 46.4067 31.0375 46.8147 30.8077Z" fill="#242529"/>
<path d="M1.36117 31.6158C1.73572 31.4063 2.26819 31.5632 2.43624 31.9671C2.68526 32.5208 2.84116 33.112 3.05577 33.6799C3.18636 34.0433 3.35237 34.4989 3.06184 34.8319C2.73993 35.2905 1.96146 35.2115 1.73471 34.7013C1.45329 34.0454 1.26399 33.3519 1.01901 32.6818C0.855014 32.3022 0.973454 31.8051 1.36117 31.6158Z" fill="#242529"/>
<path d="M44.7732 36.2426C45.3462 36.0209 45.992 36.6445 45.7642 37.2225C45.5253 37.7722 45.1518 38.2511 44.8613 38.7744C44.6436 39.1287 44.4148 39.6025 43.935 39.6136C43.4056 39.6642 42.9612 39.0822 43.1545 38.5861C43.3691 38.0871 43.7366 37.673 43.9866 37.1922C44.2043 36.849 44.3561 36.3914 44.7732 36.2426Z" fill="#242529"/>
<path d="M3.88415 36.9719C4.16658 36.8797 4.50267 36.9688 4.69298 37.1986C4.99161 37.5509 5.21128 37.9599 5.47448 38.3375C5.67289 38.6503 5.91787 38.9428 6.04643 39.2951C6.21448 39.8073 5.70225 40.3702 5.17787 40.2679C4.80838 40.2274 4.59782 39.8883 4.40346 39.612C4.06434 39.1088 3.70902 38.6138 3.42253 38.0793C3.1897 37.6643 3.43468 37.1035 3.88415 36.9719Z" fill="#242529"/>
<path d="M41.2423 41.0309C41.8345 40.7718 42.5158 41.4419 42.2556 42.0372C41.9793 42.5453 41.4903 42.8936 41.1006 43.3096C40.7473 43.6133 40.4163 44.1124 39.8868 44.0344C39.3503 43.9848 39.0122 43.2975 39.3301 42.8531C39.6348 42.4532 40.0528 42.1607 40.392 41.7932C40.6663 41.532 40.8941 41.201 41.2423 41.0309Z" fill="#242529"/>
<path d="M7.5249 41.621C7.81746 41.5289 8.12216 41.6585 8.33576 41.8589C8.74473 42.2264 9.13042 42.6222 9.56065 42.9664C9.81778 43.1901 10.1478 43.4371 10.1326 43.8178C10.1852 44.3846 9.4908 44.824 9.00287 44.5304C8.61313 44.2935 8.29122 43.9635 7.94602 43.6679C7.6403 43.3683 7.29207 43.1021 7.05114 42.7437C6.79908 42.3287 7.05418 41.7324 7.5249 41.621Z" fill="#242529"/>
<path d="M36.7942 44.7897C37.3034 44.6135 37.8642 45.1086 37.7782 45.636C37.7377 46.0713 37.3075 46.2828 36.9724 46.4742C36.445 46.7536 35.953 47.0977 35.4104 47.3447C35.0186 47.5229 34.5165 47.2931 34.3849 46.8872C34.2594 46.5683 34.3829 46.1836 34.6654 45.9913C35.0035 45.7453 35.3831 45.5631 35.7394 45.3434C36.0846 45.147 36.4106 44.9061 36.7942 44.7897Z" fill="#242529"/>
<path d="M12.0827 45.2644C12.3854 45.1044 12.7276 45.236 13.005 45.3849C13.4888 45.645 13.9707 45.9092 14.4586 46.1633C14.738 46.3121 15.0569 46.5115 15.0964 46.8588C15.2098 47.372 14.6945 47.8954 14.1782 47.7607C13.7601 47.6484 13.4048 47.3872 13.0212 47.1979C12.6375 46.9732 12.2083 46.8163 11.8681 46.5257C11.4764 46.1805 11.608 45.4668 12.0827 45.2644Z" fill="#242529"/>
<path d="M31.4167 47.295C31.9735 47.0935 32.5637 47.6989 32.3713 48.2536C32.2711 48.6909 31.7974 48.8225 31.4187 48.9146C30.8276 49.0564 30.2526 49.271 29.6533 49.3742C29.0864 49.4664 28.6055 48.8094 28.8526 48.2931C29.0074 47.9023 29.4528 47.8041 29.8203 47.7282C30.3639 47.625 30.8863 47.4438 31.4167 47.295Z" fill="#242529"/>
<path d="M17.4477 47.5896C17.8506 47.4003 18.2859 47.6139 18.6878 47.702C19.2496 47.8791 19.852 47.9004 20.4037 48.1109C20.9554 48.3741 20.9291 49.2579 20.3763 49.5039C19.8763 49.7165 19.3468 49.4563 18.8508 49.3581C18.3568 49.2093 17.8203 49.1749 17.3617 48.9269C16.8829 48.6252 16.9355 47.8285 17.4477 47.5896Z" fill="#242529"/>
<path d="M23.5251 48.4321C24.2874 48.3805 25.0557 48.4018 25.821 48.3674C26.4598 48.3066 26.8759 49.1529 26.4618 49.6307C26.0812 50.0863 25.4232 49.9142 24.9059 49.9709C24.3552 49.9476 23.7468 50.1156 23.2407 49.8372C22.6799 49.4961 22.8712 48.5273 23.5251 48.4321Z" fill="#242529"/>
</svg>
