<svg width="50" height="140" viewBox="0 0 50 140" fill="none" xmlns="http://www.w3.org/2000/svg">
<g opacity="0.1">
<path d="M2.50001 135C3.88072 135 5.00001 136.119 5.00001 137.5C5.00001 138.881 3.88072 140 2.50001 140C1.11929 140 5.37342e-06 138.881 5.43378e-06 137.5C5.49413e-06 136.119 1.11929 135 2.50001 135Z" fill="#242529"/>
<path d="M2.50001 120C3.88072 120 5.00001 121.119 5.00001 122.5C5.00001 123.881 3.88072 125 2.50001 125C1.1193 125 6.02909e-06 123.881 6.08945e-06 122.5C6.1498e-06 121.119 1.1193 120 2.50001 120Z" fill="#242529"/>
<path d="M2.5 105C3.88071 105 5 106.119 5 107.5C5 108.881 3.88071 110 2.5 110C1.11929 110 2.87007e-06 108.881 2.93042e-06 107.5C2.99077e-06 106.119 1.11929 105 2.5 105Z" fill="#242529"/>
<path d="M2.5 90C3.88071 90 5 91.1193 5 92.5C5 93.8807 3.88071 95 2.5 95C1.11929 95 3.52574e-06 93.8807 3.58609e-06 92.5C3.64644e-06 91.1193 1.11929 90 2.5 90Z" fill="#242529"/>
<path d="M2.5 75C3.88071 75 5 76.1193 5 77.5C5 78.8807 3.88071 80 2.5 80C1.11929 80 4.18141e-06 78.8807 4.24176e-06 77.5C4.30211e-06 76.1193 1.11929 75 2.5 75Z" fill="#242529"/>
<path d="M2.5 60C3.88071 60 5 61.1193 5 62.5C5 63.8807 3.88071 65 2.5 65C1.11929 65 1.02238e-06 63.8807 1.08274e-06 62.5C1.14309e-06 61.1193 1.11929 60 2.5 60Z" fill="#242529"/>
<path d="M2.5 45C3.88071 45 5 46.1193 5 47.5C5 48.8807 3.88071 50 2.5 50C1.11929 50 1.67805e-06 48.8807 1.73841e-06 47.5C1.79876e-06 46.1193 1.11929 45 2.5 45Z" fill="#242529"/>
<path d="M2.5 30C3.88071 30 5 31.1193 5 32.5C5 33.8807 3.88071 35 2.5 35C1.11929 35 2.33372e-06 33.8807 2.39408e-06 32.5C2.45443e-06 31.1193 1.11929 30 2.5 30Z" fill="#242529"/>
<path d="M2.5 15C3.88071 15 5 16.1193 5 17.5C5 18.8807 3.88071 20 2.5 20C1.11929 20 -8.25302e-07 18.8807 -7.64949e-07 17.5C-7.04597e-07 16.1193 1.11928 15 2.5 15Z" fill="#242529"/>
<path d="M2.5 1.85773e-06C3.88071 1.79738e-06 5 1.11929 5 2.5C5 3.88071 3.88071 5 2.5 5C1.11929 5 -1.69631e-07 3.88071 -1.09279e-07 2.5C-4.89258e-08 1.11929 1.11929 1.91809e-06 2.5 1.85773e-06Z" fill="#242529"/>
<path d="M17.5 135C18.8807 135 20 136.119 20 137.5C20 138.881 18.8807 140 17.5 140C16.1193 140 15 138.881 15 137.5C15 136.119 16.1193 135 17.5 135Z" fill="#242529"/>
<path d="M17.5 120C18.8807 120 20 121.119 20 122.5C20 123.881 18.8807 125 17.5 125C16.1193 125 15 123.881 15 122.5C15 121.119 16.1193 120 17.5 120Z" fill="#242529"/>
<path d="M17.5 105C18.8807 105 20 106.119 20 107.5C20 108.881 18.8807 110 17.5 110C16.1193 110 15 108.881 15 107.5C15 106.119 16.1193 105 17.5 105Z" fill="#242529"/>
<path d="M17.5 90C18.8807 90 20 91.1193 20 92.5C20 93.8807 18.8807 95 17.5 95C16.1193 95 15 93.8807 15 92.5C15 91.1193 16.1193 90 17.5 90Z" fill="#242529"/>
<path d="M17.5 75C18.8807 75 20 76.1193 20 77.5C20 78.8807 18.8807 80 17.5 80C16.1193 80 15 78.8807 15 77.5C15 76.1193 16.1193 75 17.5 75Z" fill="#242529"/>
<path d="M17.5 60C18.8807 60 20 61.1193 20 62.5C20 63.8807 18.8807 65 17.5 65C16.1193 65 15 63.8807 15 62.5C15 61.1193 16.1193 60 17.5 60Z" fill="#242529"/>
<path d="M17.5 45C18.8807 45 20 46.1193 20 47.5C20 48.8807 18.8807 50 17.5 50C16.1193 50 15 48.8807 15 47.5C15 46.1193 16.1193 45 17.5 45Z" fill="#242529"/>
<path d="M17.5 30C18.8807 30 20 31.1193 20 32.5C20 33.8807 18.8807 35 17.5 35C16.1193 35 15 33.8807 15 32.5C15 31.1193 16.1193 30 17.5 30Z" fill="#242529"/>
<path d="M17.5 15C18.8807 15 20 16.1193 20 17.5C20 18.8807 18.8807 20 17.5 20C16.1193 20 15 18.8807 15 17.5C15 16.1193 16.1193 15 17.5 15Z" fill="#242529"/>
<path d="M17.5 1.20206e-06C18.8807 1.14171e-06 20 1.11929 20 2.5C20 3.88071 18.8807 5 17.5 5C16.1193 5 15 3.88071 15 2.5C15 1.11929 16.1193 1.26242e-06 17.5 1.20206e-06Z" fill="#242529"/>
<path d="M32.5 135C33.8807 135 35 136.119 35 137.5C35 138.881 33.8807 140 32.5 140C31.1193 140 30 138.881 30 137.5C30 136.119 31.1193 135 32.5 135Z" fill="#242529"/>
<path d="M32.5 120C33.8807 120 35 121.119 35 122.5C35 123.881 33.8807 125 32.5 125C31.1193 125 30 123.881 30 122.5C30 121.119 31.1193 120 32.5 120Z" fill="#242529"/>
<path d="M32.5 105C33.8807 105 35 106.119 35 107.5C35 108.881 33.8807 110 32.5 110C31.1193 110 30 108.881 30 107.5C30 106.119 31.1193 105 32.5 105Z" fill="#242529"/>
<path d="M32.5 90C33.8807 90 35 91.1193 35 92.5C35 93.8807 33.8807 95 32.5 95C31.1193 95 30 93.8807 30 92.5C30 91.1193 31.1193 90 32.5 90Z" fill="#242529"/>
<path d="M32.5 75C33.8807 75 35 76.1193 35 77.5C35 78.8807 33.8807 80 32.5 80C31.1193 80 30 78.8807 30 77.5C30 76.1193 31.1193 75 32.5 75Z" fill="#242529"/>
<path d="M32.5 60C33.8807 60 35 61.1193 35 62.5C35 63.8807 33.8807 65 32.5 65C31.1193 65 30 63.8807 30 62.5C30 61.1193 31.1193 60 32.5 60Z" fill="#242529"/>
<path d="M32.5 45C33.8807 45 35 46.1193 35 47.5C35 48.8807 33.8807 50 32.5 50C31.1193 50 30 48.8807 30 47.5C30 46.1193 31.1193 45 32.5 45Z" fill="#242529"/>
<path d="M32.5 30C33.8807 30 35 31.1193 35 32.5C35 33.8807 33.8807 35 32.5 35C31.1193 35 30 33.8807 30 32.5C30 31.1193 31.1193 30 32.5 30Z" fill="#242529"/>
<path d="M32.5 15C33.8807 15 35 16.1193 35 17.5C35 18.8807 33.8807 20 32.5 20C31.1193 20 30 18.8807 30 17.5C30 16.1193 31.1193 15 32.5 15Z" fill="#242529"/>
<path d="M32.5 5.46392e-07C33.8807 4.86039e-07 35 1.11929 35 2.5C35 3.88071 33.8807 5 32.5 5C31.1193 5 30 3.88071 30 2.5C30 1.11929 31.1193 6.06744e-07 32.5 5.46392e-07Z" fill="#242529"/>
<path d="M47.5 135C48.8807 135 50 136.119 50 137.5C50 138.881 48.8807 140 47.5 140C46.1193 140 45 138.881 45 137.5C45 136.119 46.1193 135 47.5 135Z" fill="#242529"/>
<path d="M47.5 120C48.8807 120 50 121.119 50 122.5C50 123.881 48.8807 125 47.5 125C46.1193 125 45 123.881 45 122.5C45 121.119 46.1193 120 47.5 120Z" fill="#242529"/>
<path d="M47.5 105C48.8807 105 50 106.119 50 107.5C50 108.881 48.8807 110 47.5 110C46.1193 110 45 108.881 45 107.5C45 106.119 46.1193 105 47.5 105Z" fill="#242529"/>
<path d="M47.5 90C48.8807 90 50 91.1193 50 92.5C50 93.8807 48.8807 95 47.5 95C46.1193 95 45 93.8807 45 92.5C45 91.1193 46.1193 90 47.5 90Z" fill="#242529"/>
<path d="M47.5 75C48.8807 75 50 76.1193 50 77.5C50 78.8807 48.8807 80 47.5 80C46.1193 80 45 78.8807 45 77.5C45 76.1193 46.1193 75 47.5 75Z" fill="#242529"/>
<path d="M47.5 60C48.8807 60 50 61.1193 50 62.5C50 63.8807 48.8807 65 47.5 65C46.1193 65 45 63.8807 45 62.5C45 61.1193 46.1193 60 47.5 60Z" fill="#242529"/>
<path d="M47.5 45C48.8807 45 50 46.1193 50 47.5C50 48.8807 48.8807 50 47.5 50C46.1193 50 45 48.8807 45 47.5C45 46.1193 46.1193 45 47.5 45Z" fill="#242529"/>
<path d="M47.5 30C48.8807 30 50 31.1193 50 32.5C50 33.8807 48.8807 35 47.5 35C46.1193 35 45 33.8807 45 32.5C45 31.1193 46.1193 30 47.5 30Z" fill="#242529"/>
<path d="M47.5 15C48.8807 15 50 16.1193 50 17.5C50 18.8807 48.8807 20 47.5 20C46.1193 20 45 18.8807 45 17.5C45 16.1193 46.1193 15 47.5 15Z" fill="#242529"/>
<path d="M47.5 -1.09279e-07C48.8807 -1.69632e-07 50 1.11929 50 2.5C50 3.88071 48.8807 5 47.5 5C46.1193 5 45 3.88071 45 2.5C45 1.11929 46.1193 -4.89261e-08 47.5 -1.09279e-07Z" fill="#242529"/>
</g>
</svg>
