<svg width="14" height="16" viewBox="0 0 14 16" fill="none" xmlns="http://www.w3.org/2000/svg">
<path d="M13.4905 14.0562C13.528 14.3781 13.278 14.7 12.9593 14.7344C12.7219 14.7531 12.4844 14.7375 12.2469 14.7437C12.2406 14.9812 12.2594 15.2219 12.2375 15.4562C12.2094 15.725 11.9844 15.9281 11.7313 15.9937H11.5095C11.2564 15.9312 11.0314 15.725 11.0033 15.4562C10.9845 15.2187 11.0002 14.9812 10.9939 14.7437C10.7658 14.7375 10.5377 14.7531 10.3065 14.7375C10.0159 14.7187 9.76903 14.4656 9.74715 14.1781C9.70653 13.8562 9.95963 13.5375 10.2783 13.5C10.5158 13.4812 10.7533 13.4969 10.9908 13.4906C10.997 13.2625 10.9814 13.0312 10.997 12.8031C11.0189 12.4812 11.3282 12.2156 11.647 12.2406C11.9469 12.25 12.2157 12.5031 12.2375 12.8031C12.25 13.0312 12.2375 13.2625 12.2438 13.4906C12.4719 13.4969 12.7031 13.4812 12.9312 13.4969C13.2218 13.5156 13.4686 13.7687 13.4905 14.0562ZM13.4999 4.36875C13.4999 6.36875 13.4999 8.36875 13.4999 10.3719C13.5061 10.7031 13.2093 11.0031 12.875 10.9937C12.5406 11.0031 12.2406 10.7062 12.25 10.3719C12.25 8.57812 12.2531 6.78438 12.25 4.99375C11.8344 4.99375 11.4157 4.99375 11.0002 4.99375C11.0002 5.60625 11.0002 6.22188 11.0002 6.8375C11.0033 7.01875 10.9345 7.20313 10.8002 7.325C10.6158 7.50313 10.319 7.54375 10.094 7.42812C9.88776 7.325 9.74715 7.10313 9.75028 6.87188C9.75028 6.24375 9.7534 5.61875 9.75028 4.99375C7.75048 4.99375 5.75069 4.99375 3.75089 4.99375C3.75089 5.60625 3.75089 6.22188 3.75089 6.8375C3.75402 7.01875 3.68528 7.20313 3.55091 7.325C3.36656 7.50313 3.06971 7.54375 2.84474 7.42812C2.63851 7.325 2.4979 7.10313 2.50102 6.87188C2.4979 6.24375 2.50102 5.61875 2.4979 4.99375C2.08231 4.99375 1.66361 4.99375 1.24802 4.99375C1.24802 8.24375 1.24802 11.4937 1.24802 14.7437C3.44467 14.7437 5.64445 14.7437 7.8411 14.7437C7.98483 14.7406 8.12857 14.7781 8.24418 14.8687C8.46916 15.0312 8.55665 15.35 8.45354 15.6094C8.37542 15.8125 8.18794 15.9438 7.98483 16H0.516849C0.338742 15.95 0.166885 15.8437 0.079394 15.675C-0.0237204 15.5 0.00440172 15.2875 0.00127704 15.0938C0.00127704 11.5281 0.00127704 7.96563 0.00127704 4.40313C-0.0112217 4.1625 0.126264 3.92188 0.344992 3.81563C0.5106 3.73125 0.698081 3.75313 0.876187 3.75C1.42926 3.75 1.9792 3.75313 2.53227 3.75C2.62601 2.93437 2.96972 2.15312 3.49467 1.525C4.13523 0.759375 5.05076 0.228125 6.03503 0.0625C6.19439 0.034375 6.35688 0.021875 6.51936 0H6.98494C7.18179 0.025 7.38177 0.040625 7.57863 0.08125C8.49103 0.259375 9.34095 0.753125 9.95026 1.45625C10.5127 2.09375 10.8752 2.90313 10.972 3.74688C11.6157 3.75313 12.2625 3.74062 12.9093 3.75C13.2312 3.75625 13.5061 4.04688 13.4999 4.36875ZM9.70341 3.74063C9.58155 3.05938 9.22846 2.42187 8.70039 1.97187C8.17232 1.5125 7.47864 1.24687 6.77558 1.24375C6.05378 1.23125 5.33198 1.49687 4.78829 1.97187C4.26022 2.42187 3.904 3.05938 3.78214 3.74063C5.75694 3.74375 7.72861 3.74375 9.70341 3.74063Z" fill="white"/>
</svg>
