<svg width="16" height="16" viewBox="0 0 16 16" fill="none" xmlns="http://www.w3.org/2000/svg">
<path d="M0.228875 0.12053C0.348501 0.0256292 0.504124 -0.00455005 0.653566 0.000540435C0.980812 0.00490371 1.30842 -0.00418646 1.63567 0.0056309C2.13708 0.0303561 2.59086 0.417596 2.69339 0.909191C2.80939 1.47714 2.92428 2.0451 3.033 2.6145C4.22781 2.6265 5.42298 2.61596 6.61816 2.61959C9.21212 2.61959 11.8057 2.61959 14.3993 2.61959C14.6418 2.61959 14.8935 2.6025 15.1236 2.69486C15.6414 2.87848 15.9668 3.4628 15.8548 4.0002C15.5072 5.82405 15.1538 7.64681 14.8044 9.47029C14.7477 9.74227 14.7167 10.023 14.608 10.2811C14.3495 10.9084 13.6987 11.3447 13.0202 11.345C10.4135 11.348 7.80678 11.3447 5.20046 11.3465C4.97975 11.3505 4.75649 11.3392 4.54415 11.2752C3.94747 11.1047 3.46097 10.5931 3.3337 9.98407C2.74066 7.0454 2.14726 4.10638 1.5604 1.16626C1.23315 1.1619 0.905909 1.16844 0.579027 1.16444C0.328139 1.16662 0.0910681 0.985912 0.0234375 0.745205C-0.045284 0.52086 0.0412541 0.260882 0.228875 0.12053ZM8.43691 4.94376C8.434 5.42954 8.438 5.91532 8.43582 6.40073C7.95004 6.40291 7.46463 6.39891 6.97922 6.40182C6.63016 6.39091 6.336 6.7447 6.40872 7.08576C6.45344 7.35374 6.70724 7.56718 6.97922 7.56391C7.46463 7.56681 7.95041 7.56281 8.43582 7.565C8.438 8.05077 8.434 8.53619 8.43691 9.02196C8.42928 9.33176 8.70998 9.60664 9.01796 9.60083C9.32702 9.60773 9.60554 9.33103 9.599 9.0216C9.60191 8.53619 9.59791 8.05077 9.60009 7.565C10.0855 7.56281 10.5713 7.56681 11.0571 7.56391C11.3534 7.56972 11.6225 7.31411 11.6348 7.0185C11.6603 6.71161 11.4014 6.41346 11.092 6.40364C10.5949 6.39637 10.0975 6.40437 9.60009 6.40073C9.59645 5.90332 9.60445 5.40591 9.59718 4.90886C9.58554 4.57507 9.24303 4.30418 8.91542 4.37363C8.64562 4.41726 8.43182 4.67033 8.43691 4.94376Z" fill="black"/>
<path d="M5.83277 12.5319C6.316 12.4533 6.82941 12.5904 7.20793 12.9013C7.54135 13.1703 7.76897 13.5663 7.8326 13.9903C7.91805 14.5131 7.74279 15.0687 7.37773 15.452C7.07994 15.7709 6.65706 15.9683 6.22183 15.9963C5.7535 16.0276 5.27536 15.8599 4.93066 15.5414C4.65541 15.2913 4.46597 14.9502 4.3958 14.5851C4.29399 14.0779 4.43725 13.5296 4.7714 13.1354C5.0372 12.8151 5.42189 12.5973 5.83277 12.5319Z" fill="black"/>
<path d="M11.6505 12.5319C12.1337 12.4533 12.6471 12.5904 13.0256 12.9009C13.359 13.1703 13.5867 13.5663 13.6503 13.9903C13.7357 14.5131 13.5605 15.0687 13.1958 15.4516C12.9056 15.7621 12.4984 15.9574 12.0755 15.9934C11.6046 16.0352 11.1196 15.8745 10.7676 15.5585C10.4822 15.3069 10.2851 14.9586 10.2139 14.5851C10.1117 14.0783 10.2549 13.5296 10.5891 13.1351C10.8549 12.8151 11.2396 12.5973 11.6505 12.5319Z" fill="black"/>
</svg>
