<svg width="16" height="16" viewBox="0 0 16 16" fill="none" xmlns="http://www.w3.org/2000/svg">
<path d="M15.4863 3.40371C15.412 2.83536 14.9954 2.32836 14.4497 2.15074C14.1558 2.04095 13.8393 2.07001 13.5325 2.06678C10.1838 2.07001 6.83497 2.06678 3.48619 2.06678C3.33764 1.50488 3.22462 0.936526 3.0793 0.374628C3.0244 0.158265 2.81127 2.92913e-05 2.58844 2.92913e-05C1.94258 2.92913e-05 1.29349 2.92913e-05 0.647634 2.92913e-05C0.52492 2.92913e-05 0.395748 -0.00320003 0.282723 0.0581567C0.0760476 0.158265 -0.0434365 0.41338 0.0146909 0.636202C0.0631304 0.862253 0.282723 1.03663 0.515232 1.03341C1.06744 1.03341 1.61965 1.03341 2.16863 1.03341C2.48511 2.32513 2.77897 3.62653 3.08898 4.92148C3.38931 6.2132 3.70255 7.49847 3.99319 8.79342C3.80912 8.82571 3.62182 8.86123 3.4539 8.94842C3.04055 9.14541 2.72407 9.53938 2.62074 9.98503C2.51094 10.4436 2.6272 10.9506 2.92752 11.3155C3.21493 11.674 3.67026 11.8903 4.13205 11.8871C7.05134 11.8903 9.9674 11.8871 12.8867 11.8871C13.1612 11.9065 13.4195 11.6772 13.4324 11.4027C13.4583 11.1185 13.2064 10.844 12.919 10.8537C10.0869 10.8505 7.25478 10.8537 4.42269 10.8537C4.23862 10.8473 4.04163 10.886 3.87693 10.7859C3.67349 10.6729 3.56692 10.4178 3.63474 10.1949C3.69286 9.97857 3.906 9.82033 4.12882 9.82356C7.03519 9.82356 9.94479 9.82356 12.8512 9.82356C13.2871 9.82356 13.7231 9.63626 14.0105 9.30687C14.1849 9.11312 14.3043 8.87738 14.3625 8.62549C14.6951 7.22398 15.0245 5.82246 15.3539 4.42094C15.4314 4.08186 15.5444 3.74602 15.4863 3.40371ZM14.4561 3.7331C14.1138 5.19597 13.7683 6.65885 13.4227 8.12172C13.3808 8.28319 13.3646 8.46403 13.2548 8.59643C13.1515 8.72237 12.9868 8.78373 12.8253 8.7805C10.2387 8.78373 7.65522 8.7805 5.06855 8.7805C5.03625 8.68039 5.01042 8.58028 4.99104 8.47694C4.57123 6.68468 4.14497 4.89242 3.72516 3.10016C7.12561 3.0937 10.5228 3.10016 13.9233 3.09693C14.2494 3.07755 14.5369 3.4134 14.4561 3.7331ZM6.73164 12.8074C6.39579 12.4974 5.92108 12.3489 5.47221 12.4167C5.07823 12.4684 4.71332 12.6815 4.4679 12.9915C4.2483 13.2725 4.12882 13.6277 4.13528 13.9829C4.14174 14.4253 4.35164 14.8548 4.69072 15.1358C4.99104 15.3909 5.39148 15.52 5.78545 15.4942C6.18588 15.4684 6.57663 15.2779 6.84466 14.9775C7.14499 14.6417 7.29031 14.1734 7.21926 13.7278C7.17082 13.379 6.99321 13.0464 6.73164 12.8074ZM5.80806 14.4511C5.54971 14.5222 5.25908 14.351 5.19126 14.0927C5.10407 13.8214 5.29137 13.505 5.56909 13.4468C5.83712 13.3758 6.13099 13.5631 6.18911 13.8311C6.25693 14.0992 6.07609 14.393 5.80806 14.4511ZM12.3635 12.7622C12.0341 12.4845 11.582 12.3521 11.1558 12.4167C10.765 12.4684 10.3969 12.6815 10.1515 12.9915C9.91573 13.2886 9.79624 13.6729 9.82208 14.0507C9.84468 14.4705 10.0514 14.871 10.3743 15.139C10.6843 15.4006 11.0977 15.5297 11.5013 15.4942C11.9017 15.4619 12.2828 15.2649 12.5411 14.9614C12.8253 14.6352 12.961 14.1863 12.9061 13.7569C12.8608 13.3758 12.6606 13.0109 12.3635 12.7622ZM11.4916 14.4511C11.2333 14.5222 10.9426 14.351 10.8716 14.0927C10.7844 13.8214 10.9717 13.505 11.2494 13.4468C11.5175 13.3758 11.8113 13.5631 11.8695 13.8311C11.9405 14.0992 11.7597 14.393 11.4916 14.4511Z" fill="white"/>
</svg>
