<svg width="15" height="15" viewBox="0 0 15 15" fill="none" xmlns="http://www.w3.org/2000/svg">
<path d="M12.4917 2.54635C11.179 1.23359 9.39851 0.496094 7.54199 0.496094C5.68548 0.496094 3.905 1.23359 2.59224 2.54635C1.27949 3.8591 0.541992 5.63958 0.541992 7.49609C0.541992 9.35261 1.27949 11.1331 2.59224 12.4458C3.905 13.7586 5.68548 14.4961 7.54199 14.4961C9.39851 14.4961 11.179 13.7586 12.4917 12.4458C13.8045 11.1331 14.542 9.35261 14.542 7.49609C14.542 5.63958 13.8045 3.8591 12.4917 2.54635V2.54635ZM7.54199 13.5579C4.19959 13.5579 1.48022 10.8386 1.48022 7.49609C1.48022 4.15363 4.19953 1.43432 7.54199 1.43432C10.8845 1.43432 13.6038 4.15363 13.6038 7.49609C13.6038 10.8386 10.8845 13.5579 7.54199 13.5579Z" fill="#23C664"/>
<path d="M6.48673 8.96627L4.33431 6.81388L3.6709 7.47729L6.48673 10.2931L11.3977 5.38216L10.7343 4.71875L6.48673 8.96627Z" fill="#23C664"/>
</svg>
