<svg width="40" height="40" viewBox="0 0 40 40" fill="none" xmlns="http://www.w3.org/2000/svg">
<path d="M9.47832 8.07115C10.1361 7.88678 10.8791 8.07584 11.3721 8.5485C14.2549 11.411 17.1104 14.3016 19.9994 17.1571C22.8908 14.304 25.7447 11.4118 28.626 8.54928C29.3025 7.88287 30.4596 7.82037 31.2057 8.40631C31.9002 8.9149 32.1846 9.89693 31.8713 10.6985C31.7166 11.1516 31.3549 11.4797 31.0236 11.8063C28.2986 14.5383 25.5533 17.2524 22.8432 19.9993C25.708 22.9047 28.6182 25.7665 31.4877 28.6672C32.0229 29.2477 32.1502 30.1555 31.801 30.8633C31.4846 31.5462 30.7525 32.0063 30.0002 31.9977C29.4549 32.004 28.9236 31.7649 28.5471 31.3758C25.9041 28.7313 23.2619 26.0868 20.6174 23.4438C20.4166 23.2383 20.2135 23.0344 19.9994 22.8422C17.1221 25.6837 14.2791 28.561 11.4127 31.4141C10.9338 31.8954 10.2041 32.1071 9.54395 31.9454C8.79317 31.779 8.17911 31.1407 8.03848 30.386C7.90645 29.743 8.12129 29.0485 8.58536 28.5876C10.9541 26.2157 13.3252 23.8477 15.6947 21.4766C16.1799 20.9821 16.6854 20.5063 17.158 19.9993C14.3291 17.1344 11.4666 14.3032 8.62364 11.4524C8.13692 10.9876 7.90176 10.2766 8.03848 9.6149C8.17442 8.88209 8.75645 8.25787 9.47832 8.07115Z" fill="white"/>
</svg>
