<svg width="19" height="25" viewBox="0 0 19 25" fill="none" xmlns="http://www.w3.org/2000/svg">
<path d="M10.9375 6.64062V0H1.17188C0.522461 0 0 0.522461 0 1.17188V23.8281C0 24.4775 0.522461 25 1.17188 25H17.5781C18.2275 25 18.75 24.4775 18.75 23.8281V7.8125H12.1094C11.4648 7.8125 10.9375 7.28516 10.9375 6.64062ZM13.7256 12.5H14.8926C15.2686 12.5 15.5469 12.8467 15.4639 13.2178L13.6084 21.4209C13.5498 21.6895 13.3105 21.875 13.0371 21.875H11.1816C10.9131 21.875 10.6787 21.6895 10.6152 21.4307C9.35547 16.377 9.59961 17.4658 9.36523 16.0352H9.34082C9.28711 16.7334 9.22363 16.8848 8.09082 21.4307C8.02734 21.6895 7.79297 21.875 7.52441 21.875H5.71289C5.43945 21.875 5.2002 21.6846 5.1416 21.416L3.2959 13.2129C3.21289 12.8467 3.49121 12.5 3.86719 12.5H5.06348C5.3418 12.5 5.58594 12.6953 5.63965 12.9736C6.40137 16.7822 6.62109 18.3203 6.66504 18.9404C6.74316 18.4424 7.02148 17.3438 8.10059 12.9492C8.16406 12.6855 8.39844 12.5049 8.67188 12.5049H10.0928C10.3662 12.5049 10.6006 12.6904 10.6641 12.9541C11.8359 17.8564 12.0703 19.0088 12.1094 19.2725C12.0996 18.7256 11.9824 18.4033 13.1641 12.9639C13.2129 12.6904 13.4521 12.5 13.7256 12.5V12.5ZM18.75 5.95215V6.25H12.5V0H12.7979C13.1104 0 13.4082 0.12207 13.6279 0.341797L18.4082 5.12695C18.6279 5.34668 18.75 5.64453 18.75 5.95215Z" fill="#0D6EFD"/>
</svg>
