<svg width="26" height="20" viewBox="0 0 26 20" fill="none" xmlns="http://www.w3.org/2000/svg">
<path d="M8.14734 1.38799C9.63249 0.384059 11.4557 -0.0994404 13.2431 0.0170313C14.9703 0.118163 16.6537 0.798244 17.9764 1.91126C19.6417 3.29983 20.7183 5.36678 20.8831 7.53088C22.3296 7.95358 23.6142 8.90183 24.4312 10.1694C25.2562 11.433 25.6005 12.9965 25.3954 14.4908C25.1795 16.1276 24.2897 17.6577 22.9836 18.6644C22.1546 19.3087 21.1643 19.7434 20.128 19.9127C19.5229 20.0218 18.9065 19.9968 18.2946 19.999C14.6396 19.999 10.9841 19.999 7.3292 19.999C6.59173 19.9996 5.85313 19.8996 5.14862 19.6809C3.41631 19.1553 1.90275 17.9537 0.993703 16.389C0.126699 14.922 -0.188627 13.1431 0.109654 11.4665C0.368165 9.99383 1.09711 8.60923 2.1624 7.56042C2.89986 6.83091 3.79527 6.26276 4.76852 5.90595C4.89749 5.87868 4.92022 5.73949 4.95829 5.63551C5.50371 3.914 6.64855 2.39305 8.14734 1.38799ZM12.2301 5.52472C11.4858 5.72301 10.9239 6.44229 10.9108 7.21271C10.9035 8.4439 10.9137 9.67566 10.9069 10.9069C10.2813 10.9165 9.65579 10.8989 9.03082 10.9131C8.52573 10.9284 8.11211 11.4301 8.18825 11.929C8.21722 12.2477 8.45528 12.4801 8.67345 12.6886C9.81203 13.8232 10.9461 14.9629 12.0847 16.0969C12.4204 16.4475 13.0329 16.4458 13.3692 16.0969C14.5374 14.9356 15.6975 13.7664 16.8657 12.6045C17.0725 12.4125 17.26 12.1682 17.2696 11.8738C17.3128 11.3921 16.9066 10.929 16.4225 10.9131C15.7975 10.8989 15.172 10.9165 14.5465 10.9069C14.5408 9.69384 14.5476 8.4814 14.5436 7.26839C14.5419 6.78034 14.338 6.29571 13.9823 5.95993C13.5306 5.5179 12.8363 5.34575 12.2301 5.52472Z" fill="#0148FF"/>
</svg>
