<svg width="25" height="20" viewBox="0 0 25 20" fill="none" xmlns="http://www.w3.org/2000/svg">
<path d="M16.3735 0.0148618C17.3906 -0.0866102 18.4375 0.337328 19.105 1.1091C19.4561 1.49694 19.6753 1.97844 19.833 2.47214C21.2134 2.46385 22.5938 2.47263 23.9746 2.46775C24.1914 2.46727 24.4268 2.45458 24.6172 2.57703C24.8091 2.68924 24.9238 2.88925 25 3.09122V3.39417C24.9268 3.61078 24.8008 3.82348 24.5918 3.93276C24.3618 4.07179 24.083 4.02349 23.8281 4.03032C22.4932 4.03276 21.1582 4.02496 19.8237 4.03374C19.6079 4.81868 19.1187 5.5324 18.4282 5.97244C17.7485 6.42175 16.8955 6.58518 16.0947 6.45053C14.9092 6.24515 13.876 5.33531 13.5459 4.1757C13.5293 4.09179 13.481 4.00496 13.3799 4.02984C9.18017 4.03081 4.97998 4.02935 0.780273 4.03032C0.416504 4.04057 0.130371 3.75713 0 3.44003V3.09171C0.0732422 2.88828 0.189941 2.68875 0.381836 2.57703C0.603027 2.43799 0.875 2.47166 1.12305 2.46824C5.25049 2.47019 9.37744 2.46824 13.5049 2.46922C13.8101 1.15252 15.0225 0.109016 16.3735 0.0148618ZM16.3286 1.58865C16.0317 1.65305 15.7495 1.79257 15.5244 1.99698C15.0444 2.42482 14.8481 3.13561 15.0444 3.74835C15.1855 4.20253 15.5288 4.59184 15.9639 4.786C16.4712 5.02602 17.0991 4.97382 17.5688 4.67184C18.2397 4.25717 18.5391 3.34539 18.2271 2.61801C17.9438 1.88039 17.1025 1.42669 16.3286 1.58865Z" fill="#7D7893"/>
<path d="M5.86084 7.90139C6.48975 7.15449 7.4668 6.71104 8.4458 6.75739C9.85986 6.76617 11.1699 7.83845 11.4907 9.20881C12.3311 9.23272 13.1729 9.21223 14.0137 9.21906C17.4165 9.22003 20.8198 9.21711 24.2227 9.22052C24.6167 9.20979 24.9541 9.53957 25 9.92204V10.0772C24.9551 10.4601 24.6157 10.788 24.2222 10.7787C21.1289 10.7821 18.0352 10.7792 14.9414 10.7802C13.791 10.787 12.6401 10.7665 11.4902 10.7904C11.1733 12.1452 9.89014 13.2077 8.49414 13.2399C7.50049 13.2999 6.49854 12.8589 5.86084 12.0978C5.53125 11.7193 5.31592 11.2573 5.17578 10.7792C3.70947 10.7807 2.24316 10.7811 0.777344 10.7792C0.411133 10.7924 0.11377 10.5026 0 10.1747V9.82545C0.0825195 9.6269 0.196777 9.42542 0.393555 9.32102C0.598145 9.19759 0.845703 9.21955 1.07422 9.21808C2.44141 9.22052 3.80859 9.2176 5.17578 9.22003C5.31543 8.74146 5.53125 8.27995 5.86084 7.90139ZM7.92676 8.3624C7.37695 8.49607 6.91162 8.92879 6.73877 9.46737C6.53809 10.0269 6.68359 10.6836 7.08008 11.1226C7.50439 11.6134 8.22168 11.8027 8.83887 11.6129C9.38135 11.448 9.82373 10.9938 9.96924 10.4455C10.1646 9.77325 9.88135 8.99904 9.29932 8.61023C8.90723 8.32923 8.39209 8.2541 7.92676 8.3624Z" fill="#7D7893"/>
<path d="M16.1133 13.5497C16.9316 13.4087 17.8032 13.5926 18.4873 14.0658C19.1479 14.5078 19.6138 15.203 19.8232 15.965C21.3037 15.9762 22.7842 15.9635 24.2642 15.9713C24.6133 15.9767 24.8711 16.2592 25 16.5597V16.9075C24.8979 17.249 24.5908 17.5403 24.2188 17.5295C22.7734 17.5334 21.3276 17.5266 19.8828 17.5324C19.7881 17.5222 19.7939 17.6359 19.7656 17.6964C19.4268 18.8745 18.354 19.7975 17.1387 19.9624C16.2329 20.1058 15.2749 19.8331 14.5762 19.2419C14.0508 18.8023 13.6645 18.1969 13.5049 17.53C9.26367 17.53 5.02246 17.531 0.78125 17.5295C0.409668 17.5403 0.101562 17.249 0 16.908V16.5607C0.125 16.2392 0.416504 15.9582 0.780273 15.9689C4.97998 15.9699 9.18017 15.9689 13.3799 15.9694C13.5015 15.9991 13.5332 15.8752 13.5581 15.7864C13.897 14.6395 14.9321 13.7375 16.1133 13.5497ZM16.2788 15.103C15.8042 15.2152 15.3857 15.5386 15.1602 15.9713C14.8872 16.4821 14.9102 17.1358 15.2163 17.6271C15.3955 17.931 15.6787 18.1657 16.0015 18.3057C16.5205 18.5359 17.1562 18.4628 17.6196 18.1388C18.1396 17.7861 18.4297 17.1305 18.333 16.5085C18.2603 16.006 17.9487 15.544 17.5088 15.2903C17.1421 15.0752 16.6929 15.0117 16.2788 15.103Z" fill="#7D7893"/>
</svg>
