<svg width="16" height="14" viewBox="0 0 16 14" fill="none" xmlns="http://www.w3.org/2000/svg">
<path d="M1.13874 0.517591C1.31217 0.346434 1.47623 0.165452 1.65529 0C5.93337 4.33439 10.2058 8.67448 14.4823 13.0105C14.4992 13.0336 14.5461 13.0685 14.5111 13.0979C14.2727 13.3525 14.0189 13.5921 13.7786 13.8447C13.7261 13.9014 13.6677 13.9525 13.607 14C12.7999 13.181 11.9983 12.3553 11.1833 11.5445C10.6483 11.749 10.0999 11.9233 9.53521 12.0216C7.46773 12.406 5.26307 11.9889 3.4809 10.8555C2.14748 10.0184 1.04749 8.80349 0.338434 7.38447C0.20781 7.15341 0.132186 6.89572 0 6.66561V6.60666C0.118749 6.38605 0.19531 6.14517 0.315934 5.92551C0.819053 4.90143 1.52873 3.98447 2.3806 3.23582C2.49153 3.14136 2.60685 3.05293 2.71122 2.95119C2.05716 2.27639 1.38998 1.61458 0.735929 0.939778C0.857178 0.786688 1.00561 0.659271 1.13874 0.517591ZM4.47589 7.53344C4.67589 8.35563 5.17057 9.09857 5.844 9.59842C6.52774 10.1154 7.39804 10.3724 8.24866 10.3046C8.71522 10.2777 9.16584 10.13 9.58864 9.93439C9.47427 9.79366 9.3374 9.67417 9.21334 9.54263C8.96396 9.29414 8.72334 9.03677 8.46897 8.79366C8.12179 8.85864 7.75991 8.86402 7.41835 8.76355C6.81211 8.59873 6.29149 8.1496 6.02556 7.57401C5.81587 7.13344 5.77306 6.62662 5.86681 6.1496C5.55088 5.81648 5.22213 5.49604 4.90307 5.16609C4.85432 5.11474 4.80245 5.06751 4.74932 5.02155C4.36401 5.78922 4.26245 6.69889 4.47589 7.53344Z" fill="#7D7893"/>
<path d="M5.11449 1.61857C7.2126 0.835365 9.61351 0.957711 11.6332 1.92443C13.3469 2.73394 14.7806 4.13616 15.6409 5.84361C15.7806 6.0883 15.865 6.35961 16 6.60652V6.66548C15.8888 6.86231 15.8203 7.08006 15.7144 7.27974C15.1863 8.37419 14.4244 9.3501 13.5038 10.1324C13.1694 9.80747 12.8482 9.46896 12.5185 9.13901C12.1407 8.75042 11.7525 8.37166 11.3804 7.978C11.4738 7.70002 11.561 7.41793 11.5963 7.12506C11.7122 6.30319 11.5344 5.44392 11.1107 4.73394C10.7051 4.04614 10.0701 3.50129 9.33507 3.20716C8.6357 2.92475 7.84696 2.86865 7.11822 3.06421C6.96479 3.10066 6.8201 3.16754 6.66541 3.19987C6.19104 2.72697 5.7248 2.24519 5.25074 1.77197C5.20231 1.72348 5.15824 1.67118 5.11449 1.61857Z" fill="#7D7893"/>
<path d="M7.89704 4.4316C8.78359 4.36123 9.66327 4.93651 10.0023 5.7644C10.1308 6.07375 10.1961 6.41353 10.1733 6.74951C10.1417 6.72288 10.1105 6.69626 10.0814 6.66773C9.43703 6.01068 8.78922 5.35711 8.14391 4.70101C8.05985 4.6129 7.96454 4.53429 7.89704 4.4316Z" fill="#7D7893"/>
</svg>
