<svg width="60" height="60" viewBox="0 0 60 60" fill="none" xmlns="http://www.w3.org/2000/svg">
<path d="M29.475 0H30.525C31.5563 0.132422 32.6098 0.0339844 33.6387 0.225C40.0172 0.975 46.1098 3.87891 50.7352 8.32969C54.9211 12.3152 57.9105 17.543 59.216 23.1738C59.5184 24.4113 59.6859 25.677 59.8535 26.9391C59.9613 27.7805 59.8734 28.6359 60 29.4738V30.5262C59.877 31.0828 59.9672 31.6559 59.9098 32.2195C59.6027 36.7266 58.2188 41.1469 55.9488 45.0504C54.0211 48.3773 51.4418 51.3223 48.409 53.6824C44.591 56.6578 40.043 58.691 35.2781 59.5359C33.9551 59.7387 32.6262 59.9555 31.2844 59.9332C31.0289 59.9215 30.7746 59.9508 30.525 60H29.1234C28.7977 59.9238 28.4637 59.925 28.1309 59.9262C23.0766 59.6484 18.116 58.0102 13.8551 55.282C7.76367 51.409 3.15469 45.266 1.17656 38.3203C0.616406 36.4523 0.291797 34.5187 0.1125 32.5781C0.0304687 31.8961 0.126563 31.2023 0 30.5262V29.4738C0.0257812 29.3367 0.0457031 29.1996 0.0609375 29.0625C0.0515625 26.6918 0.458203 24.3328 1.06875 22.0477C2.84766 15.5273 6.91523 9.6668 12.3973 5.71406C16.4027 2.80078 21.143 0.891797 26.0578 0.264844C27.1852 0.0398438 28.3418 0.133594 29.475 0ZM21.8145 16.9805C21.7852 19.7965 21.8109 22.6137 21.8016 25.4297C21.8098 31.2938 21.7863 37.1566 21.8133 43.0207C22.207 42.8496 22.5562 42.5965 22.9336 42.3961C29.7199 38.4773 36.5062 34.5598 43.2926 30.641C43.6441 30.4277 44.0215 30.2566 44.3461 30C42.9375 29.1105 41.4645 28.3219 40.0289 27.4746C35.7469 24.9996 31.4625 22.5305 27.1805 20.0543C25.3875 19.0383 23.6227 17.9684 21.8145 16.9805Z" fill="white"/>
</svg>
