<svg width="80" height="80" viewBox="0 0 80 80" fill="none" xmlns="http://www.w3.org/2000/svg">
<path d="M38.9953 0H41.6266C43.9734 0.16875 46.325 0.385938 48.6234 0.9125C58.1859 2.94375 66.9547 8.61719 72.5875 16.6266C77.2375 23.1125 79.8063 31.0219 80 38.9922V41.4703C79.7953 44.3719 79.4344 47.275 78.6719 50.0891C76.075 60.1484 69.35 69.0359 60.4219 74.3344C55.275 77.4203 49.4172 79.3063 43.4391 79.8313C42.6781 79.8703 41.9234 79.9781 41.1625 80H38.3734C35.7281 79.8234 33.0828 79.5328 30.5063 78.8906C23.6547 77.2703 17.2656 73.7812 12.1797 68.9172C6.46562 63.4141 2.47031 56.1609 0.860938 48.3937C0.385938 46.2188 0.173438 43.9984 0 41.7828V38.8391C0.0171875 38.1297 0.123438 37.4266 0.157813 36.7188C0.779688 29.15 3.625 21.7781 8.25937 15.7609C13.0891 9.43281 19.8375 4.58281 27.3969 2.07812C31.1328 0.809375 35.0594 0.170313 38.9953 0ZM36.7953 3.23281C30.8203 3.73438 24.9844 5.75 19.9609 9.02031C14.5734 12.5047 10.1219 17.4188 7.18437 23.1234C4.61562 28.0828 3.20156 33.6375 3.10625 39.2234C2.97344 44.7031 4.09844 50.2094 6.37031 55.1984C8.58125 60.0812 11.8766 64.4656 15.9359 67.9641C21.3203 72.6125 28.0688 75.6719 35.1281 76.5844C41.9188 77.4938 48.9625 76.4781 55.1984 73.6297C60.7906 71.0969 65.7328 67.1437 69.4312 62.2437C72.8719 57.7141 75.25 52.3766 76.2828 46.7797C77.6828 39.2984 76.7188 31.3797 73.4828 24.4828C69.5078 15.8672 62.0828 8.91875 53.2156 5.54062C48.0141 3.525 42.3484 2.75 36.7953 3.23281Z" fill="white"/>
<path d="M27.714 19.7313C28.2765 19.4516 28.9218 19.6438 29.4343 19.9407C40.1625 26.1391 50.8968 32.3328 61.6281 38.5282C62.3578 38.8875 62.7515 39.8016 62.439 40.5688C62.1687 41.2657 61.4328 41.575 60.8343 41.9328C50.2953 48.0063 39.7671 54.1 29.2265 60.1719C28.4421 60.6828 27.2859 60.3375 26.9109 59.4813C26.6687 58.85 26.764 58.1594 26.7468 57.5C26.75 45.4657 26.7468 33.4297 26.7468 21.3953C26.7031 20.711 27.0671 20.0032 27.714 19.7313Z" fill="white"/>
</svg>
