<svg width="16" height="16" viewBox="0 0 16 16" fill="none" xmlns="http://www.w3.org/2000/svg">
<rect width="16" height="16" fill="white"/>
<path d="M8 16C12.4183 16 16 12.4183 16 8C16 3.58172 12.4183 0 8 0C3.58172 0 0 3.58172 0 8C0 12.4183 3.58172 16 8 16Z" fill="#FBA63F"/>
<path d="M8.00023 0.945312C4.10164 0.945312 0.941406 4.10555 0.941406 8.00414C0.941406 11.9027 4.10164 15.063 8.00023 15.063C11.8988 15.063 15.0591 11.9025 15.0591 8.00414C15.0591 4.10555 11.8988 0.945312 8.00023 0.945312Z" fill="white"/>
<path d="M12.1485 10.209C11.2115 9.74051 9.1553 9.05133 9.1553 9.05133V8.37133L9.21224 8.32804C9.61201 8.02333 9.87836 7.57604 9.956 7.07933L9.96965 7.00663H10.0242C10.3327 7.00804 10.6111 6.82169 10.7271 6.5358C10.7951 6.41251 10.8311 6.27416 10.8318 6.13322C10.8308 6.03745 10.8122 5.94263 10.7772 5.85345C10.7602 5.75486 10.7054 5.66686 10.6247 5.6078L10.4337 5.49416L10.4814 5.28945C10.8158 3.8271 9.72189 2.51016 8.21836 2.41698C8.20871 2.4151 8.19859 2.41439 8.18871 2.41463C8.16377 2.41227 8.13859 2.41016 8.11365 2.41016H7.88612C7.86118 2.41016 7.83601 2.41251 7.81106 2.41463C7.80118 2.41416 7.7913 2.4151 7.78142 2.41698C6.28024 2.51016 5.18636 3.8271 5.52071 5.28945L5.56612 5.49416L5.37506 5.6078C5.29506 5.66757 5.24071 5.75533 5.22259 5.85345C5.18824 5.94263 5.17036 6.03745 5.17036 6.13322C5.16989 6.27416 5.20589 6.41274 5.27506 6.5358C5.39106 6.82169 5.66942 7.00804 5.97789 7.00663H6.03248L6.04377 7.07933C6.1233 7.5758 6.39036 8.02286 6.78989 8.32804L6.84683 8.37133V9.05133C6.84683 9.05133 4.79083 9.74051 3.85153 10.209C3.5673 10.352 3.36753 10.621 3.31248 10.9344C3.30801 10.964 3.3033 10.9934 3.29883 11.0254C3.3353 11.0869 3.37624 11.1483 3.4193 11.2073C3.79553 11.7462 4.26401 12.2142 4.80283 12.5902C7.33365 14.356 10.8169 13.7358 12.5826 11.205C12.6235 11.1459 12.6621 11.089 12.7009 11.0276C12.6965 10.9958 12.6918 10.9638 12.6873 10.9344C12.6334 10.6207 12.4332 10.3513 12.1485 10.209Z" fill="#FBA63F"/>
</svg>
