<svg width="16" height="16" viewBox="0 0 16 16" fill="none" xmlns="http://www.w3.org/2000/svg">
<rect width="16" height="16" fill="white"/>
<path d="M7.57959 7.40497C6.96137 8.0232 5.96003 8.02468 5.33989 7.40952C5.29476 7.60771 5.27149 7.81235 5.27149 8.02061C5.27149 8.74939 5.55528 9.43453 6.0706 9.94985C6.60243 10.4817 7.30125 10.7476 7.99984 10.7477C8.69861 10.7477 9.39712 10.4818 9.92909 9.94985C10.9929 8.88607 10.9929 7.15517 9.92907 6.09138C9.39718 5.55949 8.69851 5.29354 7.99984 5.29354C7.90328 5.29354 7.80675 5.29881 7.71064 5.30897C8.19571 5.93157 8.15205 6.83252 7.57959 7.40497ZM15.8322 7.70552C15.0882 6.30829 13.981 5.13188 12.6303 4.30345C11.2399 3.45072 9.63879 3 8 3C6.3612 3 4.76008 3.45072 3.36975 4.30345C2.01904 5.13188 0.911817 6.30828 0.167779 7.70552L0 8.0206L0.167779 8.33567C0.911817 9.7329 2.01904 10.9093 3.36975 11.7377C4.7601 12.5905 6.36121 13.0412 8 13.0412C9.63879 13.0412 11.2399 12.5905 12.6303 11.7377C13.981 10.9093 15.0882 9.73291 15.8322 8.33567L16 8.0206L15.8322 7.70552ZM10.9794 11.0002C10.1836 11.7961 9.12539 12.2344 7.99985 12.2344C6.87431 12.2344 5.81615 11.7961 5.02027 11.0002C4.22439 10.2043 3.78608 9.14617 3.78608 8.02061C3.78608 6.89507 4.22439 5.83691 5.02027 5.04103C5.81615 4.24515 6.87431 3.80684 7.99985 3.80684C9.12538 3.80684 10.1836 4.24515 10.9794 5.04103C11.7753 5.83691 12.2136 6.89507 12.2136 8.02061C12.2136 9.14615 11.7753 10.2043 10.9794 11.0002Z" fill="#8AC709"/>
</svg>
