<svg width="13" height="16" viewBox="0 0 13 16" fill="none" xmlns="http://www.w3.org/2000/svg">
<rect width="13" height="16" fill="white"/>
<path d="M12.6875 3.3125C12.5 3.125 12.25 3 12 3H11V2.25C11 1.9375 10.875 1.625 10.625 1.375C10.375 1.125 10.0625 1 9.75 1H9.25C8.875 1 8.625 1.125 8.375 1.375C8.125 1.625 8 1.9375 8 2.25V3H5V2.25C5 1.9375 4.875 1.625 4.625 1.375C4.375 1.125 4.125 1 3.75 1H3.25C2.9375 1 2.625 1.125 2.375 1.375C2.125 1.625 2 1.9375 2 2.25V3H1C0.75 3 0.5 3.125 0.3125 3.3125C0.125 3.5 0 3.75 0 4V14C0 14.25 0.125 14.5 0.3125 14.6875C0.5 14.875 0.75 15 1 15H12C12.25 15 12.5 14.875 12.6875 14.6875C12.875 14.5 13 14.25 13 14V4C13 3.75 12.875 3.5 12.6875 3.3125ZM3.25 14H1V11.75H3.25V14V14ZM3.25 11.25H1V8.75H3.25V11.25V11.25ZM3.25 8.25H1V6H3.25V8.25V8.25ZM3.0625 4.6875C3 4.625 3 4.5625 3 4.5V2.25C3 2.1875 3 2.125 3.0625 2.0625C3.125 2 3.1875 2 3.25 2H3.75C3.8125 2 3.875 2 3.9375 2.0625C4 2.125 4 2.1875 4 2.25V4.5C4 4.5625 4 4.625 3.9375 4.6875C3.875 4.75 3.8125 4.75 3.75 4.75H3.25C3.1875 4.75 3.125 4.75 3.0625 4.6875ZM6.25 14H3.75V11.75H6.25V14ZM6.25 11.25H3.75V8.75H6.25V11.25ZM6.25 8.25H3.75V6H6.25V8.25ZM9.25 14H6.75V11.75H9.25V14ZM9.25 11.25H6.75V8.75H9.25V11.25ZM9.25 8.25H6.75V6H9.25V8.25ZM9.0625 4.6875C9 4.625 9 4.5625 9 4.5V2.25C9 2.1875 9 2.125 9.0625 2.0625C9.125 2 9.1875 2 9.25 2H9.75C9.8125 2 9.875 2 9.9375 2.0625C10 2.125 10 2.1875 10 2.25V4.5C10 4.5625 10 4.625 9.9375 4.6875C9.875 4.75 9.8125 4.75 9.75 4.75H9.25C9.1875 4.75 9.125 4.75 9.0625 4.6875ZM12 14H9.75V11.75H12V14ZM12 11.25H9.75V8.75H12V11.25ZM12 8.25H9.75V6H12V8.25Z" fill="#2BAAFA"/>
</svg>
