<svg width="30" height="30" viewBox="0 0 30 30" fill="none" xmlns="http://www.w3.org/2000/svg">
<path d="M22 11.5899V11.9983C21.9672 12.3081 21.9289 12.6178 21.8332 12.9166C21.6609 13.4922 21.3492 14.0212 20.9309 14.4516C20.2363 15.1643 19.5418 15.8742 18.8473 16.5841C18.7789 16.6554 18.7133 16.7294 18.634 16.787C18.6449 16.6061 18.6914 16.4306 18.7023 16.2525C18.7516 15.5974 18.6941 14.9285 18.4945 14.3008C18.4617 14.2186 18.4863 14.1281 18.552 14.0678C18.9074 13.7033 19.2629 13.336 19.6184 12.9687C20.0531 12.5109 20.2199 11.8201 20.0395 11.2144C19.9109 10.7566 19.5938 10.3591 19.1836 10.1262C18.8172 9.91509 18.3715 9.84382 17.9586 9.92606C17.6004 9.99184 17.2668 10.1755 17.0125 10.4359C16.2523 11.2171 15.4867 11.9928 14.7293 12.7795C14.4941 13.0344 14.259 13.3003 14.1277 13.6265C13.9965 13.9746 13.9883 14.3639 14.084 14.723C14.2043 15.1835 14.5187 15.5837 14.9234 15.8276C14.9727 15.8605 15.0328 15.8961 15.0383 15.9619C15.0465 16.0167 15.0137 16.0633 14.9891 16.1072C14.7102 16.5458 14.3684 16.9405 13.9937 17.2996C13.9391 17.3571 13.8516 17.3681 13.7887 17.3188C12.7715 16.6499 12.159 15.4439 12.1426 14.2323C12.1207 13.3826 12.3914 12.5273 12.9082 11.8503C13.0559 11.6529 13.2309 11.4802 13.4004 11.3048C14.1086 10.5812 14.8168 9.85479 15.525 9.13114C16.1074 8.53633 16.8895 8.14161 17.7152 8.03471C18.4371 7.93603 19.1891 8.04841 19.848 8.36364C20.6273 8.73094 21.2727 9.37784 21.6391 10.159C21.8496 10.6058 21.959 11.0965 22 11.5899ZM16.2414 12.7137C16.1594 12.648 16.0336 12.6534 15.957 12.7274C15.5605 13.0564 15.2078 13.4483 14.9781 13.9116C14.9453 13.9719 14.9316 14.0541 14.9809 14.1117C15.0547 14.1884 15.1531 14.2296 15.2352 14.2953C15.6207 14.5886 15.9023 15.0327 15.957 15.5179C15.9926 15.8413 15.957 16.1785 15.8094 16.469C15.6344 16.8226 15.3609 17.1132 15.093 17.3955C14.3766 18.1301 13.6602 18.8647 12.941 19.5966C12.6156 19.9091 12.1672 20.0955 11.716 20.0982C11.2594 20.1092 10.8 19.9365 10.4637 19.624C10.0918 19.2869 9.87031 18.788 9.87578 18.2864C9.87305 17.8916 10.0016 17.4997 10.2395 17.1872C10.3488 17.0419 10.4828 16.9186 10.6086 16.7897C10.882 16.5047 11.1555 16.2251 11.4316 15.9427C11.4754 15.8961 11.5219 15.8358 11.5082 15.7673C11.4863 15.6357 11.4371 15.5124 11.4098 15.3863C11.2812 14.8271 11.2402 14.2487 11.2922 13.6759C11.3031 13.5278 11.3332 13.3826 11.3441 13.2373C11.3031 13.2647 11.2648 13.2948 11.2293 13.3277C10.5047 14.0733 9.77461 14.8134 9.05 15.559C8.46484 16.1702 8.09844 16.9843 8.01914 17.8259C8.01367 17.8862 8.00547 17.9437 8 18.004V18.4371C8.04922 19.0155 8.20234 19.5911 8.49219 20.0982C8.86953 20.778 9.46563 21.3262 10.1711 21.6497C10.9422 22.006 11.8336 22.0965 12.6566 21.8936C13.2063 21.7648 13.7258 21.5071 14.1633 21.1481C14.4039 20.9617 14.5953 20.7232 14.8113 20.5121C15.2078 20.1147 15.6043 19.7172 15.998 19.317C16.3836 18.9168 16.7746 18.5194 17.1219 18.0835C17.3953 17.7518 17.5813 17.3544 17.707 16.9432C17.9176 16.2305 17.9121 15.4603 17.7098 14.7476C17.4691 13.9308 16.9414 13.1989 16.2414 12.7137Z" fill="white"/>
</svg>
