<svg width="20" height="20" viewBox="0 0 20 20" fill="none" xmlns="http://www.w3.org/2000/svg">
<path d="M13.8641 12.8384C14.3732 12.7663 14.7423 12.2063 14.6235 11.7057C14.5684 11.4597 14.3902 11.2603 14.1738 11.133C13.6605 10.8233 13.1133 10.5772 12.5533 10.3694C13.4102 9.72877 14.0975 8.86333 14.492 7.86638C14.8908 6.87791 15.0011 5.77914 14.8144 4.73128C14.5896 3.46706 13.9235 2.28769 12.9605 1.44346C12.0357 0.620446 10.8394 0.107122 9.60483 0.0180322C8.40848 -0.0795419 7.18669 0.221665 6.16428 0.853775C5.074 1.52407 4.21704 2.56344 3.77584 3.76827C3.32615 4.96037 3.30918 6.30944 3.70796 7.51851C4.08553 8.6894 4.86612 9.7118 5.86308 10.4288C5.25218 10.6833 4.66249 10.9845 4.11523 11.3621C2.83404 12.2318 1.76496 13.4196 1.04801 14.7941C0.352262 16.1262 -0.00833836 17.628 0.000146339 19.1256C0.000146339 19.3674 0.093478 19.6135 0.275899 19.7704C0.589833 20.0462 1.08619 20.0759 1.43406 19.8468C1.62072 19.728 1.74799 19.5286 1.78617 19.308C1.82011 19.1044 1.80739 18.9007 1.82012 18.6971C1.86678 17.7892 2.07466 16.8856 2.4395 16.0541C3.02918 14.7008 4.03462 13.5342 5.27763 12.7451C6.35943 12.0536 7.61517 11.6548 8.89636 11.5869C10.3939 11.4978 11.9169 11.8796 13.1981 12.6645C13.3932 12.7875 13.6266 12.8766 13.8641 12.8384ZM11.5987 8.84212C10.9412 9.35969 10.1139 9.65241 9.28241 9.67362C8.43394 9.70332 7.58123 9.44878 6.88972 8.95667C6.10913 8.41364 5.5449 7.5779 5.33278 6.65307C5.12915 5.78763 5.22672 4.85007 5.61278 4.04827C6.17701 2.84768 7.38608 1.98224 8.70969 1.84224C9.60483 1.74043 10.5381 1.9483 11.2933 2.43617C12.0654 2.92828 12.6508 3.70463 12.9181 4.5828C13.1642 5.37612 13.1514 6.2458 12.8799 7.03064C12.6424 7.74335 12.1884 8.37971 11.5987 8.84212ZM19.0525 16.8899C18.8913 17.102 18.6241 17.2123 18.3653 17.2165C17.7544 17.225 17.1435 17.2165 16.5283 17.2165C16.5241 17.8105 16.5283 18.4044 16.5283 19.0026C16.5283 19.2444 16.4477 19.4947 16.2696 19.6644C15.9641 19.9613 15.4508 19.9953 15.0987 19.7619C14.8484 19.6007 14.7169 19.2995 14.7169 19.0068C14.7126 18.4129 14.7169 17.8147 14.7169 17.2208C14.0932 17.225 13.4696 17.2208 12.846 17.2208C12.6211 17.2208 12.3963 17.1444 12.2351 16.9874C11.9169 16.682 11.8745 16.139 12.1333 15.7826C12.2987 15.5366 12.5999 15.4093 12.8884 15.4093C13.4993 15.405 14.106 15.4093 14.7169 15.4093C14.7169 14.8111 14.7169 14.2129 14.7169 13.6148C14.7169 13.3814 14.7975 13.1439 14.9629 12.9742C15.192 12.7196 15.5738 12.6221 15.9005 12.7281C16.2611 12.8384 16.5283 13.1948 16.5283 13.5723C16.5326 14.1832 16.5283 14.7984 16.5326 15.4093C17.1435 15.4135 17.7586 15.405 18.3695 15.4135C18.6198 15.4135 18.8744 15.5153 19.0356 15.7105C19.3113 16.0287 19.3113 16.5505 19.0525 16.8899Z" fill="white"/>
</svg>
