<svg width="16" height="14" viewBox="0 0 16 14" fill="none" xmlns="http://www.w3.org/2000/svg">
<path d="M5.72422 0.116707C6.85346 -0.0923293 8.03472 -0.0200073 9.12907 0.329232C10.2228 0.67752 11.227 1.30177 12.0242 2.12745C12.8368 2.96328 13.4364 4.00528 13.7456 5.12976C13.9252 5.76702 14.001 6.42966 14.0016 7.09071C14.3892 7.13067 14.7791 7.15668 15.1657 7.2049C15.3706 7.23916 15.4553 7.524 15.3044 7.66611C14.544 8.48132 13.7802 9.29304 13.0189 10.1073C12.9494 10.1879 12.8419 10.2424 12.7341 10.2167C12.6433 10.2025 12.5777 10.1314 12.5317 10.0575C11.9633 9.15633 11.3948 8.25515 10.8251 7.35494C10.7709 7.26517 10.6941 7.17445 10.7037 7.06279C10.7122 6.92037 10.8442 6.79603 10.9888 6.80649C11.3701 6.83536 11.7504 6.88008 12.1317 6.91149C12.1155 5.87265 11.7758 4.84111 11.1652 3.99989C10.5409 3.13171 9.64008 2.46432 8.62408 2.12904C7.63092 1.79439 6.53499 1.78138 5.53168 2.07955C4.44209 2.40088 3.47082 3.09967 2.81453 4.0259C2.21724 4.86046 1.88227 5.87836 1.86737 6.90451C1.84358 7.97887 2.17061 9.05672 2.78884 9.93569C3.40865 10.8258 4.3168 11.5131 5.34548 11.8586C5.87616 12.0419 6.43761 12.1285 6.99811 12.1339C6.99747 12.7559 7.0054 13.3783 6.99398 14C5.34707 14.0013 3.70714 13.4005 2.45895 12.3249C1.51939 11.5277 0.797444 10.4765 0.391742 9.31302C0.0247399 8.26975 -0.0846947 7.13892 0.0647074 6.04394C0.20047 5.03841 0.561445 4.06397 1.11243 3.21196C2.13826 1.60565 3.84671 0.452941 5.72422 0.116707Z" fill="white"/>
</svg>
