<svg width="13" height="14" viewBox="0 0 13 14" fill="none" xmlns="http://www.w3.org/2000/svg">
<path d="M1.3601 0.0142086C1.44589 0.00327148 1.5327 0.00122084 1.61917 0.000537267C3.87496 0.00122084 6.13075 0.00053721 8.38653 0.000878996C8.64834 0.00190435 8.9163 -0.0151849 9.16991 0.0644512C9.41394 0.132467 9.6361 0.267472 9.81759 0.44315C10.5371 1.13629 11.2575 1.82841 11.9767 2.52189C12.2333 2.7649 12.4049 3.09609 12.45 3.44711C12.4719 3.61663 12.4654 3.78787 12.4661 3.95842C12.4654 6.78362 12.4671 9.60848 12.4651 12.4337C12.4681 12.9139 12.2357 13.3876 11.8526 13.6774C11.5785 13.8917 11.2299 14.0038 10.8826 13.9997C7.78294 14.0001 4.68363 14.0001 1.58397 13.9997C1.25312 14.0038 0.92193 13.9023 0.654312 13.7072C0.24827 13.4204 -0.00328395 12.931 0.00150105 12.4337C-0.000207881 8.82271 0.0011593 5.2114 0.000475732 1.60044C-0.00977784 1.19029 0.146077 0.777416 0.433177 0.483139C0.676186 0.226799 1.00943 0.0576154 1.3601 0.0142086ZM2.71562 1.67734C2.71152 2.14183 2.71084 2.607 2.71528 3.07182C2.72964 3.63782 3.13294 4.16451 3.67296 4.33165C3.91358 4.4147 4.17129 4.39898 4.42182 4.4C5.53843 4.4 6.6547 4.4 7.77132 4.4C7.99485 4.39864 8.22282 4.41231 8.44088 4.35318C8.89101 4.24039 9.26595 3.88049 9.40608 3.43924C9.50486 3.14326 9.46658 2.82711 9.47307 2.52087C9.48674 2.42722 9.39959 2.37595 9.34388 2.3175C9.11864 2.11106 8.91049 1.88514 8.67773 1.68725C8.365 1.66845 8.05056 1.68588 7.73714 1.67973C6.06341 1.67802 4.38935 1.68315 2.71562 1.67734ZM5.73462 8.08343C5.27799 8.18357 4.86956 8.48571 4.64261 8.89483C4.43446 9.26225 4.37499 9.70965 4.47958 10.1188C4.58417 10.5416 4.86614 10.9158 5.23971 11.138C5.59414 11.3512 6.02992 11.4261 6.43459 11.3379C6.88883 11.2443 7.29453 10.9493 7.52831 10.5498C7.74876 10.182 7.81165 9.72742 7.70843 9.31215C7.5912 8.82442 7.23745 8.40266 6.78117 8.19622C6.45681 8.04652 6.08324 8.0079 5.73462 8.08343Z" fill="white"/>
</svg>
