<svg width="24" height="24" viewBox="0 0 24 24" fill="none" xmlns="http://www.w3.org/2000/svg">
<path d="M9.57436 9.55897L10.2513 11.3641H9.01026L9.57436 9.55897ZM23 10.5744C23 15.3128 18.0359 19.2615 11.9436 19.2615C11.2667 19.2615 10.5897 19.2615 10.0256 19.1487C9.34872 19.6 5.73846 22.1949 5.4 22.1949C5.4 22.1949 5.28718 22.1949 5.17436 22.1949C5.06154 22.0821 5.06154 21.9692 5.06154 21.9692C5.06154 21.7436 5.9641 18.5846 6.18974 18.0205C3.14359 16.441 1 13.7333 1 10.6872C1 5.94872 5.9641 2 12.0564 2C18.1487 2 23 5.72308 23 10.5744ZM6.5282 9.22051H7.43077C7.76923 9.22051 8.10769 8.99487 8.10769 8.54359C8.10769 8.09231 7.88205 7.97949 7.43077 7.97949H4.27179C3.93333 7.97949 3.59487 8.20513 3.59487 8.54359C3.59487 8.88205 3.82051 9.22051 4.27179 9.22051H5.17436V12.9436C5.17436 13.2821 5.51282 13.5077 5.85128 13.5077C6.18974 13.5077 6.5282 13.2821 6.5282 12.9436V9.22051V9.22051ZM11.9436 12.6051L10.4769 8.65641C10.3641 8.31795 10.0256 8.09231 9.57436 7.97949C9.12308 7.97949 8.78462 8.31795 8.78462 8.65641L7.31795 12.6051C7.09231 13.1692 7.31795 13.3949 7.43077 13.5077C7.54359 13.6205 7.65641 13.6205 7.88205 13.6205C8.10769 13.6205 8.33333 13.5077 8.44615 13.3949L8.78462 12.6051H10.7026L11.041 13.3949C11.1538 13.6205 11.2667 13.6205 11.6051 13.6205C11.7179 13.6205 11.8308 13.6205 12.0564 13.5077C12.0564 13.3949 12.1692 13.1692 11.9436 12.6051ZM15.6667 12.8308C15.6667 12.4923 15.441 12.2667 15.1026 12.2667H13.7487V8.54359C13.7487 8.20513 13.4103 7.86667 13.0718 7.86667C12.7333 7.86667 12.3949 8.20513 12.3949 8.54359V12.8308C12.3949 13.1692 12.6205 13.3949 12.959 13.3949H14.9897C15.3282 13.5077 15.6667 13.1692 15.6667 12.8308ZM19.9538 12.9436C19.9538 12.8308 19.9538 12.8308 19.9538 12.7179C19.9538 12.6051 19.841 12.6051 19.841 12.4923L18.3744 10.4615L19.841 8.99487C19.9538 8.88205 19.9538 8.76923 19.9538 8.65641C19.9538 8.54359 19.841 8.31795 19.7282 8.20513C19.6154 8.09231 19.5026 7.97949 19.2769 7.97949C19.1641 7.97949 19.0513 7.97949 18.9385 8.09231L17.1333 9.89744V8.54359C17.1333 8.20513 16.7949 7.86667 16.4564 7.86667C16.1179 7.86667 15.7795 8.20513 15.7795 8.54359V12.8308C15.7795 13.1692 16.1179 13.5077 16.4564 13.5077C16.5692 13.5077 16.7949 13.3949 16.9077 13.2821C17.0205 13.1692 17.1333 13.0564 17.1333 12.8308V11.4769L17.359 11.2513L18.8256 13.1692C18.9385 13.2821 18.9385 13.2821 19.0513 13.3949C19.1641 13.3949 19.2769 13.5077 19.3897 13.5077C19.5026 13.5077 19.6154 13.5077 19.7282 13.3949C19.841 13.3949 19.841 13.2821 19.841 13.1692C19.9538 13.1692 19.9538 13.0564 19.9538 12.9436Z" fill="#FFE812"/>
</svg>
