<svg width="24" height="24" viewBox="0 0 24 24" fill="none" xmlns="http://www.w3.org/2000/svg">
<path d="M18.4444 6.77778C18.4444 7.44444 17.8889 8 17.2222 8C16.5556 8 16 7.44444 16 6.77778C16 6.11111 16.5556 5.55556 17.2222 5.55556C17.8889 5.55556 18.4444 6.11111 18.4444 6.77778ZM17 12C17 14.6667 14.7778 16.8889 12.1111 16.8889C9.44445 16.8889 7.22222 14.6667 7.22222 12C7.22222 9.33333 9.44445 7.11111 12.1111 7.11111C14.7778 7.11111 17 9.33333 17 12ZM15.2222 12C15.2222 10.2222 13.7778 8.88889 12.1111 8.88889C10.3333 8.88889 9 10.3333 9 12C9 13.7778 10.4444 15.1111 12.1111 15.1111C13.7778 15.1111 15.2222 13.7778 15.2222 12ZM22 8V16C22 19.3333 19.3333 22 16 22H8C4.66667 22 2 19.3333 2 16V8C2 4.66667 4.66667 2 8 2H16C19.3333 2 22 4.66667 22 8ZM20.1111 8C20.1111 5.77778 18.2222 3.88889 16 3.88889H8C5.77778 3.88889 3.88889 5.77778 3.88889 8V16C3.88889 18.2222 5.77778 20.1111 8 20.1111H16C18.2222 20.1111 20.1111 18.2222 20.1111 16V8Z" fill="url(#paint0_linear_293_1515)"/>
<defs>
<linearGradient id="paint0_linear_293_1515" x1="24.0628" y1="-0.0545551" x2="-6.50989" y2="30.5107" gradientUnits="userSpaceOnUse">
<stop offset="0.0011048" stop-color="#FBE18A"/>
<stop offset="0.2094" stop-color="#FCBB45"/>
<stop offset="0.7394" stop-color="#8F39CE"/>
<stop offset="1" stop-color="#5B4FE9"/>
</linearGradient>
</defs>
</svg>
