<svg width="20" height="20" viewBox="0 0 20 20" fill="none" xmlns="http://www.w3.org/2000/svg">
<path d="M17.5447 17.2878C17.5485 17.6802 17.1829 18.0254 16.7913 17.9985C16.4014 17.9943 16.0695 17.6321 16.0925 17.243C16.0942 14.8708 16.0874 12.4982 16.0963 10.1256C16.0435 10.2816 15.9676 10.4329 15.847 10.5475C14.1626 12.2294 12.4811 13.9138 10.7971 15.5961C10.5824 15.8224 10.2189 15.8846 9.94278 15.738C9.65515 15.5923 9.48769 15.2454 9.56567 14.9301C9.61638 14.6753 9.82986 14.5082 10.002 14.3322C11.202 13.131 12.4053 11.9332 13.6023 10.729C10.3037 10.7196 7.00471 10.7303 3.70615 10.7239C3.37165 10.7235 3.06528 10.4563 3.01372 10.1269C2.92508 9.70888 3.27876 9.27254 3.70615 9.2751C7.00471 9.26871 10.3033 9.27936 13.6023 9.26956C12.3895 8.053 11.1734 6.83942 9.95855 5.62499C9.79321 5.46136 9.60104 5.29262 9.56098 5.05059C9.48258 4.69563 9.71694 4.31 10.0659 4.21285C10.3216 4.13359 10.6118 4.21114 10.7967 4.40332C12.4875 6.09244 14.1758 7.78497 15.8679 9.47324C15.9783 9.58403 16.046 9.72763 16.0963 9.87336C16.0861 7.54337 16.0963 5.21337 16.0912 2.88337C16.0912 2.72911 16.0912 2.56762 16.1581 2.42487C16.274 2.16664 16.5506 1.9898 16.8343 2.00046C17.1599 2.00003 17.4629 2.25101 17.5281 2.56889C17.5562 2.71463 17.5455 2.86377 17.5468 3.0112C17.5447 7.77006 17.5485 12.5289 17.5447 17.2878Z" fill="white"/>
</svg>
