<svg width="30" height="20" viewBox="0 0 30 20" fill="none" xmlns="http://www.w3.org/2000/svg">
<path d="M22.8981 3.9C22.5924 3.2 21.879 2.6 21.0637 2.6C20.4522 2.6 19.7389 2.6 19.1274 2.6C19.1274 2.3 19.1274 2 19.1274 1.7C19.1274 1.4 18.8217 1.4 18.5159 1.4C18.0064 1.4 17.5987 1.4 17.0892 1.4C16.9873 1.1 16.8853 0.9 16.6815 0.7C16.2739 0.3 15.7643 0 15.1529 0H14.7452C14.0318 0.1 13.3185 0.5 13.0127 1.1C12.9108 1.2 12.9108 1.3 12.8089 1.4C12.4013 1.4 12.0955 1.4 11.6879 1.4C11.4841 1.4 11.1783 1.4 11.0764 1.5C10.9745 1.6 10.9745 1.7 10.9745 1.8C10.9745 2.1 10.9745 2.3 10.9745 2.6C10.465 2.6 9.8535 2.6 9.34395 2.6C9.03822 2.6 8.73248 2.6 8.42675 2.8C7.50955 3.1 7 3.8 7 4.6C7 9 7 13.4 7 17.9C7 18.2 7 18.5 7.10191 18.7C7.20382 19.2 7.61146 19.6 8.01911 19.8C8.22293 19.9 8.52866 20 8.83439 20H21.1656C21.4713 20 21.6752 19.9 21.879 19.8C22.3885 19.6 22.6943 19.2 22.8981 18.7C23 18.4 23 18.1 23 17.8C23 13.5 23 9.2 23 4.8C23 4.5 23 4.2 22.8981 3.9ZM13.1146 2.4C13.3185 2.4 13.4204 2.3 13.5223 2.2C13.6242 2.1 13.6242 1.9 13.7261 1.8C13.9299 1.3 14.4395 0.9 14.949 0.9C15.4586 0.9 15.9682 1.3 16.172 1.7C16.2739 1.8 16.2739 2 16.2739 2.1C16.3758 2.3 16.5796 2.4 16.7834 2.4C17.1911 2.4 17.7006 2.4 18.1083 2.4C18.1083 3 18.1083 3.7 18.1083 4.3C15.9682 4.3 13.9299 4.3 11.7898 4.3C11.7898 3.7 11.7898 3 11.7898 2.4C12.2994 2.4 12.707 2.4 13.1146 2.4ZM22.0828 17.9C22.0828 18.1 22.0828 18.3 21.9809 18.5C21.879 18.8 21.5732 18.9 21.3694 19C21.1656 19.1 20.9618 19.1 20.656 19.1C16.7834 19.1 12.9108 19.1 9.03822 19.1C8.73248 19.1 8.32484 19 8.12102 18.7C8.01911 18.5 7.9172 18.4 8.01911 18.2C8.01911 13.7 8.01911 9.2 8.01911 4.6C8.01911 4.1 8.52866 3.6 9.03822 3.6C9.64968 3.6 10.2611 3.6 10.8726 3.6C10.8726 4 10.8726 4.4 10.8726 4.8C10.8726 5.1 11.1783 5.3 11.3822 5.2C13.7261 5.2 16.172 5.2 18.5159 5.2C18.8217 5.2 19.0255 5 19.0255 4.7C19.0255 4.3 19.0255 3.9 19.0255 3.5C19.6369 3.5 20.2484 3.5 20.8599 3.5C21.3694 3.5 21.879 4 21.879 4.5C22.0828 9 22.0828 13.5 22.0828 17.9ZM9.54777 8.3C9.44586 8.1 9.34395 7.8 9.54777 7.7C9.75159 7.4 10.1592 7.4 10.3631 7.7C10.5669 7.9 10.7707 8.1 10.9745 8.3C11.3822 7.9 11.8917 7.5 12.2994 7C12.4013 6.9 12.6051 6.7 12.8089 6.7C13.1146 6.7 13.4204 6.9 13.3185 7.2C13.3185 7.3 13.2166 7.4 13.1146 7.5C12.5032 8 11.9936 8.6 11.3822 9.1C11.2803 9.2 11.0764 9.4 10.8726 9.4C10.6688 9.4 10.465 9.2 10.3631 9.1C10.1592 8.8 9.8535 8.5 9.54777 8.3ZM20.5541 8.3C20.5541 8.5 20.3503 8.8 20.1465 8.8C20.0446 8.8 19.8408 8.8 19.7389 8.8C18.0064 8.8 16.2739 8.8 14.4395 8.8C14.2357 8.8 13.9299 8.6 13.9299 8.3C13.9299 8.1 14.1338 7.8 14.3376 7.8C14.4395 7.8 14.6433 7.8 14.7452 7.8C16.4777 7.8 18.3121 7.8 20.0446 7.8C20.3503 7.9 20.5541 8.1 20.5541 8.3ZM13.3185 11C13.3185 11.1 13.2166 11.2 13.1146 11.3C12.5032 11.9 11.8917 12.5 11.2803 13C11.1783 13.1 10.8726 13.2 10.6688 13.1C10.5669 13 10.465 12.9 10.3631 12.8C10.0573 12.5 9.8535 12.3 9.54777 12C9.34395 11.8 9.34395 11.5 9.54777 11.3C9.75159 11.2 10.0573 11.2 10.1592 11.3C10.3631 11.5 10.5669 11.8 10.8726 12C11.2803 11.6 11.7898 11.1 12.1975 10.7C12.2994 10.6 12.5032 10.4 12.707 10.4C13.0127 10.5 13.3185 10.7 13.3185 11ZM20.4522 11.9C20.5541 12.1 20.5541 12.4 20.4522 12.5C20.3503 12.6 20.1465 12.6 20.0446 12.6C18.2102 12.6 16.3758 12.6 14.5414 12.6C14.3376 12.6 14.0318 12.4 14.0318 12.2C14.0318 12 14.1338 11.8 14.3376 11.7C14.4395 11.7 14.4395 11.7 14.5414 11.7C16.3758 11.7 18.2102 11.7 20.0446 11.7C20.2484 11.7 20.3503 11.7 20.4522 11.9ZM13.3185 14.8C13.3185 14.9 13.2166 15 13.1146 15.1C12.5032 15.7 11.8917 16.2 11.2803 16.8C11.0764 17 10.7707 17 10.5669 16.8C10.2611 16.5 9.8535 16.1 9.54777 15.8C9.34395 15.6 9.34395 15.3 9.54777 15.1C9.75159 14.9 10.0573 14.9 10.2611 15.1C10.465 15.3 10.6688 15.6 10.9745 15.8C11.3822 15.4 11.8917 15 12.2994 14.5C12.4013 14.4 12.6051 14.2 12.8089 14.2C13.0127 14.3 13.3185 14.5 13.3185 14.8ZM20.5541 15.7C20.656 15.9 20.6561 16.1 20.4522 16.3C20.3503 16.4 20.2484 16.5 20.0446 16.5C18.2102 16.5 16.3758 16.5 14.5414 16.5C14.3376 16.5 14.0318 16.3 14.0318 16C14.0318 15.8 14.2357 15.6 14.4395 15.5C15.051 15.5 15.6624 15.5 16.172 15.5C17.4968 15.5 18.7197 15.5 20.0446 15.5C20.2484 15.5 20.4522 15.5 20.5541 15.7Z" fill="#2A2E46"/>
</svg>
