<svg width="19" height="25" viewBox="0 0 19 25" fill="none" xmlns="http://www.w3.org/2000/svg">
<path d="M18.4082 5.12695L13.6279 0.341797C13.4082 0.12207 13.1104 0 12.7979 0H12.5V6.25H18.75V5.95215C18.75 5.64453 18.6279 5.34668 18.4082 5.12695ZM6.26953 16.4062C5.39551 16.4062 4.6875 16.9971 4.6875 17.7246C4.6875 18.457 5.40039 19.043 6.27441 19.043C7.14844 19.043 7.85645 18.4521 7.85645 17.7246C7.85645 16.9971 7.14355 16.4062 6.26953 16.4062ZM10.9375 6.64062V0H7.83203V1.5625H6.26953V0H1.17188C0.522461 0 0 0.522461 0 1.17188V23.8281C0 24.4775 0.522461 25 1.17188 25H17.5781C18.2275 25 18.75 24.4775 18.75 23.8281V7.8125H12.1094C11.4648 7.8125 10.9375 7.28516 10.9375 6.64062ZM4.68262 1.5625H6.24512V3.125H4.68262V1.5625ZM6.25977 20.3125C4.63867 20.3125 3.42773 18.8281 3.75 17.2412L4.70703 12.5V10.9375H6.26953V9.375H4.70703V7.8125H6.26953V6.25H4.70703V4.6875H6.26953V3.125H7.83203V4.6875H6.26953V6.25H7.83203V7.8125H6.26953V9.375H7.83203V10.9375H6.26953V12.5H7.34863C7.62695 12.5 7.87109 12.7002 7.9248 12.9736L8.76953 17.2559C9.08203 18.8379 7.87109 20.3125 6.25977 20.3125V20.3125Z" fill="#0D6EFD"/>
</svg>
