<svg width="100" height="100" viewBox="0 0 100 100" fill="none" xmlns="http://www.w3.org/2000/svg">
<path d="M100 50C100 22.3849 77.6131 0 49.999 0C22.3849 0 0 22.3859 0 50C0 77.6131 22.3859 99.999 49.999 99.999C77.6131 100 100 77.6131 100 50Z" fill="#746665"/>
<path opacity="0.1" d="M98.4109 62.5515C98.2516 62.3764 98.0885 62.2048 97.9202 62.0383C97.8781 61.9953 97.8355 61.9531 97.7925 61.9105C97.7503 61.8675 97.7077 61.8253 97.6647 61.7827C97.6225 61.7397 97.5799 61.6975 97.5369 61.655C97.4947 61.6119 97.4521 61.5698 97.4091 61.5272C97.367 61.4842 97.3244 61.442 97.2814 61.3994C97.2392 61.3564 97.1966 61.3142 97.1536 61.2716C97.1114 61.2286 97.0688 61.1865 97.0258 61.1439C96.9837 61.1008 96.9411 61.0587 96.898 61.0161C96.8559 60.9731 96.8133 60.9309 96.7703 60.8883C96.7281 60.8457 96.6855 60.8031 96.6425 60.7605C96.6003 60.7175 96.5578 60.6754 96.5147 60.6328C96.4726 60.5898 96.43 60.5476 96.387 60.505C96.3448 60.462 96.3022 60.4198 96.2592 60.3772C96.217 60.3342 96.1744 60.292 96.1314 60.2495C96.0892 60.2064 96.0467 60.1643 96.0036 60.1217C95.9615 60.0787 95.9189 60.0365 95.8759 59.9939C95.8337 59.9509 95.7911 59.9087 95.7481 59.8661C95.7059 59.8231 95.6633 59.781 95.6203 59.7384C95.5782 59.6954 95.5356 59.6532 95.4925 59.6106C95.4504 59.5676 95.4078 59.5254 95.3648 59.4828C95.3226 59.4398 95.28 59.3976 95.237 59.3551C95.1948 59.312 95.1523 59.2699 95.1092 59.2273C95.0671 59.1843 95.0245 59.1421 94.9815 59.0995C94.9393 59.0565 94.8967 59.0143 94.8537 58.9717C94.8115 58.9287 94.7689 58.8866 94.7259 58.844C94.6838 58.8009 94.6412 58.7588 94.5982 58.7162C94.556 58.6732 94.5134 58.631 94.4704 58.5884C94.4282 58.5454 94.3856 58.5032 94.3426 58.4607C94.3004 58.4176 94.2578 58.3755 94.2148 58.3329C94.1727 58.2899 94.1301 58.2477 94.0871 58.2051C94.0449 58.1621 94.0023 58.1199 93.9593 58.0773C93.9171 58.0347 93.8745 57.9922 93.8315 57.9496C93.7893 57.9065 93.7468 57.8644 93.7037 57.8218C93.6616 57.7788 93.619 57.7366 93.576 57.694C93.5338 57.651 93.4912 57.6088 93.4482 57.5662C93.406 57.5232 93.3634 57.4811 93.3204 57.4385C93.2783 57.3955 93.2357 57.3533 93.1926 57.3107C93.1505 57.2677 93.1079 57.2255 93.0649 57.1829C93.0227 57.1399 92.9801 57.0977 92.9371 57.0552C92.8949 57.0121 92.8524 56.97 92.8093 56.9274C92.7672 56.8844 92.7246 56.8422 92.6816 56.7996C92.6394 56.7566 92.5968 56.7144 92.5538 56.6718C92.5116 56.6288 92.469 56.5867 92.426 56.5441C92.3839 56.5011 92.3413 56.4589 92.2982 56.4163C92.2561 56.3733 92.2135 56.3311 92.1705 56.2885C92.1283 56.2455 92.0857 56.2033 92.0427 56.1608C92.0005 56.1177 91.9579 56.0756 91.9149 56.033C91.8728 55.99 91.8302 55.9478 91.7872 55.9052C91.745 55.8622 91.7024 55.82 91.6594 55.7774C91.6172 55.7344 91.5746 55.6922 91.5316 55.6497C91.4895 55.6066 91.4469 55.5645 91.4039 55.5219C91.3617 55.4789 91.3191 55.4367 91.2761 55.3941C91.2339 55.3515 91.1913 55.3089 91.1483 55.2663C91.1061 55.2233 91.0635 55.1812 91.0205 55.1386C90.9784 55.0956 90.9358 55.0534 90.8928 55.0108C90.8506 54.9678 90.808 54.9256 90.765 54.883C90.7228 54.84 90.6802 54.7979 90.6372 54.7553C90.595 54.7122 90.5525 54.6701 90.5094 54.6275C90.4673 54.5845 90.4247 54.5423 90.3817 54.4997C90.3395 54.4567 90.2969 54.4145 90.2539 54.3719C90.2117 54.3289 90.1691 54.2868 90.1261 54.2442C90.084 54.2012 90.0414 54.159 89.9983 54.1164C89.9562 54.0734 89.9136 54.0312 89.8706 53.9886C89.8284 53.9456 89.7858 53.9034 89.7428 53.8609C89.7006 53.8178 89.6581 53.7757 89.615 53.7331C89.5729 53.6901 89.5303 53.6479 89.4873 53.6053C89.4451 53.5623 89.4025 53.5201 89.3595 53.4775C89.3173 53.4345 89.2747 53.3924 89.2317 53.3498C89.1896 53.3067 89.147 53.2646 89.1039 53.222C89.0618 53.179 89.0192 53.1368 88.9762 53.0942C88.934 53.0512 88.8914 53.009 88.8484 52.9664C88.8062 52.9234 88.7636 52.8813 88.7206 52.8387C88.6785 52.7957 88.6359 52.7535 88.5929 52.7109C88.5507 52.6683 88.5081 52.6257 88.4651 52.5831C88.4229 52.5401 88.3803 52.4979 88.3373 52.4554C88.2952 52.4123 88.2526 52.3702 88.2095 52.3276C88.1674 52.2846 88.1248 52.2424 88.0818 52.1998C88.0396 52.1568 87.997 52.1146 87.954 52.072C87.9118 52.029 87.8692 51.9869 87.8262 51.9443C87.7841 51.9013 87.7415 51.8591 87.6985 51.8165C87.6563 51.7735 87.6137 51.7313 87.5707 51.6887C87.5285 51.6457 87.4859 51.6035 87.4429 51.561C87.4007 51.5179 87.3582 51.4758 87.3151 51.4332C87.273 51.3902 87.2304 51.348 87.1874 51.3054C87.1452 51.2624 87.1026 51.2202 87.0596 51.1776C87.0174 51.1346 86.9748 51.0925 86.9318 51.0499C86.8897 51.0069 86.8471 50.9647 86.804 50.9221C86.7619 50.8791 86.7193 50.8369 86.6763 50.7943C86.6341 50.7513 86.5915 50.7091 86.5485 50.6665C86.5063 50.6235 86.4637 50.5814 86.4207 50.5388C86.3786 50.4958 86.336 50.4536 86.293 50.411C86.2508 50.368 86.2082 50.3258 86.1652 50.2832C86.123 50.2402 86.0804 50.1981 86.0374 50.1555C85.9953 50.1124 85.9527 50.0703 85.9096 50.0277C85.8675 49.9847 85.8249 49.9425 85.7819 49.8999C85.7397 49.8573 85.6971 49.8147 85.6541 49.7721C85.6119 49.7291 85.5693 49.687 85.5263 49.6444C85.4842 49.6014 85.4416 49.5592 85.3986 49.5166C85.3564 49.4736 85.3138 49.4314 85.2708 49.3888C85.2286 49.3458 85.186 49.3036 85.143 49.2611C85.1008 49.218 85.0583 49.1759 85.0152 49.1333C84.9731 49.0903 84.9305 49.0481 84.8875 49.0055C84.8453 48.9625 84.8027 48.9203 84.7597 48.8777C84.7175 48.8347 84.6749 48.7926 84.6319 48.75C84.5898 48.707 84.5472 48.6648 84.5042 48.6222C84.462 48.5792 84.4194 48.537 84.3764 48.4944C84.3342 48.4514 84.2916 48.4092 84.2486 48.3667C84.2064 48.3236 84.1639 48.2815 84.1208 48.2389C84.0787 48.1959 84.0361 48.1537 83.9931 48.1111C83.9509 48.0681 83.9083 48.0259 83.8653 47.9833C83.8231 47.9403 83.7805 47.8982 83.7375 47.8556C83.6954 47.8125 83.6528 47.7704 83.6097 47.7278C83.5676 47.6848 83.525 47.6426 83.482 47.6C83.4398 47.557 83.3972 47.5148 83.3542 47.4722C83.312 47.4292 83.2694 47.3871 83.2264 47.3445C83.1843 47.3015 83.1417 47.2593 83.0987 47.2167C83.0565 47.1741 83.0139 47.1315 82.9709 47.0889C82.9287 47.0459 82.8861 47.0037 82.8431 46.9612C82.801 46.9181 82.7584 46.876 82.7153 46.8334C82.6732 46.7904 82.6306 46.7482 82.5876 46.7056C82.5454 46.6626 82.5028 46.6204 82.4598 46.5778C82.4176 46.5348 82.375 46.4927 82.332 46.4501C82.2899 46.4071 82.2473 46.3649 82.2043 46.3223C82.1621 46.2793 82.1195 46.2371 82.0765 46.1945C82.0343 46.1515 81.9917 46.1093 81.9487 46.0668C81.9065 46.0237 81.864 45.9816 81.8209 45.939C81.7788 45.896 81.7362 45.8538 81.6932 45.8112C81.651 45.7682 81.6084 45.726 81.5654 45.6834C81.5232 45.6404 81.4806 45.5983 81.4376 45.5557C81.3955 45.5126 81.3529 45.4705 81.3098 45.4279C81.2677 45.3849 81.2251 45.3427 81.1821 45.3001C81.1399 45.2571 81.0973 45.2149 81.0543 45.1723C81.0121 45.1293 80.9696 45.0872 80.9265 45.0446C80.8844 45.0016 80.8418 44.9594 80.7988 44.9168C80.7566 44.8738 80.714 44.8316 80.671 44.789C80.6288 44.746 80.5862 44.7039 80.5432 44.6613C80.5011 44.6182 80.4585 44.5761 80.4154 44.5335C80.3733 44.4909 80.3307 44.4483 80.2877 44.4057C80.2455 44.3627 80.2029 44.3205 80.1599 44.2779C80.1177 44.2349 80.0751 44.1928 80.0321 44.1502C79.99 44.1072 79.9474 44.065 79.9044 44.0224C79.8622 43.9794 79.8196 43.9372 79.7766 43.8946C79.7344 43.8516 79.6918 43.8094 79.6488 43.7669C79.6066 43.7238 79.564 43.6817 79.521 43.6391C79.4789 43.5961 79.4363 43.5539 79.3933 43.5113C79.3511 43.4683 79.3085 43.4261 79.2655 43.3835C79.2233 43.3405 79.1807 43.2984 79.1377 43.2558C79.0956 43.2128 79.053 43.1706 79.01 43.128C78.9678 43.085 78.9252 43.0428 78.8822 43.0002C78.84 42.9572 78.7974 42.915 78.7544 42.8724C78.7122 42.8294 78.6697 42.7873 78.6266 42.7447C78.5845 42.7017 78.5419 42.6595 78.4989 42.6169C78.4567 42.5739 78.4141 42.5317 78.3711 42.4891C78.3289 42.4461 78.2863 42.404 78.2433 42.3614C78.2011 42.3183 78.1586 42.2762 78.1155 42.2336C78.0734 42.1906 78.0308 42.1484 77.9878 42.1058C77.9456 42.0628 77.903 42.0206 77.86 41.978C77.8178 41.935 77.7752 41.8929 77.7322 41.8503C77.6901 41.8073 77.6475 41.7651 77.6045 41.7225C77.5623 41.6799 77.5197 41.6373 77.4767 41.5947C77.4345 41.5517 77.3919 41.5096 77.3489 41.467C77.3068 41.4239 77.2642 41.3818 77.2211 41.3392C77.179 41.2962 77.1364 41.254 77.0934 41.2114C77.0512 41.1684 77.0086 41.1262 76.9656 41.0836C76.9234 41.0406 76.8808 40.9985 76.8378 40.9559C76.7957 40.9128 76.7531 40.8707 76.7101 40.8281C76.6679 40.7851 76.6253 40.7429 76.5823 40.7003C76.5401 40.6573 76.4975 40.6151 76.4545 40.5726C76.4123 40.5295 76.3697 40.4874 76.3267 40.4448C76.2846 40.4018 76.242 40.3596 76.199 40.317C76.1568 40.274 76.1142 40.2318 76.0712 40.1892C76.029 40.1462 75.9864 40.1041 75.9434 40.0615C75.9013 40.0184 75.8587 39.9763 75.8157 39.9337C75.7735 39.8907 75.7309 39.8485 75.6879 39.8059C75.6457 39.7629 75.6031 39.7207 75.5601 39.6781C75.5179 39.6351 75.4754 39.593 75.4323 39.5504C75.3902 39.5074 75.3476 39.4652 75.3046 39.4226C75.2624 39.3796 75.2198 39.3374 75.1768 39.2948C75.1346 39.2518 75.092 39.2096 75.049 39.1671C75.0068 39.124 74.9643 39.0819 74.9212 39.0393C74.8791 38.9967 74.8365 38.9541 74.7935 38.9115C74.7513 38.8685 74.7087 38.8263 74.6657 38.7837C74.6235 38.7407 74.5809 38.6986 74.5379 38.656C74.4958 38.613 74.4532 38.5708 74.4101 38.5282C74.368 38.4852 74.3254 38.443 74.2824 38.4004C74.2402 38.3574 74.1976 38.3152 74.1546 38.2727C74.1124 38.2296 74.0699 38.1875 74.0268 38.1449C73.9847 38.1019 73.9421 38.0597 73.8991 38.0171C73.8569 37.9741 73.8143 37.9319 73.7713 37.8893C73.7291 37.8463 73.6865 37.8042 73.6435 37.7616C73.6014 37.7185 73.5588 37.6764 73.5158 37.6338C73.4736 37.5908 73.431 37.5486 73.388 37.506C73.3458 37.463 73.3032 37.4208 73.2602 37.3783C73.218 37.3352 73.1754 37.2931 73.1324 37.2505C73.0903 37.2075 73.0477 37.1653 73.0047 37.1227C72.9625 37.0797 72.9199 37.0375 72.8769 36.9949C72.8347 36.9519 72.7921 36.9098 72.7491 36.8672C72.707 36.8241 72.6644 36.782 72.6213 36.7394C72.5792 36.6964 72.5366 36.6542 72.4936 36.6116C72.4514 36.5686 72.4088 36.5264 72.3658 36.4838C72.3236 36.4408 72.2811 36.3987 72.238 36.3561C72.1959 36.3135 72.1533 36.2709 72.1103 36.2283C72.0681 36.1853 72.0255 36.1431 71.9825 36.1005C71.9403 36.0575 71.8977 36.0153 71.8547 35.9728C71.8125 35.9297 71.77 35.8876 71.7269 35.845C71.6848 35.802 71.6422 35.7598 71.5992 35.7172C71.557 35.6742 71.5144 35.632 71.4714 35.5894C71.4292 35.5464 71.3866 35.5043 71.3436 35.4617C71.3015 35.4187 71.2589 35.3765 71.2158 35.3339C71.1737 35.2909 71.1311 35.2487 71.0881 35.2061C71.0459 35.1631 71.0033 35.1209 70.9603 35.0784C70.9181 35.0353 70.8755 34.9932 70.8325 34.9506C70.7904 34.9076 70.7478 34.8654 70.7048 34.8228C70.6626 34.7798 70.62 34.7376 70.577 34.695C70.5348 34.652 70.4922 34.6099 70.4492 34.5673C70.4071 34.5242 70.3645 34.4821 70.3215 34.4395C70.2793 34.3965 70.2367 34.3543 70.1937 34.3117C70.1515 34.2687 70.1089 34.2265 70.0659 34.1839C70.0237 34.1409 69.9811 34.0988 69.9381 34.0562C69.896 34.0132 69.8534 33.971 69.8104 33.9284C69.7682 33.8854 69.7256 33.8432 69.6826 33.8006C69.6404 33.7576 69.5978 33.7155 69.5548 33.6729C69.5126 33.6298 69.4701 33.5877 69.427 33.5451C69.3849 33.5025 69.3423 33.4599 69.2993 33.4173C69.2571 33.3743 69.2145 33.3321 69.1715 33.2895C69.1293 33.2465 69.0867 33.2044 69.0437 33.1618C69.0016 33.1188 68.959 33.0766 68.916 33.034C68.8738 32.991 68.8312 32.9488 68.7882 32.9062C68.746 32.8632 68.7034 32.821 68.6604 32.7785C68.6182 32.7354 68.5757 32.6933 68.5326 32.6507C68.4905 32.6077 68.4479 32.5655 68.4049 32.5229C68.3627 32.4799 68.3201 32.4377 68.2771 32.3951C68.2349 32.3521 68.1923 32.31 68.1493 32.2674C68.1072 32.2243 68.0646 32.1822 68.0215 32.1396C67.9794 32.0966 67.9368 32.0544 67.8938 32.0118C67.8516 31.9688 67.809 31.9266 67.766 31.8841C67.7238 31.841 67.6812 31.7989 67.6382 31.7563C67.5961 31.7133 67.5535 31.6711 67.5105 31.6285C67.4683 31.5855 67.4257 31.5433 67.3827 31.5007C67.3405 31.4577 67.2979 31.4155 67.2549 31.373C67.2127 31.3299 67.1702 31.2878 67.1271 31.2452C67.085 31.2022 67.0424 31.16 66.9994 31.1174C66.9572 31.0744 66.9146 31.0322 66.8716 30.9896C66.8294 30.9466 66.7868 30.9045 66.7438 30.8619C66.7017 30.8193 66.6591 30.7767 66.6161 30.7341C66.5739 30.6911 66.5313 30.6489 66.4883 30.6063C66.4461 30.5633 66.4035 30.5211 66.3605 30.4786C66.3183 30.4355 66.2758 30.3934 66.2327 30.3508C66.1906 30.3078 66.148 30.2656 66.105 30.223C66.0628 30.18 66.0202 30.1378 65.9772 30.0952C65.935 30.0522 65.8924 30.0101 65.8494 29.9675C65.8073 29.9245 65.7647 29.8823 65.7216 29.8397C65.6795 29.7967 65.6369 29.7545 65.5939 29.7119C65.5517 29.6689 65.5091 29.6267 65.4661 29.5841C65.4239 29.5411 65.3814 29.499 65.3383 29.4564C65.2962 29.4134 65.2536 29.3712 65.2106 29.3286C65.1684 29.2856 65.1258 29.2434 65.0828 29.2008C65.0406 29.1578 64.998 29.1157 64.955 29.0731C64.9129 29.03 64.8703 28.9879 64.8272 28.9453C64.7851 28.9023 64.7425 28.8601 64.6995 28.8175C64.6573 28.7745 64.6147 28.7323 64.5717 28.6897C64.5295 28.6467 64.4869 28.6046 64.4439 28.562C64.4018 28.519 64.3592 28.4768 64.3162 28.4342C64.274 28.3912 64.2314 28.349 64.1884 28.3064C64.1462 28.2634 64.1036 28.2212 64.0606 28.1787C64.0184 28.1361 63.9759 28.0935 63.9328 28.0509C63.8907 28.0079 63.8481 27.9657 63.8051 27.9231C63.7629 27.8801 63.7203 27.8379 63.6773 27.7953C63.6351 27.7523 63.5925 27.7102 63.5495 27.6676C63.5074 27.6246 63.4648 27.5824 63.4218 27.5398C63.3796 27.4968 63.337 27.4546 63.294 27.412C63.2518 27.369 63.2092 27.3268 63.1662 27.2843C63.124 27.2412 63.0815 27.1991 63.0384 27.1565C62.9963 27.1135 62.9537 27.0713 62.9107 27.0287C62.8685 26.9857 62.8259 26.9435 62.7829 26.9009C62.7407 26.8579 62.6981 26.8158 62.6551 26.7732C62.613 26.7301 62.5704 26.688 62.5273 26.6454C62.4852 26.6024 62.4426 26.5602 62.3996 26.5176C62.3574 26.4746 62.3148 26.4324 62.2718 26.3898C62.2296 26.3468 62.187 26.3047 62.144 26.2621C62.1019 26.2191 62.0593 26.1769 62.0163 26.1343C61.9741 26.0913 61.9315 26.0491 61.8885 26.0065C61.8463 25.9635 61.8037 25.9213 61.7607 25.8788C61.7186 25.8357 61.676 25.7936 61.6329 25.751C61.5908 25.708 61.5482 25.6658 61.5052 25.6232C61.463 25.5802 61.4204 25.538 61.3774 25.4954C61.3352 25.4524 61.2926 25.4103 61.2496 25.3677C61.2075 25.3251 61.1649 25.2825 61.1219 25.2399C61.0797 25.1969 61.0371 25.1547 60.9941 25.1121C60.9519 25.0691 60.9093 25.0269 60.8663 24.9844C60.8241 24.9413 60.7816 24.8992 60.7385 24.8566C60.6964 24.8136 60.6538 24.7714 60.6108 24.7288C60.5686 24.6858 60.526 24.6436 60.483 24.601C60.4408 24.558 60.3982 24.5159 60.3552 24.4733C60.3131 24.4302 60.2705 24.3881 60.2275 24.3455C60.1853 24.3025 60.1427 24.2603 60.0997 24.2177C60.0575 24.1747 60.0149 24.1325 59.9719 24.0899C59.9297 24.0469 59.8872 24.0048 59.8441 23.9622C59.802 23.9192 59.7594 23.877 59.7164 23.8344C57.3406 21.4259 54.042 19.9297 50.3996 19.9297C43.1801 19.9297 37.3064 25.8029 37.3064 33.0233C37.3064 36.6657 38.8026 39.9644 41.2111 42.3401C41.2533 42.3831 41.2959 42.4252 41.3389 42.4678C41.3811 42.5109 41.4237 42.553 41.4667 42.5956C41.5088 42.6386 41.5514 42.6808 41.5944 42.7234C41.6366 42.7664 41.6792 42.8086 41.7222 42.8512C41.7644 42.8942 41.807 42.9363 41.85 42.9789C41.8922 43.0219 41.9347 43.0641 41.9778 43.1067C42.0199 43.1497 42.0625 43.1919 42.1055 43.2345C42.1477 43.2775 42.1903 43.3197 42.2333 43.3622C42.2755 43.4053 42.3181 43.4474 42.3611 43.49C42.4032 43.533 42.4458 43.5752 42.4888 43.6178C42.531 43.6608 42.5736 43.703 42.6166 43.7456C42.6588 43.7886 42.7014 43.8307 42.7444 43.8733C42.7866 43.9163 42.8292 43.9585 42.8722 44.0011C42.9143 44.0441 42.9569 44.0863 42.9999 44.1289C43.0421 44.1715 43.0847 44.2141 43.1277 44.2566C43.1699 44.2997 43.2125 44.3418 43.2555 44.3844C43.2976 44.4274 43.3402 44.4696 43.3833 44.5122C43.4254 44.5552 43.468 44.5974 43.511 44.64C43.5532 44.683 43.5958 44.7251 43.6388 44.7677C43.681 44.8108 43.7236 44.8529 43.7666 44.8955C43.8087 44.9385 43.8513 44.9807 43.8943 45.0233C43.9365 45.0663 43.9791 45.1085 44.0221 45.1511C44.0643 45.1941 44.1069 45.2362 44.1499 45.2788C44.1921 45.3218 44.2346 45.364 44.2777 45.4066C44.3198 45.4496 44.3624 45.4918 44.4054 45.5344C44.4476 45.5774 44.4902 45.6196 44.5332 45.6621C44.5754 45.7052 44.618 45.7473 44.661 45.7899C44.7031 45.8329 44.7457 45.8751 44.7887 45.9177C44.8309 45.9607 44.8735 46.0029 44.9165 46.0455C44.9587 46.0885 45.0013 46.1306 45.0443 46.1732C45.0865 46.2162 45.129 46.2584 45.1721 46.301C45.2142 46.344 45.2568 46.3862 45.2998 46.4288C45.342 46.4718 45.3846 46.514 45.4276 46.5565C45.4698 46.5996 45.5124 46.6417 45.5554 46.6843C45.5975 46.7273 45.6401 46.7695 45.6831 46.8121C45.7253 46.8547 45.7679 46.8973 45.8109 46.9399C45.8531 46.9829 45.8957 47.025 45.9387 47.0676C45.9809 47.1107 46.0235 47.1528 46.0665 47.1954C46.1086 47.2384 46.1512 47.2806 46.1942 47.3232C46.2364 47.3662 46.279 47.4084 46.322 47.4509C46.3642 47.494 46.4068 47.5361 46.4498 47.5787C46.4919 47.6217 46.5345 47.6639 46.5776 47.7065C46.6197 47.7495 46.6623 47.7917 46.7053 47.8343C46.7475 47.8773 46.7901 47.9195 46.8331 47.962C46.8753 48.0051 46.9179 48.0472 46.9609 48.0898C47.003 48.1328 47.0456 48.175 47.0886 48.2176C47.1308 48.2606 47.1734 48.3028 47.2164 48.3454C47.2586 48.3884 47.3012 48.4305 47.3442 48.4731C47.3864 48.5161 47.4289 48.5583 47.472 48.6009C47.5141 48.6439 47.5567 48.6861 47.5997 48.7287C47.6419 48.7717 47.6845 48.8139 47.7275 48.8564C47.7697 48.8995 47.8123 48.9416 47.8553 48.9842C47.8629 48.9919 47.8702 49.0004 47.8778 49.0081C46.138 48.7325 44.4872 48.1848 42.9757 47.4011H40.1762C33.3076 47.4011 27.7209 52.9882 27.7209 59.8559V76.0025H27.8487V76.1303H27.9765V76.258H28.1043V76.3858H28.232V76.5136H28.3598V76.6413H28.4876V76.7691H28.6153V76.8969H28.7431V77.0247H28.8709V77.1524H28.9987V77.2802H29.1264V77.408H29.2542V77.5358H29.382V77.6635H29.5098V77.7913H29.6375V77.9191H29.7653V78.0468H29.8931V78.1746H30.0208V78.3024H30.1486V78.4302H30.2764V78.5579H30.4042V78.6857H30.5319V78.8135H30.6597V78.9412H30.7875V79.069H30.9153V79.1968H31.043V79.3246H31.1708V79.4523H31.2986V79.5801H31.4263V79.7079H31.5541V79.8357H31.6819V79.9634H31.8097V80.0912H31.9374V80.219H32.0652V80.3467H32.193V80.4745H32.3207V80.6023H32.4485V80.73H32.5763V80.8578H32.7041V80.9856H32.8318V81.1134H32.9596V81.2411H33.0874V81.3689H33.2151V81.4967H33.3429V81.6245H33.4707V81.7522H33.5985V81.88H33.7262V82.0078H33.854V82.1355H33.9818V82.2633H34.1096V82.3911H34.2373V82.5189H34.3651V82.6466H34.4929V82.7744H34.6206V82.9022H34.7484V83.03H34.8762V83.1577H35.004V83.2855H35.1317V83.4133H35.2595V83.541H35.3873V83.6688H35.515V83.7966H35.6428V83.9244H35.7706V84.0521H35.8984V84.1799H36.0261V84.3077H36.1539V84.4354H36.2817V84.5632H36.4094V84.691H36.5372V84.8188H36.665V84.9465H36.7928V85.0743H36.9205V85.2021H37.0483V85.3298H37.1761V85.4576H37.3039V85.5854H37.4316V85.7132H37.5594V85.8409H37.6872V85.9687H37.8149V86.0965H37.9427V86.2243H38.0705V86.352H38.1983V86.4798H38.326V86.6076H38.4538V86.7353H38.5816V86.8631H38.7094V86.9909H38.8371V87.1187H38.9649V87.2464H39.0927V87.3742H39.2204V87.502H39.3482V87.6297H39.476V87.7575H39.6038V87.8853H39.7315V88.0131H39.8593V88.1408H39.9871V88.2686H40.1148V88.3964H40.2426V88.5242H40.3704V88.6519H40.4982V88.7797H40.6259V88.9075H40.7537V89.0352H40.8815V89.163H41.0092V89.2908H41.137V89.4186H41.2648V89.5463H41.3926V89.6741H41.5203V89.8019H41.6481V89.9296H41.7759V90.0574H41.9037V90.1852H42.0314V90.313H42.1592V90.4407H42.287V90.5685H42.4147V90.6963H42.5425V90.8241H42.6703V90.9518H42.7981V91.0796H42.9258V91.2074H43.0536V91.3351H43.1814V91.4629H43.3091V91.5907H43.4369V91.7185H43.5647V91.8462H43.6925V91.974H43.8202V92.1018H43.948V92.2295H44.0758V92.3573H44.2035V92.4851H44.3313V92.6129H44.4591V92.7406H44.5869V92.8684H44.7146V92.9962H44.8424V93.1239H44.9702V93.2517H45.098V93.3795H45.2257V93.5073H45.3535V93.635H45.4813V93.7628H45.609V93.8906H45.7368V94.0184H45.8646V94.1461H45.9924V94.2739H46.1201V94.4017H46.2479V94.5294H46.3757V94.6572H46.5034V94.785H46.6312V94.9128H46.759V95.0405H46.8868V95.1683H47.0145V95.2961H47.1423V95.4238H47.2701V95.5516H47.3979V95.6794H47.5256V95.8072H47.6534V95.9349H47.7812V96.0627H47.9089V96.1905H48.0367V96.3183H48.1645V96.446H48.2923V96.5738H48.42V96.7016H48.5478V96.8293H48.6756V96.9571H48.8033V97.0849H48.9311V97.2127H49.0589V97.3404H49.1867V97.4682H49.3144V97.596H49.4422V97.7237H49.57V97.8515H49.6977V97.9793H49.8255V98.1071H49.9533V98.2348H50.0811V98.3626H50.2088V98.4904H50.3366V98.6181H50.4644V98.7459H50.5922V98.8737H50.7199V99.0015H50.8477V99.1292H50.9755V99.257H51.1032V99.3848H51.231V99.5126H51.3588V99.6403H51.4866V99.7681H51.6143V99.8959H51.7421V99.961C74.253 99.1927 92.9823 83.5491 98.4109 62.5515Z" fill="#001818"/>
<path d="M73.1079 59.8766V76.0232H27.7419V59.8766C27.7419 53.0089 33.3286 47.4218 40.1972 47.4218H42.9967C45.2233 48.5769 47.7481 49.2341 50.4249 49.2341C53.1017 49.2341 55.6269 48.5765 57.8531 47.4218H60.6535C67.5204 47.4218 73.1079 53.0093 73.1079 59.8766ZM63.5186 33.0487C63.5186 25.8288 57.644 19.9551 50.4245 19.9551C43.2049 19.9551 37.3312 25.8283 37.3312 33.0487C37.3312 40.2691 43.2049 46.1424 50.4245 46.1424C57.644 46.1424 63.5186 40.2683 63.5186 33.0487Z" fill="white"/>
</svg>
