<svg width="224" height="80" viewBox="0 0 224 80" fill="none" xmlns="http://www.w3.org/2000/svg">
<path d="M216 76C216 73.7908 217.791 72 220 72C222.209 72 224 73.7908 224 76C224 78.2091 222.209 80 220 80C217.791 80 216 78.2091 216 76Z" fill="#ECECEC"/>
<path d="M192 76C192 73.7908 193.791 72 196 72C198.209 72 200 73.7908 200 76C200 78.2091 198.209 80 196 80C193.791 80 192 78.2091 192 76Z" fill="#ECECEC"/>
<path d="M168 76C168 73.7909 169.791 72 172 72C174.209 72 176 73.7909 176 76C176 78.2091 174.209 80 172 80C169.791 80 168 78.2091 168 76Z" fill="#ECECEC"/>
<path d="M144 76C144 73.7909 145.791 72 148 72C150.209 72 152 73.7909 152 76C152 78.2091 150.209 80 148 80C145.791 80 144 78.2091 144 76Z" fill="#ECECEC"/>
<path d="M120 76C120 73.7909 121.791 72 124 72C126.209 72 128 73.7909 128 76C128 78.2091 126.209 80 124 80C121.791 80 120 78.2091 120 76Z" fill="#ECECEC"/>
<path d="M96 76C96 73.7909 97.7908 72 100 72C102.209 72 104 73.7909 104 76C104 78.2091 102.209 80 100 80C97.7908 80 96 78.2091 96 76Z" fill="#ECECEC"/>
<path d="M72 76C72 73.7909 73.7909 72 76 72C78.2091 72 80 73.7909 80 76C80 78.2091 78.2091 80 76 80C73.7909 80 72 78.2091 72 76Z" fill="#ECECEC"/>
<path d="M48 76C48 73.7909 49.7909 72 52 72C54.2091 72 56 73.7909 56 76C56 78.2091 54.2091 80 52 80C49.7909 80 48 78.2091 48 76Z" fill="#ECECEC"/>
<path d="M24 76C24 73.7909 25.7909 72 28 72C30.2091 72 32 73.7909 32 76C32 78.2091 30.2091 80 28 80C25.7909 80 24 78.2091 24 76Z" fill="#ECECEC"/>
<path d="M6.29444e-06 76C6.10131e-06 73.7909 1.79087 72 4.00001 72C6.20914 72 8 73.7909 8 76C8 78.2091 6.20914 80 4.00001 80C1.79087 80 6.48757e-06 78.2091 6.29444e-06 76Z" fill="#ECECEC"/>
<path d="M216 52C216 49.7909 217.791 48 220 48C222.209 48 224 49.7909 224 52C224 54.2091 222.209 56 220 56C217.791 56 216 54.2091 216 52Z" fill="#ECECEC"/>
<path d="M192 52C192 49.7909 193.791 48 196 48C198.209 48 200 49.7909 200 52C200 54.2091 198.209 56 196 56C193.791 56 192 54.2091 192 52Z" fill="#ECECEC"/>
<path d="M168 52C168 49.7909 169.791 48 172 48C174.209 48 176 49.7909 176 52C176 54.2091 174.209 56 172 56C169.791 56 168 54.2091 168 52Z" fill="#ECECEC"/>
<path d="M144 52C144 49.7909 145.791 48 148 48C150.209 48 152 49.7909 152 52C152 54.2091 150.209 56 148 56C145.791 56 144 54.2091 144 52Z" fill="#ECECEC"/>
<path d="M120 52C120 49.7909 121.791 48 124 48C126.209 48 128 49.7909 128 52C128 54.2091 126.209 56 124 56C121.791 56 120 54.2091 120 52Z" fill="#ECECEC"/>
<path d="M96 52C96 49.7909 97.7908 48 100 48C102.209 48 104 49.7909 104 52C104 54.2091 102.209 56 100 56C97.7908 56 96 54.2091 96 52Z" fill="#ECECEC"/>
<path d="M72 52C72 49.7909 73.7909 48 76 48C78.2091 48 80 49.7909 80 52C80 54.2091 78.2091 56 76 56C73.7909 56 72 54.2091 72 52Z" fill="#ECECEC"/>
<path d="M48 52C48 49.7909 49.7909 48 52 48C54.2091 48 56 49.7909 56 52C56 54.2091 54.2091 56 52 56C49.7909 56 48 54.2091 48 52Z" fill="#ECECEC"/>
<path d="M24 52C24 49.7909 25.7909 48 28 48C30.2091 48 32 49.7909 32 52C32 54.2091 30.2091 56 28 56C25.7909 56 24 54.2091 24 52Z" fill="#ECECEC"/>
<path d="M4.19629e-06 52C4.00316e-06 49.7909 1.79086 48 4 48C6.20914 48 8 49.7909 8 52C8 54.2091 6.20914 56 4 56C1.79087 56 4.38942e-06 54.2091 4.19629e-06 52Z" fill="#ECECEC"/>
<path d="M216 28C216 25.7909 217.791 24 220 24C222.209 24 224 25.7909 224 28C224 30.2091 222.209 32 220 32C217.791 32 216 30.2091 216 28Z" fill="#ECECEC"/>
<path d="M192 28C192 25.7909 193.791 24 196 24C198.209 24 200 25.7909 200 28C200 30.2091 198.209 32 196 32C193.791 32 192 30.2091 192 28Z" fill="#ECECEC"/>
<path d="M168 28C168 25.7909 169.791 24 172 24C174.209 24 176 25.7909 176 28C176 30.2091 174.209 32 172 32C169.791 32 168 30.2091 168 28Z" fill="#ECECEC"/>
<path d="M144 28C144 25.7909 145.791 24 148 24C150.209 24 152 25.7909 152 28C152 30.2091 150.209 32 148 32C145.791 32 144 30.2091 144 28Z" fill="#ECECEC"/>
<path d="M120 28C120 25.7909 121.791 24 124 24C126.209 24 128 25.7909 128 28C128 30.2091 126.209 32 124 32C121.791 32 120 30.2091 120 28Z" fill="#ECECEC"/>
<path d="M96 28C96 25.7909 97.7908 24 100 24C102.209 24 104 25.7909 104 28C104 30.2091 102.209 32 100 32C97.7908 32 96 30.2091 96 28Z" fill="#ECECEC"/>
<path d="M72 28C72 25.7909 73.7908 24 76 24C78.2091 24 80 25.7909 80 28C80 30.2091 78.2091 32 76 32C73.7908 32 72 30.2091 72 28Z" fill="#ECECEC"/>
<path d="M48 28C48 25.7909 49.7909 24 52 24C54.2091 24 56 25.7909 56 28C56 30.2091 54.2091 32 52 32C49.7909 32 48 30.2091 48 28Z" fill="#ECECEC"/>
<path d="M24 28C24 25.7909 25.7909 24 28 24C30.2091 24 32 25.7909 32 28C32 30.2091 30.2091 32 28 32C25.7909 32 24 30.2092 24 28Z" fill="#ECECEC"/>
<path d="M2.09815e-06 28C1.90502e-06 25.7909 1.79086 24 4 24C6.20914 24 8 25.7909 8 28C8 30.2092 6.20914 32 4 32C1.79086 32 2.29128e-06 30.2092 2.09815e-06 28Z" fill="#ECECEC"/>
<path d="M216 4C216 1.79086 217.791 1.93129e-07 220 0C222.209 -1.93129e-07 224 1.79086 224 4C224 6.20914 222.209 8 220 8C217.791 8 216 6.20914 216 4Z" fill="#ECECEC"/>
<path d="M192 4C192 1.79086 193.791 2.29127e-06 196 2.09815e-06C198.209 1.90502e-06 200 1.79086 200 4C200 6.20914 198.209 8 196 8C193.791 8 192 6.20914 192 4Z" fill="#ECECEC"/>
<path d="M168 4C168 1.79087 169.791 4.38942e-06 172 4.19629e-06C174.209 4.00316e-06 176 1.79086 176 4C176 6.20914 174.209 8 172 8C169.791 8 168 6.20914 168 4Z" fill="#ECECEC"/>
<path d="M144 4.00001C144 1.79087 145.791 6.48757e-06 148 6.29444e-06C150.209 6.10131e-06 152 1.79087 152 4.00001C152 6.20914 150.209 8 148 8C145.791 8 144 6.20914 144 4.00001Z" fill="#ECECEC"/>
<path d="M120 4.00001C120 1.79087 121.791 8.58571e-06 124 8.39258e-06C126.209 8.19946e-06 128 1.79087 128 4.00001C128 6.20915 126.209 8.00001 124 8.00001C121.791 8.00001 120 6.20915 120 4.00001Z" fill="#ECECEC"/>
<path d="M96 4.00001C96 1.79087 97.7908 1.06839e-05 100 1.04907e-05C102.209 1.02976e-05 104 1.79087 104 4.00001C104 6.20915 102.209 8.00001 100 8.00001C97.7908 8.00001 96 6.20915 96 4.00001Z" fill="#ECECEC"/>
<path d="M72 4.00001C72 1.79087 73.7908 1.2782e-05 76 1.25889e-05C78.2091 1.23957e-05 80 1.79087 80 4.00001C80 6.20915 78.2091 8.00001 76 8.00001C73.7908 8.00001 72 6.20915 72 4.00001Z" fill="#ECECEC"/>
<path d="M48 4.00001C48 1.79088 49.7909 1.48802e-05 52 1.4687e-05C54.2091 1.44939e-05 56 1.79088 56 4.00001C56 6.20915 54.2091 8.00001 52 8.00001C49.7909 8.00001 48 6.20915 48 4.00001Z" fill="#ECECEC"/>
<path d="M24 4.00002C24 1.79088 25.7909 1.69783e-05 28 1.67852e-05C30.2091 1.6592e-05 32 1.79088 32 4.00002C32 6.20915 30.2091 8.00002 28 8.00002C25.7909 8.00002 24 6.20916 24 4.00002Z" fill="#ECECEC"/>
<path d="M0 4.00002C-1.93129e-07 1.79088 1.79086 1.90764e-05 4 1.88833e-05C6.20914 1.86902e-05 8 1.79088 8 4.00002C8 6.20916 6.20914 8.00002 4 8.00002C1.79086 8.00002 1.93129e-07 6.20916 0 4.00002Z" fill="#ECECEC"/>
</svg>
