<svg width="40" height="40" viewBox="0 0 40 40" fill="none" xmlns="http://www.w3.org/2000/svg">
<path d="M0 27.5C0 31.2969 2.10813 34.375 6.25 34.375H33.75C37.8919 34.375 40 31.2969 40 27.5V20.625H0V27.5Z" fill="#29B473"/>
<path d="M33.75 6.875H6.25C2.10813 6.875 0 9.95312 0 13.75V24.375H40V13.75C40 9.95312 37.8919 6.875 33.75 6.875Z" fill="#CB0000"/>
<path d="M6.25 6.875C2.10813 6.875 0 9.95312 0 13.75V27.5C0 31.2969 2.10813 34.375 6.25 34.375H8.75V6.875H6.25Z" fill="#E6E7E8"/>
<path fill-rule="evenodd" clip-rule="evenodd" d="M7.56841 20.5081C7.56841 20.5825 7.56217 20.6581 7.57029 20.7331C7.57967 20.8275 7.51904 20.8493 7.39279 20.8493C7.26654 20.8506 7.21342 20.8243 7.21717 20.7318C7.22654 20.5811 7.22654 20.43 7.21717 20.2793C7.21154 20.1818 7.27029 20.1643 7.39467 20.1631C7.52029 20.1631 7.57967 20.1862 7.57029 20.2806C7.56279 20.3562 7.56841 20.43 7.56841 20.5081Z" fill="#CD0808"/>
<path fill-rule="evenodd" clip-rule="evenodd" d="M2.04476 31.9126C2.04476 31.9757 2.04101 32.0395 2.04726 32.1026C2.05538 32.1926 2.05351 32.2551 1.87038 32.2539C1.70288 32.2501 1.70163 32.1945 1.70476 32.1132C1.70851 31.9795 1.70851 31.847 1.70476 31.7139C1.70288 31.6314 1.70288 31.572 1.87038 31.5689C2.05538 31.5676 2.05538 31.6339 2.04726 31.7239C2.04414 31.787 2.04476 31.8501 2.04476 31.9126Z" fill="#CC0303"/>
<path fill-rule="evenodd" clip-rule="evenodd" d="M1.70579 25.7373C1.70579 25.6586 1.71142 25.5836 1.70392 25.508C1.69454 25.418 1.74079 25.3873 1.87642 25.3873C2.00454 25.3873 2.05392 25.4148 2.04579 25.5067C2.03579 25.6511 2.03954 25.7992 2.04579 25.9442C2.05017 26.023 2.04204 26.0736 1.89017 26.0723C1.75142 26.0711 1.68454 26.0492 1.70329 25.9467C1.71329 25.8773 1.70579 25.8067 1.70579 25.7373ZM4.80204 25.7373C4.80204 25.8055 4.79642 25.8755 4.80579 25.9442C4.81704 26.0386 4.77392 26.0723 4.62829 26.0736C4.46079 26.0761 4.45829 26.0192 4.45892 25.9361C4.46736 25.7977 4.46736 25.6589 4.45892 25.5205C4.45392 25.4286 4.48329 25.3867 4.63704 25.3867C4.80204 25.3867 4.80704 25.4448 4.80392 25.528C4.79829 25.598 4.80204 25.6667 4.80204 25.7373Z" fill="#CC0202"/>
<path fill-rule="evenodd" clip-rule="evenodd" d="M7.56858 25.7376C7.56858 25.8057 7.56046 25.8757 7.57046 25.9445C7.58358 26.0413 7.53108 26.0726 7.38733 26.0738C7.22608 26.0751 7.21546 26.022 7.21858 25.9351C7.22546 25.7974 7.22484 25.6595 7.21671 25.522C7.21108 25.4245 7.25046 25.3882 7.39796 25.3882C7.56233 25.387 7.57358 25.4438 7.56983 25.5295C7.56296 25.5995 7.56858 25.667 7.56858 25.7376ZM7.56858 28.6463C7.56858 28.722 7.56233 28.797 7.57046 28.8707C7.58171 28.9713 7.52046 29.002 7.37921 29.0007C7.23921 28.9988 7.21483 28.9563 7.21858 28.8738C7.22734 28.7296 7.22671 28.5849 7.21671 28.4407C7.20733 28.3345 7.27233 28.3182 7.40546 28.317C7.54421 28.3151 7.57921 28.3538 7.57046 28.4382C7.56296 28.507 7.56858 28.577 7.56858 28.6463Z" fill="#CC0606"/>
<path fill-rule="evenodd" clip-rule="evenodd" d="M4.46147 28.6588C4.46335 28.5825 4.47085 28.505 4.4596 28.4294C4.44397 28.3275 4.5196 28.3207 4.63772 28.3182C4.7746 28.315 4.81147 28.3488 4.80647 28.4369C4.79804 28.5828 4.79804 28.7291 4.80647 28.875C4.80835 28.9607 4.78085 28.9988 4.64147 29.0019C4.48647 29.0032 4.44835 28.9607 4.4596 28.8669C4.46835 28.7982 4.46147 28.7282 4.46147 28.6588ZM1.70647 28.6575C1.70647 28.5888 1.71397 28.5182 1.7046 28.4488C1.69147 28.3538 1.72835 28.3182 1.8821 28.315C2.04835 28.3125 2.05147 28.3725 2.0471 28.4569C2.04085 28.596 2.04085 28.7353 2.0471 28.8744C2.05147 28.9582 2.02897 28.9994 1.88585 29.0025C1.7321 29.0038 1.69397 28.9632 1.7046 28.8675C1.7121 28.7969 1.70647 28.7282 1.70647 28.6575ZM2.0446 20.4975C2.0446 20.5663 2.04335 20.6363 2.0471 20.7069C2.05147 20.7888 2.05522 20.8513 1.8821 20.85C1.73022 20.8488 1.69772 20.8088 1.7046 20.715C1.71241 20.5757 1.71178 20.4361 1.70272 20.2969C1.69772 20.2025 1.73022 20.1644 1.8846 20.1632C2.0546 20.1607 2.05147 20.225 2.0471 20.3063C2.04397 20.3694 2.0446 20.4332 2.0446 20.4975Z" fill="#CC0202"/>
<path fill-rule="evenodd" clip-rule="evenodd" d="M1.70639 12.3527C1.70639 12.2777 1.71202 12.2008 1.70452 12.1264C1.69389 12.0302 1.76014 12.0146 1.88202 12.0133C2.01952 12.0108 2.05264 12.0477 2.04702 12.1339C2.03827 12.2782 2.03827 12.4228 2.04702 12.5671C2.05514 12.6602 2.02139 12.6983 1.87202 12.6996C1.70639 12.6996 1.69827 12.6452 1.70452 12.5602C1.71014 12.4914 1.70639 12.4221 1.70639 12.3527Z" fill="#CB0101"/>
<path fill-rule="evenodd" clip-rule="evenodd" d="M7.21874 15.2559C7.21874 15.1915 7.22624 15.1277 7.21687 15.0646C7.19812 14.9609 7.26812 14.9402 7.40374 14.939C7.54624 14.9377 7.57249 14.9784 7.56874 15.0634C7.56062 15.2091 7.56062 15.3551 7.56874 15.5009C7.57249 15.5921 7.52499 15.6221 7.39312 15.6209C7.26499 15.6209 7.20812 15.5971 7.21749 15.5034C7.22437 15.4221 7.21874 15.3384 7.21874 15.2559Z" fill="#CC0606"/>
<path fill-rule="evenodd" clip-rule="evenodd" d="M4.46356 15.2671C4.46356 15.1983 4.46918 15.1277 4.45981 15.0602C4.45106 14.9746 4.48418 14.9396 4.62356 14.9396C4.76418 14.9396 4.81606 14.9664 4.80668 15.0652C4.79543 15.21 4.79543 15.3554 4.80668 15.5002C4.81418 15.6046 4.74918 15.6214 4.61418 15.6239C4.45981 15.6258 4.45856 15.5702 4.46168 15.4933C4.46543 15.4183 4.46356 15.3439 4.46356 15.2671ZM2.04481 15.2796C2.04481 15.3439 2.04356 15.4064 2.04731 15.4696C2.05356 15.5583 2.05543 15.6258 1.87043 15.6239C1.69981 15.6214 1.70293 15.5602 1.70481 15.4789C1.70668 15.3471 1.70856 15.2127 1.70481 15.0796C1.70168 14.9958 1.70168 14.9364 1.87043 14.9389C2.01981 14.9402 2.06106 14.9758 2.04731 15.0696C2.03793 15.1402 2.04481 15.2089 2.04481 15.2796ZM4.80293 12.3671C4.80293 12.4364 4.79731 12.5077 4.80668 12.5764C4.81606 12.6646 4.77668 12.6971 4.64168 12.6996C4.49168 12.7008 4.45231 12.6639 4.45981 12.5671C4.47012 12.4279 4.47012 12.2881 4.45981 12.1489C4.45606 12.0577 4.48293 12.0127 4.63793 12.0127C4.80793 12.0127 4.80793 12.0752 4.80481 12.1571C4.79918 12.2271 4.80293 12.2964 4.80293 12.3671Z" fill="#CC0202"/>
<path fill-rule="evenodd" clip-rule="evenodd" d="M7.56907 12.3659C7.56907 12.4346 7.56282 12.504 7.57094 12.574C7.58032 12.6584 7.55032 12.6996 7.40782 12.6984C7.27657 12.6959 7.20844 12.6815 7.21532 12.574C7.22969 12.4234 7.22657 12.2715 7.21907 12.1202C7.21532 12.0371 7.26282 12.0115 7.37969 12.0127C7.49282 12.0127 7.57782 12.0184 7.57094 12.1202C7.56344 12.2015 7.56907 12.2834 7.56907 12.3659Z" fill="#CC0505"/>
<path fill-rule="evenodd" clip-rule="evenodd" d="M7.56851 31.9248C7.56851 31.9942 7.56226 32.0648 7.57038 32.1336C7.57976 32.2192 7.54413 32.258 7.40538 32.258C7.26976 32.2567 7.20788 32.2348 7.21663 32.1298C7.22695 31.9909 7.22695 31.8513 7.21663 31.7123C7.21288 31.6217 7.24101 31.5755 7.39413 31.5742C7.55288 31.5742 7.57726 31.6267 7.56976 31.7148C7.56288 31.7855 7.56851 31.8555 7.56851 31.9248Z" fill="#CD0606"/>
<path fill-rule="evenodd" clip-rule="evenodd" d="M1.70607 9.07566C1.70607 9.00691 1.71357 8.93629 1.70419 8.86691C1.68794 8.76441 1.77044 8.75879 1.88544 8.75879C1.99294 8.75879 2.05294 8.77316 2.04669 8.86066C2.03669 9.01801 2.03669 9.17582 2.04669 9.33316C2.05294 9.42629 1.98544 9.43629 1.88169 9.43379C1.78607 9.43129 1.69482 9.43879 1.70419 9.34066C1.71169 9.25191 1.70607 9.16316 1.70607 9.07566Z" fill="#CB0000"/>
<path fill-rule="evenodd" clip-rule="evenodd" d="M7.56886 9.09326C7.56886 9.16888 7.56074 9.24451 7.57074 9.31888C7.58199 9.41451 7.51324 9.43576 7.39324 9.43576C7.26324 9.43701 7.21386 9.40888 7.21949 9.31701C7.22918 9.17256 7.22855 9.02761 7.21761 8.88326C7.20824 8.77576 7.28011 8.76013 7.41011 8.75888C7.55386 8.75638 7.57699 8.80513 7.57136 8.88576C7.56324 8.95263 7.56886 9.02388 7.56886 9.09326Z" fill="#CC0404"/>
<path fill-rule="evenodd" clip-rule="evenodd" d="M2.04395 17.992C2.03145 18.0507 2.08457 18.1288 2.01457 18.1857C1.95957 18.2288 1.86082 18.2032 1.78207 18.2007C1.70582 18.1982 1.70582 18.1545 1.70582 18.1176C1.70395 18.047 1.70582 17.977 1.70395 17.9076C1.70082 17.8232 1.68332 17.752 1.87645 17.752C2.06457 17.752 2.05207 17.822 2.04582 17.9076C2.04332 17.9313 2.04395 17.9576 2.04395 17.992Z" fill="#CC0505"/>
<path fill-rule="evenodd" clip-rule="evenodd" d="M7.21847 23.0369C7.21847 22.9862 7.22034 22.9362 7.21847 22.8862C7.21472 22.8 7.30222 22.8056 7.38534 22.8056C7.46597 22.8056 7.56034 22.795 7.56222 22.8794C7.56847 22.9544 7.56472 23.0294 7.56847 23.1056C7.57222 23.19 7.58472 23.2612 7.39659 23.2612C7.22284 23.26 7.20409 23.2037 7.21722 23.1119C7.22034 23.0862 7.21659 23.0606 7.21847 23.0369Z" fill="#CD0909"/>
<path fill-rule="evenodd" clip-rule="evenodd" d="M2.04414 23.0328C2.02101 23.1253 2.14351 23.2878 1.82476 23.2584C1.72664 23.2509 1.70164 23.2253 1.70476 23.1659C1.70758 23.0961 1.70758 23.0263 1.70476 22.9565C1.69789 22.8653 1.70476 22.8009 1.88601 22.8028C2.06039 22.8053 2.05164 22.8703 2.04476 22.9496C2.04351 22.9759 2.04414 22.9996 2.04414 23.0328Z" fill="#CC0404"/>
<path fill-rule="evenodd" clip-rule="evenodd" d="M7.21684 17.9484C7.24309 17.8934 7.16497 17.8128 7.26809 17.7634C7.39247 17.7053 7.56059 17.774 7.56684 17.8784C7.57059 17.9353 7.56497 17.9928 7.56872 18.0484C7.57247 18.1347 7.58184 18.2097 7.39309 18.2097C7.20809 18.2097 7.20997 18.1409 7.21747 18.0528C7.22059 18.0203 7.21684 17.9878 7.21684 17.9484Z" fill="#CD0A0A"/>
<path fill-rule="evenodd" clip-rule="evenodd" d="M7.48555 10.5613C7.47806 10.5551 7.44993 10.5576 7.4318 10.5601C7.23305 10.5851 7.2043 10.5113 7.2168 10.3963C7.22805 10.2951 7.21868 10.1932 7.21868 10.0913C7.22055 10.0363 7.2093 9.98131 7.10305 9.99631C6.8543 10.0276 6.87493 9.91506 6.87868 9.80318C6.8843 9.71568 6.87868 9.62631 6.88055 9.53631C6.88243 9.48256 6.87493 9.42631 6.77056 9.43631C6.53368 9.46006 6.5243 9.36506 6.53368 9.24381C6.54305 9.15506 6.53743 9.06568 6.53743 8.97756C6.53743 8.93381 6.5393 8.87131 6.45243 8.87943C6.10555 8.91193 6.1893 8.74068 6.1818 8.61381C6.17805 8.51256 6.17243 8.41193 6.16743 8.31006H5.83868C5.71055 8.39631 5.7343 8.50756 5.7268 8.61381C5.72305 8.68818 5.73618 8.77068 5.61243 8.81256C5.42368 8.87443 5.40493 8.99193 5.39743 9.11506C5.3918 9.19068 5.43118 9.28506 5.31555 9.32506C5.07368 9.41131 5.06805 9.55881 5.0668 9.71506C5.0668 9.78943 5.08118 9.87818 4.94805 9.90881C4.72055 9.96256 4.68993 10.0869 4.68305 10.2288C4.6793 10.2926 4.70555 10.3638 4.62805 10.4301C4.54055 10.3432 4.58368 10.2594 4.57055 10.1801C4.55555 10.0976 4.55368 10.0019 4.44305 9.95881C4.2543 9.88818 4.23618 9.78068 4.23993 9.65506C4.2418 9.53756 4.20805 9.42068 4.0343 9.36693C3.87743 9.31818 3.85618 9.23631 3.85618 9.13568C3.85493 9.02193 3.86243 8.89631 3.69055 8.83381C3.55055 8.78381 3.5268 8.70943 3.5268 8.61381C3.5268 8.50756 3.5468 8.39568 3.41805 8.31006H3.08993C3.08618 8.46256 3.0843 8.61506 3.0843 8.76631C3.08618 8.83131 3.07305 8.88756 2.95305 8.87443C2.72555 8.84943 2.7293 8.94693 2.73993 9.05631C2.7443 9.14506 2.73805 9.23506 2.7418 9.32318C2.7418 9.38756 2.72368 9.44381 2.6093 9.43256C2.39055 9.41193 2.36993 9.49756 2.38555 9.61381C2.39493 9.69693 2.37868 9.77881 2.3893 9.86318C2.3968 9.95193 2.37055 10.0101 2.21368 9.99443C2.07993 9.97881 2.03243 10.0207 2.04368 10.1119C2.05368 10.1926 2.03993 10.2757 2.04743 10.3594C2.05555 10.4782 2.0718 10.5951 1.80868 10.5594C1.76243 10.5544 1.71055 10.5632 1.71055 10.6038C1.70868 10.7632 1.70868 10.9207 1.71805 11.0813C1.71805 11.1207 1.77555 11.1288 1.8218 11.1219C2.0693 11.0869 2.05368 11.2013 2.04743 11.3126C2.04118 11.4019 2.04493 11.4901 2.04368 11.5788C2.04368 11.6326 2.04368 11.6926 2.15118 11.6788C2.38805 11.6544 2.40243 11.7482 2.38993 11.8713C2.3793 11.9538 2.3918 12.0369 2.38618 12.1188C2.37805 12.2057 2.40993 12.2569 2.55055 12.2407C2.7193 12.2226 2.75055 12.2851 2.74305 12.3857C2.73368 12.4944 2.74305 12.6019 2.74118 12.7101C2.74118 12.7657 2.74743 12.8207 2.85493 12.8063C3.09493 12.7751 3.09868 12.8751 3.08743 12.9938C3.08055 13.0776 3.09118 13.1588 3.08368 13.2413C3.0743 13.3357 3.10993 13.3769 3.26368 13.3757C3.40618 13.3744 3.43055 13.3338 3.4268 13.2501C3.4193 13.1344 3.4268 13.0207 3.42493 12.9057C3.42305 12.8519 3.42868 12.7951 3.53555 12.8088C3.8093 12.8451 3.77618 12.7188 3.77055 12.6032C3.7668 12.5151 3.77055 12.4257 3.77055 12.3369C3.77055 12.2776 3.7968 12.2313 3.89243 12.2432C4.1368 12.2719 4.13305 12.1663 4.12368 12.0507C4.11805 11.9619 4.12368 11.8726 4.12368 11.7838C4.1218 11.7269 4.13493 11.6726 4.23555 11.6838C4.48118 11.7119 4.47118 11.6069 4.46368 11.4913C4.45868 11.4151 4.4693 11.3401 4.4618 11.2632C4.45493 11.1769 4.46368 11.1238 4.63118 11.1251C4.7868 11.1251 4.81243 11.1682 4.80493 11.2594C4.79743 11.3669 4.8068 11.4744 4.80305 11.5838C4.80118 11.6444 4.82493 11.6907 4.92055 11.6801C5.1618 11.6544 5.16555 11.7569 5.15618 11.8757C5.14868 11.9638 5.15618 12.0538 5.1543 12.1419C5.15243 12.1988 5.1618 12.2532 5.2668 12.2394C5.5018 12.2138 5.51555 12.3088 5.50368 12.4307C5.4943 12.5257 5.5018 12.6207 5.5018 12.7157C5.5018 12.7607 5.49805 12.8182 5.5943 12.8069C5.87618 12.7707 5.84805 12.8982 5.84118 13.0201C5.83743 13.0957 5.8468 13.1732 5.84118 13.2482C5.83055 13.3313 5.85743 13.3763 5.99993 13.3763C6.14993 13.3776 6.1943 13.3401 6.1868 13.2419C6.17743 13.1351 6.18493 13.0269 6.18305 12.9188C6.18118 12.8582 6.18118 12.7944 6.30555 12.8088C6.54743 12.8369 6.5493 12.7363 6.53993 12.6188C6.53055 12.5238 6.53993 12.4276 6.53805 12.3332C6.53618 12.2713 6.56993 12.2301 6.6643 12.2426C6.89368 12.2701 6.89118 12.1738 6.88305 12.0619C6.87555 11.9669 6.88493 11.8719 6.8793 11.7776C6.87743 11.7151 6.90243 11.6726 7.00056 11.6838C7.22431 11.7082 7.23305 11.6176 7.22118 11.5044C7.21368 11.4288 7.22868 11.3488 7.21743 11.2751C7.20305 11.1651 7.2418 11.1051 7.42305 11.1244C7.55743 11.1376 7.5818 11.0726 7.56305 11.0051C7.5218 10.8576 7.66305 10.6957 7.48555 10.5613ZM4.11243 11.0769C4.10993 11.1251 4.03805 11.1301 3.98618 11.1232C3.7568 11.0957 3.7568 11.1963 3.76743 11.3051C3.77493 11.3826 3.76368 11.4588 3.7693 11.5332C3.7793 11.6294 3.75993 11.7007 3.5843 11.6819C3.44555 11.6688 3.41618 11.7238 3.4218 11.8076C3.4293 11.9088 3.41618 12.0113 3.42555 12.1113C3.43305 12.2038 3.40493 12.2457 3.24993 12.2457C3.08055 12.2469 3.07993 12.1882 3.08243 12.1057C3.08993 12.0163 3.0768 11.9269 3.08618 11.8376C3.0993 11.7338 3.07555 11.6619 2.8868 11.6801C2.7593 11.6932 2.73305 11.6394 2.74055 11.5651C2.74493 11.4957 2.74055 11.4244 2.74243 11.3551C2.74493 11.2313 2.79305 11.0869 2.48555 11.1207C2.40243 11.1326 2.38743 11.0794 2.38743 11.0313V10.8401C2.38743 10.7907 2.39305 10.7394 2.38555 10.6882C2.37055 10.5944 2.41555 10.5419 2.56493 10.5588C2.71805 10.5763 2.7518 10.5194 2.7418 10.4269C2.73243 10.3388 2.74618 10.2501 2.73993 10.1594C2.72868 10.0544 2.7418 9.96693 2.95118 9.99256C3.06493 10.0057 3.08993 9.95881 3.08618 9.89068C3.0793 9.78318 3.08993 9.67568 3.08243 9.56631C3.07555 9.47506 3.10055 9.43068 3.25618 9.43068C3.4268 9.42943 3.42868 9.49006 3.42555 9.57381C3.41993 9.66131 3.43118 9.75193 3.41993 9.83881C3.40805 9.94568 3.4343 10.0144 3.62118 9.99381C3.75243 9.97943 3.77243 10.0351 3.76868 10.1107C3.76493 10.2044 3.7743 10.3007 3.76493 10.3944C3.75555 10.5057 3.77618 10.5857 3.97993 10.5607C4.0318 10.5544 4.1118 10.5482 4.11305 10.6001C4.12305 10.7607 4.12118 10.9182 4.11243 11.0769ZM6.71118 11.1251C6.5593 11.1082 6.5243 11.1626 6.53368 11.2557C6.54305 11.3376 6.52805 11.4213 6.5393 11.5032C6.55055 11.6188 6.5318 11.7057 6.31368 11.6851C6.20118 11.6738 6.17868 11.7269 6.18055 11.7926C6.18618 11.8944 6.1768 11.9969 6.1843 12.0976C6.1918 12.1919 6.17868 12.2476 6.00118 12.2476C5.8293 12.2438 5.83368 12.1826 5.84055 12.1032C5.8443 12.0263 5.8368 11.9513 5.84055 11.8738C5.84993 11.7594 5.8568 11.6532 5.61305 11.6801C5.50493 11.6932 5.4993 11.6382 5.50118 11.5826C5.50305 11.4926 5.49555 11.4057 5.50305 11.3163C5.5118 11.2013 5.51868 11.0926 5.27368 11.1251C5.26493 11.1251 5.25243 11.1263 5.24868 11.1232C5.0543 10.9857 5.19805 10.8169 5.15618 10.6657C5.13368 10.5807 5.19493 10.5476 5.31118 10.5607C5.4718 10.5769 5.5168 10.5238 5.50368 10.4201C5.49243 10.3394 5.50868 10.2551 5.49993 10.1744C5.48868 10.0607 5.4943 9.96443 5.71868 9.99318C5.81868 10.0051 5.84493 9.96568 5.84118 9.90443C5.83743 9.79006 5.8468 9.67631 5.84118 9.56068C5.8343 9.48131 5.85055 9.43131 5.99618 9.43131C6.13868 9.43131 6.1968 9.45881 6.18493 9.56068C6.17555 9.64881 6.19055 9.73943 6.18118 9.82756C6.1718 9.93381 6.18493 10.0194 6.39243 9.99631C6.4993 9.98193 6.53993 10.0213 6.53805 10.0944C6.5343 10.1957 6.54555 10.2969 6.5343 10.3976C6.52368 10.5113 6.55055 10.5838 6.75118 10.5601C6.86618 10.5457 6.88805 10.5957 6.88118 10.6626C6.87743 10.7201 6.88118 10.7763 6.88118 10.8338C6.88118 10.8907 6.87555 10.9482 6.88305 11.0044C6.89305 11.0932 6.84493 11.1382 6.71118 11.1251ZM7.54993 29.9357C7.54993 29.8963 7.49243 29.8851 7.44868 29.8913C7.20618 29.9219 7.20618 29.8188 7.21555 29.7026C7.22305 29.6126 7.21743 29.5244 7.21743 29.4338C7.21931 29.3794 7.21743 29.3213 7.11055 29.3338C6.86743 29.3613 6.86743 29.2601 6.87743 29.1413C6.88618 29.0526 6.87556 28.9638 6.88118 28.8744C6.88493 28.8069 6.86055 28.7588 6.74555 28.7738C6.53805 28.7988 6.5268 28.7119 6.5343 28.6051C6.5418 28.5026 6.53243 28.4013 6.53618 28.3001C6.53805 28.2382 6.51243 28.1951 6.41368 28.2082C6.17555 28.2376 6.16805 28.1394 6.1793 28.0194C6.18868 27.9288 6.17555 27.8413 6.18305 27.7526C6.19243 27.6526 6.11993 27.6382 5.99805 27.6382C5.88493 27.6394 5.82868 27.6613 5.83743 27.7457C5.84493 27.8657 5.8393 27.9882 5.8393 28.1069C5.8393 28.1613 5.8393 28.2194 5.7293 28.2051C5.4868 28.1726 5.49055 28.2763 5.49805 28.3938C5.5068 28.4863 5.49993 28.5838 5.49993 28.6794C5.49993 28.7269 5.49055 28.7782 5.40243 28.7701C5.09305 28.7357 5.15493 28.8851 5.15305 29.0044C5.15118 29.0809 5.15118 29.1574 5.15305 29.2338C5.15493 29.2926 5.12868 29.3407 5.03305 29.3282C4.7868 29.3026 4.79243 29.4094 4.8018 29.5251C4.80743 29.6001 4.79618 29.6763 4.80368 29.7519C4.81493 29.8444 4.78555 29.8876 4.62993 29.8888C4.46243 29.8901 4.45555 29.8344 4.46055 29.7482C4.46805 29.6407 4.46243 29.5332 4.46243 29.4251C4.46055 29.3807 4.4643 29.3251 4.3718 29.3338C4.06555 29.3644 4.12243 29.2169 4.12243 29.0951C4.12243 29.0201 4.11868 28.9426 4.12243 28.8663C4.1243 28.8063 4.09993 28.7601 4.00243 28.7726C3.76368 28.7988 3.75618 28.7007 3.76743 28.5813C3.77493 28.4844 3.7693 28.3901 3.7693 28.2938C3.7693 28.2476 3.76368 28.1963 3.6718 28.2063C3.39243 28.2407 3.4168 28.1138 3.4243 27.9901C3.42805 27.9151 3.41868 27.8394 3.42618 27.7626C3.43368 27.6794 3.40555 27.6382 3.26305 27.6369C3.1093 27.6344 3.07618 27.6763 3.08305 27.7707C3.09055 27.8863 3.08493 27.9982 3.08493 28.1138C3.08493 28.1601 3.08493 28.2144 2.99118 28.2032C2.71555 28.1694 2.72993 28.2913 2.74118 28.4169C2.74555 28.5007 2.7393 28.5832 2.74305 28.6657C2.74305 28.7307 2.7193 28.7826 2.6068 28.7701C2.37993 28.7432 2.37493 28.8376 2.38618 28.9501C2.39368 29.0326 2.3793 29.1157 2.38993 29.1976C2.40118 29.2944 2.35805 29.3451 2.2068 29.3294C2.06805 29.3169 2.03305 29.3644 2.04368 29.4526C2.05368 29.5338 2.04118 29.6157 2.04743 29.7001C2.05368 29.8101 2.04493 29.8644 1.82555 29.9038C1.56055 29.9519 1.75368 30.1707 1.71055 30.3107C1.69493 30.3688 1.66055 30.4707 1.83368 30.4513C2.03743 30.4307 2.05868 30.5038 2.04743 30.6144C2.03743 30.7151 2.04743 30.8163 2.04368 30.9194C2.04368 30.9751 2.05555 31.0294 2.15868 31.0163C2.40493 30.9857 2.39743 31.0919 2.38805 31.2063C2.38243 31.2969 2.3918 31.3844 2.38618 31.4744C2.3793 31.5469 2.42368 31.5869 2.52868 31.5769C2.7318 31.5557 2.75243 31.6363 2.74305 31.7463C2.73368 31.8413 2.74118 31.9363 2.74118 32.0307C2.74118 32.0832 2.73555 32.1451 2.84555 32.1332C3.10993 32.1026 3.09118 32.2182 3.08743 32.3394C3.08055 32.4588 3.08743 32.5813 3.09118 32.7013H3.4193C3.54805 32.6157 3.52243 32.5044 3.52993 32.3963C3.53555 32.3288 3.5143 32.2482 3.62243 32.2113C3.83243 32.1413 3.85555 32.0144 3.8593 31.8757C3.86305 31.8032 3.83743 31.7132 3.96493 31.6763C4.21243 31.6019 4.24618 31.4594 4.24618 31.2988C4.24618 31.2357 4.22368 31.1551 4.3118 31.1244C4.5768 31.0294 4.57305 30.8669 4.57493 30.6982C4.5768 30.6601 4.55993 30.6082 4.64618 30.5938C4.70868 30.6819 4.6743 30.7726 4.68993 30.8601C4.70805 30.9519 4.7368 31.0451 4.87493 31.0751C5.05805 31.1163 5.0693 31.2082 5.07055 31.3157C5.07055 31.4351 5.04993 31.5694 5.2293 31.6401C5.3718 31.6969 5.40118 31.7751 5.40118 31.8763C5.3993 31.9913 5.39555 32.1157 5.56805 32.1776C5.70555 32.2301 5.72868 32.3032 5.72868 32.3969C5.72868 32.5051 5.71055 32.6169 5.83868 32.7019H6.16743L6.18368 32.2644C6.18555 32.2107 6.15993 32.1288 6.28493 32.1388C6.56868 32.1694 6.54243 32.0463 6.5368 31.9201C6.53305 31.8382 6.53868 31.7551 6.5368 31.6726C6.53305 31.6126 6.56493 31.5701 6.66118 31.5788C6.87993 31.6026 6.89368 31.5144 6.8818 31.4001C6.8743 31.3176 6.88555 31.2344 6.87805 31.1526C6.87243 31.0638 6.8868 31.0001 7.04743 31.0194C7.18055 31.0344 7.22805 30.9919 7.2193 30.9013C7.2118 30.8188 7.22305 30.7369 7.21555 30.6538C7.20618 30.5326 7.19681 30.4182 7.45743 30.4526C7.5018 30.4588 7.55743 30.4507 7.55931 30.4094C7.55931 30.2513 7.5593 30.0938 7.54993 29.9357ZM3.94743 30.4557C3.79805 30.4388 3.75305 30.4894 3.7643 30.5851C3.77368 30.6676 3.76243 30.7507 3.76805 30.8326C3.78118 30.9519 3.76805 31.0494 3.53305 31.0238C3.42618 31.0107 3.42243 31.0657 3.42243 31.1194C3.4243 31.2357 3.41493 31.3488 3.4243 31.4638C3.43368 31.5557 3.3818 31.5819 3.2518 31.5819C3.12055 31.5819 3.06868 31.5544 3.0818 31.4626C3.09118 31.3938 3.08555 31.3219 3.08368 31.2532C3.0818 31.1351 3.14555 30.9838 2.83493 31.0182C2.74555 31.0276 2.7418 30.9719 2.7418 30.9263C2.73993 30.8313 2.73055 30.7363 2.7418 30.6413C2.75493 30.5176 2.73618 30.4238 2.50555 30.4557C2.49368 30.4569 2.48368 30.4582 2.47618 30.4544C2.2718 30.3269 2.4368 30.1638 2.39055 30.0176C2.36993 29.9551 2.37805 29.8782 2.51805 29.8919C2.74118 29.9151 2.75305 29.8269 2.74118 29.7119C2.7318 29.6307 2.74743 29.5476 2.73743 29.4644C2.72618 29.3694 2.7693 29.3201 2.91868 29.3319C3.0568 29.3451 3.09243 29.2988 3.08555 29.2107C3.07868 29.1107 3.0893 29.0069 3.0818 28.9069C3.07493 28.8169 3.09305 28.7701 3.2543 28.7701C3.41555 28.7701 3.4318 28.8194 3.4243 28.9082C3.41493 28.9888 3.42993 29.0738 3.42055 29.1551C3.40555 29.2713 3.42618 29.3557 3.64305 29.3351C3.73743 29.3263 3.7693 29.3663 3.76743 29.4288C3.76368 29.5101 3.77118 29.5932 3.76555 29.6751C3.75805 29.7994 3.73368 29.9263 4.01743 29.8938C4.09993 29.8838 4.12055 29.9319 4.12055 29.9826C4.11868 30.0459 4.11868 30.1092 4.12055 30.1726C4.12055 30.2238 4.11305 30.2738 4.12055 30.3244C4.13243 30.4132 4.1043 30.4738 3.94743 30.4557ZM6.73556 30.4557C6.54868 30.4326 6.51805 30.5001 6.53243 30.6069C6.5418 30.6763 6.53243 30.7469 6.53618 30.8169C6.5418 30.9351 6.5618 31.0544 6.29618 31.0238C6.1918 31.0107 6.17868 31.0632 6.18055 31.1194C6.18243 31.2357 6.17493 31.3488 6.18243 31.4638C6.18993 31.5557 6.13805 31.5819 6.00805 31.5819C5.88118 31.5819 5.82493 31.5557 5.83743 31.4638C5.8468 31.3863 5.83743 31.3113 5.8393 31.2357C5.84493 31.1151 5.87868 30.9844 5.5943 31.0194C5.50305 31.0301 5.5018 30.9732 5.49993 30.9282C5.49993 30.8332 5.49243 30.7376 5.5018 30.6426C5.5143 30.5238 5.5068 30.4226 5.26868 30.4557C5.25743 30.4569 5.24743 30.4582 5.2418 30.4544C5.0393 30.3257 5.20118 30.1638 5.1543 30.0176C5.13555 29.9551 5.14493 29.8782 5.2868 29.8919C5.51493 29.9163 5.50993 29.8182 5.5018 29.7094C5.4943 29.6207 5.5068 29.5332 5.49805 29.4426C5.49055 29.3619 5.5318 29.3226 5.65118 29.3332C5.82055 29.3501 5.8518 29.2888 5.8393 29.1901C5.83118 29.0957 5.8468 28.9982 5.83743 28.9044C5.82743 28.8107 5.8593 28.7713 6.0118 28.7701C6.17743 28.7701 6.18993 28.8219 6.18243 28.9094C6.1768 28.9963 6.18805 29.0869 6.17868 29.1738C6.16743 29.2807 6.19305 29.3519 6.37805 29.3338C6.5018 29.3226 6.54118 29.3676 6.53555 29.4469C6.52993 29.5363 6.54118 29.6251 6.5318 29.7126C6.52243 29.8238 6.52618 29.9194 6.75055 29.8926C6.8468 29.8813 6.88243 29.9194 6.87868 29.9838C6.87493 30.0469 6.87868 30.1107 6.87868 30.1726C6.87868 30.2301 6.87493 30.2882 6.88055 30.3438C6.88618 30.4188 6.86493 30.4713 6.73556 30.4557Z" fill="#CB0000"/>
<path fill-rule="evenodd" clip-rule="evenodd" d="M4.80282 9.11119C4.80282 9.17994 4.79719 9.25056 4.80657 9.31869C4.81782 9.41181 4.76032 9.43744 4.63219 9.43744C4.50657 9.43619 4.45282 9.41431 4.46032 9.31994C4.47157 9.16994 4.46969 9.01681 4.46032 8.86681C4.45657 8.78181 4.50282 8.75744 4.62032 8.75994C4.72344 8.76431 4.81907 8.75744 4.80719 8.86556C4.79532 8.94619 4.80282 9.02994 4.80282 9.11119ZM4.80282 31.9374C4.80282 32.0006 4.79532 32.0643 4.80657 32.1262C4.82094 32.2299 4.75657 32.2518 4.61969 32.2531C4.47594 32.2543 4.45844 32.2081 4.45969 32.1274C4.46907 31.9828 4.46907 31.8377 4.45969 31.6931C4.45219 31.5993 4.50407 31.5749 4.63032 31.5749C4.75782 31.5762 4.81719 31.5981 4.80594 31.6924C4.79719 31.7718 4.80282 31.8562 4.80282 31.9374Z" fill="#CC0303"/>
<path fill-rule="evenodd" clip-rule="evenodd" d="M7.36623 21.5751C7.23935 21.5907 7.21123 21.5413 7.21685 21.4651C7.22435 21.3813 7.21873 21.2976 7.21873 21.2176C7.21873 21.1713 7.21685 21.1145 7.12435 21.1257C6.80998 21.1613 6.87685 21.0076 6.88435 20.8895C6.88748 20.7907 6.88435 20.7113 6.6856 20.7338C6.57872 20.747 6.5431 20.7101 6.54872 20.637C6.55247 20.5476 6.5506 20.4588 6.54872 20.3701C6.54872 20.3232 6.55247 20.272 6.64685 20.2838C6.91873 20.3188 6.89372 20.1926 6.87872 20.0788C6.8656 19.9588 6.86997 19.8613 7.11185 19.8907C7.22247 19.9038 7.21873 19.8413 7.21873 19.7901C7.21873 19.707 7.22435 19.6245 7.21685 19.5426C7.2131 19.4726 7.2431 19.4276 7.35372 19.4432C7.55685 19.4663 7.57747 19.3882 7.56872 19.2788C7.55872 19.1695 7.56497 19.062 7.56497 18.9545C7.56497 18.8145 7.5606 18.6745 7.56685 18.5345C7.5706 18.4526 7.52122 18.4295 7.40372 18.4232C7.1981 18.412 7.22623 18.5013 7.2131 18.5926C7.2056 18.652 7.29998 18.7713 7.10123 18.7576C6.88373 18.7445 6.86873 18.822 6.87685 18.9388C6.87873 19.0007 6.94622 19.1138 6.7506 19.0982C6.5506 19.0826 6.52122 19.1501 6.53372 19.2632C6.5431 19.3513 6.52997 19.4426 6.53747 19.5295C6.5431 19.6188 6.5281 19.672 6.3656 19.6707C6.21997 19.6682 6.17122 19.6382 6.1806 19.5388C6.19185 19.4363 6.17872 19.3351 6.18435 19.2332C6.19185 19.1438 6.16622 19.0832 6.00997 19.1013C5.84622 19.1195 5.82935 19.0532 5.8406 18.967C5.85185 18.8495 5.87622 18.7238 5.60372 18.7607C5.51497 18.7738 5.49935 18.727 5.50122 18.6788C5.5031 18.6338 5.49185 18.5876 5.5031 18.5451C5.54372 18.3701 5.4656 18.2807 5.18685 18.3132C5.12185 18.3213 5.00872 18.337 4.99435 18.2757C4.95497 18.1138 4.8781 17.8782 5.0081 17.7995C5.21435 17.6757 5.13247 17.5563 5.1481 17.4332C5.1681 17.2895 5.16122 17.1413 5.15185 16.9957C5.14497 16.8963 5.17372 16.8338 5.34435 16.8526C5.4881 16.8676 5.51185 16.8101 5.5031 16.7282C5.4956 16.6588 5.5081 16.5863 5.49935 16.5188C5.4881 16.427 5.5456 16.4013 5.67372 16.4001C5.8106 16.3988 5.84748 16.4351 5.8406 16.5213C5.8331 16.6487 5.8331 16.7765 5.8406 16.9038C5.85185 17.0151 5.8481 17.1057 5.62372 17.0801C5.4956 17.0638 5.48685 17.1295 5.5031 17.1882C5.5456 17.3388 5.37372 17.5882 5.59997 17.6232C5.88247 17.6676 5.83685 17.7588 5.8406 17.8751V18.1032C5.83872 18.1595 5.85185 18.2132 5.9531 18.2032C6.1956 18.1763 6.19373 18.2801 6.18435 18.397C6.17872 18.4726 6.1881 18.5482 6.1806 18.6245C6.1731 18.7138 6.19372 18.7663 6.35435 18.7651C6.49997 18.7651 6.54872 18.7307 6.53935 18.632C6.5281 18.5238 6.53747 18.4163 6.53747 18.3088C6.53747 18.2545 6.53935 18.1957 6.64685 18.207C6.91873 18.2363 6.88622 18.1113 6.8806 17.9957C6.87685 17.9138 6.88435 17.8295 6.87872 17.7495C6.87685 17.6851 6.88748 17.6301 7.00747 17.6451C7.21123 17.6695 7.23123 17.5882 7.2206 17.4795C7.2131 17.397 7.22622 17.3151 7.21685 17.232C7.2056 17.1282 7.22622 17.0551 7.41685 17.0751C7.48997 17.0838 7.56622 17.0813 7.56435 17.0038C7.55997 16.8651 7.56435 16.7257 7.55997 16.5851C7.55997 16.5438 7.52873 16.507 7.46185 16.5145C7.17185 16.5513 7.2181 16.4132 7.2181 16.2945C7.21997 16.212 7.21435 16.1295 7.21997 16.047C7.22185 15.9845 7.18997 15.947 7.0956 15.9582C6.86622 15.9832 6.86998 15.8826 6.8781 15.7738C6.88685 15.6788 6.87998 15.5838 6.87998 15.4888C6.87998 15.4426 6.88373 15.3863 6.78873 15.3976C6.47998 15.4301 6.53685 15.2832 6.53685 15.162C6.53685 15.0857 6.5331 15.0088 6.53685 14.9332C6.53872 14.8657 6.51685 14.8151 6.40185 14.8295C6.1781 14.8563 6.16685 14.7651 6.17997 14.652C6.18935 14.5676 6.1781 14.4857 6.18372 14.4032C6.18935 14.3182 6.1781 14.262 6.0131 14.262C5.85435 14.262 5.82997 14.3088 5.83872 14.3995C5.84622 14.507 5.83872 14.6145 5.8406 14.7226C5.84247 14.7845 5.8406 14.8445 5.71622 14.8288C5.48747 14.7995 5.49247 14.8982 5.49935 15.0082C5.5081 15.1045 5.49747 15.1976 5.5031 15.2945C5.50497 15.3657 5.46935 15.4076 5.3606 15.3945C5.15372 15.3682 5.14185 15.4551 5.15185 15.5626C5.15935 15.6557 5.15185 15.752 5.15372 15.8476C5.1556 15.9138 5.13122 15.9663 5.0206 15.9545C4.7931 15.932 4.79122 16.0276 4.80185 16.1382C4.80747 16.2157 4.7981 16.2913 4.80185 16.367C4.80747 16.447 4.81497 16.5101 4.6406 16.5107C4.4606 16.5132 4.45372 16.4545 4.45872 16.3632C4.4681 16.2607 4.4606 16.1588 4.46247 16.0576C4.46247 16.0045 4.4681 15.9457 4.35747 15.9588C4.1206 15.9851 4.10872 15.8882 4.1206 15.7657C4.1281 15.6788 4.12247 15.5882 4.12247 15.5007C4.12247 15.4476 4.12435 15.3832 4.01747 15.3982C3.72435 15.432 3.76747 15.2945 3.76935 15.177V14.9282C3.76935 14.8751 3.76372 14.817 3.65872 14.8307C3.41997 14.8601 3.40497 14.7663 3.42185 14.6451C3.42935 14.5745 3.4256 14.5045 3.42372 14.4351C3.42185 14.3495 3.46185 14.2576 3.24622 14.2613C3.04435 14.2645 3.08622 14.3488 3.08435 14.427C3.08247 14.5288 3.08247 14.6295 3.08435 14.7307C3.08622 14.7863 3.07935 14.842 2.97372 14.8282C2.73622 14.7988 2.72685 14.8945 2.7381 15.017C2.74622 15.1113 2.7381 15.207 2.73997 15.3013C2.74185 15.362 2.71247 15.407 2.61685 15.3938C2.36997 15.3651 2.3756 15.4707 2.3856 15.5876C2.39122 15.6701 2.37872 15.7526 2.38747 15.8351C2.39497 15.922 2.3556 15.9695 2.21872 15.9563C2.06497 15.9413 2.03185 15.9938 2.0431 16.0876C2.0531 16.1707 2.03935 16.2526 2.04685 16.3351C2.05497 16.4438 2.06372 16.5407 1.83122 16.5151C1.68372 16.5007 1.69122 16.5845 1.7081 16.642C1.75435 16.7857 1.56435 17.017 1.80247 17.0595C2.0506 17.1026 2.05435 17.1657 2.04685 17.2901C2.0406 17.3726 2.04685 17.4557 2.0431 17.5376C2.0406 17.6026 2.05497 17.6557 2.17435 17.6426C2.37185 17.6195 2.40185 17.6938 2.38935 17.8057C2.37747 17.9001 2.38935 17.9957 2.3856 18.0913C2.38372 18.1557 2.39872 18.2126 2.5156 18.2032C2.72935 18.1832 2.7556 18.2638 2.74185 18.3826C2.7306 18.4645 2.74622 18.5482 2.7381 18.6301C2.72872 18.7213 2.7606 18.7645 2.91372 18.7657C3.07935 18.7657 3.09122 18.7132 3.0856 18.6251C3.07872 18.5301 3.08935 18.4351 3.08185 18.3395C3.07622 18.2501 3.09122 18.1876 3.25435 18.2038C3.4156 18.2201 3.43185 18.1538 3.42435 18.067C3.41685 17.9845 3.43185 17.8995 3.4206 17.8195C3.4056 17.7013 3.42622 17.6238 3.6431 17.6413C3.81247 17.6545 3.77935 17.5501 3.76185 17.4945C3.71935 17.3551 3.9056 17.1338 3.66372 17.0963C3.41497 17.057 3.41497 16.9901 3.41997 16.8657C3.42654 16.751 3.42654 16.636 3.41997 16.5213C3.41435 16.4345 3.45247 16.3976 3.58935 16.3988C3.71497 16.4001 3.77685 16.422 3.76685 16.5163C3.76122 16.5926 3.76872 16.6701 3.76497 16.7457C3.76122 16.8107 3.77997 16.8645 3.89622 16.8501C4.1181 16.8257 4.13122 16.9145 4.11997 17.0301C4.1106 17.1495 4.1181 17.2707 4.11997 17.3913C4.11997 17.4995 4.0631 17.6657 4.1381 17.7038C4.37935 17.827 4.25372 17.9826 4.28872 18.1226C4.33247 18.2813 4.23122 18.3413 4.00685 18.3151C3.81372 18.2932 3.7381 18.3495 3.76247 18.4832C3.77372 18.5463 3.7606 18.6101 3.76622 18.6732C3.77185 18.7395 3.72872 18.772 3.63685 18.762C3.41435 18.7345 3.41872 18.8332 3.41872 18.9438C3.41872 18.9995 3.49372 19.1107 3.31622 19.0957C3.07622 19.077 3.07247 19.1676 3.0831 19.287C3.0906 19.3763 3.07747 19.4657 3.08685 19.5526C3.09997 19.6513 3.03372 19.6682 2.90935 19.6695C2.77622 19.6707 2.73185 19.6395 2.73935 19.5507C2.74747 19.4351 2.73935 19.322 2.7431 19.207C2.7431 19.1407 2.7231 19.0895 2.60685 19.1013C2.38497 19.1295 2.37872 19.037 2.3831 18.9226C2.38685 18.8657 2.44372 18.7532 2.27872 18.767C1.99997 18.7901 2.03435 18.6713 2.0481 18.5588C2.0581 18.4645 2.02247 18.422 1.8681 18.4238C1.72747 18.4251 1.70372 18.4651 1.7056 18.5501C1.70935 18.8038 1.71122 19.0582 1.7056 19.312C1.70247 19.4057 1.72935 19.4582 1.8831 19.442C2.0206 19.4251 2.05747 19.4713 2.0481 19.5588C2.0381 19.6426 2.0481 19.7232 2.04435 19.807C2.04435 19.8557 2.06122 19.902 2.1481 19.8926C2.44497 19.8551 2.39122 20.0001 2.3856 20.1113C2.37872 20.217 2.37872 20.307 2.59247 20.282C2.68747 20.2707 2.72185 20.3063 2.7181 20.3695C2.71622 20.4638 2.71622 20.5607 2.7181 20.6557C2.71997 20.7107 2.68747 20.7426 2.6056 20.7332C2.3481 20.7032 2.37872 20.8263 2.38685 20.9313C2.39247 21.0438 2.40997 21.1551 2.16122 21.1251C2.05997 21.112 2.0431 21.1638 2.0431 21.2195C2.04685 21.2951 2.03685 21.3726 2.04685 21.4488C2.05997 21.542 2.01935 21.5926 1.86685 21.5745C1.7281 21.5576 1.70122 21.6063 1.70435 21.6938C1.70997 21.9551 1.70997 22.2145 1.70247 22.4757C1.70122 22.5701 1.75997 22.5863 1.88185 22.592C2.08497 22.6007 2.03185 22.5051 2.04685 22.4295C2.06185 22.3632 1.96372 22.2382 2.17997 22.2551C2.39685 22.2732 2.39122 22.1863 2.39122 22.0838C2.39122 22.0107 2.32997 21.8982 2.53872 21.917C2.72372 21.932 2.75372 21.8682 2.74185 21.7601C2.73247 21.6732 2.74622 21.5826 2.73997 21.4945C2.7306 21.4007 2.74435 21.3413 2.9231 21.3438C3.09497 21.3476 3.0881 21.4101 3.08435 21.4895C3.08247 21.5913 3.08997 21.6938 3.08247 21.7945C3.0756 21.8807 3.10872 21.9307 3.2481 21.9138C3.43497 21.892 3.42372 21.9745 3.42747 22.062C3.42935 22.1238 3.37122 22.2451 3.48997 22.2401C3.8806 22.2232 3.76935 22.4095 3.76372 22.5401C3.7581 22.667 3.8156 22.7107 3.99685 22.7032C4.08872 22.6963 4.19747 22.6682 4.27747 22.7332C4.30747 22.7551 4.30185 23.2345 4.2681 23.2395C4.0281 23.2757 4.1331 23.4076 4.12435 23.4976C4.11185 23.6757 4.11497 23.8551 4.12247 24.032C4.1281 24.1276 4.08872 24.1782 3.94122 24.1613C3.78247 24.1445 3.7581 24.207 3.76747 24.2976C3.77497 24.3607 3.76372 24.4245 3.76935 24.4888C3.77497 24.5707 3.7456 24.6145 3.60497 24.617C3.45435 24.617 3.41622 24.5776 3.41997 24.4826C3.42935 24.3365 3.42935 24.1899 3.41997 24.0438C3.41622 23.9613 3.45622 23.9307 3.57497 23.9332C3.64622 23.9357 3.75997 23.9663 3.7656 23.8738C3.77122 23.7276 3.77122 23.5813 3.7656 23.4351C3.76372 23.3751 3.69997 23.3651 3.6306 23.3726C3.42622 23.397 3.41435 23.312 3.42247 23.2038C3.42997 23.1095 3.4206 23.0138 3.42622 22.9195C3.4281 22.8545 3.41247 22.7976 3.29622 22.8113C3.0906 22.8345 3.0731 22.7545 3.0831 22.6457C3.0906 22.5626 3.07997 22.4807 3.08685 22.3982C3.09622 22.302 3.07747 22.2463 2.90185 22.2476C2.72997 22.2495 2.73685 22.3132 2.7406 22.3926C2.74247 22.4938 2.73872 22.597 2.74247 22.6976C2.74247 22.7626 2.7281 22.8182 2.60997 22.807C2.3931 22.7882 2.3706 22.872 2.38622 22.9895C2.3956 23.0713 2.37935 23.1545 2.38997 23.237C2.39747 23.327 2.37497 23.3876 2.21622 23.3707C2.0556 23.3513 2.03685 23.417 2.04435 23.5038C2.05247 23.582 2.04435 23.6588 2.0456 23.7332C2.05435 23.8507 2.08122 23.9757 1.81122 23.937C1.76497 23.932 1.71122 23.9395 1.71122 23.9807C1.70935 24.1395 1.71122 24.2988 1.71685 24.4563C1.71747 24.497 1.77497 24.5063 1.81872 24.5001C2.0656 24.4663 2.05497 24.5751 2.04685 24.6901C2.0406 24.7845 2.04685 24.8795 2.0431 24.9757C2.0431 25.0282 2.06497 25.067 2.1506 25.057C2.4231 25.0226 2.39122 25.1495 2.38747 25.267C2.38372 25.3557 2.38747 25.4438 2.38747 25.532C2.3856 25.5851 2.4056 25.6288 2.49247 25.6176C2.78185 25.5826 2.74185 25.7182 2.73997 25.8382C2.73997 25.9201 2.74185 26.0045 2.73997 26.0857C2.73997 26.1388 2.74185 26.1988 2.84997 26.1863C3.12372 26.1495 3.08997 26.2745 3.08435 26.3901C3.07935 26.4651 3.08997 26.542 3.08247 26.6195C3.0731 26.7107 3.10435 26.7532 3.25872 26.7545C3.43247 26.7557 3.42747 26.6913 3.4256 26.6088C3.41997 26.5032 3.4256 26.3938 3.42372 26.2857C3.42185 26.2301 3.42747 26.1738 3.53247 26.1888C3.8081 26.2245 3.7731 26.0976 3.76935 25.9838C3.7656 25.8932 3.77122 25.8038 3.76935 25.7151C3.76747 25.6545 3.7956 25.6101 3.89122 25.6226C4.1356 25.6513 4.13185 25.5463 4.12247 25.4295C4.11497 25.3401 4.12247 25.2526 4.12247 25.1638C4.12247 25.1082 4.1281 25.0495 4.23185 25.0626C4.4731 25.0888 4.47497 24.9901 4.46247 24.8713C4.45747 24.797 4.4681 24.7201 4.4606 24.6445C4.45372 24.5582 4.4606 24.5032 4.6281 24.5032C4.7856 24.5057 4.81122 24.547 4.8056 24.6388C4.79622 24.7457 4.8056 24.8545 4.80185 24.962C4.79997 25.0238 4.82372 25.0676 4.92122 25.0576C5.16622 25.0313 5.16247 25.1382 5.15497 25.2532C5.14747 25.3426 5.15497 25.4313 5.1531 25.5201C5.15122 25.5763 5.1606 25.632 5.26435 25.6188C5.5381 25.5851 5.50747 25.7101 5.5006 25.8263C5.49685 25.9145 5.5006 26.0051 5.5006 26.0932C5.50247 26.1382 5.49685 26.1945 5.59185 26.1845C5.86872 26.1488 5.84935 26.2738 5.83997 26.397C5.83622 26.4726 5.8456 26.5495 5.83997 26.627C5.82935 26.7101 5.85622 26.7526 5.99872 26.7538C6.14872 26.7538 6.1931 26.7157 6.18372 26.6201C6.1781 26.5118 6.1781 26.4033 6.18372 26.2951C6.18372 26.247 6.16747 26.1776 6.27747 26.1888C6.58122 26.2207 6.54247 26.0832 6.53685 25.9563C6.5331 25.8751 6.53872 25.7907 6.53685 25.7088C6.5331 25.6457 6.57247 25.6076 6.66497 25.6207C6.89372 25.647 6.88872 25.5495 6.88185 25.4395C6.87435 25.3507 6.8856 25.2607 6.8781 25.172C6.87435 25.097 6.89748 25.0438 7.0256 25.0582C7.22498 25.0807 7.22498 24.9963 7.21997 24.8988C7.21247 24.8101 7.2256 24.7207 7.21622 24.6332C7.20685 24.5401 7.23872 24.4863 7.39372 24.5001C7.4631 24.5051 7.55622 24.5101 7.55997 24.437C7.5681 24.2913 7.56185 24.1438 7.56185 23.9982C7.56185 23.932 7.49372 23.9295 7.42935 23.9363C7.22748 23.9595 7.2056 23.8826 7.21622 23.7713C7.2256 23.6701 7.21997 23.567 7.2181 23.4657C7.21622 23.4238 7.22373 23.3632 7.1306 23.3726C6.81998 23.4101 6.8781 23.2613 6.87998 23.1407C6.87998 23.0645 6.8781 22.9895 6.87998 22.9138C6.88185 22.857 6.87435 22.8007 6.76997 22.8107C6.53122 22.8363 6.52247 22.7395 6.53498 22.6182C6.54247 22.5438 6.53122 22.4676 6.53872 22.3901C6.54247 22.3038 6.52935 22.2501 6.36872 22.2488C6.19122 22.2445 6.17435 22.3038 6.17997 22.3976C6.18935 22.4995 6.1781 22.6013 6.18372 22.7026C6.18747 22.7713 6.16185 22.8195 6.0481 22.8076C5.83997 22.7851 5.8281 22.8695 5.8381 22.977C5.8456 23.0782 5.83622 23.1788 5.83997 23.2801C5.84372 23.3451 5.81185 23.3788 5.71747 23.3682C5.51872 23.3451 5.48435 23.4182 5.49872 23.5307C5.50872 23.607 5.50747 23.6832 5.49872 23.7588C5.48435 23.8745 5.49872 23.9626 5.71935 23.9345C5.82122 23.9232 5.84185 23.9638 5.83997 24.0257C5.8381 24.1895 5.83622 24.3551 5.83997 24.5201C5.84372 24.6007 5.78435 24.6151 5.68747 24.6113C5.5956 24.6076 5.4931 24.6238 5.5006 24.522C5.50435 24.4526 5.4931 24.3807 5.50247 24.312C5.5156 24.2063 5.48685 24.1376 5.30122 24.1595C5.16997 24.1738 5.15185 24.1188 5.15185 24.0457C5.1556 23.8357 5.1556 23.6257 5.15372 23.4145C5.15185 23.3726 5.16122 23.2995 5.1331 23.2913C4.8431 23.2007 5.01872 23.0276 4.9781 22.897C4.93185 22.742 5.02248 22.6701 5.2556 22.6988C5.47435 22.7257 5.52935 22.652 5.5031 22.5151C5.49185 22.4613 5.5031 22.4013 5.50122 22.3451C5.49747 22.287 5.51497 22.2395 5.61872 22.2526C5.87435 22.2838 5.84622 22.1645 5.8406 22.057C5.83685 21.9813 5.81623 21.8938 5.9956 21.9145C6.1656 21.932 6.19497 21.8695 6.18435 21.7713C6.17685 21.682 6.18435 21.5932 6.18247 21.5038C6.1806 21.422 6.15685 21.3451 6.35247 21.3426C6.56122 21.3401 6.53935 21.4232 6.53747 21.5126C6.53372 21.6138 6.53747 21.7157 6.53747 21.8163C6.5356 21.8751 6.55185 21.9245 6.65372 21.9113C6.9056 21.8801 6.88435 21.9913 6.88435 22.1038C6.88435 22.1576 6.83122 22.2588 6.97622 22.2457C7.23935 22.2251 7.2356 22.3288 7.21873 22.4501C7.2056 22.5388 7.23185 22.5907 7.3906 22.592C7.54935 22.592 7.56997 22.5388 7.56623 22.4513C7.55998 22.2088 7.55998 21.9688 7.5681 21.727C7.57185 21.622 7.55498 21.5488 7.36623 21.5726M5.9881 20.732C5.8031 20.712 5.84435 20.8082 5.8406 20.8782C5.83372 21.0013 5.90998 21.162 5.58122 21.1251C5.5081 21.1151 5.5031 21.167 5.50122 21.2063C5.50122 21.2688 5.49185 21.332 5.5031 21.3945C5.52935 21.532 5.47122 21.602 5.25747 21.5726C5.03185 21.5432 4.9106 21.6095 4.97997 21.7638C5.0781 21.982 4.80435 22.1251 4.7856 22.3207C4.77747 22.3738 4.64122 22.3438 4.56122 22.3507C4.46997 22.3545 4.48997 22.2988 4.4581 22.2651C4.27997 22.0676 4.29185 21.8538 4.2856 21.6338C4.28185 21.522 4.1231 21.5695 4.0456 21.5757C3.81247 21.5951 3.74185 21.5326 3.76435 21.3776C3.7831 21.2482 3.84435 21.0876 3.49372 21.1076C3.3681 21.117 3.43497 20.9963 3.4281 20.9351C3.41497 20.8276 3.4781 20.7151 3.19247 20.722C2.97622 20.727 3.1506 20.5676 3.09247 20.5145C3.08685 20.3813 3.0281 20.2463 3.32685 20.2732C3.4831 20.2863 3.41747 20.1838 3.4206 20.132C3.43497 20.0101 3.35372 19.8507 3.68435 19.8845C3.77372 19.8945 3.76622 19.8301 3.7681 19.7863C3.76997 19.7245 3.77997 19.6595 3.76622 19.5963C3.7381 19.4576 3.83122 19.4138 4.01185 19.4363C4.23685 19.4632 4.3606 19.4013 4.28935 19.247C4.18997 19.0301 4.46497 18.887 4.47685 18.6932C4.4806 18.6301 4.61997 18.6663 4.6956 18.6595C4.77685 18.6532 4.77497 18.6995 4.80872 18.7376C4.97372 18.937 4.98997 19.1495 4.98247 19.372C4.97872 19.4726 5.1231 19.4382 5.19622 19.432C5.44872 19.4088 5.5356 19.4726 5.5056 19.6476C5.4881 19.7707 5.43622 19.9182 5.76872 19.8976C5.90372 19.8901 5.83122 20.0207 5.83435 20.0863C5.8431 20.1995 5.81685 20.3088 6.06685 20.2776C6.15185 20.2663 6.17372 20.307 6.17185 20.3582C6.16997 20.4338 6.16622 20.5113 6.1756 20.5876C6.18435 20.6832 6.16372 20.7495 5.9881 20.7301" fill="#CB0000"/>
<path fill-rule="evenodd" clip-rule="evenodd" d="M5.6626 27.219C5.71635 27.0009 5.39823 26.8697 5.48948 26.6697C5.49073 26.664 5.46823 26.6459 5.4551 26.6459C5.27948 26.634 5.3201 26.5372 5.33198 26.4728C5.35948 26.324 5.27385 26.2928 5.07323 26.2928C4.87385 26.2959 4.76198 26.3178 4.7976 26.479C4.81073 26.5365 4.84885 26.6228 4.67698 26.6309C4.51448 26.6372 4.43323 26.6103 4.4601 26.4872C4.49385 26.3484 4.43698 26.2897 4.2076 26.2928C3.98698 26.2928 3.91448 26.339 3.9426 26.4847C3.95198 26.5265 3.94448 26.6047 3.9201 26.6084C3.7026 26.6522 3.78573 26.7759 3.76698 26.8703C3.76135 26.9015 3.75385 26.9353 3.72948 26.9578C3.53698 27.1197 3.5351 27.2759 3.73135 27.434C3.77385 27.4672 3.77385 27.5053 3.7651 27.5403C3.71948 27.7315 4.06073 27.8572 3.9526 28.0603C3.95073 28.0647 3.9751 28.084 3.98448 28.084C4.12135 28.089 4.26323 28.1072 4.39135 28.0878C4.52448 28.0672 4.46448 27.9684 4.45635 27.9103C4.43073 27.749 4.57323 27.7409 4.7226 27.769C4.86948 27.7972 4.8026 27.9003 4.7951 27.9653C4.77448 28.1309 4.93573 28.0934 5.06385 28.0922C5.18698 28.0922 5.35948 28.1315 5.32823 27.9678C5.2926 27.7778 5.59885 27.6459 5.51385 27.4478C5.51385 27.4447 5.52448 27.4365 5.53323 27.4347C5.75698 27.4022 5.6376 27.2772 5.6626 27.219ZM4.47323 27.2034C4.3876 27.3047 4.25448 27.3909 4.2526 27.5215C4.2526 27.529 4.13698 27.5378 4.13885 27.5084C4.14323 27.394 4.0601 27.324 3.95385 27.2465C3.91635 27.2197 3.89448 27.1115 4.01885 27.0872C4.13135 27.064 4.11448 27.0109 4.11823 26.954C4.1201 26.9115 4.10948 26.8609 4.20948 26.8628C4.30135 26.8665 4.30885 26.9228 4.28948 26.9597C4.2176 27.0878 4.52635 27.0778 4.47323 27.2034ZM5.1201 27.5134C5.12385 27.5378 4.99073 27.5415 4.97948 27.4847C4.9651 27.3978 4.96823 27.3228 4.82948 27.2684C4.78198 27.249 4.76823 27.1297 4.85135 27.1009C4.97573 27.0615 4.96885 27.004 4.97198 26.934C4.97573 26.8665 5.08948 26.8347 5.1076 26.8772C5.15323 26.9953 5.24448 27.0959 5.3676 27.1815C5.28635 27.3122 5.10948 27.3778 5.1201 27.5134ZM5.6626 13.8628C5.72823 13.6309 5.40135 13.4928 5.48698 13.289C5.48823 13.284 5.46385 13.2684 5.44885 13.2672C5.2926 13.2584 5.32323 13.174 5.3326 13.1109C5.35448 12.969 5.30073 12.9115 5.0701 12.9159C4.8601 12.9184 4.7626 12.9497 4.80135 13.1034C4.82823 13.2153 4.77323 13.2684 4.59385 13.2534C4.3476 13.2353 4.46948 13.1047 4.46948 13.0334C4.46948 12.8928 4.34823 12.9134 4.23573 12.9247C4.12948 12.9353 3.93885 12.849 3.9426 13.0284C3.94448 13.1015 4.0001 13.2015 3.9051 13.2434C3.65448 13.3597 3.7576 13.5665 3.61323 13.719C3.42073 13.9209 3.85385 14.1165 3.78323 14.3503C3.78135 14.3584 3.80698 14.3734 3.81948 14.3734C3.9976 14.3865 3.95323 14.484 3.9401 14.5478C3.9101 14.699 4.00323 14.7259 4.19948 14.7234C4.38073 14.7184 4.50198 14.7147 4.4651 14.5528C4.45073 14.484 4.40823 14.3884 4.6176 14.3847C4.82385 14.3803 4.7951 14.4647 4.80448 14.5528C4.8101 14.6078 4.7426 14.6834 4.87323 14.7178C5.1276 14.7809 5.31448 14.6965 5.32823 14.5122C5.33198 14.4747 5.33385 14.4097 5.35198 14.4059C5.5651 14.3678 5.48573 14.2528 5.49948 14.1622C5.50635 14.124 5.47948 14.0697 5.53698 14.059C5.75448 14.0253 5.63885 13.9097 5.6626 13.8647M4.25635 14.1415C4.25635 14.1565 4.13385 14.1659 4.13198 14.1209C4.1226 14.0253 4.10885 13.9453 3.96385 13.8947C3.93198 13.8828 3.9301 13.7672 3.9576 13.7559C4.09823 13.704 4.13135 13.629 4.1276 13.529C4.12573 13.4772 4.24635 13.4865 4.24823 13.4947C4.26073 13.6228 4.38135 13.7122 4.49885 13.814C4.39823 13.9253 4.2576 14.0109 4.25635 14.1415ZM5.18823 13.9553C5.1551 13.969 5.16073 14.0378 5.1551 14.0797C5.15135 14.124 5.12698 14.1503 5.0701 14.1553C5.04323 14.1503 5.02198 14.1503 5.0101 14.1422C4.91885 14.079 5.0326 13.9653 4.85135 13.9065C4.7551 13.8734 4.89135 13.759 4.92073 13.6853C5.05698 13.3622 5.0426 13.4303 5.21198 13.6828C5.30323 13.8178 5.41323 13.8634 5.18823 13.9553Z" fill="#CB0000"/>
<path fill-rule="evenodd" clip-rule="evenodd" d="M2.91471 13.8125C2.97846 13.6262 2.62846 13.5006 2.72971 13.2975C2.73346 13.2925 2.71346 13.2737 2.70034 13.2725C2.49471 13.2531 2.55596 13.1419 2.56909 13.0656C2.59471 12.8987 2.44283 12.9256 2.29846 12.9206C2.13346 12.9144 2.01534 12.9181 2.04096 13.0719C2.06909 13.2506 1.78096 13.3787 1.86346 13.5712C1.86533 13.5725 1.85283 13.5819 1.84408 13.5819C1.63596 13.61 1.72846 13.725 1.70471 13.8069C1.64846 14.0069 1.98033 14.1419 1.88221 14.3469C2.11158 14.3956 2.03346 14.5294 2.04346 14.6369C2.04721 14.6694 2.04346 14.7094 2.09846 14.7131C2.23659 14.7181 2.37908 14.7337 2.50596 14.7081C2.62283 14.6837 2.54096 14.5875 2.56096 14.5225C2.57596 14.4806 2.57283 14.4025 2.59471 14.4C2.80783 14.3712 2.72596 14.2581 2.74221 14.1737C2.74846 14.1381 2.74658 14.0725 2.76471 14.0687C2.97846 14.0287 2.90034 13.9131 2.91471 13.8125ZM2.48909 13.9262C2.37409 13.9512 2.39158 14.0037 2.38783 14.06C2.38596 14.1037 2.39534 14.155 2.29846 14.1512C2.20471 14.1475 2.19596 14.0919 2.21721 14.0531C2.28971 13.9262 1.97658 13.9394 2.03033 13.8119C2.12596 13.7156 2.24721 13.6237 2.25408 13.495C2.25533 13.485 2.36846 13.4769 2.36658 13.5075C2.36471 13.62 2.44471 13.6919 2.55158 13.7681C2.58971 13.7956 2.61221 13.9031 2.48909 13.9262ZM2.87533 26.9875C2.67971 26.9525 2.75783 26.8512 2.74283 26.7719C2.73159 26.73 2.76908 26.6606 2.70596 26.6512C2.49471 26.6181 2.55971 26.5069 2.56909 26.4244C2.58534 26.2606 2.42846 26.2987 2.30221 26.2975C2.17471 26.2975 2.00908 26.2631 2.04346 26.4256C2.08221 26.6131 1.77471 26.7456 1.86346 26.9431C1.86533 26.9456 1.85408 26.9531 1.84596 26.9544C1.62408 26.9881 1.73408 27.1137 1.70221 27.2019C1.70721 27.2637 1.68471 27.37 1.72346 27.3812C1.93283 27.4431 1.86596 27.5606 1.87783 27.6631C1.87908 27.6875 1.88533 27.7319 1.89721 27.7331C2.11783 27.7631 2.05158 27.8837 2.04033 27.9706C2.02158 28.1231 2.16596 28.0975 2.28533 28.09C2.39721 28.0812 2.58221 28.1531 2.56721 27.975C2.56096 27.905 2.50596 27.7956 2.61533 27.7681C2.75033 27.7312 2.73471 27.6781 2.74221 27.6094C2.75033 27.5294 2.68471 27.4294 2.87971 27.3969C2.94283 27.3887 2.93721 26.9987 2.87533 26.9875ZM2.55221 27.2562C2.40471 27.3137 2.37846 27.3962 2.37283 27.5C2.37096 27.5362 2.24408 27.5325 2.24596 27.5094C2.25908 27.3781 2.09909 27.3081 2.02034 27.2081C2.08284 27.0862 2.26658 27.0125 2.24596 26.8781C2.26798 26.869 2.29151 26.8641 2.31533 26.8637C2.37658 26.8637 2.38783 26.8962 2.38596 26.9287C2.38221 27.0075 2.38971 27.0694 2.52846 27.1025C2.60096 27.1206 2.58784 27.2425 2.55221 27.2562ZM7.56908 13.825C7.55221 13.7575 7.62096 13.6406 7.52971 13.6156C7.33596 13.565 7.40971 13.4675 7.39283 13.3825C7.38533 13.345 7.38283 13.28 7.36658 13.2775C7.15971 13.2494 7.21346 13.1369 7.22596 13.0544C7.25221 12.875 7.07596 12.9287 6.94471 12.9194C6.78596 12.9081 6.68158 12.925 6.70846 13.0656C6.73908 13.2456 6.44346 13.3712 6.51909 13.5631C6.52159 13.57 6.47721 13.5825 6.45534 13.5944C6.35971 13.6512 6.29909 13.9906 6.39471 14.0181C6.58346 14.0675 6.52784 14.1612 6.53846 14.2494C6.54221 14.2862 6.54408 14.3512 6.56221 14.355C6.76221 14.3856 6.72158 14.495 6.70721 14.5787C6.67283 14.7575 6.85283 14.7069 6.98408 14.7156C7.14096 14.7269 7.24908 14.7144 7.22283 14.5719C7.18908 14.3912 7.48971 14.2644 7.40408 14.0712C7.40408 14.0712 7.41533 14.0594 7.42471 14.0594C7.62283 14.0281 7.55596 13.9181 7.56908 13.825ZM7.21596 13.8612C7.14533 13.9262 7.00846 14.0125 7.01596 14.145C7.01596 14.145 6.90096 14.16 6.90471 14.1294C6.91033 14.0137 6.81284 13.9419 6.71971 13.8556C6.68221 13.8181 6.66846 13.7237 6.82533 13.7006C6.98096 13.6762 6.76596 13.4825 6.98096 13.4912C7.14533 13.5012 6.96658 13.6712 7.10971 13.7006C7.22346 13.7225 7.22721 13.7631 7.21596 13.8612ZM7.52533 26.9937C7.35533 26.9575 7.40158 26.8719 7.38846 26.7962C7.36408 26.6362 7.12908 26.5131 7.21096 26.3337C7.21283 26.3287 7.15721 26.3081 7.12346 26.3025C6.82908 26.2519 6.72346 26.305 6.70721 26.5106C6.70596 26.5462 6.70221 26.61 6.67908 26.6156C6.46783 26.6544 6.54971 26.77 6.53659 26.8594C6.52909 26.8956 6.54971 26.9519 6.49221 26.9606C6.27721 26.9956 6.38721 27.1119 6.35346 27.19C6.37909 27.265 6.29783 27.3762 6.40158 27.4031C6.58283 27.4512 6.52221 27.5406 6.53659 27.6187C6.54221 27.6575 6.53096 27.7225 6.55096 27.7262C6.75471 27.7731 6.71596 27.8869 6.70533 27.9869C6.69096 28.1487 6.85783 28.0937 6.96408 28.095C7.07534 28.095 7.23783 28.1437 7.22283 27.9837C7.21346 27.9125 7.16158 27.7944 7.26283 27.7744C7.42846 27.7375 7.38158 27.6662 7.38908 27.5981C7.39471 27.5206 7.35533 27.4356 7.52596 27.4031C7.59346 27.3912 7.59033 27.0062 7.52533 26.9937ZM7.02971 27.5131C7.02971 27.5131 6.98346 27.5281 6.95908 27.5294C6.90158 27.5319 6.88033 27.5075 6.88221 27.4712C6.88596 27.3881 6.89784 27.3075 6.73159 27.2844C6.71159 27.2806 6.68346 27.1681 6.71721 27.1456C6.82096 27.0719 6.91158 27.0031 6.89721 26.8894C6.89346 26.8581 6.96908 26.8662 7.01346 26.8687C6.99158 27.0081 7.17658 27.0869 7.24721 27.2112C7.15908 27.31 6.99596 27.3819 7.02971 27.5131Z" fill="#CB0101"/>
<path fill-rule="evenodd" clip-rule="evenodd" d="M5.8404 10.8439C5.8404 10.7876 5.8479 10.7295 5.83853 10.6733C5.8229 10.582 5.8779 10.5558 6.00665 10.5583C6.12165 10.5595 6.19915 10.567 6.18603 10.667C6.17478 10.7608 6.18728 10.8564 6.18228 10.9501C6.17853 11.0308 6.23665 11.1276 6.0129 11.1301C5.79915 11.1326 5.8404 11.0401 5.8404 10.957V10.8439Z" fill="#CC0404"/>
<path fill-rule="evenodd" clip-rule="evenodd" d="M3.08544 10.8307C3.08544 10.7676 3.09106 10.7039 3.08356 10.642C3.07419 10.5357 3.18544 10.5626 3.26856 10.5589C3.35606 10.5564 3.43044 10.5551 3.42669 10.642C3.41825 10.7552 3.41825 10.8688 3.42669 10.982C3.43419 11.0764 3.41481 11.1307 3.24169 11.1282C3.06606 11.127 3.08356 11.057 3.08544 10.982V10.8307Z" fill="#CC0202"/>
<path fill-rule="evenodd" clip-rule="evenodd" d="M6.18438 30.1689C6.18438 30.2239 6.17876 30.282 6.18438 30.3382C6.19876 30.427 6.15126 30.4557 6.02001 30.457C5.87626 30.4582 5.82626 30.4276 5.83876 30.3289C5.85001 30.2289 5.84438 30.1276 5.84063 30.0282C5.83376 29.9439 5.83688 29.887 6.00313 29.8839C6.18251 29.8814 6.19376 29.9457 6.18438 30.0364C6.17876 30.0801 6.18438 30.1239 6.18438 30.1689Z" fill="#CC0404"/>
<path fill-rule="evenodd" clip-rule="evenodd" d="M3.42389 30.1878C3.42389 30.2528 3.42014 30.3146 3.42389 30.3784C3.43139 30.4859 3.31576 30.4521 3.23514 30.4578C3.14576 30.4628 3.07701 30.4578 3.08264 30.3715C3.09014 30.2584 3.08639 30.1465 3.08264 30.0321C3.08076 29.9534 3.07326 29.8909 3.24639 29.8878C3.42389 29.8853 3.43514 29.9471 3.42576 30.039C3.42014 30.0884 3.42389 30.139 3.42389 30.1878Z" fill="#CC0202"/>
<path fill-rule="evenodd" clip-rule="evenodd" d="M3.93077 21.0202C3.89077 20.9121 4.10202 20.844 4.18952 20.7415C4.28889 20.6196 4.31139 20.3859 4.19139 20.2752C4.07139 20.1665 3.89514 20.0659 3.94202 19.8946C3.96264 19.8265 3.95327 19.7727 4.08952 19.7771C4.20139 19.7821 4.32077 19.7684 4.29202 19.8909C4.26514 20.0109 4.53202 20.0265 4.48952 20.1534C4.59889 20.1384 4.74827 20.2446 4.80952 20.0827C4.84702 19.9877 5.01077 19.9352 5.00014 19.8071C4.99827 19.7602 5.14514 19.7852 5.22202 19.7802C5.30702 19.7765 5.31389 19.8152 5.33202 19.8634C5.39764 20.0496 5.18889 20.1527 5.07077 20.2784C4.98702 20.3665 4.98514 20.649 5.06702 20.7352C5.17952 20.8559 5.38889 20.9459 5.33702 21.1296C5.31452 21.2084 5.29077 21.2421 5.17202 21.2371C5.07202 21.2321 4.97639 21.2502 4.97077 21.1371C4.96702 21.0284 4.75389 20.854 4.65639 20.8515C4.39889 20.8409 4.37639 21.0127 4.31139 21.1077C4.25452 21.1915 4.24577 21.2384 4.09452 21.2396C3.88327 21.2396 3.96639 21.1359 3.93077 21.0202Z" fill="#CB0101"/>
<path fill-rule="evenodd" clip-rule="evenodd" d="M3.59343 20.4881C3.59343 20.4187 3.59969 20.3493 3.59156 20.2806C3.57844 20.1843 3.64093 20.1625 3.76718 20.1631C3.88593 20.1643 3.95781 20.1762 3.95218 20.2768C3.94187 20.4283 3.94187 20.5804 3.95218 20.7318C3.95593 20.8262 3.89843 20.85 3.77281 20.85C3.65531 20.8468 3.58031 20.835 3.59156 20.735C3.59969 20.6556 3.59343 20.5712 3.59343 20.4881Z" fill="#CE0F0F"/>
<path fill-rule="evenodd" clip-rule="evenodd" d="M5.6692 20.5068C5.6692 20.5774 5.6617 20.648 5.6717 20.7168C5.68233 20.8105 5.64483 20.8518 5.4917 20.8505C5.35295 20.8474 5.3217 20.8118 5.32358 20.7262C5.33108 20.5793 5.33295 20.4324 5.32358 20.2874C5.3192 20.1993 5.3567 20.1655 5.4917 20.1643C5.64483 20.1605 5.68233 20.2043 5.6717 20.298C5.66233 20.3662 5.6692 20.4368 5.6692 20.5068Z" fill="#CC0303"/>
<path fill-rule="evenodd" clip-rule="evenodd" d="M4.46287 19.5968C4.46287 19.5337 4.4685 19.4725 4.461 19.4093C4.45162 19.3212 4.5335 19.3237 4.61912 19.3262C4.70475 19.3287 4.80975 19.3031 4.80412 19.4093C4.79662 19.5237 4.79662 19.6368 4.806 19.7506C4.81162 19.8468 4.78787 19.8981 4.61912 19.8956C4.43787 19.8943 4.461 19.8237 4.461 19.7481C4.46287 19.6987 4.461 19.6487 4.46287 19.5968ZM4.80225 21.4187C4.80225 21.4812 4.7985 21.5425 4.80225 21.6068C4.81162 21.7143 4.701 21.6837 4.61912 21.6887C4.52787 21.6937 4.45537 21.6912 4.45912 21.6043C4.4685 21.4912 4.46287 21.3787 4.461 21.2643C4.45912 21.1868 4.44475 21.12 4.61912 21.1181C4.79287 21.1168 4.81475 21.1712 4.80412 21.2656C4.79662 21.3168 4.80225 21.3668 4.80225 21.4187Z" fill="#CC0202"/>
</svg>
