<svg width="40" height="40" viewBox="0 0 40 40" fill="none" xmlns="http://www.w3.org/2000/svg">
<path d="M10 6.875H30V34.375H10V6.875Z" fill="#E6E7E8"/>
<path d="M6.25 6.875C2.10813 6.875 0 9.95312 0 13.75V27.5C0 31.2969 2.10813 34.375 6.25 34.375H10V6.875H6.25ZM33.75 6.875H30V34.375H33.75C37.8919 34.375 40 31.2969 40 27.5V13.75C40 9.95312 37.8919 6.875 33.75 6.875Z" fill="#EC1C24"/>
<path fill-rule="evenodd" clip-rule="evenodd" d="M27.6621 20.4008C27.3764 20.2715 27.3283 20.1802 27.4133 19.8646C27.6252 19.0752 27.8433 18.289 28.0577 17.5008C28.0758 17.4365 28.0921 17.3702 28.1164 17.2758C27.8514 17.329 27.6039 17.3765 27.3564 17.4302C26.8558 17.5365 26.3583 17.6446 25.8589 17.7502C25.5327 17.8183 25.3833 17.7271 25.2908 17.4046C25.2039 17.0996 25.1183 16.794 24.9789 16.4452C24.9471 16.4977 24.9239 16.5583 24.8833 16.6027C24.3114 17.2483 23.7364 17.8921 23.1608 18.5377C22.9827 18.734 22.7846 18.8196 22.6446 18.7421C22.4389 18.6258 22.4464 18.4202 22.4802 18.2283C22.6321 17.3902 22.7896 16.554 22.9458 15.7158C23.0602 15.1077 23.1746 14.5027 23.2921 13.869C23.2327 13.8915 23.1927 13.9027 23.1571 13.9202C22.8333 14.0877 22.5133 14.2583 22.1889 14.4221C21.7914 14.6215 21.5914 14.5558 21.3839 14.1715C20.9446 13.3571 20.5089 12.5415 20.0708 11.7265C20.0483 11.6865 20.0333 11.6465 19.9989 11.5952L19.9271 11.7265C19.4902 12.5415 19.0539 13.3571 18.6152 14.1715C18.4071 14.5558 18.2064 14.6221 17.8089 14.4221C17.4846 14.2583 17.1646 14.0877 16.8408 13.9202C16.8052 13.9027 16.7652 13.8915 16.7058 13.869C16.8233 14.5027 16.9377 15.1077 17.0521 15.7158C17.2083 16.5515 17.3664 17.3877 17.5171 18.2283C17.5521 18.4208 17.5589 18.6265 17.3533 18.7421C17.2127 18.8196 17.0152 18.734 16.8377 18.5377C16.2614 17.8921 15.6864 17.2483 15.1146 16.6027C15.0739 16.5583 15.0502 16.4977 15.0189 16.4452C14.8796 16.7946 14.7939 17.0996 14.7071 17.4046C14.6146 17.7271 14.4639 17.8183 14.1389 17.7502C13.6396 17.6446 13.1414 17.5365 12.6414 17.4302C12.3939 17.3765 12.1464 17.329 11.8814 17.2758C11.9058 17.3702 11.9214 17.4371 11.9402 17.5008C12.1546 18.289 12.3727 19.0758 12.5846 19.8646C12.6696 20.1808 12.6214 20.2715 12.3358 20.4008C12.0714 20.5208 11.8077 20.6477 11.5283 20.7783C11.5783 20.8233 11.6064 20.8502 11.6377 20.8758C12.3027 21.4171 12.9677 21.9565 13.6339 22.4977C14.2783 23.0215 14.9202 23.5446 15.5652 24.0665C15.7908 24.2483 15.8652 24.4696 15.7721 24.7458C15.7196 24.9083 15.6727 25.0708 15.6239 25.234C15.5652 25.4258 15.5077 25.619 15.4427 25.8383C16.0821 25.7477 16.6858 25.6633 17.2939 25.579C18.0071 25.4808 18.7196 25.3802 19.4346 25.2902C19.6796 25.2583 19.8614 25.4452 19.8514 25.6883C19.7977 26.9777 19.6733 28.4333 19.6646 29.6546H20.3333C20.3246 28.4333 20.2008 26.9783 20.1471 25.6883C20.1358 25.4452 20.3183 25.2583 20.5633 25.2902C21.2783 25.3802 21.9908 25.4808 22.7039 25.579C23.3121 25.6633 23.9158 25.7483 24.5552 25.8383C24.4902 25.619 24.4327 25.4258 24.3739 25.234C24.3252 25.0702 24.2783 24.9083 24.2258 24.7458C24.1327 24.4696 24.2071 24.2483 24.4327 24.0665C25.0783 23.5446 25.7196 23.0215 26.3639 22.4977C27.0302 21.9571 27.6952 21.4171 28.3602 20.8758C28.3914 20.8502 28.4196 20.8233 28.4696 20.7783C28.1896 20.6471 27.9271 20.5208 27.6621 20.4008Z" fill="#EC1C24"/>
</svg>
