<svg width="40" height="40" viewBox="0 0 40 40" fill="none" xmlns="http://www.w3.org/2000/svg">
<path d="M40 26.875C40 30.6719 37.8919 33.75 33.75 33.75H6.25C2.10813 33.75 0 30.6719 0 26.875V13.125C0 9.32812 2.10813 6.25 6.25 6.25H33.75C37.8919 6.25 40 9.32812 40 13.125V26.875Z" fill="#E6E7E8"/>
<path fill-rule="evenodd" clip-rule="evenodd" d="M16.9183 23.0368C16.9871 22.5912 16.7321 22.3206 16.464 22.0681C16.384 21.9924 16.2583 21.9012 16.1633 21.9143C15.8227 21.9562 15.4515 21.8224 15.1371 22.0649C15.0796 22.1112 14.9833 22.1068 14.9033 22.1224C14.8046 22.1418 14.704 22.1674 14.6033 22.1756C14.5303 22.1868 14.4557 22.1821 14.3846 22.1618C14.1577 22.0849 13.889 22.0468 13.7158 21.8993C13.4365 21.6612 13.1271 21.4924 12.7846 21.4599C12.4533 21.4293 12.3108 21.1606 12.0658 21.0493C11.6765 20.8718 11.5865 20.5487 11.5252 20.2012C11.4777 19.9256 11.409 19.6931 11.119 19.5843C11.049 19.5568 11.0096 19.4549 10.954 19.3899C10.7552 19.1524 10.9102 18.8212 10.734 18.5762C10.724 18.5624 10.7252 18.5356 10.7308 18.5156C10.8458 18.1343 10.7083 17.8199 10.4833 17.5162C10.3296 17.3062 10.3658 17.0756 10.4802 16.8574C10.6483 17.0137 10.8171 17.1574 10.9708 17.3156C11.1958 17.5418 11.5352 17.6287 11.8208 17.4681C12.2502 17.2231 12.689 16.9881 12.8146 16.4281C12.8608 16.2181 12.9927 16.0024 13.2702 15.9862C13.2896 15.9843 13.3065 15.9693 13.3258 15.9593C13.8627 15.6256 14.4027 15.6799 14.9471 15.9387C15.1846 16.0506 15.4221 16.1618 15.659 16.2768C15.8096 16.3524 15.9483 16.3318 16.0921 16.2549C16.5308 16.0168 16.804 15.6674 16.8315 15.1568C16.854 14.7774 16.8777 14.3962 16.8721 14.0181C16.8677 13.7943 16.8133 13.5718 16.7746 13.3087C16.9052 13.3593 16.994 13.3974 17.0815 13.4262C17.4302 13.5368 17.7777 13.6524 18.1271 13.7543C18.2171 13.7806 18.3202 13.7824 18.4115 13.7656C18.6227 13.7281 18.8252 13.6743 19.0365 13.7837C19.0977 13.8162 19.2065 13.7968 19.2758 13.7643C19.4246 13.6918 19.5371 13.7224 19.6783 13.8012C19.8083 13.8718 19.9752 13.8824 20.1271 13.8974C20.2977 13.9168 20.4727 13.8931 20.639 13.9193C21.2933 14.0287 21.9433 14.0312 22.6033 13.9431C23.0508 13.8831 23.4602 13.6343 23.9371 13.6968C24.0521 13.7137 24.1902 13.6056 24.3108 13.5387C24.4115 13.4799 24.4996 13.3974 24.589 13.3249C24.7871 13.1599 24.9702 13.0456 25.2696 13.0812C25.8327 13.1468 26.3577 12.9262 26.8583 12.6824C27.1865 12.5231 27.504 12.3387 27.8327 12.1743C28.0021 12.0856 28.1965 12.0356 28.3527 11.9281C28.5434 11.7993 28.729 11.6499 28.8702 11.4724C29.0127 11.2949 29.1509 11.1756 29.3871 11.2193C29.4184 11.2249 29.4596 11.2306 29.489 11.2149C29.8777 11.0218 30.3434 10.9624 30.6315 10.5837C30.7627 10.4099 30.9096 10.2924 31.1427 10.2787C31.239 10.2718 31.3333 10.1724 31.4265 10.1168C31.4615 10.0943 31.4946 10.0562 31.5283 10.0562C32.0071 10.0562 32.3952 9.80182 32.8033 9.60182C32.8271 9.58994 32.854 9.58182 32.904 9.56494C32.886 9.66172 32.8664 9.75819 32.8452 9.85432C32.8159 9.98869 32.7327 10.0393 32.5927 10.0793C32.0302 10.2443 31.509 10.4806 31.2315 11.0562C31.1841 11.1468 31.1055 11.2172 31.0102 11.2543C30.709 11.3593 30.4952 11.5631 30.2921 11.7968C30.1951 11.9072 30.0729 11.9926 29.9358 12.0456C29.2858 12.2931 28.7096 12.6481 28.2533 13.1768C28.1552 13.2899 28.0846 13.4312 28.0333 13.5724C27.9102 13.9024 27.8121 13.9893 27.4471 13.9399C27.2194 13.9066 26.9878 13.9645 26.8027 14.1012C26.7577 14.1306 26.699 14.1631 26.6796 14.2074C26.4815 14.6287 26.1865 15.0112 26.2765 15.5299C26.3302 15.8387 26.4827 16.0837 26.684 16.3043C26.8596 16.4974 27.0502 16.6706 27.1321 16.9393C27.1677 17.0481 27.3183 17.1149 27.4065 17.2118C27.5096 17.3256 27.6021 17.4487 27.7027 17.5643C27.7752 17.6499 27.8533 17.7268 27.9252 17.8118C28.034 17.9418 28.1208 18.0818 28.0327 18.2331C27.7077 18.1574 27.3977 18.0849 27.0871 18.0143C27.0535 18.005 27.0184 18.0031 26.984 18.0087C26.7883 18.0637 26.5933 18.1193 26.3883 18.1793C26.3071 18.5512 26.1271 18.6137 25.799 18.3562C25.7565 18.3212 25.7134 18.2856 25.6659 18.2574C25.1902 17.9918 24.694 18.0137 24.209 18.1999C23.859 18.3312 23.7759 18.6568 23.7571 18.9981C23.7515 19.0737 23.7515 19.1487 23.7515 19.2256C23.7571 19.4237 23.7765 19.6187 23.5721 19.7593C23.4927 19.8168 23.4659 19.9468 23.4221 20.0312C23.2877 20.0312 23.1646 20.0256 23.0415 20.0312C22.8377 20.0381 22.7077 20.1624 22.5777 20.3074C22.4996 20.3899 22.3833 20.4418 22.2783 20.4962C22.0533 20.6099 21.8227 20.7149 21.5958 20.8249C21.4052 20.9156 21.2127 21.0049 21.0271 21.1031C20.8413 21.1997 20.6303 21.2368 20.4227 21.2093C20.3483 21.2006 20.2665 21.2737 20.1846 21.2987C20.0209 21.3493 19.8427 21.4556 19.6927 21.4262C19.229 21.3312 18.8077 21.3374 18.3708 21.5756C18.144 21.6981 17.9215 21.8018 17.7458 21.9918C17.4283 22.3331 17.404 22.5887 17.659 22.9731C17.6808 23.0087 17.7033 23.0431 17.7446 23.1074C17.4627 23.0849 17.2096 23.0612 16.9171 23.0343" fill="#D68F32"/>
<path fill-rule="evenodd" clip-rule="evenodd" d="M12.9355 24.1137C13.5043 24.0293 14.4943 24.8674 14.4899 25.4268C13.8949 25.4462 12.9512 24.7549 12.9355 24.1137ZM28.2749 24.1037C28.188 24.7505 27.358 25.4612 26.7299 25.4387C26.6687 24.9143 27.6249 24.0768 28.2749 24.1037ZM26.0412 26.2624C26.6405 25.7812 27.3062 25.7043 28.0237 25.8118C27.8137 26.4099 26.5237 26.7093 26.0412 26.2624ZM13.1749 25.8437C13.7743 25.6312 14.7824 25.8562 15.1443 26.2768C14.7205 26.7043 13.563 26.4587 13.1749 25.8437ZM15.2062 25.6374C14.7155 25.3862 14.4162 24.318 14.6724 23.7793C15.1474 24.0855 15.4493 25.1187 15.2062 25.6374ZM26.5312 23.7812C26.7937 24.3055 26.4955 25.3768 26.0168 25.6337C25.6924 25.273 26.1087 23.9855 26.5312 23.7812ZM21.8362 27.8968C21.6555 27.3668 21.9774 26.2987 22.6737 26.1005C22.7049 26.8424 22.3518 27.3893 21.8362 27.8968ZM18.5655 26.093C19.1724 26.3593 19.5837 27.2518 19.3849 27.8518C18.9099 27.6174 18.4355 26.6149 18.5655 26.093ZM16.5974 25.2249C17.1749 25.608 17.4674 26.5487 17.1593 26.9893C16.6993 26.7755 16.4112 25.8862 16.5974 25.2249ZM24.0574 26.9999C23.7424 26.5468 24.038 25.6018 24.598 25.2355C24.833 25.7499 24.513 26.7737 24.0574 26.9999ZM17.0762 27.4005C16.6405 27.8912 15.8368 28.1287 15.3362 27.9224C15.4999 27.3974 16.5355 27.0818 17.0762 27.4005ZM25.8812 27.9224C25.3462 28.123 24.5249 27.8787 24.1462 27.4105C24.5824 27.0637 25.6293 27.3655 25.8812 27.9224ZM23.6743 25.7374C23.8293 26.263 23.4687 27.1718 22.993 27.4818C22.6743 27.1012 23.0287 26.1868 23.6743 25.7374ZM16.3999 28.4362C16.7112 27.9918 17.553 27.7612 18.0999 27.9693C17.8693 28.6268 16.9249 28.7155 16.3999 28.4362ZM18.2312 27.4924C17.7418 27.1737 17.3787 26.2605 17.5293 25.7562C18.093 26.0137 18.5037 27.0187 18.2312 27.4924ZM24.8193 28.4349C24.148 28.7618 23.3512 28.5487 23.108 27.9862C23.5737 27.743 24.4224 27.9612 24.8193 28.4349ZM15.6749 24.5812C16.198 25.0705 16.3749 25.828 16.0868 26.3093C15.7268 26.1012 15.2974 24.9843 15.6749 24.5812ZM25.5324 24.5812C25.8618 24.9062 25.608 25.883 25.1443 26.3124C24.8149 25.9093 24.998 25.0862 25.5324 24.5812ZM17.4293 29.0924C17.6537 28.6474 18.5787 28.1555 19.0468 28.3137C18.8524 28.923 18.1712 29.2562 17.4293 29.0924ZM23.7812 29.0949C23.0112 29.2443 22.3393 28.9118 22.1637 28.308C22.6655 28.193 23.4818 28.5862 23.7812 29.0949ZM15.9262 26.8937C15.6187 27.2893 14.6199 27.3455 14.2255 26.9874C14.4943 26.5499 15.1974 26.603 15.9262 26.8937ZM25.2562 26.8674C25.863 26.7418 26.443 26.4424 26.9924 26.9562C26.6655 27.3474 25.6099 27.3043 25.2562 26.8674ZM21.9687 28.1162C21.6537 28.2249 21.3374 28.3343 20.9968 28.453L21.6924 28.7718C21.6881 28.7883 21.6829 28.8046 21.6768 28.8205C21.4205 28.7562 21.1649 28.6768 20.9049 28.6362C20.7035 28.6062 20.4988 28.6062 20.2974 28.6362C20.0412 28.6743 19.7893 28.7562 19.5149 28.773C19.7349 28.6712 19.9555 28.5693 20.1999 28.453C19.8693 28.338 19.5487 28.2268 19.2293 28.113C19.2315 28.0946 19.2328 28.076 19.233 28.0574C20.1443 28.4324 21.0555 28.4349 21.9643 28.0587L21.9687 28.1162Z" fill="#128807"/>
</svg>
