<svg width="40" height="40" viewBox="0 0 40 40" fill="none" xmlns="http://www.w3.org/2000/svg">
<path d="M40 26.875C40 30.6719 37.8919 33.75 33.75 33.75H6.25C2.10813 33.75 0 30.6719 0 26.875V13.125C0 9.32813 2.10813 6.25 6.25 6.25H33.75C37.8919 6.25 40 9.32813 40 13.125V26.875Z" fill="#E6E7E8"/>
<path d="M21.5785 17.9036C22.2679 17.6005 22.9754 17.5855 23.7029 17.8573C24.466 18.1442 24.9897 18.598 25.2729 19.2211C25.5572 19.8455 25.591 20.6167 25.376 21.5361C25.8804 19.9255 25.8222 18.4373 25.2004 17.073C24.5804 15.7105 23.5254 14.748 22.0347 14.1911C20.5816 13.6448 19.1335 13.6955 17.6916 14.3355C16.2491 14.9767 15.2597 16.0155 14.7222 17.4473C14.4322 18.2255 14.4422 18.9748 14.7585 19.6955C15.0735 20.4167 15.6072 20.9173 16.3591 21.1992C17.0872 21.4711 17.7954 21.4567 18.4866 21.1586C19.1785 20.8586 19.6797 20.3486 19.9922 19.623L20.0691 19.4411C20.386 18.7192 20.8897 18.2061 21.5785 17.9036" fill="#EC1C24"/>
<path d="M18.5192 21.0808C17.8292 21.3846 17.1211 21.3996 16.3961 21.1283C15.6323 20.8421 15.1079 20.3871 14.8248 19.7633C14.5417 19.1402 14.5073 18.3689 14.7204 17.4502C14.2173 19.0596 14.2767 20.5471 14.8973 21.9108C15.5186 23.2758 16.5729 24.2358 18.0623 24.7939C19.5161 25.3383 20.9642 25.2883 22.4073 24.6502C23.8479 24.0083 24.8386 22.9708 25.3742 21.5383C25.6667 20.7602 25.6567 20.0102 25.3404 19.2908C25.0242 18.5696 24.4904 18.0683 23.7373 17.7864C23.0117 17.5139 22.3036 17.5283 21.6123 17.8271C20.9211 18.1264 20.4192 18.6383 20.1067 19.3614L20.0292 19.5439C19.7129 20.2639 19.2079 20.7777 18.5192 21.0808" fill="#1B75BB"/>
<path d="M15.0249 9.65692C15.0649 9.6976 15.0873 9.75236 15.0873 9.80942C15.0873 9.86647 15.0649 9.92124 15.0249 9.96192L11.2137 13.7719C11.1937 13.7919 11.1701 13.8078 11.1441 13.8186C11.118 13.8295 11.0901 13.8351 11.0619 13.8351C11.0337 13.8352 11.0058 13.8297 10.9797 13.819C10.9536 13.8082 10.9299 13.7924 10.9099 13.7725C10.8899 13.7526 10.874 13.729 10.8632 13.703C10.8524 13.6769 10.8467 13.649 10.8467 13.6208C10.8466 13.5926 10.8521 13.5646 10.8629 13.5386C10.8736 13.5125 10.8894 13.4888 10.9093 13.4688L14.7199 9.65754C14.7398 9.6374 14.7636 9.62139 14.7897 9.61045C14.8159 9.59951 14.8439 9.59384 14.8723 9.59378C14.9006 9.59373 14.9287 9.59927 14.9549 9.61011C14.9811 9.62094 15.0049 9.63685 15.0249 9.65692M15.7124 10.3438C15.7325 10.3637 15.7484 10.3874 15.7593 10.4135C15.7702 10.4397 15.7758 10.4677 15.7758 10.496C15.7758 10.5243 15.7702 10.5523 15.7593 10.5784C15.7484 10.6045 15.7325 10.6282 15.7124 10.6482L11.9037 14.4588C11.8631 14.4991 11.8083 14.5217 11.7512 14.5217C11.694 14.5217 11.6392 14.4991 11.5987 14.4588C11.5783 14.4389 11.5622 14.4152 11.5511 14.389C11.5401 14.3628 11.5344 14.3347 11.5344 14.3063C11.5344 14.2779 11.5401 14.2497 11.5511 14.2236C11.5622 14.1974 11.5783 14.1736 11.5987 14.1538L15.4093 10.3438C15.4495 10.3036 15.504 10.281 15.5608 10.281C15.6177 10.281 15.6722 10.3036 15.7124 10.3438ZM16.4249 11.0569C16.4452 11.0768 16.4614 11.1005 16.4724 11.1267C16.4835 11.1529 16.4891 11.181 16.4891 11.2094C16.4891 11.2378 16.4835 11.266 16.4724 11.2922C16.4614 11.3183 16.4452 11.3421 16.4249 11.3619L12.6137 15.1732C12.5938 15.1932 12.5702 15.2091 12.5442 15.22C12.5182 15.2309 12.4903 15.2365 12.4621 15.2365C12.4339 15.2365 12.406 15.2309 12.38 15.22C12.3539 15.2091 12.3303 15.1932 12.3105 15.1732C12.27 15.1326 12.2473 15.0777 12.2473 15.0204C12.2473 14.963 12.27 14.9081 12.3105 14.8675L16.1205 11.0569C16.1405 11.0368 16.1642 11.0209 16.1903 11.01C16.2164 10.9991 16.2444 10.9935 16.2727 10.9935C16.301 10.9935 16.329 10.9991 16.3551 11.01C16.3813 11.0209 16.405 11.0368 16.4249 11.0569M26.8811 11.6538C26.9711 11.5832 27.0562 11.5063 27.1424 11.43L25.3699 9.65692C25.3295 9.61647 25.2746 9.59375 25.2174 9.59375C25.1602 9.59375 25.1053 9.61647 25.0649 9.65692C25.0245 9.69736 25.0017 9.75222 25.0017 9.80942C25.0017 9.86662 25.0245 9.92147 25.0649 9.96192L26.8243 11.7207C26.8386 11.6948 26.858 11.6721 26.8811 11.6538M29.1811 13.4682L27.4605 11.7469C27.3537 11.8425 27.2449 11.9382 27.1318 12.0269L28.8762 13.7713C28.9173 13.8068 28.9703 13.8255 29.0246 13.8236C29.079 13.8217 29.1306 13.7994 29.1691 13.7611C29.2077 13.7228 29.2304 13.6713 29.2326 13.617C29.2348 13.5627 29.2164 13.5095 29.1811 13.4682ZM28.4943 14.4563C28.4539 14.4966 28.3991 14.5192 28.3421 14.5192C28.285 14.5192 28.2303 14.4966 28.1899 14.4563L24.3787 10.6457C24.3573 10.626 24.3402 10.6021 24.3283 10.5756C24.3164 10.5491 24.3099 10.5205 24.3094 10.4914C24.3088 10.4624 24.3141 10.4335 24.325 10.4066C24.3359 10.3796 24.3521 10.3552 24.3726 10.3346C24.3932 10.3141 24.4177 10.298 24.4447 10.2872C24.4716 10.2763 24.5005 10.2711 24.5296 10.2717C24.5586 10.2723 24.5872 10.2788 24.6137 10.2908C24.6402 10.3027 24.664 10.3199 24.6837 10.3413L28.4943 14.1513C28.5143 14.1713 28.5302 14.1951 28.541 14.2213C28.5519 14.2474 28.5575 14.2755 28.5575 14.3038C28.5575 14.3321 28.5519 14.3602 28.541 14.3863C28.5302 14.4125 28.5143 14.4363 28.4943 14.4563M25.4005 13.0775C25.5118 12.9913 25.6049 12.8875 25.6911 12.7757L23.9718 11.0569C23.9521 11.0356 23.9282 11.0184 23.9017 11.0065C23.8752 10.9946 23.8466 10.9882 23.8175 10.9876C23.7885 10.9871 23.7596 10.9924 23.7327 11.0033C23.7057 11.0141 23.6813 11.0303 23.6608 11.0509C23.6402 11.0715 23.6241 11.096 23.6133 11.1229C23.6024 11.1499 23.5972 11.1788 23.5978 11.2078C23.5984 11.2369 23.6049 11.2655 23.6169 11.292C23.6288 11.3185 23.646 11.3422 23.6674 11.3619L25.3943 13.0875C25.3937 13.0869 25.3968 13.0825 25.4005 13.0775ZM27.7812 14.8675L26.0099 13.0963C25.9187 13.2088 25.8168 13.3107 25.708 13.4025L27.4768 15.1725C27.4966 15.1929 27.5202 15.209 27.5464 15.22C27.5725 15.2311 27.6006 15.2367 27.629 15.2367C27.6573 15.2367 27.6854 15.2311 27.7115 15.22C27.7377 15.209 27.7614 15.1929 27.7812 15.1725C27.8012 15.1525 27.8171 15.1287 27.8279 15.1026C27.8388 15.0764 27.8443 15.0484 27.8443 15.02C27.8443 14.9917 27.8388 14.9637 27.8279 14.9375C27.8171 14.9113 27.8012 14.8876 27.7812 14.8675M26.8487 27.2988L25.1387 29.01C25.0984 29.0505 25.0758 29.1052 25.0758 29.1622C25.0758 29.2193 25.0984 29.274 25.1387 29.3144C25.1586 29.3345 25.1823 29.3504 25.2084 29.3613C25.2345 29.3722 25.2625 29.3778 25.2908 29.3778C25.3191 29.3778 25.3471 29.3722 25.3733 29.3613C25.3994 29.3504 25.4231 29.3345 25.443 29.3144L27.1411 27.615C27.0443 27.5088 26.9474 27.4038 26.8487 27.2988ZM29.2543 25.2C29.2134 25.1599 29.1583 25.1376 29.1011 25.138C29.0438 25.1383 28.989 25.1613 28.9487 25.2019L27.168 26.9813C27.2662 27.0882 27.3637 27.1925 27.4612 27.2975L29.2543 25.5057C29.294 25.4647 29.3163 25.4099 29.3163 25.3529C29.3163 25.2958 29.294 25.241 29.2543 25.2M26.1805 26.5957L24.4512 28.3232C24.4111 28.3638 24.3887 28.4186 24.3887 28.4757C24.3887 28.5327 24.4111 28.5875 24.4512 28.6282C24.4918 28.6687 24.5469 28.6915 24.6043 28.6915C24.6617 28.6915 24.7167 28.6687 24.7574 28.6282L26.4774 26.9069C26.3774 26.8019 26.2805 26.6969 26.1805 26.5957M28.5662 24.5125C28.5464 24.4925 28.5228 24.4766 28.4969 24.4657C28.4709 24.4549 28.443 24.4493 28.4149 24.4493C28.3868 24.4493 28.3589 24.4549 28.3329 24.4657C28.307 24.4766 28.2834 24.4925 28.2637 24.5125L26.4999 26.275C26.6012 26.3775 26.6974 26.4819 26.798 26.5863L28.5668 24.8169C28.5871 24.7971 28.6031 24.7734 28.6141 24.7472C28.6251 24.7211 28.6307 24.693 28.6307 24.6646C28.6306 24.6362 28.6249 24.6082 28.6138 24.582C28.6027 24.5559 28.5865 24.5323 28.5662 24.5125M25.4374 25.9119L23.7374 27.61C23.6977 27.6509 23.6755 27.7056 23.6755 27.7625C23.6755 27.8195 23.6977 27.8742 23.7374 27.915C23.7781 27.9556 23.8331 27.9783 23.8905 27.9783C23.9479 27.9783 24.003 27.9556 24.0437 27.915L25.7549 26.2013C25.6499 26.105 25.5487 26.0025 25.4374 25.9119ZM26.0774 25.8813L27.853 24.1032C27.8734 24.0834 27.8897 24.0597 27.9007 24.0335C27.9118 24.0073 27.9175 23.9791 27.9175 23.9507C27.9175 23.9222 27.9118 23.8941 27.9007 23.8679C27.8897 23.8417 27.8734 23.818 27.853 23.7982C27.8332 23.7781 27.8096 23.7622 27.7836 23.7513C27.7576 23.7405 27.7297 23.7349 27.7015 23.7349C27.6733 23.7349 27.6454 23.7405 27.6193 23.7513C27.5933 23.7622 27.5697 23.7781 27.5499 23.7982L25.758 25.59C25.8699 25.6832 25.9711 25.7838 26.0774 25.8813M13.2799 27.3175C13.1899 27.3875 13.1055 27.465 13.018 27.5413L14.7918 29.3144C14.8117 29.3345 14.8353 29.3504 14.8614 29.3613C14.8874 29.3722 14.9154 29.3778 14.9437 29.3778C14.9719 29.3778 14.9999 29.3722 15.0259 29.3613C15.052 29.3504 15.0757 29.3345 15.0955 29.3144C15.1157 29.2945 15.1317 29.2708 15.1426 29.2447C15.1536 29.2186 15.1592 29.1905 15.1592 29.1622C15.1592 29.1339 15.1536 29.1059 15.1426 29.0797C15.1317 29.0536 15.1157 29.0299 15.0955 29.01L13.3374 27.25C13.3224 27.2758 13.3029 27.2986 13.2799 27.3175M10.9818 25.5032L12.7018 27.2244C12.8093 27.1294 12.9162 27.0332 13.0299 26.945L11.2855 25.2C11.2445 25.1639 11.1913 25.1447 11.1367 25.1464C11.0821 25.1481 11.0301 25.1705 10.9915 25.2091C10.9528 25.2477 10.9302 25.2996 10.9284 25.3542C10.9266 25.4088 10.9457 25.4621 10.9818 25.5032M15.7812 28.325L14.0443 26.5882C13.9487 26.6763 13.8543 26.7669 13.7543 26.8494C13.7412 26.8607 13.728 26.865 13.7162 26.8719L15.4755 28.63C15.4956 28.6501 15.5193 28.666 15.5455 28.6769C15.5717 28.6878 15.5998 28.6934 15.6281 28.6934C15.6565 28.6935 15.6845 28.6879 15.7108 28.6771C15.737 28.6663 15.7608 28.6504 15.7808 28.6304C15.8009 28.6103 15.8168 28.5865 15.8277 28.5604C15.8386 28.5342 15.8442 28.5061 15.8442 28.4778C15.8443 28.4494 15.8387 28.4213 15.8279 28.3951C15.8171 28.3689 15.8012 28.3451 15.7812 28.325M13.4255 26.5394C13.5293 26.4513 13.6268 26.3588 13.7268 26.2663L11.9718 24.5125C11.9521 24.4912 11.9283 24.474 11.9018 24.462C11.8754 24.4501 11.8467 24.4436 11.8177 24.4429C11.7886 24.4423 11.7598 24.4476 11.7328 24.4584C11.7058 24.4692 11.6813 24.4854 11.6608 24.5059C11.6402 24.5264 11.624 24.5509 11.6131 24.5778C11.6023 24.6048 11.5969 24.6336 11.5975 24.6627C11.5981 24.6917 11.6045 24.7204 11.6164 24.7469C11.6283 24.7734 11.6454 24.7972 11.6668 24.8169L13.4093 26.5594C13.4168 26.5525 13.4187 26.5469 13.4255 26.5394M12.3824 23.8C12.4021 23.7797 12.4258 23.7636 12.4518 23.7526C12.4779 23.7416 12.506 23.7359 12.5343 23.7359C12.5626 23.7359 12.5906 23.7416 12.6167 23.7526C12.6428 23.7636 12.6664 23.7797 12.6862 23.8L16.4974 27.61C16.5377 27.6506 16.5603 27.7054 16.5603 27.7625C16.5603 27.8197 16.5377 27.8745 16.4974 27.915C16.4775 27.9352 16.4537 27.9512 16.4275 27.9622C16.4014 27.9731 16.3733 27.9787 16.3449 27.9787C16.3165 27.9787 16.2884 27.9731 16.2623 27.9622C16.2361 27.9512 16.2123 27.9352 16.1924 27.915L12.3824 24.1038C12.3621 24.084 12.346 24.0604 12.335 24.0343C12.3239 24.0083 12.3183 23.9802 12.3183 23.9519C12.3183 23.9236 12.3239 23.8956 12.335 23.8695C12.346 23.8434 12.3621 23.8198 12.3824 23.8Z" fill="#231F20"/>
<path d="M10.9729 25.1937C10.9929 25.1737 11.0167 25.1578 11.0429 25.147C11.069 25.1361 11.0971 25.1305 11.1254 25.1305C11.1537 25.1305 11.1818 25.1361 11.2079 25.147C11.2341 25.1578 11.2579 25.1737 11.2779 25.1937L15.0873 29.0037C15.1073 29.0238 15.1232 29.0475 15.134 29.0737C15.1449 29.0999 15.1504 29.1279 15.1504 29.1562C15.1504 29.1846 15.1449 29.2126 15.134 29.2388C15.1232 29.2649 15.1073 29.2887 15.0873 29.3087C15.0672 29.3288 15.0435 29.3446 15.0173 29.3555C14.9911 29.3663 14.9631 29.3719 14.9348 29.3719C14.9064 29.3719 14.8784 29.3663 14.8522 29.3555C14.8261 29.3446 14.8023 29.3288 14.7823 29.3087L10.9729 25.4987C10.9527 25.4788 10.9367 25.455 10.9257 25.4289C10.9148 25.4027 10.9092 25.3746 10.9092 25.3462C10.9092 25.3179 10.9148 25.2898 10.9257 25.2636C10.9367 25.2374 10.9527 25.2137 10.9729 25.1937M14.7629 25.8937C14.6532 25.9814 14.5555 26.0831 14.4723 26.1962L16.191 27.915C16.2315 27.9554 16.2863 27.9782 16.3435 27.9782C16.4007 27.9782 16.4556 27.9554 16.496 27.915C16.5365 27.8745 16.5592 27.8197 16.5592 27.7625C16.5592 27.7053 16.5365 27.6504 16.496 27.61L14.7691 25.8844L14.7629 25.8937ZM12.3829 24.1037L14.1523 25.875C14.2441 25.7625 14.3448 25.6612 14.4554 25.5687L12.6866 23.8C12.6669 23.7797 12.6433 23.7636 12.6172 23.7525C12.5911 23.7415 12.5631 23.7358 12.5348 23.7358C12.5064 23.7358 12.4784 23.7415 12.4523 23.7525C12.4262 23.7636 12.4026 23.7797 12.3829 23.8C12.3626 23.8197 12.3465 23.8433 12.3354 23.8694C12.3244 23.8955 12.3187 23.9235 12.3187 23.9519C12.3187 23.9802 12.3244 24.0082 12.3354 24.0343C12.3465 24.0604 12.3626 24.084 12.3829 24.1037" fill="#231F20"/>
</svg>
