<svg width="40" height="40" viewBox="0 0 40 40" fill="none" xmlns="http://www.w3.org/2000/svg">
<path d="M40 26.875C40 30.6719 37.8919 33.75 33.75 33.75H6.25C2.10813 33.75 0 30.6719 0 26.875V13.125C0 9.32812 2.10813 6.25 6.25 6.25H33.75C37.8919 6.25 40 9.32812 40 13.125V26.875Z" fill="#EC1C24"/>
<path fill-rule="evenodd" clip-rule="evenodd" d="M16.7548 13.415C17.1098 13.5406 17.3554 13.7819 17.521 14.1162C17.6666 14.4131 17.7791 14.7256 17.951 15.01C18.0098 15.1069 18.0785 15.1981 18.1404 15.2925C18.1698 15.3394 18.2004 15.3444 18.2466 15.3169C18.2741 15.3 18.3066 15.2887 18.3385 15.2775C18.366 15.2669 18.376 15.2544 18.3641 15.2225C18.2035 14.79 18.1748 14.3319 18.0879 13.8831C18.0279 13.5566 17.9013 13.246 17.716 12.9706C17.7085 12.9594 17.7035 12.9469 17.6885 12.9169C18.0023 13.0787 18.216 13.3081 18.3473 13.6144C18.4704 13.9025 18.5385 14.2087 18.631 14.5062C18.686 14.6794 18.7579 14.845 18.8354 15.0081C18.8648 15.0731 18.8991 15.0906 18.9691 15.07C19.1029 15.0306 19.0998 15.0344 19.0798 14.8894C19.0523 14.6796 19.0379 14.4684 19.0366 14.2569C19.0335 13.8856 19.0429 13.515 18.9654 13.1475C18.9237 12.9643 18.8645 12.7856 18.7885 12.6137C19.0835 12.8337 19.2441 13.1112 19.3304 13.435C19.4129 13.7494 19.4435 14.0737 19.4966 14.3944C19.5235 14.5556 19.561 14.7125 19.6054 14.8687C19.6216 14.9319 19.6485 14.9575 19.7123 14.9431C19.7223 14.9406 19.7304 14.9406 19.7398 14.9406C19.8641 14.9294 19.8654 14.9294 19.8654 14.805C19.8623 14.4369 19.9548 14.0831 20.041 13.7287C20.1366 13.3406 20.1723 12.9494 20.1098 12.5525C20.1079 12.5387 20.1091 12.525 20.1091 12.4956C20.3179 12.7525 20.4091 13.035 20.4179 13.3462C20.4273 13.635 20.3929 13.9225 20.371 14.2087C20.3568 14.4262 20.3608 14.6444 20.3829 14.8612C20.3935 14.9706 20.4823 14.9256 20.5385 14.9406C20.6066 14.96 20.5998 14.9056 20.6066 14.8644C20.661 14.4912 20.8023 14.145 20.9441 13.7975C21.0766 13.4725 21.1766 13.1394 21.1691 12.7831C21.1691 12.7125 21.1623 12.6431 21.1579 12.5562C21.2591 12.6906 21.3154 12.8306 21.3541 12.9781C21.4398 13.305 21.3885 13.6281 21.3123 13.95C21.2479 14.2212 21.1623 14.4875 21.1273 14.7644C21.1191 14.8225 21.1191 14.8806 21.1091 14.9375C21.0966 15.0037 21.116 15.0287 21.1829 15.0425C21.326 15.07 21.3273 15.0756 21.3785 14.9331C21.4879 14.6219 21.6573 14.3412 21.8279 14.0606C21.9804 13.81 22.1335 13.5575 22.2135 13.27C22.2516 13.1306 22.2741 12.9894 22.2798 12.8231C22.3673 12.9625 22.406 13.0975 22.4204 13.2394C22.4473 13.4762 22.3904 13.7012 22.3054 13.9212C22.1779 14.2519 22.0073 14.5656 21.9041 14.9069C21.8773 14.9925 21.8585 15.0787 21.8341 15.1644C21.8198 15.2181 21.836 15.2456 21.8904 15.2662C22.0173 15.3125 22.0141 15.3162 22.0785 15.1919C22.2598 14.8381 22.5191 14.5437 22.7773 14.2487C22.9448 14.0594 23.1054 13.8675 23.2085 13.6337C23.2585 13.5181 23.2935 13.3975 23.3148 13.2537C23.3723 13.3962 23.3791 13.5287 23.3735 13.66C23.3604 13.9294 23.2566 14.1712 23.1235 14.4019C22.946 14.7087 22.7329 14.9962 22.5829 15.3187C22.5554 15.3781 22.5354 15.4381 22.5079 15.4969C22.4854 15.5431 22.4985 15.5662 22.5423 15.5912C22.651 15.6562 22.651 15.6594 22.7235 15.5581C22.9654 15.2181 23.2916 14.9675 23.6066 14.7025C23.8416 14.5044 24.0673 14.2969 24.1991 14.01C24.226 13.9531 24.2473 13.8937 24.2779 13.8206C24.3323 14.2344 24.2098 14.5787 23.976 14.8931C23.7641 15.1756 23.5085 15.4225 23.3066 15.7119C23.2505 15.7924 23.1969 15.8748 23.146 15.9587C23.0998 16.0312 23.1804 16.0406 23.2079 16.0762C23.2341 16.1112 23.2591 16.1031 23.2885 16.0731C23.5385 15.815 23.8373 15.6225 24.1348 15.4281C24.3998 15.255 24.6673 15.0862 24.8866 14.8556C24.9729 14.765 25.0479 14.6662 25.1229 14.5644C25.1229 14.775 25.0666 14.9681 24.966 15.1494C24.8066 15.4369 24.5616 15.6469 24.3141 15.8531C24.0923 16.0387 23.8679 16.2187 23.6754 16.4362C23.6241 16.4931 23.6523 16.5206 23.6866 16.5644C23.7241 16.6106 23.7485 16.6225 23.8035 16.5825C24.0273 16.4181 24.2791 16.3044 24.5329 16.1969C25.0098 15.9937 25.4916 15.8025 25.871 15.3862C25.8613 15.5839 25.7928 15.7741 25.6741 15.9325C25.5304 16.1262 25.336 16.26 25.1348 16.3831C24.8023 16.5862 24.4554 16.765 24.151 17.0081C24.0804 17.0637 24.0779 17.105 24.131 17.17C24.1535 17.1969 24.1666 17.2125 24.2035 17.1956C24.6091 17.005 25.0479 16.9237 25.4766 16.81C25.7648 16.7331 26.0466 16.6419 26.2923 16.4631C26.3435 16.4256 26.391 16.3831 26.4423 16.3412C26.4641 16.4737 26.3823 16.6669 26.2529 16.7962C26.0735 16.98 25.8466 17.0881 25.6135 17.1856C25.2441 17.3419 24.8641 17.4706 24.5066 17.6544C24.4148 17.7012 24.4035 17.7562 24.4685 17.8425C24.4823 17.8619 24.496 17.8619 24.5135 17.8575C25.0679 17.7219 25.6385 17.7194 26.1979 17.6194C26.4414 17.5805 26.6749 17.4938 26.8848 17.3644C26.8616 17.55 26.7579 17.6656 26.6254 17.76C26.4285 17.9025 26.1979 17.9725 25.9673 18.035C25.5648 18.1425 25.156 18.22 24.7585 18.3475C24.661 18.3794 24.6341 18.4662 24.6916 18.55C24.7048 18.5706 24.7229 18.5669 24.7398 18.5662C25.1966 18.5431 25.6523 18.5994 26.1079 18.6206C26.4591 18.6369 26.8066 18.6231 27.1448 18.4906C27.0923 18.6237 26.926 18.7662 26.7491 18.8431C26.4816 18.9575 26.1991 18.9837 25.9141 19.0087C25.5691 19.0381 25.2229 19.0475 24.8798 19.1006C24.8404 19.1075 24.7735 19.0912 24.7885 19.1681C24.7991 19.2275 24.766 19.31 24.8816 19.3187C25.2216 19.3425 25.5523 19.4237 25.8866 19.49C26.3348 19.5781 26.7816 19.67 27.2541 19.5812C27.1823 19.7444 27.0523 19.8125 26.9048 19.8537C26.5991 19.9369 26.2891 19.8994 25.9798 19.8806C25.616 19.8594 25.2516 19.8219 24.8873 19.8362C24.8416 19.8387 24.7891 19.8281 24.7979 19.9019C24.8054 19.9612 24.7441 20.0356 24.866 20.0619C25.2379 20.1437 25.5891 20.2925 25.9454 20.4225C26.3241 20.5606 26.7085 20.6719 27.1173 20.6625C27.126 20.6625 27.1335 20.6669 27.1535 20.6737C27.0287 20.7955 26.8654 20.8702 26.6916 20.885C26.3185 20.9312 25.9604 20.8431 25.6004 20.7675C25.3348 20.71 25.0673 20.6525 24.801 20.5981C24.7629 20.5912 24.706 20.5569 24.6898 20.6331C24.6785 20.6931 24.6448 20.7456 24.7391 20.7862C25.101 20.9394 25.4341 21.1469 25.7773 21.3387C26.0248 21.4781 26.2741 21.6156 26.5473 21.7025C26.6585 21.7381 26.7723 21.7575 26.8998 21.7744C26.8163 21.8459 26.7124 21.8892 26.6029 21.8981C26.3416 21.9319 26.0985 21.8606 25.8573 21.7762C25.4816 21.6462 25.1204 21.4756 24.7404 21.3569C24.676 21.3362 24.6091 21.3237 24.546 21.3006C24.4979 21.2825 24.471 21.3006 24.4691 21.3437C24.4666 21.3944 24.3716 21.4462 24.451 21.4919C24.9779 21.7975 25.4273 22.2119 25.9248 22.5587C26.0891 22.6737 26.2623 22.7706 26.476 22.8044C26.3179 22.91 26.1585 22.8981 25.9973 22.8619C25.6566 22.7856 25.366 22.5931 25.0716 22.4231C24.7998 22.2694 24.5379 22.0987 24.2535 21.9675C24.1991 21.9431 24.1641 21.9356 24.1398 21.9994C24.121 22.0506 24.0479 22.085 24.1366 22.1544C24.5085 22.4406 24.7998 22.8081 25.1154 23.15C25.2998 23.3475 25.481 23.55 25.7279 23.6719C25.7773 23.6969 25.8285 23.7156 25.8785 23.7387C25.7885 23.8081 25.5341 23.7744 25.371 23.7081C25.1791 23.6254 25.0001 23.5158 24.8391 23.3825C24.531 23.1444 24.2491 22.8744 23.9335 22.645C23.9148 22.6312 23.8948 22.615 23.8741 22.6012C23.7666 22.5287 23.7091 22.5462 23.6516 22.6662C23.6366 22.6962 23.6554 22.705 23.6685 22.7187C23.9841 23.0344 24.2048 23.4187 24.4448 23.7887C24.6073 24.0394 24.7848 24.2781 25.026 24.4594C25.0779 24.4969 25.1316 24.5306 25.1954 24.575C25.0016 24.6212 24.8398 24.5712 24.6848 24.4844C24.5091 24.3856 24.3654 24.2469 24.2279 24.1012C23.9498 23.8044 23.7029 23.4775 23.4116 23.1912C23.3963 23.1763 23.3813 23.1611 23.3666 23.1456C23.2685 23.055 23.2235 23.0612 23.1429 23.1687C23.1235 23.1919 23.1335 23.2062 23.1466 23.2231C23.4648 23.6575 23.646 24.1631 23.8785 24.6412C23.9991 24.89 24.1241 25.1356 24.3441 25.32C24.2516 25.3444 24.1254 25.3144 24.0148 25.2494C23.8454 25.1537 23.7166 25.0144 23.6016 24.8612C23.4385 24.6462 23.3029 24.4131 23.161 24.1837C23.0335 23.9742 22.8958 23.7711 22.7485 23.575C22.6879 23.4962 22.6498 23.5381 22.5916 23.5681C22.5198 23.6037 22.5441 23.6419 22.5685 23.6912C22.7335 24.0294 22.8079 24.3969 22.9023 24.7581C22.9766 25.0387 23.0441 25.3231 23.1773 25.5844C23.231 25.6912 23.2979 25.7894 23.3729 25.8869C23.2582 25.8716 23.1507 25.8224 23.0641 25.7456C22.8679 25.5812 22.7479 25.3656 22.6429 25.1381C22.4854 24.7962 22.3629 24.4387 22.1816 24.1075C22.151 24.0506 22.1123 23.9994 22.0841 23.9406C22.0523 23.8756 22.0191 23.8694 21.9498 23.8981C21.8754 23.93 21.8573 23.955 21.8848 24.035C22.0191 24.41 22.0485 24.8056 22.0941 25.1981C22.1329 25.53 22.156 25.8637 22.2923 26.1756C22.3148 26.2294 22.3423 26.2806 22.3741 26.3462C22.2566 26.3049 22.1521 26.2333 22.071 26.1387C21.8966 25.9531 21.811 25.72 21.7448 25.4794C21.641 25.1144 21.576 24.7369 21.4491 24.3794C21.4216 24.3037 21.3866 24.2325 21.3591 24.1581C21.3298 24.0794 21.2766 24.1319 21.236 24.1381C21.1998 24.1437 21.1429 24.1356 21.1523 24.2062C21.2173 24.6581 21.1654 25.1119 21.1585 25.565C21.1541 25.9169 21.1716 26.2637 21.306 26.6006C21.161 26.5487 21.0298 26.4031 20.9498 26.2194C20.8429 25.9712 20.8129 25.7069 20.7854 25.4406C20.7491 25.085 20.741 24.7244 20.676 24.3706C20.6516 24.2356 20.6535 24.2381 20.5229 24.2512C20.4798 24.2544 20.4654 24.2681 20.4654 24.3119C20.4679 24.7175 20.4023 25.1181 20.3479 25.5187C20.2941 25.9062 20.2529 26.2956 20.3435 26.7106C20.1397 26.48 20.0112 26.1925 19.9754 25.8869C19.9379 25.5862 19.9848 25.2875 20.0048 24.9881C20.0185 24.7706 20.0329 24.5537 19.9998 24.3369C19.991 24.2831 19.9729 24.2662 19.9198 24.2637C19.7423 24.2519 19.7441 24.2506 19.7141 24.4281C19.6529 24.8031 19.5154 25.1537 19.3973 25.5119C19.3004 25.8062 19.2091 26.1012 19.206 26.4162C19.2054 26.4856 19.2123 26.5569 19.216 26.6431C19.1218 26.5371 19.0551 26.4096 19.0216 26.2719C18.9479 25.9962 18.9804 25.7187 19.0279 25.4431C19.0879 25.0837 19.1835 24.73 19.2041 24.3637L19.2073 24.3087C19.2098 24.1719 19.1904 24.1512 19.056 24.1425C19.0266 24.1406 19.0104 24.1475 19.0023 24.1775C18.8748 24.7344 18.5723 25.2169 18.3441 25.7294C18.2485 25.9469 18.1635 26.1637 18.161 26.4075C18.0554 26.2406 18.0191 26.0556 18.0191 25.8625C18.0191 25.5306 18.1354 25.2244 18.2379 24.9175C18.3316 24.6381 18.4391 24.3656 18.4941 24.0744C18.4978 24.055 18.497 24.035 18.4917 24.0159C18.4865 23.9969 18.477 23.9793 18.4639 23.9645C18.4508 23.9498 18.4345 23.9382 18.4162 23.9307C18.398 23.9232 18.3782 23.9199 18.3585 23.9212C18.3348 23.9225 18.3266 23.9381 18.3191 23.9544C18.1191 24.4187 17.7785 24.7931 17.5048 25.2106C17.3429 25.4581 17.2041 25.715 17.131 26.0231C17.0666 25.8831 17.0629 25.7481 17.0648 25.6137C17.0673 25.3381 17.1585 25.0856 17.2766 24.8406C17.4341 24.5144 17.6291 24.2094 17.7748 23.8769C17.7798 23.8637 17.7873 23.8494 17.7923 23.8344C17.8648 23.64 17.8735 23.7 17.7004 23.59C17.6723 23.5712 17.6535 23.575 17.6335 23.6031C17.3335 24.025 16.9366 24.36 16.6048 24.755C16.4205 24.97 16.2722 25.2134 16.1654 25.4756C16.1166 25.3781 16.106 25.185 16.1348 25.0287C16.1791 24.7844 16.2935 24.5725 16.4373 24.3769C16.6229 24.1287 16.8173 23.8869 17.0054 23.6412C17.0823 23.5406 17.1473 23.4331 17.2085 23.3244C17.2666 23.2219 17.1535 23.2231 17.1204 23.1769C17.086 23.1281 17.0648 23.1794 17.046 23.2C16.821 23.4537 16.5473 23.6519 16.2748 23.85C16.0085 24.0431 15.7373 24.2275 15.5135 24.4712C15.4272 24.5699 15.3512 24.6771 15.2866 24.7912C15.2523 24.5687 15.3023 24.3819 15.3941 24.2025C15.4898 24.0144 15.6254 23.8569 15.7729 23.7081C16.0429 23.4325 16.346 23.1894 16.5985 22.8944L16.6223 22.8669C16.6923 22.7837 16.6723 22.6869 16.5766 22.6337C16.5529 22.6212 16.5423 22.6362 16.5304 22.6469C16.1891 22.9356 15.7816 23.1112 15.3904 23.315C15.1291 23.4506 14.8729 23.5956 14.6741 23.8219C14.6329 23.8681 14.5948 23.92 14.546 23.9819C14.5289 23.8573 14.5484 23.7305 14.6023 23.6169C14.7116 23.3656 14.9066 23.1894 15.1248 23.0369C15.3885 22.8537 15.6579 22.6756 15.9216 22.4931C16.0279 22.4206 16.1279 22.3381 16.2148 22.2425C16.281 22.1681 16.1816 22.1337 16.1666 22.0794C16.1548 22.0406 16.1279 22.0425 16.0941 22.0619C15.7454 22.2619 15.3579 22.3631 14.981 22.4894C14.6679 22.5944 14.356 22.6987 14.0854 22.9031C14.0316 22.9444 13.9829 22.99 13.9185 23.0437C13.9244 22.9441 13.9544 22.8473 14.006 22.7619C14.121 22.5619 14.2948 22.4212 14.4879 22.305C14.7554 22.1419 15.0416 22.015 15.3241 21.8806C15.4948 21.7981 15.661 21.7094 15.8248 21.6106C15.9354 21.545 15.836 21.4875 15.8229 21.4275C15.8091 21.3544 15.7591 21.3931 15.7241 21.4056C15.3698 21.5331 14.9979 21.5762 14.6298 21.6419C14.2854 21.7037 13.9398 21.7575 13.6241 21.9187C13.5685 21.9475 13.5135 21.9819 13.4373 22.0237C13.5004 21.8806 13.581 21.7787 13.6804 21.6887C13.8941 21.4956 14.1504 21.3819 14.4185 21.2906C14.7891 21.1625 15.1735 21.0781 15.5423 20.9456C15.6185 20.9181 15.6385 20.8919 15.6179 20.8087C15.5923 20.7156 15.5641 20.6869 15.4598 20.6987C15.0623 20.7481 14.6641 20.7325 14.2648 20.7419C13.9985 20.7506 13.7316 20.7587 13.4704 20.8275C13.3791 20.8531 13.2904 20.8837 13.2029 20.925C13.1854 20.9287 13.1785 20.9212 13.1829 20.9031C13.4235 20.5881 13.7648 20.4581 14.1379 20.3875C14.471 20.3231 14.8129 20.3119 15.1498 20.2606C15.2423 20.2462 15.3354 20.2231 15.4298 20.2087C15.476 20.2019 15.4879 20.1812 15.4848 20.1356C15.4748 19.9687 15.476 19.97 15.3148 19.9631C14.9903 19.9445 14.667 19.9078 14.3466 19.8531C13.911 19.7844 13.4741 19.7094 13.0098 19.83C13.1404 19.6644 13.2929 19.5781 13.4666 19.5244C13.7804 19.4275 14.1035 19.4487 14.4241 19.46C14.7404 19.4706 15.0554 19.4819 15.3716 19.4531C15.4991 19.4419 15.4448 19.3512 15.4629 19.2919C15.4848 19.22 15.4298 19.22 15.3854 19.2144C14.9716 19.1512 14.5779 19.0112 14.1804 18.8881C13.8285 18.78 13.4723 18.6912 13.0954 18.7231C13.1535 18.6594 13.3016 18.5919 13.4654 18.5425C13.776 18.4512 14.0885 18.4694 14.4029 18.5175C14.7491 18.5712 15.0891 18.6556 15.4391 18.6731C15.4594 18.6749 15.4799 18.6719 15.4987 18.6643C15.5176 18.6567 15.5345 18.6447 15.5478 18.6293C15.5612 18.614 15.5707 18.5956 15.5756 18.5759C15.5805 18.5561 15.5806 18.5354 15.576 18.5156C15.5704 18.485 15.5466 18.4875 15.5279 18.4831C15.2048 18.4062 14.9148 18.2562 14.6316 18.0894C14.246 17.8606 13.8373 17.71 13.3885 17.6744C13.3616 17.6719 13.336 17.6662 13.2929 17.66C13.5705 17.5367 13.8763 17.4909 14.1779 17.5275C14.501 17.5656 14.7985 17.6919 15.0998 17.8025C15.2829 17.8706 15.4691 17.9325 15.6616 17.97C15.716 17.9806 15.7498 17.9756 15.7635 17.9162C15.7716 17.8868 15.7831 17.8585 15.7979 17.8319C15.8129 17.7975 15.8085 17.7787 15.7704 17.7625C15.356 17.5944 15.0129 17.3144 14.6598 17.0506C14.3848 16.845 14.091 16.6775 13.7491 16.6112C13.7373 16.6094 13.7241 16.6069 13.7223 16.5875C14.2035 16.5156 14.6641 16.5556 15.0929 16.81C15.3723 16.9756 15.6435 17.1556 15.9548 17.2581C15.9991 17.2731 16.0473 17.3125 16.0898 17.2412C16.1541 17.1319 16.1566 17.1344 16.0479 17.0669C15.7854 16.9011 15.5518 16.6933 15.3566 16.4519C15.0629 16.0987 14.716 15.8206 14.2835 15.6556C14.2729 15.6525 14.2654 15.6431 14.2448 15.6281C14.7473 15.6125 15.1773 15.7581 15.5554 16.07C15.8085 16.2775 16.0548 16.4962 16.3541 16.6412C16.3904 16.6594 16.431 16.705 16.4679 16.6775C16.5154 16.6419 16.551 16.5875 16.586 16.5387C16.6041 16.5144 16.576 16.4994 16.561 16.4875C16.2485 16.2181 16.0185 15.8806 15.7829 15.5475C15.566 15.2406 15.3079 14.9787 14.9785 14.7912C14.9685 14.7856 14.9604 14.7775 14.9491 14.7694C15.0504 14.7487 15.2073 14.7725 15.3591 14.8231C15.6079 14.9075 15.8166 15.055 16.0041 15.2362C16.2516 15.4744 16.4685 15.7437 16.7266 15.9694C16.786 16.0219 16.8504 16.0712 16.9129 16.12C17.0023 16.1887 17.0216 16.0781 17.0729 16.0531C17.1304 16.0256 17.0854 15.9944 17.0641 15.9687C16.8441 15.7081 16.6954 15.4062 16.5529 15.1006C16.3948 14.7594 16.2154 14.4331 15.941 14.1669C15.8873 14.1131 15.8298 14.0631 15.7691 14.005C15.8454 13.9944 15.9073 14.0269 15.9698 14.0494C16.2823 14.165 16.5248 14.3687 16.721 14.6325C16.9223 14.9006 17.0916 15.1894 17.311 15.4419C17.3735 15.5137 17.4398 15.5825 17.506 15.65C17.5879 15.7331 17.6266 15.6262 17.6841 15.6044C17.7435 15.5825 17.6973 15.545 17.6816 15.5175C17.4773 15.1669 17.3735 14.7781 17.2516 14.3962C17.1366 14.0394 16.9735 13.7106 16.7154 13.4331C16.7148 13.4019 16.7316 13.4031 16.7548 13.4131" fill="#FEFE00"/>
<path fill-rule="evenodd" clip-rule="evenodd" d="M24.2054 19.6077C24.2039 20.6862 23.7742 21.7201 23.0108 22.482C22.2474 23.2439 21.2127 23.6715 20.1341 23.6708C19.6001 23.6706 19.0714 23.5651 18.5781 23.3603C18.0849 23.1556 17.6369 22.8557 17.2596 22.4777C16.8824 22.0997 16.5834 21.6511 16.3796 21.1574C16.1759 20.6638 16.0714 20.1348 16.0723 19.6008C16.0739 18.5237 16.5028 17.4912 17.2647 16.7298C18.0267 15.9684 19.0595 15.5404 20.1366 15.5396C22.3766 15.5358 24.2073 17.3677 24.2054 19.6077Z" fill="#EC1C24"/>
<path fill-rule="evenodd" clip-rule="evenodd" d="M22.7815 17.3379C22.5746 17.3386 22.3827 17.3354 22.1908 17.3523C21.4982 17.4065 20.8275 17.6204 20.2315 17.9773C20.1646 18.0186 20.1183 18.0186 20.0533 17.9692C19.6765 17.6898 19.2446 17.5411 18.7908 17.4479C18.4874 17.3866 18.1795 17.3498 17.8702 17.3379C17.7608 17.3329 17.6515 17.3367 17.5258 17.3367C18.6921 15.8711 21.2821 15.5961 22.7821 17.3379M19.0896 18.7017C18.6279 19.1148 18.2497 19.6125 17.9752 20.1679C17.6996 20.7248 17.5446 21.3111 17.5658 21.9529C17.4473 21.8396 17.3434 21.712 17.2565 21.5729C16.7446 20.7973 16.5602 19.9498 16.7071 19.0317C16.744 18.8036 16.8052 18.5836 16.8877 18.3679C16.9021 18.3286 16.9146 18.2992 16.9683 18.2992C17.6946 18.2992 18.4052 18.3792 19.0752 18.6861C19.0771 18.6867 19.0777 18.6904 19.0896 18.7017ZM22.7815 21.8748C22.7565 20.5517 22.1821 19.5092 21.1508 18.6848C21.2558 18.6448 21.349 18.6048 21.4452 18.5717C22.0052 18.3761 22.5783 18.2654 23.1746 18.2779C23.374 18.2823 23.3765 18.2798 23.4427 18.4686C23.6352 19.0173 23.6827 19.5798 23.594 20.1542C23.4998 20.7632 23.2453 21.3361 22.8565 21.8142C22.839 21.8361 22.8258 21.8654 22.7815 21.8748ZM20.1558 19.6004C20.3421 19.8604 20.4765 20.1354 20.579 20.4236C20.829 21.1286 20.9083 21.8529 20.8202 22.5961C20.8046 22.7292 20.7721 22.8604 20.7508 22.9942C20.744 23.0429 20.719 23.0561 20.6733 23.0636C20.3621 23.1136 20.0508 23.1086 19.7383 23.0817C19.6402 23.0729 19.6033 23.0367 19.5827 22.9367C19.4308 22.1686 19.4496 21.4086 19.6652 20.6561C19.7693 20.2795 19.9351 19.9228 20.1558 19.6004ZM20.8183 18.9986C21.0865 19.1954 21.3096 19.4342 21.5058 19.6979C21.9143 20.2406 22.1879 20.8725 22.304 21.5417C22.3477 21.7836 22.3602 22.0273 22.3527 22.2742C22.3508 22.2986 22.3527 22.3236 22.329 22.3392C22.2196 22.4167 22.1196 22.5086 21.9802 22.5792C22.0883 21.2167 21.5627 20.0729 20.8183 18.9986Z" fill="#FEFE00"/>
<path fill-rule="evenodd" clip-rule="evenodd" d="M18.3348 22.5874C18.2105 22.5312 18.1155 22.4468 18.0142 22.3749C17.988 22.3562 17.9867 22.3299 17.9867 22.3012C17.9605 21.123 18.3111 20.0887 19.1592 19.2455C19.2498 19.1549 19.3473 19.0737 19.4836 18.9937C18.6767 20.0712 18.2598 21.2455 18.3348 22.5874ZM19.8611 19.3249C19.1542 20.4449 18.9823 21.6605 19.1248 22.9568C19.0247 22.9187 18.9243 22.8814 18.8236 22.8449C18.783 22.8299 18.7961 22.7943 18.7942 22.7674C18.7574 22.2868 18.7843 21.8034 18.8742 21.3299C18.9711 20.7993 19.1298 20.2899 19.4086 19.8243C19.5028 19.6623 19.6208 19.5155 19.7586 19.3887C19.7892 19.363 19.8167 19.3362 19.8611 19.3249ZM21.2417 22.9274C21.4498 21.6262 21.153 20.4474 20.4848 19.348C20.5142 19.333 20.5261 19.3687 20.5417 19.3843C20.8692 19.7187 21.1005 20.1124 21.2642 20.5455C21.5342 21.2549 21.6048 21.9899 21.5373 22.7412C21.5317 22.8005 21.5136 22.8368 21.453 22.8543C21.3861 22.8724 21.3205 22.8993 21.2417 22.9274Z" fill="#FEFE00"/>
</svg>
