<svg width="40" height="40" viewBox="0 0 40 40" fill="none" xmlns="http://www.w3.org/2000/svg">
<path d="M13.75 6.25H26.25V33.75H13.75V6.25Z" fill="#FED100"/>
<path d="M6.25 6.25C2.10813 6.25 0 9.32812 0 13.125V26.875C0 30.6719 2.10813 33.75 6.25 33.75H13.75V6.25H6.25Z" fill="#2B3990"/>
<path d="M33.75 6.25H26.25V33.75H33.75C37.8919 33.75 40 30.6719 40 26.875V13.125C40 9.32812 37.8919 6.25 33.75 6.25Z" fill="#CB0000"/>
<path fill-rule="evenodd" clip-rule="evenodd" d="M18.8378 23.0052C18.6946 23.1071 18.5865 23.2458 18.4515 23.3533C18.1434 23.599 17.9515 23.9352 17.7134 24.2358C17.6509 24.3165 17.6071 24.4058 17.569 24.4996C17.5246 24.604 17.5678 24.6683 17.6465 24.7239C17.7271 24.7808 17.8609 24.7908 17.8871 24.8865C17.9084 24.9696 17.859 25.0746 17.8384 25.1696C17.799 25.3502 17.799 25.3514 17.6334 25.2608C17.5453 25.2127 17.4234 25.1814 17.3809 25.1058C17.339 25.0296 17.4078 24.9146 17.4265 24.8165C17.4328 24.7883 17.4371 24.7608 17.4221 24.7315C17.3621 24.7315 17.334 24.7827 17.2953 24.8146C17.1509 24.9352 17.089 24.9308 16.964 24.7827C16.9103 24.7177 16.8465 24.6571 16.8071 24.5852C16.7753 24.5252 16.7034 24.5708 16.6721 24.5046C16.6399 24.4347 16.6294 24.3567 16.6421 24.2808C16.6549 24.2049 16.6901 24.1345 16.7434 24.079C16.7909 24.0296 16.819 24.004 16.7459 23.9477C16.6896 23.9052 16.7121 23.8377 16.754 23.784C16.7603 23.7302 16.729 23.7471 16.7009 23.7558C16.5946 23.8814 16.5109 24.0258 16.3896 24.1402C16.3184 24.2058 16.2465 24.309 16.159 24.309C16.009 24.309 16.0096 24.4339 15.9553 24.5064C15.799 24.7127 15.649 24.9215 15.4284 25.0852C15.5103 24.5552 15.4703 24.0377 15.4778 23.5202C15.4884 22.7883 15.4803 22.0552 15.484 21.3227C15.484 21.2396 15.4696 21.1996 15.3734 21.1771C15.1871 21.1327 15.0715 20.9896 14.9659 20.8371C15.0196 20.8027 15.0715 20.7977 15.1296 20.7852C15.1034 20.7177 15.0315 20.6796 15.0153 20.6002C15.1509 20.5783 15.2815 20.5958 15.4065 20.6365C15.4715 20.6577 15.4803 20.6371 15.484 20.5789C15.4884 20.4596 15.4284 20.3652 15.3803 20.2627C15.3278 20.2802 15.3365 20.3196 15.3334 20.354C15.3303 20.439 15.289 20.494 15.2009 20.4971C15.172 20.4991 15.1435 20.4902 15.1209 20.4722C15.0983 20.4541 15.0834 20.4282 15.079 20.3996C15.0615 20.3102 15.1165 20.2665 15.1946 20.2415C15.2165 20.2346 15.2421 20.2339 15.2609 20.1927C14.9471 20.1721 14.819 19.9577 14.7334 19.6865C14.8271 19.6621 14.9065 19.7115 15.0259 19.7258C14.8984 19.5583 14.8909 19.3839 14.9153 19.1927C15.0559 19.2496 15.1596 19.3396 15.2646 19.4452C15.3115 19.374 15.3053 19.2833 15.359 19.2158C15.4153 19.2377 15.4153 19.3102 15.4646 19.3433C15.4978 19.304 15.4803 19.2571 15.4803 19.2171C15.4778 18.2983 15.4778 17.3796 15.469 16.4608C15.4678 16.2796 15.5128 16.1183 15.6053 15.9665C15.8259 15.6002 16.1234 15.3071 16.4703 15.0583C16.5321 15.014 16.569 15.0371 16.6178 15.0708C16.8759 15.249 17.0915 15.4746 17.324 15.6815C17.3371 15.6927 17.3471 15.7077 17.3603 15.7146C17.5446 15.7983 17.5546 15.9446 17.5034 16.1133C17.4907 16.1518 17.4844 16.1922 17.4846 16.2327C17.4821 16.3296 17.4571 16.4371 17.4903 16.5215C17.5259 16.6158 17.6528 16.5652 17.7359 16.5983C17.8521 16.6452 17.9671 16.6952 18.0721 16.7652C18.2671 16.8958 18.474 17.004 18.6953 17.0827C18.6996 17.1308 18.6578 17.1321 18.6303 17.1477C18.5385 17.1571 18.4461 17.1383 18.3653 17.094C18.3003 17.0358 18.2153 17.0202 18.1409 16.9815C18.1234 16.9708 18.099 16.9502 18.0765 16.974C18.0653 16.9865 18.0703 17.0046 18.0765 17.0196C18.0871 17.0427 18.1003 17.0621 18.1303 17.0583C18.1778 17.0521 18.2234 17.0321 18.2709 17.0583C18.2785 17.0629 18.2851 17.0689 18.2903 17.0761C18.2954 17.0833 18.2991 17.0915 18.3009 17.1002C18.2409 17.2633 18.0471 17.3852 17.929 17.1808C17.8865 17.109 17.8446 17.1277 17.7921 17.1721C17.6453 17.3052 17.5946 17.3002 17.4659 17.1415C17.4296 17.0983 17.3978 17.0515 17.364 17.0065C17.3296 16.9621 17.3096 16.9065 17.2453 16.864C17.1528 17.0858 17.2003 17.309 17.1934 17.5421C17.2615 17.524 17.3165 17.4652 17.3828 17.5077C17.4109 17.5296 17.4265 17.5583 17.4315 17.5927C17.4265 17.7665 17.309 17.8665 17.184 17.959C17.1353 17.9958 17.0771 17.9783 17.0246 17.9452C16.9346 17.8889 16.934 17.8921 16.9296 17.999C16.9284 18.0271 16.9296 18.0552 16.9296 18.0839C16.9296 19.4396 16.9296 20.7952 16.9271 22.1502C16.9271 22.2952 16.9753 22.4371 16.9353 22.5896C16.9615 22.5433 16.9865 22.4983 17.0278 22.4852C17.1721 22.4365 17.1934 22.309 17.2271 22.1902C17.2503 22.109 17.2703 22.0252 17.299 21.9458C17.3346 21.8458 17.3709 21.8421 17.4465 21.9239C17.464 21.9683 17.459 22.0152 17.4615 22.0621C17.4253 22.2652 17.3584 22.4602 17.304 22.6571C17.2952 22.6925 17.2941 22.7294 17.3009 22.7652C17.3078 22.8152 17.3215 22.8402 17.3859 22.8333C17.4903 22.8233 17.5296 22.8589 17.5296 22.9614C17.5314 23.0684 17.5095 23.1743 17.4655 23.2718C17.4216 23.3692 17.3566 23.4558 17.2753 23.5252C17.3115 23.5164 17.3678 23.5052 17.4071 23.5396C17.4765 23.6046 17.5034 23.5652 17.539 23.5065C17.5865 23.4271 17.6403 23.3515 17.6915 23.2746C17.7365 23.2077 17.7903 23.1452 17.7596 23.0546C17.7572 23.0423 17.759 23.0295 17.7646 23.0183C17.8528 22.8671 17.8959 22.6883 18.0403 22.5721C18.0903 22.5608 18.1246 22.5821 18.154 22.6208C18.1934 22.7265 18.1159 22.7946 18.0715 22.8833C18.1103 22.9089 18.1634 22.9215 18.1859 22.9727C18.2009 23.0083 18.2309 23.014 18.2665 23.0108C18.2924 23.0056 18.3194 23.009 18.3432 23.0205C18.367 23.032 18.3864 23.051 18.3984 23.0746C18.4296 23.1277 18.4571 23.1139 18.4909 23.0789C18.5646 23.0052 18.6278 22.9183 18.734 22.884C18.7978 22.899 18.8703 22.9052 18.8378 23.0052ZM21.3503 17.0846C21.5659 17.0108 21.7646 16.9096 21.9553 16.7846C22.1246 16.6727 22.3028 16.5771 22.5121 16.5671C22.5803 16.5639 22.5746 16.5196 22.5771 16.4752C22.581 16.2929 22.5646 16.1108 22.5284 15.9321C22.5215 15.894 22.5046 15.854 22.549 15.824C22.8265 15.6327 23.0396 15.3658 23.3109 15.1671C23.5771 14.9708 23.484 14.9821 23.7284 15.1658C24.0271 15.3908 24.2784 15.6646 24.4678 15.9915C24.5471 16.1315 24.584 16.2777 24.584 16.4414C24.579 17.8733 24.579 19.3046 24.579 20.7365C24.579 20.7796 24.5534 20.8321 24.6034 20.8683C24.624 20.8602 24.6353 20.8721 24.6471 20.8877C24.6728 20.9558 24.634 21.0121 24.6071 21.0689C24.5315 21.2321 24.4434 21.3889 24.3646 21.5508C24.4496 21.4896 24.4384 21.3458 24.564 21.3208C24.5828 21.3289 24.5946 21.3396 24.5828 21.3602C24.5815 21.8214 24.5765 22.2821 24.5765 22.7433C24.5765 23.3133 24.5784 23.8833 24.5815 24.4539C24.5815 24.6627 24.5621 24.874 24.6603 25.0908C24.5215 25.0258 24.4428 24.9277 24.3609 24.8371C24.2341 24.6954 24.1212 24.5418 24.024 24.3783C24.0021 24.3427 23.9978 24.2871 23.924 24.3283C23.9046 24.3402 23.8446 24.2865 23.8046 24.2577C23.644 24.1427 23.5284 23.9877 23.414 23.8315C23.3834 23.8202 23.3771 23.834 23.3846 23.8608C23.3728 23.9402 23.3178 23.9752 23.2334 23.9952C23.3315 24.0858 23.409 24.1846 23.4165 24.3152C23.4228 24.4121 23.4328 24.5021 23.2959 24.5515C23.2128 24.5815 23.1603 24.6946 23.0996 24.7752C23.0371 24.8589 22.9709 24.9252 22.8559 24.8852C22.799 24.8658 22.8046 24.9246 22.7784 24.9427C22.734 24.9715 22.7815 24.989 22.7971 25.004C22.8359 25.0433 22.8253 25.0733 22.784 25.1014C22.6903 25.1652 22.5978 25.2283 22.5046 25.2946C22.4521 25.3314 22.4434 25.3027 22.4421 25.2552L22.4371 24.9646C22.4371 24.9027 22.4278 24.8321 22.5284 24.8621C22.5559 24.8696 22.5653 24.8546 22.5678 24.8314C22.5709 24.7727 22.6178 24.7571 22.6409 24.7483C22.2853 24.0621 21.7984 23.4777 21.2034 22.9808C21.2096 22.8902 21.2759 22.8902 21.3409 22.8877C21.4378 22.9214 21.4803 23.0152 21.5521 23.0789C21.5971 23.1202 21.629 23.1515 21.6646 23.0708C21.6784 23.0371 21.7096 23.0033 21.7471 23.0115C21.8246 23.0302 21.8521 22.9721 21.9034 22.9396C21.9821 22.8877 21.9778 22.8508 21.9296 22.7858C21.9121 22.7635 21.9008 22.7369 21.8969 22.7088C21.8931 22.6807 21.8968 22.652 21.9078 22.6258C21.9415 22.5771 21.9853 22.5633 22.0396 22.5902C22.1603 22.7133 22.2721 22.8721 22.2884 23.0246C22.3228 23.3358 22.5634 23.5102 22.6903 23.7558C22.7371 23.8464 22.944 23.8083 23.0215 23.739C23.1303 23.639 23.099 23.5508 23.0478 23.4408C22.8579 23.0247 22.7137 22.5893 22.6178 22.1421C22.6128 22.114 22.5984 22.0896 22.5921 22.0608C22.6053 21.9746 22.5809 21.8796 22.6578 21.8102C22.7365 21.8202 22.7446 21.8871 22.7596 21.9427C22.8384 22.219 22.9084 22.4983 23.029 22.7602C23.0509 22.8077 23.0653 22.8577 23.1159 22.9139V17.9333C23.0703 17.9077 23.0546 17.9402 23.0315 17.9527C22.964 17.9927 22.9009 17.984 22.8434 17.9315C22.7703 17.8675 22.701 17.7992 22.6359 17.7271C22.5934 17.6283 22.6065 17.5446 22.7009 17.4821C22.7584 17.4583 22.794 17.5164 22.844 17.5264C22.8796 17.3427 22.8446 17.1615 22.8484 16.9808C22.8515 16.9446 22.8465 16.8983 22.8065 16.8883C22.7653 16.8771 22.7515 16.9265 22.7321 16.9533C22.6715 17.0402 22.6065 17.1221 22.5365 17.1996C22.4503 17.2933 22.3946 17.2958 22.2996 17.2115C22.1928 17.1171 22.1928 17.1171 22.0984 17.2121C22.0084 17.3033 21.9596 17.3102 21.8578 17.234C21.7996 17.1915 21.7303 17.159 21.7034 17.0846C21.744 16.9927 21.8184 17.0296 21.8771 17.0483C21.9559 17.0746 21.9896 17.0552 21.9921 16.9427C21.894 17.0346 21.7653 16.999 21.6809 17.0846C21.6057 17.1395 21.5118 17.1627 21.4196 17.1489C21.3909 17.1333 21.3496 17.1333 21.3503 17.0846ZM19.3084 25.2183C19.129 25.4921 18.9428 25.7615 18.7465 26.0227C18.6821 26.1102 18.6353 26.1365 18.5265 26.074C18.2515 25.9158 17.9609 25.7846 17.6584 25.6502C18.0671 25.4327 18.3221 25.0833 18.5646 24.7258C18.8818 24.253 19.1546 23.7519 19.3796 23.229C19.4428 23.1708 19.4909 23.2015 19.5346 23.2546C19.5553 23.3115 19.5421 23.3665 19.519 23.419C19.2503 24.039 18.9496 24.6433 18.5484 25.1921C18.4606 25.3183 18.3607 25.4357 18.2503 25.5427C18.1859 25.6008 18.219 25.6202 18.2753 25.6383C18.3609 25.6664 18.444 25.6971 18.5259 25.7308C18.5984 25.7614 18.6471 25.7433 18.6928 25.6833C19.0859 25.1646 19.4421 24.6283 19.6271 23.9952C19.6378 23.9608 19.6465 23.9258 19.664 23.8927C19.6803 23.8596 19.6953 23.8221 19.7415 23.8277C19.7815 23.834 19.8009 23.869 19.8084 23.9058C19.8234 23.9865 19.8215 24.0683 19.8134 24.149C19.7415 24.7615 19.5965 25.3571 19.329 25.9177C19.254 26.074 19.2534 26.0739 19.4065 26.1558C19.5996 26.2589 19.7834 26.3777 19.954 26.514C20.0046 26.5546 20.0465 26.5708 20.1015 26.5208C20.2796 26.3596 20.4909 26.244 20.6978 26.1265C20.7753 26.0827 20.7865 26.0408 20.7478 25.9621C20.4884 25.4271 20.3359 24.8583 20.2553 24.2696C20.2396 24.1621 20.2478 24.0521 20.2503 23.9427C20.2528 23.8983 20.2553 23.8427 20.3065 23.8333C20.3665 23.8215 20.3853 23.879 20.4021 23.9233C20.4621 24.0696 20.5028 24.2221 20.5615 24.3683C20.7496 24.849 21.0484 25.2608 21.3528 25.6715C21.4046 25.7421 21.464 25.7658 21.5503 25.7246C21.644 25.6802 21.744 25.6446 21.8628 25.6071C21.737 25.483 21.6208 25.3495 21.5153 25.2077C21.2096 24.7791 20.9461 24.322 20.7284 23.8427C20.6684 23.7114 20.6009 23.5808 20.5471 23.4458C20.5228 23.3858 20.4953 23.3265 20.5265 23.259C20.5621 23.214 20.604 23.1808 20.6653 23.2233C20.9734 23.8783 21.3046 24.5202 21.7584 25.0896C21.9321 25.3102 22.1246 25.5115 22.3896 25.6402C22.3296 25.6952 22.2534 25.7121 22.1871 25.7458C21.9521 25.8633 21.7146 25.9746 21.484 26.0971C21.4184 26.1321 21.3909 26.1214 21.3484 26.0677C21.1278 25.7883 20.9315 25.4927 20.7234 25.1789C20.704 25.2596 20.7353 25.3108 20.7528 25.3627C20.8571 25.6402 21.0028 25.8964 21.1578 26.1471C21.2053 26.2214 21.2065 26.2546 21.1234 26.3008C20.824 26.4702 20.5371 26.6577 20.2821 26.8927C20.1884 26.9808 20.104 27.0783 20.0309 27.1871C19.7546 26.7933 19.3615 26.5515 18.964 26.3171C18.8665 26.259 18.8509 26.2252 18.914 26.1233C19.0815 25.8521 19.2459 25.5783 19.334 25.2677C19.344 25.2446 19.3578 25.2171 19.3115 25.2183" fill="black"/>
<path fill-rule="evenodd" clip-rule="evenodd" d="M19.5249 23.281C19.4799 23.2597 19.4393 23.2185 19.3818 23.231C19.2418 23.1191 19.068 23.076 18.9099 22.9979C18.893 22.9885 18.8643 23.0035 18.8418 23.0072C18.8405 22.9272 18.7637 22.946 18.7243 22.9166C18.6762 22.9266 18.6293 22.9316 18.5824 22.9091C18.4768 22.8547 18.3649 22.8104 18.2568 22.7616C18.2049 22.7394 18.1638 22.6976 18.1424 22.6454C18.1124 22.6247 18.0843 22.601 18.0455 22.5979C17.9937 22.6122 17.9499 22.5929 17.9074 22.5691C17.7692 22.4945 17.6423 22.4007 17.5305 22.2904C17.4724 22.2316 17.4249 22.1704 17.4162 22.0854C17.4112 22.0304 17.4087 21.9747 17.4037 21.9197C17.3468 21.8022 17.3574 21.676 17.3574 21.5516C17.3574 20.3772 17.3599 19.2035 17.353 18.0304C17.3512 17.8866 17.398 17.7516 17.3962 17.611C17.3799 17.5747 17.3662 17.5385 17.3512 17.5022C17.3243 17.496 17.2918 17.4972 17.2712 17.4766C17.2249 17.4279 17.158 17.3754 17.173 17.3072C17.1899 17.2279 17.2768 17.2529 17.3393 17.246C17.4968 17.2291 17.658 17.2485 17.8143 17.2547C18.1055 17.2666 18.3968 17.2135 18.6843 17.2629C19.1399 17.2622 19.5974 17.246 20.053 17.2479C20.4687 17.2497 20.8855 17.2547 21.2999 17.2629C21.3605 17.2641 21.4212 17.2654 21.4824 17.256C21.6305 17.2441 21.7805 17.226 21.9268 17.2716C21.9693 17.2854 22.0062 17.2697 22.0443 17.2579C22.0787 17.2466 22.1162 17.2435 22.153 17.2466C22.3405 17.2666 22.5287 17.2472 22.7162 17.2472C22.7737 17.2472 22.8537 17.2329 22.8724 17.3054C22.8905 17.3754 22.838 17.4341 22.7793 17.4747C22.763 17.4872 22.743 17.4904 22.7224 17.4947C22.6959 17.5226 22.6766 17.5565 22.6662 17.5936C22.6559 17.6306 22.6548 17.6697 22.663 17.7072C22.7037 17.7885 22.7137 17.8747 22.7118 17.9654C22.7118 19.1741 22.7118 20.3822 22.7105 21.591C22.7105 21.6691 22.7349 21.756 22.6612 21.8191C22.6524 21.9072 22.6455 21.9954 22.6355 22.0835C22.6347 22.1236 22.6251 22.163 22.6075 22.199C22.5899 22.2351 22.5647 22.2669 22.5337 22.2922C22.3812 22.4272 22.2287 22.5604 22.0268 22.6179C21.9787 22.5847 21.9518 22.6291 21.918 22.646C21.8562 22.7654 21.7268 22.7841 21.623 22.8416C21.5362 22.8891 21.4474 22.9447 21.3387 22.9166C21.2905 22.9347 21.2412 22.946 21.2012 22.9822C21.0143 23.0429 20.8399 23.1347 20.6662 23.2254C20.6168 23.2304 20.578 23.256 20.538 23.2791C20.5232 23.3211 20.4931 23.3559 20.4537 23.3766C20.3384 23.4419 20.2321 23.522 20.1374 23.6147C20.0518 23.701 20.0049 23.6991 19.9249 23.616C19.8418 23.5338 19.7491 23.4621 19.6487 23.4022C19.6012 23.3722 19.543 23.3466 19.5249 23.281Z" fill="#F4D302"/>
<path fill-rule="evenodd" clip-rule="evenodd" d="M18.8188 17.1279C19.1788 16.896 19.2969 16.5316 19.3488 16.1385C19.3863 15.8616 19.4038 15.5829 19.3294 15.3079C19.2638 15.071 19.1075 14.9229 18.8819 14.8341C18.8213 14.8104 18.8038 14.8216 18.8044 14.8866C18.8044 14.9754 18.8013 15.0635 18.7981 15.1523C18.8125 15.181 18.795 15.1879 18.7713 15.1898C18.7213 15.1616 18.7225 15.1135 18.7225 15.0654C18.7225 14.986 18.7194 14.9066 18.7225 14.8279C18.7245 14.8043 18.7212 14.7806 18.7127 14.7586C18.7043 14.7365 18.691 14.7166 18.6738 14.7004C18.6681 14.6871 18.6647 14.6729 18.6638 14.6585C18.7163 14.516 18.7269 14.3698 18.725 14.2198C18.7225 14.1435 18.77 14.0973 18.8488 14.1048C18.9294 14.1129 19.0213 14.0666 19.0856 14.1535C19.0944 14.1798 19.0913 14.1979 19.0563 14.1916L19.02 14.191C18.7756 14.1829 18.7756 14.1829 18.8188 14.4435C18.9113 14.3973 19.0094 14.386 19.1106 14.3835C19.1719 14.3823 19.2356 14.3691 19.2631 14.3029C19.3138 14.1766 19.4231 14.1529 19.54 14.1441C19.7665 14.1233 19.9948 14.1561 20.2063 14.2398C20.475 14.3485 20.7338 14.481 21.0338 14.5598L20.9525 14.5904C20.8313 14.6391 20.8313 14.6429 20.9356 14.7291C20.9819 14.7666 21.0338 14.7991 21.0544 14.8679C21.0388 14.8729 21.0238 14.8816 21.01 14.8829C20.9238 14.8879 20.8925 14.9173 20.9488 14.9985C20.9641 15.0273 20.9731 15.0591 20.975 15.0916C20.9819 15.1354 20.9825 15.1798 20.9863 15.2291C20.9244 15.2316 20.9 15.1648 20.8375 15.1691C20.8425 15.231 20.845 15.2935 20.85 15.356C20.8544 15.421 20.8569 15.4904 20.8181 15.5441C20.6288 15.8073 20.6794 16.091 20.7475 16.3729C20.8219 16.6823 20.9569 16.9591 21.2475 17.1298L21.265 17.1291C21.3381 17.1554 21.4275 17.1591 21.4513 17.2591C21.4456 17.276 21.435 17.2854 21.4156 17.2848C21.1781 17.2766 20.935 17.2873 20.7319 17.1173C20.7425 17.1504 20.7619 17.1716 20.7688 17.1991C20.7825 17.2591 20.7725 17.2923 20.6988 17.2848C20.5363 17.2673 20.3763 17.2429 20.2556 17.1179C20.2081 17.0698 20.1781 17.0685 20.1344 17.1291C20.0519 17.2441 20.005 17.2441 19.9219 17.1341C19.88 17.0816 19.8519 17.0829 19.8044 17.121C19.6788 17.2229 19.5381 17.2866 19.37 17.2735C19.345 17.2723 19.325 17.2635 19.3125 17.2404C19.295 17.206 19.3125 17.1716 19.3144 17.1248C19.12 17.281 18.8925 17.2723 18.6694 17.286C18.645 17.281 18.6081 17.3004 18.5981 17.2623C18.5906 17.2316 18.6131 17.2073 18.6369 17.1935C18.6765 17.1668 18.7202 17.1467 18.7663 17.1341C18.7834 17.1296 18.8011 17.1275 18.8188 17.1279Z" fill="black"/>
<path fill-rule="evenodd" clip-rule="evenodd" d="M25.4063 19.8019C25.382 19.8256 25.3388 19.8325 25.3788 19.8888C25.5382 20.11 25.5357 20.1131 25.3101 20.2744C25.1945 20.355 25.1038 20.4544 25.0813 20.6013C25.0626 20.6063 25.0488 20.5963 25.0376 20.5825C24.9995 20.4669 25.0545 20.3788 25.1288 20.3019C25.1913 20.2375 25.2632 20.1869 25.3345 20.1356C25.3976 20.0906 25.3988 20.0506 25.3382 20.005C25.317 19.9813 25.2838 19.975 25.257 19.9594C25.2082 19.91 25.1382 19.925 25.0801 19.9031C25.0646 19.8967 25.0502 19.8879 25.0376 19.8769C24.9807 19.825 24.9601 19.8613 24.9545 19.9144C24.9476 19.9863 24.9545 20.0588 24.952 20.1313C24.9438 20.2894 24.8782 20.3919 24.7613 20.4263C24.7508 20.4223 24.7419 20.4148 24.7363 20.405C24.842 20.2944 24.8557 20.1569 24.8513 20.0131C24.8482 19.9613 24.8482 19.9088 24.842 19.8569C24.8313 19.7763 24.8701 19.7475 24.9457 19.7519C24.9651 19.7531 24.9851 19.7519 25.0057 19.7519C25.0907 19.75 25.202 19.7925 25.1857 19.6338C25.1845 19.625 25.2082 19.6131 25.2195 19.6031C25.2299 19.6005 25.2406 19.5988 25.2513 19.5981C25.2857 19.6594 25.2895 19.7463 25.3826 19.7594C25.3963 19.7694 25.4045 19.7844 25.4063 19.8019Z" fill="#080600"/>
<path fill-rule="evenodd" clip-rule="evenodd" d="M24.7364 20.4036L24.7695 20.4067C24.7945 20.4386 24.8264 20.4086 24.8545 20.4167C24.8688 20.4213 24.8816 20.4297 24.8914 20.4411C24.9095 20.4605 24.9245 20.458 24.937 20.4361C24.9557 20.4055 24.9757 20.3767 25.0151 20.3711C25.0332 20.373 25.0464 20.3823 25.0545 20.3973C25.0789 20.4561 24.9839 20.5173 25.0607 20.5748L25.0814 20.6011C24.9764 20.6405 24.9632 20.7736 24.8614 20.8192C24.8507 20.8261 24.842 20.8261 24.8332 20.8167C24.7932 20.7755 24.8664 20.7005 24.8082 20.6817C24.7632 20.6667 24.7576 20.7511 24.7157 20.773C24.7049 20.7788 24.6934 20.783 24.6814 20.7855C24.6702 20.7852 24.6595 20.7807 24.6514 20.773C24.6789 20.6492 24.7082 20.5267 24.7364 20.4036Z" fill="#0C0B00"/>
<path fill-rule="evenodd" clip-rule="evenodd" d="M19.0557 14.1923L19.0851 14.1698C19.0857 14.1448 19.1513 14.0992 19.0657 14.1029C18.9976 14.1054 18.9288 14.1035 18.8601 14.1048C18.8232 14.1048 18.7876 14.1042 18.7594 14.0754C18.6807 13.9979 18.7176 13.7335 18.8163 13.6704C18.8351 13.6729 18.8513 13.681 18.8426 13.7054C18.7969 13.8042 18.7801 13.9129 18.8294 14.006C18.8601 14.066 19.0907 14.0004 19.1788 13.9135C19.2119 13.9715 19.2294 14.0369 19.2297 14.1036C19.23 14.1703 19.2132 14.2359 19.1807 14.2942C19.1397 14.2594 19.098 14.2255 19.0557 14.1923Z" fill="#1A1600"/>
<path fill-rule="evenodd" clip-rule="evenodd" d="M25.4062 19.8017L25.3763 19.7817C25.3675 19.7017 25.3081 19.6567 25.2569 19.6061C25.2441 19.605 25.2314 19.6035 25.2188 19.6017C25.2381 19.4236 25.3981 19.3824 25.5225 19.2817C25.5381 19.4799 25.5519 19.658 25.4062 19.8017Z" fill="#060500"/>
<path fill-rule="evenodd" clip-rule="evenodd" d="M18.6948 14.6677C18.6954 14.6792 18.6967 14.6907 18.6985 14.7021C18.7229 14.8664 18.7635 15.0308 18.6735 15.1889C18.6123 15.1739 18.6373 15.1246 18.6373 15.0902C18.6348 14.8296 18.6354 14.5677 18.6348 14.3071C18.6348 14.2683 18.6485 14.2264 18.621 14.1902C18.526 14.1939 18.4279 14.1746 18.3367 14.2158C18.3017 14.2171 18.2998 14.1977 18.3073 14.1714C18.3754 14.1071 18.5973 14.0764 18.6673 14.1214C18.7098 14.1483 18.7223 14.1908 18.721 14.2371C18.721 14.3502 18.7298 14.4633 18.6967 14.5746C18.6879 14.6039 18.676 14.6352 18.6948 14.6677Z" fill="#0E0C00"/>
<path fill-rule="evenodd" clip-rule="evenodd" d="M18.3382 13.9924C18.6044 14.0699 18.6282 14.0518 18.6269 13.7749C18.6394 13.7499 18.6563 13.7393 18.6819 13.7549C18.7519 13.8449 18.7213 13.9443 18.7057 14.0411C18.7038 14.0599 18.6869 14.0743 18.6694 14.0855C18.5963 14.1336 18.3663 14.1018 18.305 14.0349C18.2994 14.0093 18.3019 13.9893 18.3382 13.9924Z" fill="#252000"/>
<path fill-rule="evenodd" clip-rule="evenodd" d="M18.6208 14.1904C18.6633 14.2248 18.6489 14.2723 18.6489 14.3148C18.6508 14.5611 18.6489 14.8079 18.6508 15.0548C18.6508 15.0979 18.6414 15.1442 18.6683 15.1842C18.7096 15.2523 18.6696 15.2798 18.6121 15.2986C18.5983 15.2975 18.5853 15.2918 18.5752 15.2823C18.6064 15.2457 18.6244 15.1997 18.6264 15.1517C18.6239 14.8304 18.6239 14.5104 18.6208 14.1904Z" fill="#322A00"/>
<path fill-rule="evenodd" clip-rule="evenodd" d="M24.833 20.8184L24.8611 20.8202L24.5799 21.3621C24.5717 21.3521 24.5636 21.3427 24.5574 21.3321C24.5211 21.2059 24.7061 20.8627 24.833 20.8184Z" fill="#241E00"/>
<path fill-rule="evenodd" clip-rule="evenodd" d="M18.3385 13.9923L18.3085 14.0141C18.3054 14.0741 18.3054 14.1341 18.3098 14.1948L18.3366 14.2154L18.2673 14.2954C18.1898 14.1629 18.1898 14.0523 18.266 13.916C18.2904 13.9423 18.3135 13.9673 18.3385 13.9923Z" fill="#272000"/>
<path fill-rule="evenodd" clip-rule="evenodd" d="M18.6545 13.7417C18.6457 13.7531 18.6367 13.7643 18.6276 13.7754C18.6145 13.7229 18.5695 13.6917 18.5264 13.6429C18.6276 13.5867 18.7301 13.5917 18.832 13.6086C18.8564 13.6129 18.8957 13.6161 18.8995 13.6479C18.9026 13.6786 18.8651 13.6873 18.8426 13.7042C18.8363 13.695 18.8292 13.6865 18.8214 13.6786C18.7639 13.6917 18.7001 13.6954 18.6545 13.7417Z" fill="#201B00"/>
<path fill-rule="evenodd" clip-rule="evenodd" d="M18.5762 15.2817L18.6144 15.2861C18.6794 15.3067 18.7431 15.343 18.8169 15.3142C18.8325 15.3211 18.8462 15.3299 18.8425 15.3511L18.7156 15.5042C18.6706 15.4392 18.6344 15.3692 18.5606 15.3299C18.525 15.3105 18.5587 15.2949 18.5762 15.2817Z" fill="#221C00"/>
<path fill-rule="evenodd" clip-rule="evenodd" d="M18.8193 17.1281C18.8112 17.1356 18.8043 17.1438 18.7943 17.1513C18.7393 17.13 18.6568 17.2131 18.623 17.1069L18.6962 17.0825C18.7405 17.0866 18.783 17.1023 18.8193 17.1281Z" fill="#3B2E0B"/>
<path fill-rule="evenodd" clip-rule="evenodd" d="M24.6509 20.7749H24.6777C24.7121 20.8387 24.7034 20.8837 24.624 20.8955L24.5996 20.8705C24.6072 20.8344 24.625 20.8012 24.6509 20.7749Z" fill="#050400"/>
<path fill-rule="evenodd" clip-rule="evenodd" d="M18.7754 15.1841L18.7998 15.1528C18.8179 15.1947 18.8229 15.2441 18.8579 15.2791C18.8473 15.2897 18.8361 15.2966 18.8204 15.2966C18.7598 15.2772 18.7354 15.2447 18.7754 15.1841Z" fill="#020200"/>
<path fill-rule="evenodd" clip-rule="evenodd" d="M18.8183 15.2812L18.8539 15.2793C18.9095 15.3174 18.9095 15.3174 18.8402 15.3512C18.8295 15.3437 18.8208 15.3362 18.8108 15.328C18.8014 15.3099 18.802 15.2943 18.8183 15.2812Z" fill="#3C3200"/>
<path fill-rule="evenodd" clip-rule="evenodd" d="M21.3499 17.085L21.4237 17.1087C21.3762 17.2068 21.3087 17.1387 21.248 17.1281L21.2499 17.1293C21.2724 17.0925 21.3155 17.0981 21.3499 17.085Z" fill="#3A2E09"/>
<path fill-rule="evenodd" clip-rule="evenodd" d="M16.7021 23.7561C16.7346 23.7318 16.7684 23.7361 16.8084 23.7361C16.7996 23.7686 16.7746 23.7736 16.7553 23.7843C16.7465 23.7611 16.7196 23.7643 16.7021 23.7561Z" fill="#997E00"/>
<path fill-rule="evenodd" clip-rule="evenodd" d="M23.3817 23.8625C23.3673 23.835 23.3517 23.8075 23.3661 23.7744C23.3942 23.7844 23.4036 23.8069 23.4111 23.8332C23.4004 23.8425 23.3917 23.8525 23.3817 23.8625Z" fill="#B89800"/>
<path fill-rule="evenodd" clip-rule="evenodd" d="M19.3086 25.2187C19.3148 25.2018 19.3292 25.1712 19.3405 25.1812C19.3698 25.2074 19.353 25.2405 19.3317 25.2687C19.3242 25.2512 19.3155 25.2355 19.3086 25.2187Z" fill="#AD8F00"/>
<path fill-rule="evenodd" clip-rule="evenodd" d="M17.3956 17.6123C17.4281 17.6736 17.4031 17.7392 17.4031 17.8017C17.4056 19.0829 17.4056 20.3636 17.4031 21.6442C17.4031 21.7361 17.4219 21.8298 17.4031 21.9211C17.3875 21.9048 17.3769 21.8567 17.3594 21.9229C17.31 22.1023 17.2587 22.2804 17.2037 22.4579C17.1931 22.4904 17.1994 22.5767 17.1225 22.4967C17.0931 22.4661 17.0737 22.5123 17.0587 22.5298C16.9994 22.5948 16.9456 22.6642 16.8906 22.7323V17.7586C16.9519 17.8129 17.0031 17.8604 17.0562 17.9061C17.0769 17.9236 17.0906 17.9548 17.1244 17.9473C17.1869 17.9354 17.3875 17.6842 17.3956 17.6123Z" fill="#AF7E55"/>
<path fill-rule="evenodd" clip-rule="evenodd" d="M16.6312 21.534L16.6031 21.4203C16.5475 21.229 16.5475 21.229 16.4006 21.3378C16.2387 21.2334 16.275 21.0721 16.275 20.9209L16.2743 17.9096V17.7603C16.3556 17.7928 16.3993 17.8515 16.4468 17.9003C16.4925 17.9471 16.5268 17.954 16.5731 17.9015C16.6181 17.8509 16.6712 17.8078 16.7218 17.7609C16.7631 17.7978 16.7475 17.8365 16.7475 17.8703C16.7475 19.0278 16.7475 20.1859 16.75 21.3428C16.7506 21.4328 16.7237 21.4915 16.6312 21.534Z" fill="#AF7E54"/>
<path fill-rule="evenodd" clip-rule="evenodd" d="M15.6942 17.7693C15.7679 17.8312 15.8329 17.9268 15.9048 17.9349C15.9804 17.943 16.0329 17.8262 16.1054 17.7755C16.1098 17.7718 16.1186 17.7737 16.1354 17.7712V20.3437C16.0679 20.2418 16.0679 20.2418 15.9186 20.3855C15.8617 20.2518 15.8411 20.0987 15.6923 20.023C15.6698 20.0112 15.6754 19.9799 15.6754 19.9555C15.6754 19.2362 15.6754 18.5162 15.6773 17.7968C15.6773 17.7899 15.6854 17.7837 15.6942 17.7693ZM16.5742 16.3749C16.4986 16.2599 16.4286 16.1612 16.3654 16.058C16.3123 15.9737 16.3286 15.8887 16.3767 15.8074C16.3886 15.7874 16.4254 15.763 16.3779 15.7399C16.3461 15.7243 16.3242 15.7387 16.3086 15.7668C16.2954 15.7949 16.2686 15.8243 16.2686 15.8537C16.2686 16.0337 16.1192 16.1093 16.0217 16.223C15.9911 16.2599 15.9704 16.2493 15.9523 16.2099C15.9242 16.1437 15.8923 16.078 15.8611 16.0124C15.8404 15.9718 15.8592 15.943 15.8829 15.9137C16.0554 15.6924 16.2598 15.5043 16.4798 15.3312C16.5198 15.2999 16.5479 15.3024 16.5854 15.3349C16.7967 15.5174 16.9986 15.7099 17.2429 15.8499C17.2823 15.873 17.2823 15.9087 17.2823 15.9449C17.2854 16.1149 17.2854 16.2849 17.2886 16.4543C17.2886 16.5405 17.2517 16.5305 17.2011 16.493C17.09 16.4046 16.9942 16.2986 16.9173 16.1793C16.8804 16.1249 16.8954 16.0637 16.9173 16.0055C16.9286 15.9805 16.9698 15.9499 16.9117 15.9312C16.8586 15.9143 16.8404 15.9618 16.8379 15.9899C16.8204 16.1624 16.6767 16.2412 16.5742 16.3749ZM16.0054 23.0312C16.0123 23.103 16.0529 23.1493 16.0842 23.1999C16.1792 23.3537 16.1767 23.3637 16.0204 23.4343C16.0436 23.5024 16.1492 23.5062 16.1448 23.5993C16.1379 23.7474 16.1611 23.8974 16.0767 24.0355C15.9717 24.2037 15.8623 24.363 15.7029 24.4862C15.6661 24.453 15.6773 24.4193 15.6773 24.3893C15.6767 23.7468 15.6773 23.1037 15.6754 22.4618C15.6754 22.363 15.6923 22.3362 15.7842 22.3949C15.8605 22.4428 15.9511 22.4627 16.0404 22.4512C16.1304 22.4412 16.1492 22.4805 16.1461 22.5612C16.1379 22.6702 16.1379 22.7797 16.1461 22.8887C16.1561 22.9937 16.1379 23.0618 16.0054 23.0312Z" fill="#AF7E55"/>
<path fill-rule="evenodd" clip-rule="evenodd" d="M17.4148 22.0811C17.581 22.3061 17.8085 22.4548 18.046 22.5936C17.9716 22.7561 17.8816 22.9079 17.7841 23.0586C17.8035 23.0979 17.8648 23.0554 17.8691 23.0942C17.8716 23.1198 17.8423 23.1517 17.8266 23.1773L17.4723 23.6992C17.4216 23.5479 17.3691 23.5254 17.2341 23.5942C17.1954 23.6136 17.1566 23.6429 17.1035 23.6104C17.1141 23.5673 17.1548 23.5554 17.1854 23.5348C17.3798 23.3954 17.4804 23.2092 17.4816 22.9692C17.4829 22.8442 17.4754 22.8386 17.3641 22.8867C17.3354 22.8979 17.3054 22.9123 17.2741 22.9261C17.1879 22.6179 17.3635 22.3592 17.4173 22.0811" fill="#FED100"/>
<path fill-rule="evenodd" clip-rule="evenodd" d="M17.2773 24.3093C17.3011 24.1999 17.3936 24.1574 17.4148 24.0593C17.238 24.1055 17.0561 24.0855 16.9042 24.1961C16.8774 24.2155 16.8467 24.2305 16.8192 24.1936C16.7955 24.158 16.8117 24.1286 16.8361 24.108C16.9473 24.0124 17.0599 23.9174 17.2236 23.9493C17.3586 23.9761 17.448 23.9299 17.5217 23.8055C17.648 23.5855 17.7942 23.3761 17.9336 23.1649C17.9567 23.128 17.9723 23.0843 18.0186 23.0674C18.0567 23.0805 18.0467 23.1149 18.0511 23.138C18.0642 23.2436 18.1023 23.2774 18.1917 23.1961C18.2567 23.1355 18.2761 23.1749 18.2836 23.2411C18.2905 23.293 18.2567 23.3236 18.2324 23.3586C18.0461 23.613 17.8592 23.8668 17.6717 24.1199C17.6067 24.2086 17.5448 24.2961 17.5136 24.4036C17.5086 24.4243 17.5117 24.4599 17.4786 24.4586C17.4386 24.4586 17.4173 24.4211 17.4205 24.393C17.4273 24.2905 17.3911 24.2561 17.2773 24.3093Z" fill="#D00429"/>
<path fill-rule="evenodd" clip-rule="evenodd" d="M18.6221 17.1066C18.6734 17.1472 18.744 17.1053 18.7934 17.1509C18.734 17.1872 18.6753 17.2234 18.604 17.2653L18.6728 17.2772V17.2941H17.1846L17.3496 17.5009L17.1715 17.6441C17.1071 17.3847 17.1515 16.9053 17.2584 16.7578C17.3584 16.9022 17.4484 17.0484 17.564 17.1759C17.6196 17.2347 17.6653 17.2891 17.719 17.1759C17.7296 17.1547 17.7509 17.1391 17.7678 17.1228C17.8853 17.0141 17.8853 17.0147 17.9671 17.1447C18.0503 17.2778 18.0628 17.2803 18.1796 17.1859C18.2128 17.1584 18.2496 17.1309 18.2828 17.1041C18.2934 17.0772 18.3065 17.0522 18.3409 17.0522L18.3571 17.0516L18.6221 17.1066Z" fill="#AE7E54"/>
<path fill-rule="evenodd" clip-rule="evenodd" d="M18.1379 22.6436L18.7197 22.9148C18.6329 23.0061 18.5491 23.0967 18.4622 23.1861C18.4416 23.2073 18.3954 23.2573 18.3872 23.1923C18.366 23.0261 18.2947 23.0142 18.1597 23.1242C18.1635 22.9661 18.116 22.8923 17.9385 22.9823C18.0254 22.8504 18.101 22.7567 18.1379 22.6436Z" fill="#AF7E54"/>
<path fill-rule="evenodd" clip-rule="evenodd" d="M15.6748 16.9313C15.7036 16.6519 15.6298 16.3906 15.7342 16.1294C15.9517 16.42 15.9342 16.7375 15.6748 16.9313Z" fill="#AD7D53"/>
<path fill-rule="evenodd" clip-rule="evenodd" d="M16.2568 16.2021C16.5525 16.5434 16.5537 16.789 16.2568 16.9503V16.2021Z" fill="#AB7C53"/>
<path fill-rule="evenodd" clip-rule="evenodd" d="M16.8739 23.4165C16.6626 23.509 16.3051 23.3983 16.1964 23.209C16.1539 23.1346 16.2133 23.1483 16.2489 23.1483C16.4514 23.1465 16.6289 23.2102 16.782 23.3433C16.8133 23.3702 16.8451 23.394 16.8751 23.419L16.8739 23.4165ZM17.0251 23.2621C16.8714 23.0446 16.882 22.8546 17.0408 22.6715C17.0851 22.6177 17.1089 22.6265 17.1301 22.6852C17.1814 22.8408 17.2539 22.9984 17.0939 23.1402C17.0639 23.1665 17.0501 23.2146 17.0251 23.2621Z" fill="#097553"/>
<path fill-rule="evenodd" clip-rule="evenodd" d="M16.1699 16.9499C15.8699 16.8068 15.8606 16.4486 16.1699 16.2549V16.9499Z" fill="#AF7E54"/>
<path fill-rule="evenodd" clip-rule="evenodd" d="M16.8574 16.9874V16.3105C16.958 16.4387 17.0355 16.5649 17.1562 16.6505C17.1893 16.6737 17.1605 16.7024 17.143 16.723C17.0637 16.8187 16.9862 16.9162 16.8574 16.9874Z" fill="#AD7D54"/>
<path fill-rule="evenodd" clip-rule="evenodd" d="M16.7152 23.1811C16.594 23.1386 16.4705 23.1033 16.3452 23.0755C16.2802 23.0624 16.2352 22.9174 16.2877 22.8955C16.4064 22.848 16.4296 22.7542 16.4346 22.6436L16.4677 22.6417C16.5502 22.8217 16.6314 23.0011 16.7152 23.1811ZM16.7652 16.9499C16.4921 16.793 16.4539 16.5549 16.7652 16.3442V16.9499Z" fill="#AC7C53"/>
<path fill-rule="evenodd" clip-rule="evenodd" d="M16.7101 21.6221C16.7689 21.8402 16.7614 22.0283 16.6245 22.1958C16.6095 22.2158 16.5914 22.2471 16.5608 22.2408C16.5258 22.2352 16.5301 22.1971 16.5226 22.1727C16.4739 21.9608 16.5476 21.7877 16.7101 21.6221Z" fill="#097553"/>
<path fill-rule="evenodd" clip-rule="evenodd" d="M16.875 23.4192C16.7637 23.1692 16.6525 22.9198 16.5437 22.6686C16.5131 22.5954 16.4906 22.5186 16.46 22.4292C16.5506 22.4929 17.0643 23.5948 17.0912 23.7673C16.9793 23.6623 16.9562 23.5217 16.875 23.4167L16.8762 23.4192" fill="#EECE02"/>
<path fill-rule="evenodd" clip-rule="evenodd" d="M17.9769 16.8548C17.8657 16.936 17.7426 16.9848 17.6588 17.0835C17.6394 17.1054 17.6219 17.0941 17.6082 17.0779C17.5964 17.0664 17.5863 17.0534 17.5782 17.0391C17.5369 16.9579 17.4469 16.8523 17.4863 16.7923C17.5326 16.7229 17.6632 16.7579 17.7588 16.771C17.8371 16.7815 17.9118 16.8102 17.9769 16.8548Z" fill="#AE7D54"/>
<path fill-rule="evenodd" clip-rule="evenodd" d="M15.9555 17.6435C15.9523 17.6216 15.9492 17.6035 15.9492 17.5847V17.0522C16.2373 17.1985 16.268 17.4704 15.9555 17.6435Z" fill="#AF7E54"/>
<path fill-rule="evenodd" clip-rule="evenodd" d="M16.5605 17.656V17.0635C16.8462 17.186 16.8543 17.4147 16.5605 17.656Z" fill="#AE7D54"/>
<path fill-rule="evenodd" clip-rule="evenodd" d="M15.8676 17.0435V17.6553C15.7864 17.5891 15.6908 17.556 15.6783 17.4466C15.6533 17.2203 15.6758 17.1735 15.8676 17.0435Z" fill="#A87951"/>
<path fill-rule="evenodd" clip-rule="evenodd" d="M16.4619 17.0435V17.631C16.2044 17.5028 16.1306 17.2522 16.4619 17.0435Z" fill="#AD7D54"/>
<path fill-rule="evenodd" clip-rule="evenodd" d="M16.0381 20.4497C16.1725 20.6797 16.1531 20.8641 15.9825 21.0397C15.8613 20.886 15.8819 20.6491 16.0381 20.4497Z" fill="#097553"/>
<path fill-rule="evenodd" clip-rule="evenodd" d="M15.9384 21.481L16.1578 21.961C16.0028 21.8703 15.8715 21.8328 15.7271 21.8485C15.6571 21.856 15.6784 21.7966 15.6803 21.7635C15.6803 21.7347 15.659 21.6716 15.7146 21.6822C15.8853 21.7191 15.9028 21.6103 15.9096 21.486L15.9384 21.481Z" fill="#AE7D54"/>
<path fill-rule="evenodd" clip-rule="evenodd" d="M17.792 24.9669C17.7901 24.9748 17.7875 24.9825 17.7845 24.9901C17.7382 25.2238 17.7407 25.2182 17.5345 25.1063C17.4482 25.0601 17.4782 25.0038 17.492 24.9451C17.5307 24.7626 17.5332 24.7613 17.6957 24.8544C17.7382 24.8794 17.8145 24.8832 17.792 24.9669Z" fill="#F1D002"/>
<path fill-rule="evenodd" clip-rule="evenodd" d="M17.0669 17.069V17.6621C16.9756 17.5565 16.8538 17.5178 16.8469 17.3571C16.84 17.1934 16.9975 17.1715 17.0413 17.0571L17.0669 17.069Z" fill="#AE7E54"/>
<path fill-rule="evenodd" clip-rule="evenodd" d="M16.3067 22.3385C16.0723 22.4398 15.8792 22.4141 15.7305 22.2679C15.9236 22.1616 16.1173 22.1835 16.3067 22.3385Z" fill="#097552"/>
<path fill-rule="evenodd" clip-rule="evenodd" d="M16.2139 23.4666C16.4126 23.4566 16.5826 23.4554 16.7439 23.5385C16.772 23.5529 16.8107 23.5685 16.8107 23.6029C16.8082 23.6422 16.7614 23.641 16.7332 23.6485C16.5351 23.6985 16.3689 23.6466 16.2139 23.4666Z" fill="#097553"/>
<path fill-rule="evenodd" clip-rule="evenodd" d="M16.4357 21.9935C16.2688 21.841 16.2794 21.5772 16.4438 21.4554C16.4794 21.4304 16.4957 21.441 16.5088 21.471C16.5482 21.5641 16.5657 21.6604 16.5144 21.7516C16.4719 21.8254 16.4326 21.8985 16.4357 21.9935Z" fill="#097653"/>
<path fill-rule="evenodd" clip-rule="evenodd" d="M16.2175 22.1835C16.1365 22.1468 16.0482 22.1289 15.9593 22.131C15.885 22.1354 15.7562 22.0198 15.7418 21.9485C15.7275 21.8773 15.7837 21.8917 15.8181 21.8929C16.0068 21.9042 16.1387 22.0104 16.2456 22.1542C16.2512 22.1779 16.2437 22.1904 16.2175 22.1835ZM17.3918 22.9504C17.3762 23.1435 17.3587 23.3023 17.2062 23.4048C17.18 23.4217 17.1481 23.4423 17.1181 23.4242C17.0837 23.4054 17.0931 23.3654 17.0975 23.336C17.1156 23.1623 17.2312 23.0623 17.3918 22.9504ZM15.2556 19.7192C15.2681 19.8092 15.2275 19.7885 15.1875 19.7692C15.1261 19.7342 15.076 19.6825 15.043 19.62C15.01 19.5576 14.9955 19.4871 15.0012 19.4167C15.0106 19.3479 15.0443 19.3635 15.085 19.3848C15.2218 19.461 15.2525 19.591 15.2556 19.7192Z" fill="#097452"/>
<path fill-rule="evenodd" clip-rule="evenodd" d="M16.563 23.7562L16.2749 24.0268C16.2749 23.9025 16.273 23.79 16.2768 23.6775C16.2774 23.6262 16.3155 23.6531 16.3368 23.6618C16.4068 23.6893 16.4768 23.72 16.563 23.7562Z" fill="#A67850"/>
<path fill-rule="evenodd" clip-rule="evenodd" d="M14.873 19.7915C15.0449 19.8034 15.1649 19.8565 15.2249 20.0003C15.2362 20.0246 15.2587 20.0528 15.2355 20.0778C15.2149 20.1028 15.183 20.0934 15.1555 20.0846C15.018 20.0384 14.9455 19.9309 14.873 19.7915Z" fill="#097452"/>
<path fill-rule="evenodd" clip-rule="evenodd" d="M15.6318 21.1211C15.3761 21.1317 15.2718 21.0867 15.1768 20.9342C15.2626 20.9139 15.3527 20.921 15.4343 20.9545C15.5159 20.988 15.585 21.0463 15.6318 21.1211Z" fill="#097351"/>
<path fill-rule="evenodd" clip-rule="evenodd" d="M15.6113 20.8792C15.415 20.8748 15.2556 20.8242 15.1406 20.6723C15.2931 20.6186 15.4813 20.6979 15.6113 20.8792Z" fill="#097251"/>
<path fill-rule="evenodd" clip-rule="evenodd" d="M15.4306 19.921C15.3803 19.8497 15.3505 19.7661 15.3441 19.6791C15.3377 19.5922 15.355 19.5051 15.3943 19.4272C15.5174 19.5504 15.5306 19.7172 15.4306 19.921Z" fill="#097452"/>
<path fill-rule="evenodd" clip-rule="evenodd" d="M18.2563 17.0774C18.2375 17.0824 18.2169 17.0849 18.1982 17.0918C18.0432 17.1543 18.0394 17.1524 18.0125 16.9862C18.004 16.9436 17.9975 16.9006 17.9932 16.8574C18.1257 16.9255 18.2513 16.9674 18.3563 17.0524L18.3569 17.0549C18.3275 17.0793 18.2888 17.0655 18.2563 17.0774Z" fill="#A97A52"/>
<path fill-rule="evenodd" clip-rule="evenodd" d="M16.0183 21.4185C16.142 21.6485 16.2714 21.8766 16.3558 22.1272L16.3089 22.1497C16.1964 21.9147 16.0858 21.6791 15.9727 21.4435C15.9889 21.4347 16.0033 21.426 16.0183 21.4185Z" fill="#EBCB02"/>
<path fill-rule="evenodd" clip-rule="evenodd" d="M17.2944 24.5186C17.3356 24.5311 17.3688 24.5623 17.34 24.6042C17.2847 24.6825 17.2119 24.7469 17.1275 24.7923C17.0844 24.8167 17.0513 24.7829 17.0469 24.7348C17.0444 24.6936 17.2481 24.5167 17.2944 24.5186Z" fill="#C90428"/>
<path fill-rule="evenodd" clip-rule="evenodd" d="M17.1464 24.3936C17.2477 24.4123 17.2627 24.4586 17.1858 24.5292C17.1412 24.5704 17.0949 24.6098 17.047 24.6473C16.9695 24.7067 16.9295 24.6817 16.9258 24.5867C16.9395 24.5364 16.9677 24.4912 17.007 24.4568C17.0462 24.4225 17.0947 24.4005 17.1464 24.3936Z" fill="#C50427"/>
<path fill-rule="evenodd" clip-rule="evenodd" d="M16.8937 24.556C16.8024 24.5304 16.798 24.4817 16.8593 24.4192C16.9027 24.3775 16.9484 24.3383 16.9962 24.3017C17.0737 24.2417 17.1024 24.2579 17.118 24.3648C17.0574 24.4448 16.9962 24.5242 16.8937 24.556Z" fill="#CC0428"/>
<path fill-rule="evenodd" clip-rule="evenodd" d="M15.8187 20.7559C15.7205 20.5865 15.7012 20.4459 15.7918 20.2803C15.8912 20.4359 15.8687 20.5796 15.8187 20.7559Z" fill="#097250"/>
<path fill-rule="evenodd" clip-rule="evenodd" d="M15.6752 21.3312C15.6808 21.2612 15.6477 21.168 15.754 21.173C15.8471 21.1768 15.8615 21.2818 15.8652 21.3424C15.8721 21.4218 15.774 21.4455 15.714 21.4455C15.6315 21.4443 15.7002 21.3624 15.6752 21.3312Z" fill="#AC7C53"/>
<path fill-rule="evenodd" clip-rule="evenodd" d="M15.4775 20.3213C15.5463 20.3263 15.56 20.3688 15.5769 20.4013C15.64 20.5263 15.7025 20.6532 15.7632 20.7788C15.7713 20.7957 15.7794 20.8188 15.7619 20.8344C15.7413 20.8519 15.7219 20.8382 15.7113 20.8207C15.6136 20.6642 15.5351 20.4965 15.4775 20.3213Z" fill="#EBCB02"/>
<path fill-rule="evenodd" clip-rule="evenodd" d="M16.7416 22.1943C16.7547 22.3412 16.7191 22.4037 16.6185 22.4206C16.5897 22.4256 16.561 22.4275 16.5472 22.3931C16.5347 22.3631 16.561 22.3525 16.5785 22.3368L16.7416 22.1943Z" fill="#A0734D"/>
<path fill-rule="evenodd" clip-rule="evenodd" d="M16.1448 21.0181V21.2049C16.1448 21.2437 16.1379 21.2762 16.0911 21.2843C16.0604 21.2906 16.0392 21.2824 16.0229 21.2524C16.0067 21.2174 15.9992 21.1874 16.0298 21.1556C16.0642 21.1193 16.0954 21.0781 16.1448 21.0181Z" fill="#A2754E"/>
<path fill-rule="evenodd" clip-rule="evenodd" d="M16.275 22.525C16.2788 22.4819 16.2619 22.4282 16.33 22.4232C16.3925 22.4182 16.405 22.4757 16.4069 22.5119C16.4119 22.5719 16.3557 22.6075 16.3063 22.6088C16.2507 22.6113 16.2875 22.5525 16.275 22.525Z" fill="#A0744D"/>
<path fill-rule="evenodd" clip-rule="evenodd" d="M16.6094 22.5312C16.7575 22.5756 16.7656 22.6719 16.7438 22.7938C16.6781 22.7169 16.6556 22.6288 16.6094 22.5312Z" fill="#9B704B"/>
<path fill-rule="evenodd" clip-rule="evenodd" d="M15.6882 21.9937C15.7426 22.053 15.7807 22.0962 15.8289 22.148C15.7764 22.1593 15.722 22.208 15.6951 22.1812C15.6551 22.1393 15.6764 22.0705 15.6882 21.9937Z" fill="#A77851"/>
<path fill-rule="evenodd" clip-rule="evenodd" d="M17.3917 23.8062C17.2736 23.9069 17.2092 23.8825 17.1748 23.73C17.2398 23.7775 17.2992 23.8231 17.3917 23.8062Z" fill="#E9C000"/>
<path fill-rule="evenodd" clip-rule="evenodd" d="M16.8936 24.556L17.1179 24.3647C17.1273 24.3741 17.1354 24.3829 17.1461 24.3922L16.9248 24.586C16.9148 24.5755 16.9044 24.5655 16.8936 24.556Z" fill="#200106"/>
<path fill-rule="evenodd" clip-rule="evenodd" d="M16.8877 24.3079C16.8908 24.2442 16.9239 24.2154 16.9921 24.2017C16.9802 24.2723 16.9321 24.2892 16.8877 24.3079Z" fill="#BA0424"/>
<path fill-rule="evenodd" clip-rule="evenodd" d="M16.9812 23.9188C16.9724 23.8581 16.9605 23.8206 16.9812 23.77C17.0018 23.8194 17.0505 23.8544 16.9812 23.9188Z" fill="#E1B900"/>
<path fill-rule="evenodd" clip-rule="evenodd" d="M16.1025 21.4121C16.1482 21.4271 16.15 21.4496 16.1413 21.4802C16.1125 21.469 16.1088 21.4471 16.1025 21.4121Z" fill="#745438"/>
<path fill-rule="evenodd" clip-rule="evenodd" d="M16.2168 22.1837L16.2449 22.1543C16.2637 22.168 16.2955 22.1862 16.2749 22.208C16.2599 22.2255 16.2343 22.2005 16.2168 22.1837Z" fill="#06543B"/>
<path fill-rule="evenodd" clip-rule="evenodd" d="M18.2568 17.0773C18.2856 17.0504 18.3218 17.0561 18.3575 17.0542C18.3328 17.0713 18.3077 17.088 18.2825 17.1042C18.2731 17.0954 18.2662 17.0861 18.2568 17.0773Z" fill="#302317"/>
<path fill-rule="evenodd" clip-rule="evenodd" d="M22.6626 21.8174C22.6613 21.0937 22.6582 20.3699 22.6582 19.6456C22.6582 18.9987 22.6613 18.3524 22.6645 17.7056C22.6738 17.7118 22.6851 17.7181 22.6926 17.7256C22.7701 17.7968 22.837 17.9018 22.9276 17.9306C23.0226 17.9606 23.0663 17.8081 23.1682 17.7681V23.0737C23.0776 23.0106 23.0426 22.9206 23.002 22.8374C22.8713 22.5593 22.7907 22.2618 22.7076 21.9662C22.6957 21.9162 22.6776 21.8674 22.6626 21.8174ZM23.462 23.1056C23.4226 23.1502 23.3734 23.1851 23.3182 23.2074V17.7693C23.3701 17.7806 23.4032 17.8193 23.4301 17.8543C23.512 17.9637 23.5845 17.9499 23.662 17.8499C23.6863 17.8187 23.7201 17.7949 23.7501 17.7687C23.7913 17.7843 23.7763 17.8181 23.7763 17.8424V22.4187C23.7763 22.4506 23.7726 22.4831 23.7688 22.5149C23.7645 22.5537 23.7707 22.5924 23.7513 22.6312C23.6801 22.7743 23.5951 22.9093 23.5257 23.0531C23.5113 23.0775 23.4887 23.0961 23.462 23.1056Z" fill="#AF7F55"/>
<path fill-rule="evenodd" clip-rule="evenodd" d="M23.9187 22.031C23.9175 21.9992 23.9131 21.9673 23.9131 21.9354V17.8692C23.9131 17.8373 23.9156 17.806 23.9187 17.7485C23.9837 17.8085 24.04 17.8529 24.0881 17.9042C24.1318 17.9504 24.1631 17.9467 24.205 17.9023C24.2512 17.8523 24.3037 17.8092 24.3543 17.7635C24.3937 17.7935 24.3775 17.8285 24.3775 17.8579C24.3787 18.9748 24.3775 20.091 24.3806 21.2085C24.3806 21.356 24.2893 21.4642 24.2306 21.5854C24.1637 21.7204 24.0268 21.8154 24.0043 21.9785C24.0012 21.9998 23.9631 22.0154 23.9418 22.0323C23.9343 22.0479 23.9268 22.0479 23.9187 22.031Z" fill="#AF7E55"/>
<path fill-rule="evenodd" clip-rule="evenodd" d="M22.0254 22.6187C22.0829 22.5231 22.191 22.4968 22.2741 22.4381C22.4171 22.3466 22.5395 22.2263 22.6335 22.085C22.7229 22.3775 22.8116 22.67 22.9035 22.9606C22.9735 23.1793 23.0691 23.3887 23.1673 23.5956C23.1941 23.6481 23.2085 23.6775 23.131 23.6956C23.0385 23.7181 23.0329 23.7993 23.0454 23.8918C22.9704 23.8606 22.9085 23.8468 22.8454 23.8606C22.7279 23.8881 22.661 23.8387 22.5979 23.7406C22.466 23.5243 22.3216 23.3143 22.1741 23.0925L22.2754 23.0737C22.1854 22.9225 22.0885 22.7793 22.0254 22.6187Z" fill="#FED100"/>
<path fill-rule="evenodd" clip-rule="evenodd" d="M24.0894 22.3262C24.1813 22.2412 24.2232 22.1193 24.3082 22.0312C24.3601 21.9793 24.2976 21.9031 24.3713 21.8456V24.4824C24.3357 24.4956 24.3176 24.4612 24.2976 24.4412C24.0569 24.2056 23.8757 23.9518 23.9101 23.5818C23.9382 23.2724 23.9219 22.9593 23.9244 22.6481C23.9253 22.5853 23.9407 22.5237 23.9693 22.4678C23.9979 22.412 24.039 22.3635 24.0894 22.3262ZM24.0732 16.2687C23.9688 16.1231 23.7863 16.0556 23.7888 15.8524C23.7888 15.8268 23.7676 15.8006 23.7544 15.7762C23.7376 15.7474 23.7213 15.7168 23.6801 15.7387C23.6263 15.7668 23.6726 15.7931 23.6863 15.8149C23.7413 15.9131 23.7413 16.0062 23.6682 16.0962C23.6594 16.1056 23.6551 16.1168 23.6476 16.1256C23.5869 16.1987 23.5607 16.2981 23.4744 16.3506C23.3888 16.2481 23.2494 16.1868 23.2351 16.0306C23.2326 15.9999 23.2107 15.9712 23.1957 15.9437C23.1794 15.9149 23.1538 15.9243 23.1301 15.9349C23.1019 15.9481 23.1176 15.9681 23.1282 15.9831C23.2001 16.0943 23.1494 16.1806 23.0763 16.2662C23.0069 16.3456 22.9419 16.4287 22.8563 16.4906C22.8138 16.5206 22.7732 16.5424 22.7744 16.4593C22.7757 16.2812 22.7788 16.1031 22.7769 15.9256C22.7757 15.8843 22.7919 15.8606 22.8282 15.8387C23.0576 15.7049 23.2519 15.5274 23.4469 15.3531C23.5032 15.3018 23.5407 15.2974 23.6001 15.3462C23.7957 15.5049 23.9751 15.6774 24.1413 15.8668C24.2038 15.9393 24.2169 15.9993 24.1651 16.0799C24.1307 16.1331 24.1094 16.1943 24.0732 16.2687Z" fill="#AF7E55"/>
<path fill-rule="evenodd" clip-rule="evenodd" d="M21.7984 23.156C21.8259 23.1722 21.8465 23.1847 21.8659 23.1979C21.9753 23.2704 21.9765 23.2691 22.0028 23.1372C22.0065 23.1129 21.9909 23.0729 22.034 23.0704C22.0659 23.0691 22.0803 23.0991 22.0959 23.1222C22.2453 23.3529 22.4003 23.5797 22.5403 23.816C22.6103 23.931 22.6934 23.9772 22.8196 23.9504C22.9778 23.9172 23.0909 24.001 23.2003 24.0922C23.2334 24.1191 23.2634 24.1535 23.2315 24.196C23.199 24.2397 23.1634 24.2085 23.1378 24.1885C22.9903 24.081 22.8096 24.1166 22.6384 24.0504C22.6553 24.1529 22.7446 24.1991 22.7753 24.2791C22.7246 24.3272 22.6853 24.2616 22.6415 24.2729C22.6209 24.3347 22.6684 24.4422 22.5896 24.4535C22.5121 24.4654 22.5403 24.3472 22.5015 24.2966C22.4621 24.2447 22.4315 24.1879 22.3928 24.136C22.2046 23.8779 22.0178 23.6191 21.8259 23.3647C21.7765 23.2997 21.7559 23.241 21.7984 23.156Z" fill="#D00429"/>
<path fill-rule="evenodd" clip-rule="evenodd" d="M21.2451 17.1278C21.3051 17.1278 21.3657 17.139 21.4207 17.1084L21.6839 17.054C21.6989 17.0559 21.7051 17.069 21.7151 17.0771C21.7795 17.1027 21.8369 17.1432 21.8826 17.1953C21.9689 17.2984 22.017 17.2415 22.0751 17.1665C22.1076 17.1246 22.1089 17.0365 22.1695 17.0421C22.2295 17.0471 22.287 17.1046 22.3182 17.1578C22.3864 17.2778 22.437 17.2403 22.5064 17.1578C22.6101 17.0353 22.6982 16.8996 22.7939 16.7603C22.8601 16.8359 22.9045 16.9084 22.902 17.0109C22.8957 17.2196 22.8995 17.429 22.8732 17.6565L22.7214 17.4928C22.7445 17.4171 22.8201 17.3809 22.8657 17.2946H21.4895C21.4751 17.2796 21.4557 17.2671 21.4432 17.2496C21.3689 17.2243 21.3012 17.1827 21.2451 17.1278Z" fill="#AF7E54"/>
<path fill-rule="evenodd" clip-rule="evenodd" d="M23.9004 22.6188C23.8079 22.7982 23.7173 22.9788 23.6236 23.1557C23.5938 23.2179 23.5811 23.2869 23.5867 23.3557C23.5892 23.445 23.5848 23.5357 23.5186 23.6057C23.4604 23.6694 23.3904 23.7057 23.3036 23.6644C23.2129 23.6219 23.1904 23.5457 23.2073 23.4519C23.2223 23.3663 23.2779 23.31 23.3423 23.2594C23.3929 23.2207 23.4592 23.1975 23.4854 23.1332C23.5504 22.9169 23.6748 22.7325 23.7898 22.5419C23.8342 22.4519 23.8811 22.3632 23.9286 22.2738C23.9448 22.2419 23.9629 22.2044 24.0054 22.21C24.0548 22.2163 24.0692 22.2532 24.0642 22.2994C24.0292 22.4148 23.9737 22.523 23.9004 22.6188Z" fill="#F3D202"/>
<path fill-rule="evenodd" clip-rule="evenodd" d="M21.3379 22.9148L21.9173 22.6436C21.9523 22.7561 22.0235 22.8486 22.0916 22.9436C22.0504 22.9654 22.0166 22.9529 21.9848 22.9411C21.936 22.9242 21.9104 22.9429 21.9104 22.9873C21.9091 23.1504 21.8291 23.0873 21.7541 23.0448C21.7479 23.0404 21.7404 23.0386 21.7273 23.0336C21.6766 23.0867 21.6929 23.1704 21.6429 23.2348C21.532 23.1373 21.4299 23.0302 21.3379 22.9148Z" fill="#AF7E54"/>
<path fill-rule="evenodd" clip-rule="evenodd" d="M24.625 20.8938C24.6547 20.8599 24.6734 20.8179 24.6788 20.7732C24.6932 20.7413 24.7094 20.7094 24.7219 20.6757C24.7363 20.6363 24.75 20.5988 24.8007 20.5982C24.8394 20.5975 24.8732 20.61 24.8925 20.6463C24.9163 20.6894 24.895 20.7225 24.87 20.7569C24.8563 20.7763 24.845 20.7975 24.8332 20.8182C24.7188 20.9782 24.6407 21.1569 24.5575 21.3319C24.5125 21.4182 24.47 21.5044 24.4232 21.59C24.4013 21.6307 24.3825 21.6869 24.3157 21.65C24.2582 21.6169 24.2882 21.5738 24.3075 21.5338L24.6038 20.95C24.6138 20.9325 24.6182 20.9125 24.625 20.8938Z" fill="#F1D002"/>
<path fill-rule="evenodd" clip-rule="evenodd" d="M23.763 24.0263L23.4648 23.7219C23.6155 23.6219 23.6492 23.4719 23.6361 23.3019C23.6267 23.185 23.7023 23.0988 23.7623 22.9725L23.763 24.0263ZM24.3167 16.1494C24.3861 16.2744 24.4117 16.6344 24.3667 16.9157C24.1267 16.7688 24.1011 16.395 24.3167 16.1494ZM23.8067 16.9563C23.4592 16.7425 23.553 16.4838 23.793 16.2244C23.8117 16.2382 23.8061 16.26 23.8061 16.2775L23.8067 16.9563Z" fill="#AE7E54"/>
<path fill-rule="evenodd" clip-rule="evenodd" d="M23.8936 16.956V16.271C24.1536 16.416 24.2292 16.7522 23.8936 16.956Z" fill="#AD7D54"/>
<path fill-rule="evenodd" clip-rule="evenodd" d="M23.1935 16.3184V16.9827C23.0579 16.9171 22.9804 16.8109 22.8979 16.709C22.876 16.6802 22.8823 16.6615 22.9104 16.6402C23.0192 16.5615 23.0923 16.449 23.1935 16.3184Z" fill="#AE7E54"/>
<path fill-rule="evenodd" clip-rule="evenodd" d="M22.9873 17.0498C23.2873 17.3423 23.2873 17.4292 22.9873 17.6486V17.0498Z" fill="#AA7B52"/>
<path fill-rule="evenodd" clip-rule="evenodd" d="M24.1064 17.0312V17.6644C24.0183 17.5663 23.9102 17.5294 23.8846 17.4038C23.8477 17.2194 23.9702 17.1356 24.1064 17.0312Z" fill="#AB7C53"/>
<path fill-rule="evenodd" clip-rule="evenodd" d="M22.0752 16.8563C22.2233 16.7663 22.3714 16.7538 22.5221 16.7644C22.5764 16.7682 22.5964 16.7869 22.5714 16.84C22.5677 16.8469 22.5652 16.855 22.5621 16.8625C22.5308 16.9363 22.5133 17.0338 22.4483 17.0713C22.3602 17.1225 22.3327 16.9932 22.2621 16.9675C22.1996 16.945 22.1452 16.8994 22.0752 16.8563Z" fill="#AD7D54"/>
<path fill-rule="evenodd" clip-rule="evenodd" d="M23.5898 17.0435C23.9036 17.2341 23.8673 17.4847 23.5898 17.6422V17.0435Z" fill="#AD7D53"/>
<path fill-rule="evenodd" clip-rule="evenodd" d="M23.4942 17.6437C23.2336 17.4994 23.1704 17.2525 23.4942 17.0469V17.6437Z" fill="#AD7D54"/>
<path fill-rule="evenodd" clip-rule="evenodd" d="M23.2881 16.9624V16.3687C23.5737 16.4912 23.5793 16.7205 23.2881 16.9624Z" fill="#AE7E54"/>
<path fill-rule="evenodd" clip-rule="evenodd" d="M24.1875 17.0435C24.4631 17.1722 24.4462 17.5378 24.1962 17.641C24.1919 17.6297 24.1875 17.6191 24.1875 17.6091V17.0435Z" fill="#AF7E54"/>
<path fill-rule="evenodd" clip-rule="evenodd" d="M22.4882 25.2372C22.4882 25.1341 22.4888 25.0541 22.4863 24.9747C22.4857 24.9241 22.5082 24.9078 22.5526 24.9197C22.5911 24.9286 22.6283 24.9425 22.6632 24.961C22.762 25.0185 22.762 25.0435 22.6688 25.1085C22.6176 25.1466 22.5638 25.1835 22.4882 25.2372Z" fill="#EDCD02"/>
<path fill-rule="evenodd" clip-rule="evenodd" d="M21.7148 17.0773L21.6836 17.0542C21.7923 16.978 21.9161 16.9286 22.0355 16.8711C22.0636 16.9136 22.048 16.9536 22.0423 16.9905C22.0173 17.1423 22.0036 17.1473 21.8586 17.0948C21.8148 17.0792 21.7686 17.0342 21.7148 17.0773Z" fill="#AC7C53"/>
<path fill-rule="evenodd" clip-rule="evenodd" d="M23.2378 24.4937C23.2272 24.538 23.1953 24.5762 23.1472 24.5437C23.0741 24.4943 23.0074 24.4362 22.9485 24.3705C22.9078 24.3268 22.9385 24.2862 22.9897 24.2749C23.0316 24.2637 23.236 24.4424 23.2378 24.4937Z" fill="#C40426"/>
<path fill-rule="evenodd" clip-rule="evenodd" d="M23.1249 24.6184C23.1155 24.659 23.0855 24.6978 23.0436 24.6697C22.9678 24.6173 22.8977 24.5571 22.8343 24.4903C22.7999 24.454 22.8255 24.4122 22.8705 24.3978C22.9149 24.3834 23.1261 24.5659 23.1249 24.6184Z" fill="#C50427"/>
<path fill-rule="evenodd" clip-rule="evenodd" d="M22.7677 24.5186C22.8065 24.5173 23.0058 24.6911 23.0083 24.7292C23.0102 24.7561 22.9971 24.7754 22.9758 24.7904C22.966 24.7975 22.9539 24.8008 22.9418 24.7999C22.9297 24.799 22.9183 24.7939 22.9096 24.7854C22.8483 24.7329 22.7858 24.6792 22.7265 24.6254C22.7058 24.6086 22.7008 24.5842 22.7115 24.5592C22.7215 24.5354 22.7421 24.5229 22.7677 24.5186Z" fill="#CB0428"/>
<path fill-rule="evenodd" clip-rule="evenodd" d="M23.0879 23.8372C23.0879 23.7709 23.1179 23.7365 23.176 23.7347C23.2535 23.7309 23.311 23.7672 23.321 23.8472C23.3316 23.9134 23.281 23.9434 23.2229 23.9422C23.1529 23.9397 23.1023 23.9034 23.0879 23.8372ZM24.2898 21.9559C24.2873 22.0115 24.2535 22.0322 24.2091 22.0284C24.1379 22.0228 24.0735 21.9928 24.0598 21.9147C24.0504 21.8578 24.0935 21.834 24.1441 21.8397C24.2154 21.8484 24.2716 21.8815 24.2898 21.9559Z" fill="#EECE02"/>
<path fill-rule="evenodd" clip-rule="evenodd" d="M23.7877 22.5435C23.6915 22.7429 23.5959 22.9435 23.4834 23.1348L23.459 23.1054C23.5565 22.906 23.6515 22.7042 23.7652 22.5142L23.7877 22.5435Z" fill="#1B1606"/>
<path fill-rule="evenodd" clip-rule="evenodd" d="M24.181 22.1323C24.1785 22.178 24.1472 22.1886 24.1141 22.1861C24.0541 22.1823 24.0016 22.1598 23.991 22.0936C23.9847 22.0523 24.0197 22.0373 24.0547 22.0411C24.1141 22.0455 24.1603 22.0736 24.181 22.1323Z" fill="#E6C702"/>
<path fill-rule="evenodd" clip-rule="evenodd" d="M24.358 21.7659C24.3686 21.8278 24.3168 21.8284 24.2968 21.8297C24.238 21.8309 24.1868 21.8028 24.1718 21.7397C24.1611 21.6972 24.1986 21.6859 24.233 21.6865C24.2936 21.6878 24.3399 21.7147 24.358 21.7659Z" fill="#E5C602"/>
<path fill-rule="evenodd" clip-rule="evenodd" d="M23.9004 22.6186C23.9535 22.5123 24.0091 22.4061 24.0641 22.2998C24.0716 22.3086 24.0795 22.3169 24.0879 22.3248C24.0444 22.4377 23.9889 22.5456 23.9223 22.6467L23.9004 22.6186Z" fill="#211B04"/>
<path fill-rule="evenodd" clip-rule="evenodd" d="M22.7711 24.8655C22.7755 24.9024 22.7517 24.913 22.7267 24.913C22.6761 24.913 22.633 24.8924 22.6105 24.8437C22.5974 24.8143 22.618 24.7962 22.6461 24.7949C22.6716 24.7927 22.6973 24.7982 22.7196 24.8108C22.7419 24.8235 22.7599 24.8425 22.7711 24.8655Z" fill="#E0C202"/>
<path fill-rule="evenodd" clip-rule="evenodd" d="M23.101 24.2056C23.1273 24.2299 23.176 24.2424 23.1767 24.2937C23.1785 24.3093 23.1592 24.3212 23.1423 24.3093C23.1079 24.2887 23.0729 24.2699 23.0654 24.2281C23.0604 24.2112 23.0754 24.1999 23.101 24.2056Z" fill="#A60320"/>
<path fill-rule="evenodd" clip-rule="evenodd" d="M23.9191 22.0312H23.9416V22.1863C23.9003 22.12 23.9222 22.0738 23.9191 22.0312Z" fill="#A3764E"/>
<path fill-rule="evenodd" clip-rule="evenodd" d="M19.5252 23.2812C19.6971 23.3562 19.8521 23.4537 19.9727 23.6005C20.0227 23.6618 20.0489 23.6443 20.0908 23.5968C20.2133 23.4549 20.3683 23.3549 20.5396 23.2793C20.9027 24.1249 21.2902 24.9549 21.9577 25.628C21.7914 25.6912 21.6252 25.7562 21.4564 25.8193C21.3964 25.8412 21.3796 25.7868 21.3533 25.7543C20.9277 25.2093 20.5533 24.6368 20.3639 23.9605C20.3533 23.9249 20.3558 23.8793 20.3058 23.8505C20.2758 24.108 20.3152 24.3543 20.3608 24.5974C20.4589 25.0918 20.6021 25.5712 20.8358 26.0187C20.8696 26.0818 20.8533 26.1087 20.7971 26.1387C20.5396 26.2755 20.2871 26.4187 20.0708 26.6199C20.0408 26.6468 20.0221 26.6499 19.9902 26.6212C19.7764 26.4237 19.5296 26.278 19.2746 26.1455C19.1958 26.1049 19.1964 26.0718 19.2333 25.9993C19.5264 25.4143 19.6927 24.7924 19.7614 24.143C19.7689 24.0674 19.7646 23.9899 19.7646 23.913C19.7646 23.8937 19.7646 23.8724 19.7314 23.8524C19.7021 23.9393 19.6721 24.0237 19.6452 24.1087C19.4514 24.7337 19.0852 25.2624 18.6914 25.7724C18.6621 25.8093 18.6371 25.8349 18.5802 25.8118C18.4239 25.7462 18.2639 25.6893 18.0908 25.6249C18.3127 25.4287 18.4889 25.2049 18.6464 24.9668C18.9983 24.4362 19.2714 23.8655 19.5252 23.2812Z" fill="#AF7E55"/>
<path fill-rule="evenodd" clip-rule="evenodd" d="M17.5382 20.0688L17.5351 17.8006C17.5351 17.6844 17.5476 17.5656 17.4863 17.4594C17.5338 17.4269 17.5795 17.4394 17.6232 17.4394C19.2276 17.4394 20.8338 17.4394 22.4395 17.4375C22.5357 17.4375 22.5913 17.4388 22.5395 17.5619C22.517 17.6219 22.5226 17.6969 22.5226 17.7656L22.5276 19.9131C22.5276 19.965 22.5226 20.0175 22.5207 20.07C22.5132 20.0795 22.5026 20.0862 22.4907 20.0887C22.2645 20.0631 22.0776 19.9406 21.8945 19.8175C21.7476 19.7194 21.7513 19.7194 21.6126 19.8137C21.4176 19.945 21.2182 20.0613 20.9713 20.0556C20.9063 19.9844 20.9488 19.9381 21.0101 19.9006C21.0857 19.8537 21.1676 19.8187 21.2451 19.7731C21.7451 19.4825 22.0476 18.7 21.4626 18.0844C21.3077 17.9283 21.1411 17.7841 20.9645 17.6531C20.9926 17.8781 21.1057 18.0681 21.1757 18.2731C21.2688 18.5437 21.3026 18.8175 21.2038 19.0919C21.1728 19.1912 21.1132 19.2792 21.0325 19.3448C20.9519 19.4105 20.8536 19.451 20.7501 19.4613C20.7245 19.465 20.6995 19.4662 20.6801 19.48C20.5713 19.5581 20.4688 19.5419 20.3695 19.4625C20.3095 19.415 20.2532 19.4419 20.202 19.4794C20.0826 19.5706 19.9651 19.5694 19.8482 19.4725C19.7901 19.4231 19.7307 19.4237 19.6732 19.4725C19.5863 19.5431 19.4976 19.5431 19.4038 19.4913C19.3857 19.4811 19.3667 19.4727 19.347 19.4662C18.957 19.3619 18.7938 19.1512 18.7957 18.7456C18.7957 18.5062 18.872 18.2856 18.9657 18.0694C19.029 17.9386 19.0726 17.7992 19.0951 17.6556C18.8476 17.8481 18.6163 18.0419 18.4376 18.2962C18.177 18.6669 18.2795 19.2763 18.5607 19.5525C18.6976 19.6881 18.8463 19.8006 19.0232 19.8781C19.1363 19.9281 19.1432 19.9675 19.0807 20.0562C18.8182 20.05 18.6032 19.9225 18.402 19.7731C18.3326 19.7212 18.2895 19.725 18.2238 19.7725C18.0238 19.9156 17.822 20.0569 17.5663 20.0856C17.5554 20.0818 17.5456 20.0751 17.5382 20.0662" fill="#D00429"/>
<path fill-rule="evenodd" clip-rule="evenodd" d="M22.4985 20.0686C22.5066 20.0717 22.5116 20.0717 22.5185 20.0686C22.5191 20.6786 22.5191 21.2898 22.5203 21.8998C22.5203 22.0104 22.4553 22.0892 22.3816 22.1611C22.2216 22.3254 22.0235 22.4342 21.8185 22.5292C21.4003 22.7236 20.9803 22.9117 20.5622 23.1042C20.3872 23.1848 20.211 23.2667 20.0672 23.4011C20.0428 23.4204 20.0303 23.4379 19.9972 23.4098C19.6741 23.1354 19.2697 23.0142 18.8947 22.8373C18.6066 22.7017 18.3128 22.5761 18.0328 22.4248C17.9296 22.3687 17.8316 22.3032 17.7403 22.2292C17.601 22.1117 17.5247 21.9754 17.5285 21.7786C17.5416 21.2092 17.5353 20.6379 17.536 20.0679C17.5421 20.0689 17.5484 20.0694 17.5547 20.0692C17.7022 20.0729 17.8216 20.1542 17.9435 20.2242C18.0416 20.2811 18.1397 20.3373 18.231 20.4054C18.291 20.4517 18.3335 20.4529 18.3972 20.3967C18.5378 20.2692 18.6991 20.1679 18.8697 20.0836C18.9272 20.0548 18.9872 20.0254 19.0522 20.0679C19.096 20.1523 19.0391 20.2142 19.0047 20.2792C18.9647 20.3517 18.9616 20.4011 19.0616 20.4098C19.0766 20.4104 19.0578 20.4086 19.0735 20.4117C19.4247 20.4936 19.6541 20.6217 19.6747 21.1598C19.6472 21.2329 19.6841 21.3223 19.6172 21.3842C19.5522 21.3892 19.5553 21.3329 19.5403 21.2948C19.5167 21.2402 19.4756 21.195 19.4234 21.1665C19.3712 21.138 19.3109 21.1277 19.2522 21.1373C19.1822 21.1523 19.2053 21.2042 19.2141 21.2423C19.2791 21.5061 19.2978 21.7736 19.2947 22.0442C19.2941 22.1104 19.2641 22.1804 19.3047 22.2454C19.3116 22.2554 19.3147 22.2654 19.3191 22.2773C19.3241 22.3154 19.3035 22.3461 19.2891 22.3798C19.2353 22.5029 19.2578 22.5773 19.3816 22.6367C19.5178 22.7029 19.6372 22.7879 19.7547 22.8817C19.9078 23.0048 20.1778 22.9948 20.336 22.8561C20.4285 22.7761 20.531 22.7136 20.6385 22.6579C20.816 22.5629 20.8316 22.5217 20.7497 22.3354C20.7472 22.3242 20.7441 22.3129 20.7422 22.3004C20.7419 22.282 20.7462 22.2637 20.7547 22.2473C20.7666 22.0223 20.7585 21.7961 20.786 21.5717C20.7991 21.4592 20.8166 21.3486 20.8466 21.2386C20.8672 21.1623 20.8428 21.1354 20.7653 21.1361C20.5941 21.1373 20.5416 21.1848 20.5047 21.3573C20.481 21.4792 20.5235 21.6067 20.4728 21.7273C20.4597 21.7423 20.4447 21.7529 20.4228 21.7504C20.408 21.7432 20.3956 21.7319 20.3871 21.7178C20.3785 21.7038 20.3742 21.6875 20.3747 21.6711C20.3747 21.4254 20.361 21.1804 20.4066 20.9361C20.4666 20.6217 20.6847 20.4829 20.9703 20.4123C21.0966 20.3798 21.0953 20.3798 21.0428 20.2661C21.0178 20.2148 20.9841 20.1686 20.9822 20.1098C21.0178 20.0029 21.0966 20.0373 21.1591 20.0667C21.3403 20.1517 21.5153 20.2554 21.6635 20.3923C21.7247 20.4479 21.7647 20.4498 21.8272 20.4011C21.9778 20.2861 22.1522 20.2061 22.3135 20.1111C22.37 20.08 22.434 20.0653 22.4985 20.0686Z" fill="#0B45BA"/>
<path fill-rule="evenodd" clip-rule="evenodd" d="M21.4438 17.2497C21.4695 17.2535 21.4851 17.2685 21.4901 17.2947L18.6738 17.2941V17.2772C18.9413 17.2485 19.1976 17.186 19.4207 16.9854C19.4188 17.0929 19.3557 17.1497 19.3251 17.2204C19.3195 17.276 19.3551 17.2585 19.3851 17.2547C19.5544 17.2295 19.7107 17.1493 19.8301 17.0266C19.8788 16.9766 19.9007 16.9747 19.9276 17.0422C19.952 17.0972 19.9845 17.1472 20.0176 17.2035C20.1001 17.1422 20.1157 17.0472 20.1707 16.9697C20.3257 17.1441 20.5176 17.2447 20.7595 17.2716C20.7163 17.1785 20.6513 17.1066 20.6238 17.0085C20.6838 17.011 20.7176 17.0497 20.7532 17.0772C20.9382 17.2104 21.152 17.251 21.3707 17.2722C21.3957 17.2741 21.4276 17.2854 21.4438 17.2497Z" fill="#AF7E54"/>
<path fill-rule="evenodd" clip-rule="evenodd" d="M19.9166 14.5543C20.1429 14.4993 20.2991 14.6605 20.4847 14.7386C20.3616 14.5968 20.2322 14.4643 20.0285 14.4774C19.8641 14.4868 19.7072 14.4905 19.5554 14.413C19.5035 14.3874 19.4354 14.3993 19.3754 14.3924C19.3485 14.3893 19.3141 14.3943 19.3072 14.3568C19.3022 14.3255 19.3229 14.3036 19.3447 14.2849C19.3844 14.2557 19.4318 14.2389 19.481 14.2368C19.7472 14.2105 20.0054 14.2305 20.251 14.3486C20.3991 14.4205 20.5522 14.4849 20.7029 14.553C20.721 14.5611 20.7385 14.5724 20.7554 14.5818C20.6541 14.7305 20.8572 14.708 20.8729 14.7911C20.8747 14.7949 20.8747 14.7993 20.8766 14.808L20.8166 14.8374C20.7641 14.8624 20.7422 14.8861 20.806 14.9274C20.8284 14.9412 20.8467 14.9606 20.8593 14.9838C20.8718 15.0069 20.878 15.033 20.8772 15.0593C20.8222 15.0824 20.7785 15.0255 20.7254 15.043C20.7104 15.0711 20.7222 15.098 20.7272 15.1249C20.7554 15.3149 20.7629 15.4943 20.6516 15.673C20.5329 15.8643 20.6035 16.083 20.6285 16.2899C20.6591 16.558 20.7997 16.783 20.936 17.0161C20.6785 16.9274 20.4279 16.6593 20.4604 16.4399C20.4841 16.2655 20.4647 16.0843 20.4641 15.9061C20.4629 15.8736 20.4835 15.8224 20.4279 15.8193C20.361 15.8155 20.3829 15.8749 20.3829 15.9093C20.3816 16.1074 20.3829 16.3055 20.3829 16.5043C20.3829 16.6836 20.4604 16.8418 20.5241 17.0024C20.5441 17.0543 20.5691 17.1043 20.5929 17.1605C20.3385 17.0711 20.2016 16.883 20.2016 16.6299C20.2016 16.3868 20.2016 16.1443 20.1997 15.9018C20.1997 15.8699 20.2191 15.8161 20.1604 15.8186C20.1066 15.8211 20.1241 15.873 20.1241 15.9049C20.1241 16.2043 20.1241 16.5036 20.126 16.8036C20.126 16.8111 20.1291 16.8193 20.1291 16.8274C20.1297 16.9049 20.0891 16.9799 20.0229 16.9793C19.9716 16.978 19.931 16.903 19.9329 16.8274C19.9347 16.5236 19.9366 16.2205 19.9347 15.9168C19.9347 15.8824 19.961 15.8218 19.9022 15.8193C19.8372 15.8161 19.8622 15.878 19.8622 15.9124C19.8591 16.1555 19.861 16.398 19.861 16.6411C19.861 16.8743 19.7254 17.0599 19.4722 17.1549C19.5116 17.0561 19.5454 16.968 19.5841 16.883C19.6541 16.7249 19.681 16.5605 19.6754 16.388C19.6666 16.2218 19.6741 16.0555 19.6722 15.8899C19.6722 15.8611 19.6854 15.8168 19.6335 15.818C19.581 15.8193 19.5972 15.863 19.5972 15.8918C19.596 16.0618 19.5854 16.2318 19.5997 16.4011C19.6147 16.6018 19.5291 16.7443 19.3829 16.863C19.302 16.9361 19.21 16.9958 19.1104 17.0399C19.1372 16.993 19.1516 16.9643 19.1685 16.9368C19.481 16.4299 19.5141 15.878 19.4291 15.308C19.4185 15.2455 19.3891 15.1855 19.3666 15.1255C19.3497 15.0793 19.3304 15.0305 19.371 14.9893C19.4097 14.9505 19.461 14.9555 19.5085 14.9661C19.5891 14.9849 19.6485 15.0443 19.731 15.0843C19.7336 15.0583 19.7294 15.0321 19.7189 15.0082C19.7084 14.9844 19.6919 14.9636 19.671 14.948C19.5885 14.8836 19.586 14.8186 19.6535 14.7449C19.6504 14.6824 19.731 14.693 19.7416 14.6424C19.7622 14.5405 19.8547 14.578 19.9166 14.5543Z" fill="#AF7E55"/>
<path fill-rule="evenodd" clip-rule="evenodd" d="M18.6541 13.7419C18.6697 13.7094 18.5885 13.68 18.641 13.6569C18.6991 13.63 18.7672 13.6219 18.8216 13.6794C18.726 13.7831 18.7747 13.9094 18.7691 14.0269C18.7672 14.0494 18.7879 14.0612 18.811 14.0606C18.9022 14.0581 18.996 14.0731 19.0872 14.0444C19.1154 14.0356 19.1435 13.9819 19.1672 14.0225C19.1816 14.0472 19.1892 14.0753 19.1894 14.1039C19.1897 14.1325 19.1824 14.1606 19.1685 14.1856C19.1472 14.2256 19.116 14.1656 19.0854 14.17C19.0747 14.1662 19.0629 14.16 19.051 14.1575C18.791 14.105 18.7572 14.1244 18.7697 14.3844C18.7741 14.4931 18.6997 14.5694 18.6947 14.6687C18.651 14.5325 18.676 14.3925 18.6779 14.255C18.6779 14.1625 18.6479 14.1362 18.5616 14.1456C18.4747 14.155 18.3829 14.1319 18.3097 14.1956C18.2316 14.21 18.2566 14.1431 18.2622 14.1194C18.2704 14.0844 18.2166 14.0131 18.3085 14.015C18.4085 14.0931 18.5247 14.0544 18.6341 14.0612C18.6641 14.0631 18.676 14.04 18.6741 14.0137C18.6672 13.9231 18.6966 13.8294 18.6541 13.7419Z" fill="#F2D102"/>
<path fill-rule="evenodd" clip-rule="evenodd" d="M18.8192 15.2813C18.8161 15.2969 18.8148 15.3126 18.8111 15.3288C18.7036 15.4269 18.7036 15.4269 18.6123 15.2869C18.6442 15.2601 18.6661 15.2282 18.6673 15.1844C18.6686 15.0663 18.6723 14.9476 18.6723 14.8282C18.6723 14.7844 18.6742 14.7413 18.6973 14.7026C18.7373 14.6838 18.7686 14.6701 18.7673 14.7413C18.7636 14.8894 18.7698 15.0369 18.7723 15.1851C18.7711 15.2251 18.7917 15.2551 18.8192 15.2813Z" fill="#E9CA02"/>
<path fill-rule="evenodd" clip-rule="evenodd" d="M18.9317 14.6216C19.0717 14.6272 19.1942 14.6597 19.3017 14.741C19.3223 14.7572 19.3542 14.7741 19.3448 14.806C19.3342 14.8422 19.2992 14.8322 19.2748 14.8272C19.1323 14.801 18.9898 14.771 18.8479 14.7435C18.8135 14.736 18.8035 14.7135 18.8048 14.6816C18.8067 14.6491 18.8217 14.6285 18.8554 14.626C18.8808 14.6238 18.9062 14.6224 18.9317 14.6216Z" fill="#F9CD00"/>
<path fill-rule="evenodd" clip-rule="evenodd" d="M19.1344 14.6059C19.0225 14.5647 18.9069 14.5784 18.7744 14.5772C18.8719 14.4684 18.9875 14.4865 19.0963 14.479C19.1975 14.4728 19.2932 14.4753 19.3519 14.579L19.3488 14.5772C19.3594 14.6459 19.4319 14.6934 19.4225 14.7784C19.3649 14.7368 19.3076 14.6947 19.2507 14.6522C19.2263 14.6015 19.1819 14.5984 19.1344 14.6059Z" fill="#C6092E"/>
<path fill-rule="evenodd" clip-rule="evenodd" d="M19.575 14.58C19.4981 14.7413 19.425 14.6144 19.3506 14.5775L19.3537 14.5794C19.36 14.5363 19.33 14.4688 19.4031 14.4625C19.4875 14.4557 19.5781 14.4557 19.6243 14.5532C19.625 14.5913 19.6031 14.5944 19.575 14.58Z" fill="#AA7B52"/>
<path fill-rule="evenodd" clip-rule="evenodd" d="M19.5755 14.5796C19.5949 14.5777 19.6155 14.5759 19.6249 14.5527L19.7174 14.554C19.7687 14.5809 19.7999 14.6171 19.7705 14.6784C19.7474 14.7265 19.693 14.7215 19.6555 14.7459C19.5724 14.7184 19.5687 14.6521 19.5755 14.5796Z" fill="#E1C302"/>
<path fill-rule="evenodd" clip-rule="evenodd" d="M19.3682 14.8754C19.2669 15.0311 19.2607 15.0311 19.1182 14.8773C19.2019 14.8573 19.2763 14.8811 19.3682 14.8754Z" fill="#BE0425"/>
<path fill-rule="evenodd" clip-rule="evenodd" d="M19.768 14.6786C19.7668 14.6319 19.7478 14.5874 19.7148 14.5542H19.9161C19.8236 14.5761 19.8236 14.5761 19.768 14.6786Z" fill="#020101"/>
<path fill-rule="evenodd" clip-rule="evenodd" d="M19.1338 14.6059C19.1607 14.5934 19.155 14.5384 19.2007 14.554C19.2482 14.5703 19.2494 14.6122 19.2494 14.6522L19.1338 14.6059Z" fill="#34020C"/>
<path fill-rule="evenodd" clip-rule="evenodd" d="M19.3874 17.254C19.3605 17.2727 19.3274 17.2833 19.3037 17.2633C19.2893 17.2521 19.3099 17.2296 19.3274 17.2202C19.3468 17.2308 19.3655 17.2427 19.3874 17.254Z" fill="#291D14"/>
<path fill-rule="evenodd" clip-rule="evenodd" d="M25.0189 20.3834C24.9983 20.4227 24.9796 20.4634 24.9577 20.5015C24.9446 20.5246 24.9446 20.5696 24.8952 20.5534C24.8321 20.5334 24.8583 20.4952 24.8696 20.459C24.8802 20.429 24.8652 20.394 24.8827 20.3652C24.9558 20.2415 24.9789 20.1027 24.9989 19.9627C25.0083 19.9034 25.0364 19.8784 25.0914 19.8759C25.1671 19.8702 25.2602 19.8084 25.2846 19.944C25.3389 19.9715 25.3527 20.0221 25.3146 20.0609C25.2096 20.1627 25.1414 20.2984 25.0189 20.3834Z" fill="#F2D102"/>
<path fill-rule="evenodd" clip-rule="evenodd" d="M24.848 20.433C24.828 20.448 24.8286 20.4986 24.7836 20.4736C24.7536 20.4573 24.7511 20.4336 24.7692 20.4073C24.8755 20.3392 24.9067 20.233 24.9124 20.1186C24.9155 20.0536 24.908 19.9892 24.908 19.9255C24.908 19.8873 24.8836 19.833 24.9299 19.8167C24.9805 19.7986 25.0449 19.7942 25.093 19.823C25.1174 19.838 25.0736 19.843 25.063 19.8542C24.988 19.9298 25.013 20.0336 24.9911 20.1236C24.9624 20.2361 24.9311 20.3455 24.848 20.433Z" fill="#E5C602"/>
<path fill-rule="evenodd" clip-rule="evenodd" d="M25.063 20.5749C25.0074 20.5955 24.9668 20.5987 24.9962 20.518C25.0099 20.4818 25.0274 20.4468 25.0412 20.4112C25.0543 20.3274 25.1124 20.2699 25.1637 20.2124C25.2318 20.1343 25.3199 20.0705 25.3549 19.9668C25.4899 20.0843 25.488 20.0912 25.3418 20.1868C25.1987 20.2787 25.0512 20.3699 25.063 20.5749Z" fill="#E9CA02"/>
<path fill-rule="evenodd" clip-rule="evenodd" d="M25.2568 19.6062C25.3136 19.5987 25.368 19.5949 25.4043 19.6543C25.4355 19.7062 25.413 19.7449 25.3761 19.7818C25.3186 19.7974 25.2668 19.7906 25.2311 19.7343C25.1974 19.6831 25.2255 19.6443 25.2568 19.6062Z" fill="#E8C902"/>
<path fill-rule="evenodd" clip-rule="evenodd" d="M24.8477 20.4329C24.9339 20.2854 24.9783 20.1273 24.9895 19.9579C24.9933 19.9091 24.997 19.8598 25.0627 19.8535L25.0908 19.876C25.0508 19.9004 25.0383 19.9398 25.0327 19.986C25.0145 20.156 24.977 20.3204 24.8683 20.4591C24.8618 20.4501 24.8549 20.4413 24.8477 20.4329Z" fill="#201C00"/>
<path fill-rule="evenodd" clip-rule="evenodd" d="M25.352 19.9666C25.354 19.9999 25.3476 20.0333 25.3332 20.0634C25.3189 20.0936 25.2972 20.1196 25.2701 20.1391C25.1763 20.2141 25.1026 20.3085 25.0382 20.411L25.0176 20.3841C25.0632 20.266 25.152 20.1797 25.2451 20.0997C25.2995 20.0522 25.3101 20.006 25.2838 19.9447C25.3132 19.9279 25.337 19.9379 25.352 19.9666Z" fill="#201B00"/>
<path fill-rule="evenodd" clip-rule="evenodd" d="M25.4709 19.3999V19.603C25.4144 19.5759 25.3584 19.5479 25.3027 19.5193C25.3509 19.4695 25.4079 19.429 25.4709 19.3999Z" fill="#E6C702"/>
<path fill-rule="evenodd" clip-rule="evenodd" d="M21.0016 20.0938C21.0641 20.2013 21.1253 20.3088 21.1916 20.425C21.0816 20.45 20.9835 20.4675 20.8878 20.4925C20.6297 20.5619 20.4891 20.7331 20.4472 20.9956C20.4072 21.2431 20.4222 21.4937 20.4266 21.7425C20.4547 21.7637 20.4628 21.8 20.4816 21.8281C20.4978 21.8519 20.5068 21.8799 20.5072 21.9088C20.4966 22.0163 20.5528 22.0894 20.626 22.1575C20.6747 22.2013 20.746 22.2269 20.7641 22.3019C20.9085 22.4525 20.891 22.5831 20.7078 22.6775C20.5803 22.7425 20.4641 22.8181 20.356 22.9125C20.191 23.0606 19.8716 23.0619 19.7053 22.9169C19.5995 22.8169 19.4776 22.7356 19.3447 22.6763C19.1485 22.5913 19.1722 22.37 19.3147 22.2831C19.3197 22.2375 19.3541 22.2163 19.386 22.1919C19.4439 22.1546 19.4912 22.1029 19.5232 22.0419C19.5552 21.9809 19.5708 21.9126 19.5685 21.8438C19.571 21.8181 19.571 21.7912 19.5853 21.7675C19.6091 21.5569 19.6403 21.3469 19.6241 21.1344C19.6053 20.6919 19.4785 20.57 18.8791 20.4262C18.911 20.2969 19.0228 20.2038 19.0397 20.0688C19.0416 20.0544 19.0497 20.045 19.0635 20.0419C19.1247 19.995 19.1066 19.9688 19.0428 19.9463C18.8599 19.8796 18.6939 19.7736 18.5566 19.6356C18.2097 19.3025 18.046 18.5969 18.5235 18.0888C18.7135 17.8881 18.941 17.7331 19.1485 17.5312C19.1735 17.6844 19.1216 17.8063 19.076 17.9288C18.9903 18.1513 18.8866 18.3669 18.8553 18.6069C18.8328 18.775 18.846 18.9381 18.9135 19.095C18.9903 19.2763 19.1247 19.3881 19.321 19.4175C19.3416 19.4206 19.3635 19.4194 19.3803 19.43C19.4922 19.5081 19.5897 19.5025 19.6885 19.3994C19.7435 19.3425 19.806 19.38 19.8628 19.4213C20.0141 19.5331 20.0422 19.5363 20.191 19.4225C20.276 19.3581 20.3447 19.3612 20.4153 19.4325C20.4778 19.4937 20.5403 19.5169 20.6191 19.4556C20.6496 19.436 20.6843 19.4238 20.7203 19.42C20.9997 19.3656 21.161 19.1881 21.2003 18.9019C21.2353 18.64 21.1703 18.3969 21.0747 18.1569C21.021 18.0219 20.9585 17.89 20.9228 17.7488C20.904 17.6795 20.9004 17.607 20.9122 17.5363C21.1028 17.7031 21.2897 17.8556 21.4666 18.0206C22.1328 18.6456 21.8278 19.6288 21.0622 19.9313C21.0235 19.9463 20.9128 19.9344 20.9847 20.04C21.0028 20.0538 20.9935 20.0763 21.0016 20.0938Z" fill="black"/>
<path fill-rule="evenodd" clip-rule="evenodd" d="M20.0317 17.5684C20.0829 17.7121 20.1236 17.8202 20.1598 17.9309C20.1792 17.9921 20.2061 18.0027 20.2636 17.9715C20.3648 17.9171 20.4704 17.8696 20.6079 17.804C20.5436 17.9415 20.4967 18.0471 20.4454 18.149C20.4142 18.2065 20.4248 18.2334 20.4867 18.254C20.5967 18.289 20.7054 18.3321 20.8423 18.3821C20.7273 18.4234 20.6386 18.4621 20.5461 18.4859C20.4361 18.5152 20.3986 18.5584 20.4667 18.6671C20.5173 18.7477 20.5504 18.839 20.6036 18.9534C20.4873 18.9002 20.3923 18.8665 20.3092 18.8146C20.2067 18.7496 20.1654 18.7846 20.1367 18.8896C20.1129 18.9815 20.0742 19.0702 20.0311 19.1915C19.9823 19.054 19.9429 18.9502 19.9079 18.844C19.8873 18.7802 19.8573 18.7621 19.7929 18.7952C19.6948 18.8477 19.5917 18.8915 19.4598 18.9534C19.5198 18.8246 19.5623 18.7227 19.6148 18.6246C19.6492 18.5602 19.6473 18.5271 19.5686 18.5052C19.4611 18.4746 19.3573 18.4309 19.2217 18.3827C19.3573 18.3321 19.4636 18.2884 19.5736 18.2552C19.6442 18.234 19.6492 18.204 19.6173 18.1446C19.5673 18.0459 19.5217 17.944 19.4598 17.8084C19.5942 17.8727 19.6979 17.9159 19.7942 17.9677C19.8567 18.0009 19.8854 17.9921 19.9067 17.9246C19.9392 17.8171 19.9798 17.7115 20.0317 17.5684Z" fill="#010000"/>
<path fill-rule="evenodd" clip-rule="evenodd" d="M21.0019 20.0937L20.985 20.0406C21.2432 19.9619 21.4975 19.8737 21.6975 19.6781C21.7244 19.6512 21.745 19.6406 21.7775 19.6687C21.9907 19.8544 22.2419 19.9694 22.4994 20.0712C22.2594 20.21 22.0063 20.3256 21.7832 20.4962C21.7344 20.5337 21.7138 20.4994 21.685 20.4719C21.5063 20.3044 21.2907 20.1919 21.0732 20.0862C21.0482 20.0737 21.0213 20.0544 21.0019 20.0937ZM19.0632 20.0375C19.0554 20.0466 19.0475 20.0556 19.0394 20.0644C18.8009 20.1529 18.581 20.2849 18.3907 20.4537C18.3369 20.5031 18.3057 20.5181 18.2438 20.47C18.0307 20.3075 17.7882 20.1962 17.5557 20.0662C17.8163 19.9656 18.0675 19.8475 18.2832 19.6631C18.3075 19.6412 18.3282 19.6356 18.3532 19.6631C18.5482 19.8681 18.8088 19.9462 19.0632 20.0375Z" fill="#010100"/>
<path fill-rule="evenodd" clip-rule="evenodd" d="M18.9254 21.808C19.0566 21.9555 19.0741 22.0836 18.9866 22.1942C18.8954 22.3061 18.7635 22.3117 18.5891 22.2092C18.5404 22.3042 18.481 22.3886 18.361 22.4005C18.1879 22.4167 18.0572 22.2805 18.091 22.1011C18.1054 22.0267 18.0891 22.008 18.021 21.9899C17.9632 21.9768 17.9122 21.9433 17.8773 21.8955C17.8423 21.8477 17.8259 21.7889 17.831 21.7299C17.836 21.6707 17.8621 21.6153 17.9045 21.5737C17.947 21.5322 18.003 21.5073 18.0622 21.5036C18.1322 21.4986 18.1441 21.4792 18.1397 21.4124C18.1291 21.2717 18.2079 21.1711 18.3329 21.143C18.4522 21.1155 18.5679 21.1799 18.6235 21.3067C18.6372 21.338 18.6291 21.3767 18.6916 21.3549C18.8704 21.2911 18.981 21.3242 19.0441 21.4486C19.1085 21.573 19.0691 21.6905 18.9254 21.808ZM22.0879 21.6286C21.5654 21.6036 21.3722 21.8505 21.4772 22.3911C21.2504 22.3642 21.0391 22.1224 21.0141 21.8617C20.9929 21.6405 21.1366 21.4299 21.3635 21.3536C21.6222 21.2674 21.9329 21.3817 22.0879 21.6286Z" fill="#010101"/>
<path fill-rule="evenodd" clip-rule="evenodd" d="M20.4701 21.9123C20.4617 21.8911 20.4534 21.8698 20.4451 21.8485C20.4407 21.806 20.457 21.7623 20.4464 21.7192C20.4495 21.5948 20.442 21.471 20.4639 21.3454C20.4957 21.1598 20.5107 21.1417 20.6901 21.1029C20.9376 21.0498 20.9382 21.0498 20.8807 21.2854C20.8101 21.5839 20.79 21.8922 20.8214 22.1973C20.8239 22.2267 20.8564 22.2729 20.7882 22.276C20.6189 22.211 20.502 22.0998 20.4701 21.9123Z" fill="#010201"/>
<path fill-rule="evenodd" clip-rule="evenodd" d="M19.6201 21.794C19.6201 21.8183 19.6201 21.8421 19.6189 21.8671C19.5857 21.904 19.5857 21.9552 19.5676 21.9977C19.5423 22.0625 19.5027 22.1208 19.4519 22.1682C19.401 22.2157 19.3402 22.2512 19.2739 22.2721C19.2564 22.2683 19.2182 22.2921 19.2245 22.249C19.2545 22.049 19.2589 21.849 19.2389 21.6471C19.2161 21.4519 19.1764 21.2591 19.1201 21.0708C19.4545 21.0558 19.5582 21.1221 19.6001 21.3746C19.6451 21.5133 19.607 21.6546 19.6201 21.794Z" fill="#010101"/>
<path fill-rule="evenodd" clip-rule="evenodd" d="M19.306 21.0336C19.2816 21.0349 19.1035 20.8593 19.1035 20.8343C19.1048 20.8174 19.2791 20.6386 19.2973 20.6368C19.3198 20.6336 19.5016 20.8049 19.5041 20.8305C19.506 20.8543 19.3329 21.033 19.306 21.0336Z" fill="#030405"/>
<path fill-rule="evenodd" clip-rule="evenodd" d="M20.7568 20.6372C20.7825 20.6391 20.9537 20.821 20.9525 20.8422C20.9493 20.8647 20.7768 21.0347 20.7562 21.0353C20.7356 21.036 20.5537 20.8566 20.5537 20.8353C20.5537 20.8141 20.7375 20.6353 20.7568 20.6372Z" fill="#020303"/>
<path fill-rule="evenodd" clip-rule="evenodd" d="M19.6201 21.794C19.5739 21.6559 19.6126 21.5146 19.6001 21.3752C19.6438 21.2977 19.6057 21.2109 19.6245 21.1309C19.6576 21.3521 19.6582 21.5734 19.6201 21.794Z" fill="#083288"/>
<path fill-rule="evenodd" clip-rule="evenodd" d="M20.47 21.9121C20.5268 22.0771 20.64 22.1915 20.7887 22.2765L20.7631 22.3009C20.6543 22.2334 20.5418 22.1715 20.4893 22.0452C20.4725 22.0027 20.4406 21.9615 20.47 21.9121Z" fill="#08348D"/>
<path fill-rule="evenodd" clip-rule="evenodd" d="M19.2734 22.2728C19.4222 22.1847 19.5422 22.0753 19.5834 21.8966C19.5878 21.8841 19.6066 21.8772 19.6184 21.8672C19.5891 22.0578 19.4928 22.1991 19.3147 22.2797L19.2734 22.2728Z" fill="#093898"/>
<path fill-rule="evenodd" clip-rule="evenodd" d="M20.4465 21.7173C20.4703 21.761 20.4834 21.8048 20.4453 21.8467C20.4196 21.8148 20.4184 21.7785 20.4259 21.7392C20.4321 21.7317 20.4409 21.7248 20.4465 21.7173Z" fill="#06276A"/>
<path fill-rule="evenodd" clip-rule="evenodd" d="M19.6598 14.605C19.6817 14.6044 19.6961 14.6169 19.6998 14.6381C19.7023 14.6594 19.6917 14.675 19.6698 14.6775C19.648 14.6806 19.6304 14.6694 19.6292 14.6475C19.6267 14.6263 19.6404 14.6131 19.6598 14.605Z" fill="#1F1B00"/>
<path fill-rule="evenodd" clip-rule="evenodd" d="M21.0575 17.7827C21.3525 18.024 21.6138 18.2827 21.6819 18.6683C21.7644 19.1365 21.4938 19.5883 21.025 19.8146C20.9525 19.8496 20.8325 19.8458 20.8175 19.9265C20.805 19.9921 20.8732 20.0727 20.9038 20.1477C20.9338 20.2133 20.9625 20.2796 20.9932 20.3508C20.9032 20.3802 20.8182 20.4046 20.735 20.4333C20.5344 20.5046 20.4182 20.649 20.3744 20.854C20.2969 21.2102 20.315 21.5702 20.3325 21.9308C20.3382 22.0796 20.4113 22.1996 20.5482 22.2746C20.5925 22.2996 20.6394 22.329 20.6782 22.3633C20.7625 22.4352 20.7657 22.5333 20.6682 22.5846C20.5094 22.6702 20.3575 22.7715 20.1988 22.8571C20.1359 22.8919 20.0643 22.9075 19.9926 22.9021C19.921 22.8966 19.8525 22.8703 19.7957 22.8265C19.6845 22.7463 19.5663 22.6764 19.4425 22.6177C19.2813 22.5383 19.2719 22.4158 19.43 22.3321C19.6713 22.2046 19.7425 22.004 19.7394 21.7502C19.7363 21.4833 19.7438 21.2171 19.7044 20.9508C19.6594 20.634 19.4807 20.4483 19.1738 20.3877C19.0744 20.3683 19.0575 20.3383 19.1057 20.2515C19.1607 20.1483 19.2525 20.0296 19.2363 19.9327C19.22 19.8296 19.0488 19.8321 18.9525 19.7746C18.5057 19.5096 18.2832 19.0665 18.3813 18.6171C18.4425 18.3433 18.7157 17.979 19.0063 17.7871C19.0088 17.8621 18.97 17.9196 18.9444 17.9808C18.8257 18.259 18.6907 18.5315 18.7169 18.8496C18.7438 19.1758 18.9144 19.4283 19.1794 19.494C19.2838 19.5202 19.3907 19.5283 19.4863 19.5921C19.5463 19.6315 19.6063 19.5877 19.6513 19.5483C19.7257 19.484 19.785 19.4858 19.8638 19.5477C19.9832 19.6415 20.0669 19.639 20.1944 19.5446C20.2657 19.4883 20.325 19.4821 20.395 19.5452C20.47 19.6127 20.5513 19.6233 20.6363 19.5571C20.6756 19.528 20.723 19.512 20.7719 19.5115C20.9944 19.4965 21.1494 19.3783 21.245 19.1821C21.3024 19.0634 21.3353 18.9344 21.3418 18.8028C21.3482 18.6711 21.3281 18.5395 21.2825 18.4158C21.2263 18.2558 21.1557 18.1015 21.0919 17.9433C21.0738 17.894 21.0394 17.8502 21.0557 17.7827" fill="#FED100"/>
<path fill-rule="evenodd" clip-rule="evenodd" d="M20.5193 18.3769C20.5087 18.3869 20.5043 18.3944 20.4981 18.3981C20.4287 18.4381 20.3093 18.4288 20.2918 18.4981C20.2762 18.5594 20.3462 18.6425 20.3893 18.7475C20.315 18.7119 20.2631 18.69 20.2143 18.6613C20.1481 18.6225 20.1131 18.6344 20.0968 18.7119C20.085 18.7656 20.0587 18.8163 20.045 18.8519C20.0225 18.8738 20.02 18.8706 20.0137 18.8606C19.9762 18.7875 19.9868 18.6644 19.9118 18.645C19.8468 18.63 19.7625 18.7006 19.6743 18.7381C19.6981 18.6406 19.7962 18.5581 19.7612 18.4913C19.7293 18.4338 19.6175 18.42 19.5243 18.3806L19.7856 18.2819C19.7442 18.1956 19.7044 18.1085 19.6662 18.0206L19.9275 18.1381C19.9593 18.055 19.9906 17.9763 20.02 17.895C20.0693 17.9181 20.0693 17.9688 20.08 18.0063C20.1062 18.1131 20.1475 18.1638 20.255 18.0825C20.2856 18.0588 20.3268 18.0481 20.3643 18.0313C20.3681 18.0394 20.3768 18.0469 20.375 18.0519C20.3556 18.1325 20.2581 18.2144 20.295 18.2775C20.3262 18.3356 20.4387 18.3463 20.5193 18.3769ZM21.2812 20.0563C21.4456 19.9906 21.5906 19.9219 21.7037 19.8038C21.7337 19.7738 21.7543 19.7756 21.7843 19.8019C21.9168 19.9238 22.0775 19.9969 22.2481 20.0756C22.0831 20.1744 21.9187 20.2563 21.7762 20.3738C21.7556 20.3906 21.7375 20.4 21.715 20.3769C21.5931 20.2475 21.4431 20.1544 21.2812 20.0563ZM17.8037 20.0813C17.9775 20.0019 18.1437 19.9263 18.28 19.8006C18.305 19.775 18.3262 19.7806 18.3506 19.805C18.4656 19.9219 18.6087 19.995 18.7781 20.0588C18.63 20.1706 18.4881 20.2744 18.3487 20.3806C18.3187 20.4031 18.2993 20.3919 18.2737 20.3756C18.1206 20.2794 17.9668 20.1819 17.8037 20.0813Z" fill="#FDD100"/>
<path fill-rule="evenodd" clip-rule="evenodd" d="M18.6715 21.784C18.6706 21.8091 18.6647 21.8339 18.6542 21.8567C18.6436 21.8796 18.6286 21.9001 18.6101 21.9171C18.5915 21.9341 18.5698 21.9472 18.5461 21.9557C18.5224 21.9642 18.4972 21.9678 18.4721 21.9665C18.4471 21.9654 18.4226 21.9595 18.4 21.949C18.3773 21.9384 18.357 21.9235 18.3401 21.9051C18.3232 21.8867 18.3101 21.8652 18.3015 21.8417C18.293 21.8182 18.2891 21.7933 18.2902 21.7684C18.2934 21.7198 18.3154 21.6745 18.3514 21.6418C18.3874 21.6092 18.4347 21.5918 18.4833 21.5934C18.5083 21.5933 18.533 21.5982 18.556 21.6077C18.579 21.6173 18.5999 21.6314 18.6175 21.6492C18.635 21.6669 18.6488 21.688 18.658 21.7111C18.6673 21.7343 18.6719 21.759 18.6715 21.784Z" fill="#FCCF00"/>
<path fill-rule="evenodd" clip-rule="evenodd" d="M18.2379 21.5699C18.1729 21.3918 18.2273 21.2624 18.3792 21.2474C18.4196 21.2409 18.461 21.2483 18.4967 21.2684C18.5323 21.2885 18.5601 21.3201 18.5754 21.3581C18.6217 21.4531 18.5948 21.5037 18.4904 21.4918C18.3904 21.4806 18.3298 21.5787 18.2342 21.5656L18.2379 21.5699Z" fill="#FACE00"/>
<path fill-rule="evenodd" clip-rule="evenodd" d="M18.3768 22.3004C18.2336 22.3047 18.1424 22.2022 18.1568 22.0791C18.1699 21.9704 18.2193 21.9466 18.3049 22.0091C18.3486 22.0397 18.3968 22.0591 18.4505 22.0635C18.5518 22.0716 18.5693 22.1072 18.5218 22.196C18.5083 22.2242 18.488 22.2485 18.4626 22.2668C18.4373 22.285 18.4078 22.2966 18.3768 22.3004Z" fill="#FBCE00"/>
<path fill-rule="evenodd" clip-rule="evenodd" d="M18.769 21.3996C18.8078 21.3962 18.8465 21.4055 18.8795 21.426C18.9125 21.4465 18.938 21.4772 18.9522 21.5133C18.9695 21.548 18.9756 21.5873 18.9695 21.6256C18.9635 21.6639 18.9456 21.6994 18.9184 21.7271C18.8422 21.809 18.7884 21.799 18.7528 21.6958C18.7397 21.6533 18.7115 21.619 18.6897 21.5808C18.669 21.5433 18.5778 21.5533 18.6172 21.4815C18.6323 21.455 18.6546 21.4333 18.6814 21.4188C18.7082 21.4043 18.7386 21.3977 18.769 21.3996Z" fill="#FCCF00"/>
<path fill-rule="evenodd" clip-rule="evenodd" d="M18.2316 21.5656C18.2354 21.6781 18.1548 21.7862 18.2148 21.905C18.2354 21.9456 18.1748 21.9456 18.1498 21.9494C18.1235 21.9524 18.0969 21.9499 18.0716 21.9421C18.0464 21.9343 18.023 21.9213 18.0031 21.904C17.9832 21.8866 17.9671 21.8653 17.9558 21.8414C17.9446 21.8174 17.9385 21.7914 17.9379 21.765C17.9362 21.7377 17.9402 21.7104 17.9499 21.6848C17.9595 21.6592 17.9744 21.6359 17.9936 21.6165C18.0129 21.597 18.036 21.5819 18.0615 21.5721C18.087 21.5622 18.1143 21.5579 18.1416 21.5594C18.1741 21.56 18.2023 21.585 18.2354 21.57L18.2316 21.5656Z" fill="#FDD000"/>
<path fill-rule="evenodd" clip-rule="evenodd" d="M18.9442 21.9874C18.9429 22.0911 18.9029 22.1549 18.8192 22.1886C18.7373 22.223 18.6692 22.2011 18.6098 22.1424C18.5704 22.1049 18.5479 22.0655 18.6217 22.0336C18.6748 22.0099 18.7067 21.963 18.7379 21.9142C18.7586 21.8811 18.7411 21.8117 18.8079 21.823C18.8623 21.8311 18.9004 21.8705 18.9242 21.9199C18.9348 21.9442 18.9404 21.9724 18.9442 21.9874Z" fill="#FBCF00"/>
<path fill-rule="evenodd" clip-rule="evenodd" d="M21.8153 21.518C21.4903 21.6262 21.3153 21.8299 21.3122 22.1637C21.2266 22.1089 21.1649 22.0236 21.1398 21.9251C21.1146 21.8266 21.1277 21.7222 21.1766 21.633C21.2884 21.4393 21.5503 21.388 21.8153 21.518ZM20.8128 21.1855C20.7341 21.4749 20.7272 21.7643 20.7147 22.0693C20.5997 21.993 20.5478 21.8987 20.5428 21.7818C20.5378 21.661 20.5378 21.5401 20.5428 21.4193C20.5509 21.228 20.5922 21.1905 20.8128 21.1855Z" fill="#FDD000"/>
<path fill-rule="evenodd" clip-rule="evenodd" d="M19.3351 22.0747C19.3351 21.7715 19.3238 21.4984 19.2582 21.2309C19.2532 21.2103 19.2451 21.1747 19.2838 21.1797C19.3632 21.1922 19.4663 21.1759 19.4907 21.2847C19.5376 21.479 19.5407 21.6753 19.4988 21.8709C19.4801 21.9515 19.427 22.0122 19.3351 22.0747Z" fill="#FCCF00"/>
<path fill-rule="evenodd" clip-rule="evenodd" d="M19.2994 20.9397C19.2619 20.9066 19.2044 20.8779 19.2082 20.8322C19.2138 20.7922 19.2588 20.7379 19.3094 20.7447C19.3507 20.7504 19.4026 20.7929 19.3969 20.841C19.3907 20.8847 19.3438 20.9191 19.2994 20.9397Z" fill="#F3C800"/>
<path fill-rule="evenodd" clip-rule="evenodd" d="M20.86 20.8248C20.835 20.8748 20.8 20.9261 20.7588 20.9298C20.7094 20.9336 20.66 20.8761 20.6563 20.833C20.6544 20.7942 20.71 20.7373 20.7513 20.7398C20.7888 20.7417 20.8238 20.7942 20.86 20.8248Z" fill="#F2C700"/>
<path fill-rule="evenodd" clip-rule="evenodd" d="M19.6504 22.4111C19.7042 22.4092 19.7798 22.4092 19.7854 22.4955C19.7873 22.5911 19.7098 22.5923 19.6379 22.5898C19.6092 22.5886 19.5804 22.5898 19.5554 22.5811C19.4986 22.5642 19.4017 22.578 19.4086 22.4948C19.4148 22.4223 19.5048 22.4273 19.5661 22.4173C19.5892 22.4142 19.6148 22.4142 19.6504 22.4111Z" fill="#060500"/>
<path fill-rule="evenodd" clip-rule="evenodd" d="M20.4424 22.5934C20.353 22.5921 20.2724 22.5984 20.2755 22.4996C20.278 22.4015 20.3611 22.4115 20.428 22.4165C20.4799 22.4203 20.5311 22.4277 20.5811 22.439C20.6174 22.4477 20.6574 22.464 20.6555 22.5065C20.6511 22.5459 20.6111 22.5615 20.5749 22.569C20.5267 22.5802 20.4749 22.5884 20.4424 22.5934Z" fill="#050400"/>
</svg>
