<svg width="40" height="40" viewBox="0 0 40 40" fill="none" xmlns="http://www.w3.org/2000/svg">
<path d="M0 15H40V25H0V15Z" fill="#E6E7E8"/>
<path d="M33.75 6.25H6.25C2.10813 6.25 0 9.32812 0 13.125V15H40V13.125C40 9.32812 37.8919 6.25 33.75 6.25Z" fill="#EC1C24"/>
<path d="M0 26.875C0 30.6719 2.10813 33.75 6.25 33.75H33.75C37.8919 33.75 40 30.6719 40 26.875V25H0V26.875Z" fill="#128807"/>
<path fill-rule="evenodd" clip-rule="evenodd" d="M23.0284 23.3502C21.2846 22.8353 19.4296 22.8321 17.684 23.3408C17.624 23.3577 17.6009 23.3452 17.5853 23.2852C17.5624 23.1877 17.5342 23.0915 17.5009 22.9971C17.4803 22.9333 17.4965 22.9127 17.559 22.8933C17.9653 22.7769 18.3784 22.6857 18.7959 22.6202C20.2354 22.3961 21.7065 22.4887 23.1065 22.8914C23.1796 22.9127 23.1959 22.9383 23.1703 23.0071C23.1347 23.1046 23.1084 23.2058 23.0803 23.3058C23.0703 23.3414 23.0596 23.3633 23.0284 23.3502ZM16.4246 18.8814C16.474 18.7289 16.5115 18.5971 16.5596 18.4696C16.5846 18.4033 16.5709 18.3689 16.5128 18.3321C16.3999 18.2576 16.2937 18.1735 16.1953 18.0808C16.3184 18.0808 16.444 18.0733 16.5659 18.0839C16.664 18.0927 16.7015 18.0527 16.7246 17.9664C16.7559 17.8471 16.7984 17.7308 16.8459 17.5827C16.8953 17.7333 16.9384 17.8564 16.9728 17.9833C16.994 18.0627 17.0328 18.0877 17.1153 18.0821C17.2415 18.0746 17.3684 18.0802 17.5246 18.0802C17.4003 18.1727 17.299 18.2521 17.1915 18.3214C17.1253 18.3646 17.1046 18.4058 17.1359 18.4846C17.184 18.6046 17.2184 18.7308 17.2665 18.8802C17.1296 18.7821 17.0165 18.7027 16.9059 18.6177C16.8615 18.5839 16.8303 18.5852 16.784 18.6196C16.6734 18.7058 16.559 18.7852 16.4246 18.8814ZM23.1747 18.0846C23.3072 18.0846 23.4409 18.0796 23.5734 18.0864C23.6446 18.0908 23.6728 18.0639 23.6915 17.9983C23.7284 17.8702 23.7728 17.7452 23.8234 17.5889C23.8759 17.7452 23.9221 17.8746 23.9584 18.0064C23.9759 18.0714 24.0084 18.0877 24.0715 18.0864C24.2046 18.0827 24.3378 18.0846 24.5021 18.0846C24.3665 18.1827 24.2578 18.2696 24.1434 18.3458C24.0934 18.3789 24.0884 18.4102 24.1065 18.4627C24.1528 18.5933 24.1934 18.7264 24.2453 18.8852C24.114 18.7908 24.0015 18.7158 23.8978 18.6314C23.8403 18.5852 23.8028 18.5902 23.749 18.6321C23.6446 18.7146 23.534 18.7896 23.4034 18.8839C23.4534 18.7264 23.4934 18.5927 23.5403 18.4621C23.5603 18.4077 23.5528 18.3777 23.504 18.3452C23.3903 18.2677 23.2809 18.1846 23.1703 18.1027L23.1747 18.0846ZM19.9246 16.8333C19.9709 16.6939 20.0115 16.5577 20.0615 16.4214C20.0796 16.3702 20.049 16.3552 20.0203 16.3339L19.6565 16.0696C19.8153 16.0696 19.944 16.0633 20.0728 16.0714C20.1578 16.0783 20.189 16.0464 20.2109 15.9689C20.2435 15.8436 20.2894 15.7221 20.3478 15.6064C20.3903 15.7339 20.4371 15.8608 20.4721 15.9902C20.4903 16.0546 20.5215 16.0733 20.5846 16.0714C20.7178 16.0671 20.8521 16.0696 21.0165 16.0696C20.8896 16.1608 20.7896 16.2402 20.6846 16.3108C20.619 16.3533 20.5953 16.3921 20.6272 16.4721C20.6772 16.5914 20.709 16.7183 20.7578 16.8689C20.6228 16.7708 20.5078 16.6914 20.399 16.6083C20.354 16.5739 20.3221 16.5721 20.2771 16.6071C20.1923 16.6735 20.1052 16.7368 20.0159 16.7971C19.989 16.8158 19.9671 16.8471 19.9246 16.8333ZM15.6621 20.1002C15.799 20.1002 15.9359 20.0958 16.0721 20.1008C16.1284 20.1021 16.1553 20.0852 16.1715 20.0296C16.2103 19.8989 16.2553 19.7696 16.319 19.6352C16.3578 19.7496 16.4003 19.8627 16.4303 19.9796C16.4534 20.0708 16.4934 20.1108 16.5946 20.1008C16.714 20.0908 16.8353 20.1002 16.989 20.1002C16.8671 20.1883 16.7703 20.2677 16.6653 20.3321C16.5871 20.3814 16.5696 20.4296 16.6065 20.5177C16.654 20.6314 16.6828 20.7514 16.7296 20.8983C16.5965 20.8027 16.4865 20.7277 16.3815 20.6446C16.3265 20.6002 16.2865 20.6033 16.234 20.6477C16.1571 20.7108 16.074 20.7664 15.9903 20.8252C15.964 20.8439 15.9421 20.8739 15.8971 20.8633C15.9384 20.7364 15.979 20.6083 16.0253 20.4839C16.0484 20.4227 16.034 20.3889 15.9803 20.3527C15.8696 20.2789 15.7634 20.1977 15.6553 20.1196C15.659 20.1121 15.6596 20.1046 15.6621 20.1002ZM23.9559 20.8621C24.0034 20.7189 24.0471 20.5802 24.0959 20.4414C24.1134 20.3933 24.0746 20.3821 24.0509 20.3639C23.9378 20.2808 23.8272 20.1989 23.6872 20.1002C23.8465 20.1002 23.9759 20.0952 24.104 20.1008C24.1803 20.1046 24.2178 20.0852 24.2378 20.0064C24.273 19.8791 24.3203 19.7554 24.379 19.6371C24.4209 19.7646 24.4684 19.8908 24.5034 20.0208C24.5222 20.0858 24.5546 20.1021 24.6171 20.1008C24.7503 20.0958 24.8828 20.1002 25.0497 20.1002C24.9159 20.1952 24.8084 20.2777 24.6978 20.3527C24.6446 20.3883 24.6303 20.4221 24.6521 20.4833C24.6984 20.6114 24.7396 20.7421 24.789 20.9002C24.6521 20.8008 24.539 20.7202 24.4284 20.6371C24.3834 20.6014 24.3509 20.6014 24.3065 20.6371C24.2215 20.7027 24.1347 20.7646 24.0472 20.8271C24.0209 20.8452 23.999 20.8771 23.9559 20.8621ZM17.9121 17.3727C17.949 17.2621 17.9771 17.1483 18.0228 17.0421C18.0596 16.9496 18.0521 16.8914 17.959 16.8383C17.8578 16.7783 17.7646 16.6996 17.6428 16.6108C17.804 16.6108 17.934 16.6071 18.0628 16.6127C18.1334 16.6152 18.169 16.5964 18.1903 16.5214C18.2253 16.3952 18.2709 16.2702 18.3221 16.1164C18.374 16.2746 18.4203 16.4064 18.4603 16.5389C18.4765 16.5946 18.5015 16.6133 18.5584 16.6127C18.6953 16.6071 18.8309 16.6108 18.9759 16.6296C18.8696 16.7071 18.7634 16.7871 18.6559 16.8608C18.5971 16.8989 18.5834 16.9352 18.6071 17.0008C18.6546 17.1239 18.6909 17.2514 18.7128 17.3896C18.6109 17.3139 18.5046 17.2433 18.4059 17.1646C18.3471 17.1177 18.3021 17.1127 18.2396 17.1627C18.1421 17.2421 18.0359 17.3133 17.934 17.3877C17.9278 17.3814 17.9203 17.3777 17.9121 17.3727ZM21.7053 16.6102C21.8421 16.6102 21.9771 16.6083 22.1134 16.6121C22.1709 16.6127 22.1978 16.5958 22.2134 16.5396C22.2528 16.4058 22.2996 16.2739 22.3515 16.1158C22.404 16.2752 22.4503 16.4071 22.4903 16.5396C22.5065 16.5952 22.5334 16.6127 22.5896 16.6121C22.7286 16.6057 22.8679 16.6113 23.0059 16.6289C22.8959 16.7089 22.7878 16.7908 22.6765 16.8677C22.6253 16.9008 22.6153 16.9339 22.6353 16.9914C22.6815 17.1171 22.7203 17.2446 22.7421 17.3883C22.6428 17.3152 22.539 17.2464 22.4434 17.1683C22.3778 17.1139 22.3271 17.1121 22.2615 17.1677C22.1635 17.2489 22.0566 17.3188 21.9428 17.3758C21.9822 17.2558 22.0171 17.1308 22.0621 17.0121C22.0884 16.9389 22.0778 16.8977 22.0109 16.8558C21.9046 16.7871 21.8046 16.7077 21.7009 16.6333L21.7053 16.6102ZM18.6084 22.4996C18.429 22.4933 18.2828 22.4096 18.1515 22.2946C18.1196 22.2671 18.1215 22.2502 18.1559 22.2283C18.239 22.1746 18.3646 22.1733 18.4103 22.1039C18.4546 22.0358 18.4303 21.9221 18.4715 21.8346C18.5359 21.6933 18.5553 21.6902 18.6665 21.8033C18.6796 21.8183 18.6934 21.8327 18.7059 21.8483C18.8409 22.0133 18.8409 22.0133 19.0534 22.0546C19.1571 22.0733 19.1603 22.0814 19.1059 22.1721C18.9921 22.3583 18.8421 22.4921 18.6084 22.4996ZM20.3471 22.3583C20.1284 22.3496 19.9759 22.2327 19.8453 22.0733C19.8184 22.0389 19.8303 22.0227 19.8671 22.0089C19.934 21.9846 19.9996 21.9583 20.0709 21.9539C20.1278 21.9533 20.1515 21.9358 20.1584 21.8739C20.1684 21.7708 20.2203 21.6858 20.2878 21.6071C20.3215 21.5671 20.3471 21.5621 20.3821 21.6058C20.4478 21.6877 20.504 21.7746 20.5259 21.8789C20.5346 21.9208 20.5522 21.9396 20.5965 21.9433C20.6734 21.9508 20.749 21.9677 20.8203 22.0021C20.8534 22.0189 20.8646 22.0352 20.8365 22.0702C20.7121 22.2352 20.5596 22.3489 20.3471 22.3583ZM22.1221 22.4996C21.8709 22.4983 21.6197 22.3196 21.5515 22.1296C21.5359 22.0877 21.5515 22.0802 21.589 22.0721C21.6609 22.0553 21.7348 22.0494 21.8084 22.0546C21.859 22.0583 21.8771 22.0433 21.8921 21.9939C21.9203 21.8864 21.9922 21.8077 22.0765 21.7377C22.1097 21.7077 22.1315 21.7108 22.1547 21.7508C22.2028 21.8346 22.2534 21.9214 22.2509 22.0208C22.2497 22.0977 22.2828 22.1239 22.3509 22.1389C22.4125 22.1537 22.4705 22.1807 22.5215 22.2183C22.5578 22.2427 22.564 22.2633 22.529 22.2964C22.4009 22.4171 22.254 22.4964 22.1221 22.4996Z" fill="#F7C200"/>
<path fill-rule="evenodd" clip-rule="evenodd" d="M23.045 21.5921C22.6944 21.4896 22.4562 21.2583 22.3075 20.9271L22.2694 20.9602C21.6162 21.4946 20.6544 21.164 20.4956 20.3352C20.4306 19.994 20.4644 19.639 20.485 19.2908C20.4944 19.1371 20.6544 19.0221 20.8106 19.0127C20.9487 19.0058 21.0512 19.0721 21.1387 19.1721C21.2644 18.8421 21.1262 18.4402 20.82 18.2258C20.6643 18.118 20.477 18.0653 20.2879 18.0761C20.0988 18.0868 19.9187 18.1604 19.7762 18.2852C19.4825 18.5358 19.4312 18.9658 19.5375 19.1702C19.6581 19.0246 19.8081 18.9683 19.985 19.0433C20.1594 19.119 20.205 19.269 20.2012 19.449C20.1937 19.6871 20.2 19.9258 20.2 20.164C20.1962 20.6965 19.7506 21.1721 19.2212 21.2127C19.0676 21.228 18.9125 21.2109 18.7659 21.1623C18.6194 21.1137 18.4847 21.0349 18.3706 20.9308C18.08 21.589 17.3025 21.8527 16.6575 21.4458C16.6494 21.6896 16.8375 21.9552 17.0887 22.0558C17.6062 22.2596 18.2519 21.9396 18.4037 21.404C18.4169 21.3608 18.4281 21.3165 18.4431 21.2596C18.4775 21.3052 18.5006 21.3396 18.525 21.374C18.6581 21.5471 18.8194 21.6821 19.0331 21.7352C19.4237 21.8315 19.7375 21.6883 20.0006 21.4083C20.1575 21.2433 20.255 21.0433 20.3306 20.8246C20.3675 20.854 20.3687 20.8896 20.3794 20.919C20.4487 21.1027 20.5469 21.2702 20.6787 21.4152C21.1387 21.9183 21.7994 21.8758 22.1887 21.3202C22.2012 21.3033 22.2031 21.2752 22.2337 21.2771C22.2387 21.2852 22.245 21.2902 22.2462 21.2958C22.3381 21.8852 22.9637 22.1977 23.4406 22.099C23.7662 22.0333 24.0175 21.7558 24.0194 21.4396C23.715 21.6333 23.3881 21.6927 23.045 21.5927M20.3787 19.0271C20.3469 19.0683 20.3337 19.0796 20.2956 19.0308C20.2384 18.9515 20.1608 18.889 20.071 18.8501C19.9813 18.8112 19.8827 18.7972 19.7856 18.8096C19.7244 18.8146 19.7281 18.7865 19.7369 18.744C19.7912 18.4877 20.0456 18.2858 20.3262 18.2833C20.6169 18.2802 20.8731 18.474 20.9369 18.7421C20.96 18.8402 20.8969 18.8046 20.8525 18.804C20.7614 18.8007 20.6709 18.8192 20.5885 18.858C20.5061 18.8968 20.4342 18.9548 20.3787 19.0271Z" fill="#F7C200"/>
</svg>
