<svg width="492" height="422" viewBox="0 0 492 422" fill="none" xmlns="http://www.w3.org/2000/svg">
<circle cx="245.707" cy="276.074" r="50.2073" stroke="white" stroke-width="3"/>
<path d="M214.683 259.864V285.161C214.702 290.881 218.986 295.483 224.213 295.464H258.024C258.982 295.464 259.76 294.62 259.76 293.595V268.298C259.735 262.581 255.45 257.976 250.23 257.998H216.412C215.457 257.998 214.683 258.839 214.683 259.864ZM261.91 269.735L275.874 258.614C277.085 257.518 278.024 257.792 278.024 259.774V293.689C278.024 295.945 276.876 295.671 275.874 294.849L261.91 283.75V269.735Z" fill="white"/>
<path d="M168.94 410.314L166.116 410.188H140.749L174.582 376.301L174.456 373.472C174.391 371.277 173.492 369.19 171.941 367.637C170.391 366.084 168.307 365.183 166.116 365.118L163.299 365H121L121.165 367.821C121.486 372.411 124.837 375.892 129.45 376.175L132.275 376.301H157.697L123.809 410.188L123.934 413.018C124.016 415.207 124.921 417.285 126.468 418.834C128.015 420.383 130.089 421.29 132.275 421.371L135.1 421.489H177.398L177.273 418.668C176.904 414.039 173.593 410.644 168.932 410.361L168.94 410.314ZM202.812 365.008H202.773C165.182 365.047 165.213 421.489 202.773 421.489C240.372 421.489 240.372 365.055 202.812 365.008ZM214.746 405.245C213.19 406.886 211.321 408.197 209.249 409.102C207.178 410.006 204.947 410.486 202.688 410.512C200.428 410.539 198.186 410.111 196.095 409.255C194.003 408.399 192.104 407.132 190.509 405.528C188.914 403.928 187.653 402.024 186.802 399.929C185.952 397.835 185.527 395.59 185.554 393.329C185.581 391.067 186.059 388.834 186.96 386.76C187.861 384.686 189.166 382.814 190.8 381.252C206.775 366.069 229.905 389.237 214.746 405.245ZM349.403 365.008C342.946 365.008 336.818 367.782 332.526 372.655C328.893 368.535 323.887 365.882 318.443 365.191C312.999 364.5 307.49 365.817 302.946 368.898C300.78 366.438 295.829 365.008 293.052 365.008V421.489L295.876 421.371C300.576 421.034 304.005 417.725 304.17 413.018L304.327 410.188V390.415L304.452 387.594C304.578 385.464 304.86 383.578 305.841 381.944C307.336 379.348 309.8 377.453 312.69 376.677C315.579 375.9 318.659 376.305 321.251 377.802C322.969 378.784 324.35 380.223 325.331 381.897C326.312 383.57 326.594 385.457 326.72 387.586L326.884 390.408V410.18L327.002 413.01C327.292 417.591 330.682 421.026 335.343 421.364L338.167 421.481V390.415L338.285 387.594C338.371 385.512 338.693 383.539 339.674 381.904C340.664 380.186 342.09 378.76 343.807 377.769C345.523 376.779 347.471 376.26 349.452 376.265C351.433 376.27 353.378 376.798 355.09 377.797C356.802 378.795 358.221 380.228 359.203 381.952C360.144 383.586 360.435 385.512 360.552 387.602L360.717 390.423V410.196L360.843 413.025C360.93 415.213 361.836 417.288 363.382 418.836C364.928 420.384 366.999 421.292 369.183 421.379L372 421.497V387.61C371.992 381.613 369.607 375.865 365.37 371.629C361.133 367.392 355.39 365.014 349.403 365.016V365.008ZM242.083 373.275C239.352 375.869 237.168 378.984 235.659 382.437C234.15 385.89 233.347 389.611 233.298 393.379C233.248 397.148 233.952 400.889 235.37 404.381C236.787 407.872 238.888 411.044 241.549 413.709C244.208 416.378 247.374 418.487 250.86 419.911C254.346 421.334 258.081 422.044 261.846 421.998C265.61 421.952 269.327 421.151 272.777 419.642C276.227 418.133 279.341 415.948 281.933 413.214C307.23 386.612 268.65 347.978 242.083 373.267V373.275ZM273.962 405.245C272.399 406.862 270.53 408.152 268.464 409.038C266.399 409.924 264.178 410.39 261.93 410.407C259.683 410.424 257.455 409.993 255.376 409.139C253.297 408.284 251.409 407.024 249.822 405.431C248.234 403.838 246.979 401.944 246.13 399.86C245.282 397.776 244.855 395.543 244.877 393.292C244.899 391.042 245.368 388.818 246.257 386.751C247.146 384.683 248.437 382.814 250.054 381.252C265.99 365.699 289.529 389.237 273.962 405.245Z" fill="white"/>
<g clip-path="url(#clip0_327_2)">
<path d="M492 79.4951C492 32.7164 462.286 0.0395842 419.736 0C419.727 0 419.707 0 419.697 0C419.687 0 419.667 0 419.657 0C377.029 0.0395842 347.315 32.7164 347.315 79.4951C347.315 126.274 377.029 158.951 419.657 158.99C419.667 158.99 419.687 158.99 419.697 158.99C419.707 158.99 419.727 158.99 419.736 158.99C462.296 158.951 492 126.274 492 79.4951ZM419.707 153.389C401.238 153.379 384.509 146.462 372.513 133.904C359.696 120.485 352.928 101.672 352.928 79.4951C352.928 57.318 359.706 38.5056 372.513 25.0865C384.509 12.5284 401.238 5.61107 419.707 5.60117C438.096 5.61107 454.826 12.5284 466.812 25.0865C479.628 38.5056 486.397 57.318 486.397 79.4951C486.397 101.672 479.618 120.485 466.812 133.904C454.816 146.462 438.086 153.379 419.707 153.389Z" fill="white"/>
<path d="M307.572 126.611H265.16V42.9102H281.346V111.896H307.581V126.611H307.572ZM221.069 126.611H204.705V42.9102H225.496C230.763 42.9102 234.943 43.207 237.976 43.7711C241.01 44.3352 243.48 45.2654 245.368 46.5321C248.796 48.8676 251.514 51.9453 253.48 55.775C255.457 59.6246 256.435 63.7216 256.435 68.0758C256.435 76.0818 253.787 82.4944 248.52 87.2841C243.233 92.0738 236.118 94.4686 227.166 94.4686H221.069V126.611ZM221.069 80.3272H225.377C229.923 80.3272 233.431 79.3475 235.862 77.3682C238.292 75.4088 239.508 72.5785 239.508 68.8873C239.508 65.0971 238.332 62.2767 235.98 60.4163C233.628 58.5558 230.041 57.6256 225.269 57.6256H221.079V80.3272H221.069ZM146.058 109.065L139.576 126.611H122.629L155.07 42.9102H169.171L201.148 126.611H183.628L177.047 109.065H146.058ZM171.642 93.5483L161.77 66.5914L151.681 93.5483H171.642Z" fill="white"/>
<path d="M230.694 25.1756C243.777 12.568 262.038 5.62096 282.166 5.61107C300.793 5.62096 317.848 11.6081 330.665 22.5333L334.657 18.5353C321.178 6.7788 303.125 0.00989606 282.186 0C282.176 0 282.166 0 282.166 0H282.147C249.36 0.0197921 223.628 16.5462 211.484 42.9093H217.62C220.98 36.279 225.348 30.3314 230.694 25.1756Z" fill="white"/>
<path d="M297.828 87.9961V93.6072H332.078V139.139C327.443 142.207 308.787 153.32 282.137 153.389C262.048 153.389 243.777 146.442 230.694 133.825C227.018 130.282 223.816 126.353 221.069 122.098V126.611H217.393C231.01 146.779 253.974 159 282.137 159H282.147C314.864 158.921 335.694 143.503 336.564 142.85L337.681 142.009V87.9961H297.828Z" fill="white"/>
<path d="M11.087 117.15C41.6901 115.963 44.6051 107.997 73.2615 121.891C55.208 114.617 46.5419 115.646 34.2196 116.666C29.8817 117.022 25.099 117.388 19.2986 117.388C16.7689 117.388 14.0515 117.319 11.087 117.15ZM110.633 51.4307C105.732 73.5385 90.6628 83.1278 92.4019 116.299C87.2043 83.2663 101.829 74.1521 110.633 51.4307ZM23.9528 32.8756C46.7395 67.7592 46.1664 88.7883 82.2833 116.695C43.4786 96.5073 37.5497 56.5767 23.9528 32.8756ZM60.8503 110.827C29.9113 97.4969 31.3342 110.362 0 116.428C18.2215 122.87 23.0338 133.994 39.862 134.033C46.7197 134.043 52.0656 131.678 57.0459 129.313C64.6349 125.72 71.3741 122.118 81.2951 126.888C78.1034 121.93 70.5342 116.923 68.8642 115.369C76.6212 119.219 83.8643 121.94 92.896 122.969C93.4 124.107 93.8842 124.78 94.6055 125.443C93.9929 109.54 100.604 107.898 108.133 99.9907C122.037 84.2164 120.91 72.9546 116.068 54.9042C114.734 50.3421 114.467 43.4248 114.24 37.4377C110.218 46.5915 105.169 53.024 96.483 60.9804C80.6627 74.9833 83.6272 103.949 92.1351 121.158C73.0243 109.659 85.6529 72.9349 67.4215 54.261C59.1013 41.8909 26.8876 31.3714 14.3875 18.0117C34.2592 60.8617 7.92497 77.111 60.8503 110.827Z" fill="white"/>
<path d="M312.275 50.9642H314.331C314.854 50.9642 315.269 51.083 315.556 51.3106C315.842 51.5382 315.991 51.8648 315.991 52.3002C315.991 52.7158 315.842 53.0523 315.546 53.2997C315.25 53.5471 314.844 53.6757 314.34 53.6757H312.265V50.9642H312.275ZM312.275 57.7232V54.9226H314.024L316.02 57.7331H317.69L315.516 54.6851C316.109 54.5169 316.584 54.2299 316.929 53.8143C317.275 53.3987 317.453 52.8841 317.453 52.2408C317.453 51.459 317.186 50.8356 316.653 50.3705C316.119 49.9053 315.388 49.6777 314.459 49.6777H310.872V57.7331H312.275V57.7232Z" fill="white"/>
<path d="M313.876 61.7514C309.439 61.7514 305.833 58.1393 305.833 53.696C305.833 49.2527 309.439 45.6406 313.876 45.6406C318.313 45.6406 321.92 49.2527 321.92 53.696C321.92 58.1393 318.303 61.7514 313.876 61.7514ZM313.876 46.4521C309.884 46.4521 306.643 49.7079 306.643 53.696C306.643 57.694 309.894 60.9399 313.876 60.9399C317.868 60.9399 321.109 57.6841 321.109 53.696C321.109 49.7079 317.868 46.4521 313.876 46.4521Z" fill="white"/>
</g>
<defs>
<clipPath id="clip0_327_2">
<rect width="492" height="159" fill="white"/>
</clipPath>
</defs>
</svg>
