<svg width="24" height="24" viewBox="0 0 24 24" fill="none" xmlns="http://www.w3.org/2000/svg">
<path d="M12.8197 5.57912L11.999 6.40162L11.1757 5.57837C9.07663 3.47931 5.67337 3.47931 3.5743 5.57837C1.47523 7.67744 1.47523 11.0807 3.5743 13.1797L11.4697 21.0751C11.7626 21.368 12.2374 21.368 12.5303 21.0751L20.4318 13.1783C22.5262 11.0722 22.5298 7.67857 20.4303 5.57912C18.3274 3.47623 14.9226 3.47623 12.8197 5.57912ZM19.3682 12.1205L12 19.4841L4.63496 12.1191C3.12168 10.6058 3.12168 8.15232 4.63496 6.63903C6.14824 5.12575 8.60176 5.12575 10.115 6.63903L11.4725 7.99648C11.7703 8.29434 12.255 8.28854 12.5457 7.98363L13.8803 6.63978C15.3974 5.12268 17.8526 5.12267 19.3697 6.63978C20.8833 8.15342 20.8807 10.5996 19.3682 12.1205Z" fill="#739E3C"/>
</svg>
