<svg width="80" height="80" viewBox="0 0 80 80" fill="none" xmlns="http://www.w3.org/2000/svg">
<rect width="80" height="80" rx="10" fill="white"/>
<path d="M69.9452 65.0909H66.7609C66.2558 50.9324 54.5876 39.5692 40.3081 39.5692C26.0287 39.5692 14.3605 50.9334 13.8554 65.0909H10.9541C10.427 65.0909 10 65.5179 10 66.045C10 66.572 10.427 66.9991 10.9541 66.9991H14.7825C14.7835 66.9991 14.7845 67.0001 14.7855 67.0001C14.7865 67.0001 14.7875 66.9991 14.7885 66.9991H65.8278C65.8288 66.9991 65.8298 67.0001 65.8308 67.0001C65.8318 67.0001 65.8328 66.9991 65.8338 66.9991H69.9442C70.4713 66.9991 70.8983 66.572 70.8983 66.045C70.8983 65.5179 70.4723 65.0909 69.9452 65.0909Z" fill="#84C2D9"/>
<path d="M65.8307 67.0001C65.3036 67.0001 64.8766 66.573 64.8766 66.046C64.8766 52.4986 53.8554 41.4774 40.308 41.4774C26.7606 41.4774 15.7395 52.4996 15.7395 66.046C15.7395 66.573 15.3125 67.0001 14.7854 67.0001C14.2583 67.0001 13.8313 66.573 13.8313 66.046C13.8313 51.4464 25.7085 39.5692 40.308 39.5692C54.9076 39.5692 66.7848 51.4464 66.7848 66.046C66.7848 66.573 66.3577 67.0001 65.8307 67.0001Z" fill="#333333"/>
<path d="M53.1815 67.0001C52.6544 67.0001 52.2274 66.573 52.2274 66.046C52.2274 59.3753 50.9242 53.1186 48.559 48.4281C46.2988 43.9457 43.3685 41.4774 40.3081 41.4774C37.2488 41.4774 34.3185 43.9457 32.0573 48.4281C29.692 53.1176 28.3889 59.3753 28.3889 66.046C28.3889 66.573 27.9619 67.0001 27.4348 67.0001C26.9078 67.0001 26.4807 66.573 26.4807 66.046C26.4807 59.0822 27.8559 52.5206 30.3531 47.569C32.9554 42.4105 36.4908 39.5692 40.3071 39.5692C44.1245 39.5692 47.6599 42.4105 50.2612 47.569C52.7584 52.5206 54.1336 59.0822 54.1336 66.046C54.1356 66.573 53.7085 67.0001 53.1815 67.0001Z" fill="#333333"/>
<path d="M40.3082 54.1291C32.9505 54.1291 25.8798 52.5389 20.9082 49.7677C20.4482 49.5106 20.2832 48.9306 20.5402 48.4695C20.7972 48.0095 21.3773 47.8445 21.8383 48.1015C26.5338 50.7198 33.2655 52.2219 40.3082 52.2219C47.351 52.2219 54.0827 50.7198 58.7782 48.1015C59.2382 47.8445 59.8193 48.0095 60.0763 48.4695C60.3333 48.9296 60.1683 49.5106 59.7083 49.7677C54.7367 52.5389 47.666 54.1291 40.3082 54.1291Z" fill="#333333"/>
<path d="M40.3081 66.923C39.781 66.923 39.354 66.496 39.354 65.969V40.5233C39.354 39.9963 39.781 39.5692 40.3081 39.5692C40.8352 39.5692 41.2622 39.9963 41.2622 40.5233V65.969C41.2622 66.496 40.8352 66.923 40.3081 66.923Z" fill="#333333"/>
<path d="M69.9452 66.9995H10.9541C10.427 66.9995 10 66.5725 10 66.0454C10 65.5184 10.427 65.0913 10.9541 65.0913H69.9452C70.4723 65.0913 70.8993 65.5184 70.8993 66.0454C70.8993 66.5725 70.4723 66.9995 69.9452 66.9995Z" fill="#333333"/>
<path d="M40.4112 25.7423C36.8978 25.7423 34.0396 22.884 34.0396 19.3707C34.0396 15.8583 36.8978 13 40.4112 13C43.9246 13 46.7829 15.8583 46.7829 19.3717C46.7829 22.885 43.9246 25.7423 40.4112 25.7423ZM40.4112 14.9082C37.95 14.9082 35.9477 16.9104 35.9477 19.3717C35.9477 21.8329 37.95 23.8351 40.4112 23.8351C42.8725 23.8351 44.8747 21.8329 44.8747 19.3717C44.8747 16.9104 42.8725 14.9082 40.4112 14.9082Z" fill="#333333"/>
<path d="M49.6081 39.2996C49.159 39.2996 48.759 38.9816 48.672 38.5235L47.7389 33.617C47.1748 30.7997 44.6735 28.7485 41.7912 28.7485H39.184C36.3487 28.7485 33.8584 30.7567 33.2564 33.526L32.3403 38.5165C32.2453 39.0346 31.7482 39.3776 31.2292 39.2826C30.7111 39.1876 30.3681 38.6905 30.4631 38.1725L31.3822 33.167C31.3842 33.157 31.3862 33.148 31.3882 33.139C32.1733 29.4896 35.4516 26.8413 39.185 26.8413H41.7922C45.5806 26.8413 48.869 29.5376 49.6121 33.252L50.5472 38.1665C50.6452 38.6835 50.3061 39.1836 49.7881 39.2816C49.7271 39.2936 49.6671 39.2996 49.6081 39.2996Z" fill="#333333"/>
<path d="M20.6892 30.4229C17.5959 30.4229 15.0796 27.9066 15.0796 24.8133C15.0796 21.72 17.5959 19.2037 20.6892 19.2037C23.7825 19.2037 26.2988 21.72 26.2988 24.8133C26.2988 27.9076 23.7825 30.4229 20.6892 30.4229ZM20.6892 21.1129C18.648 21.1129 16.9878 22.7731 16.9878 24.8143C16.9878 26.8555 18.648 28.5157 20.6892 28.5157C22.7304 28.5157 24.3906 26.8555 24.3906 24.8143C24.3906 22.7731 22.7304 21.1129 20.6892 21.1129Z" fill="#333333"/>
<path d="M12.1852 45.8974C12.1262 45.8974 12.0662 45.8924 12.0052 45.8804C11.4881 45.7814 11.1481 45.2823 11.2471 44.7643L12.7993 36.6234C12.8003 36.6164 12.8023 36.6084 12.8033 36.6014C13.4914 33.4041 16.3637 31.0839 19.634 31.0839H21.8742C25.1936 31.0839 28.0749 33.4461 28.7259 36.7004C28.8289 37.2175 28.4939 37.7195 27.9779 37.8236C27.4608 37.9266 26.9588 37.5915 26.8557 37.0755C26.3827 34.7102 24.2875 32.9921 21.8752 32.9921H19.635C17.2607 32.9921 15.1755 34.6742 14.6715 36.9925L13.1213 45.1213C13.0343 45.5794 12.6343 45.8974 12.1852 45.8974Z" fill="#333333"/>
<path d="M59.8542 30.4229C56.7619 30.4229 54.2446 27.9066 54.2446 24.8133C54.2446 21.72 56.7609 19.2037 59.8542 19.2037C62.9475 19.2037 65.4638 21.72 65.4638 24.8133C65.4628 27.9076 62.9475 30.4229 59.8542 30.4229ZM59.8542 21.1129C57.813 21.1129 56.1528 22.7731 56.1528 24.8143C56.1528 26.8555 57.813 28.5157 59.8542 28.5157C61.8954 28.5157 63.5556 26.8555 63.5556 24.8143C63.5556 22.7731 61.8944 21.1129 59.8542 21.1129Z" fill="#333333"/>
<path d="M68.358 45.8984C67.9089 45.8984 67.5089 45.5804 67.4219 45.1223L65.8717 36.9935C65.3677 34.6752 63.2825 32.9931 60.9082 32.9931H58.668C56.2557 32.9931 54.1605 34.7102 53.6875 37.0755C53.5845 37.5915 53.0814 37.9276 52.5653 37.8236C52.0483 37.7206 51.7133 37.2175 51.8173 36.7004C52.4683 33.4461 55.3496 31.0839 58.668 31.0839H60.9082C64.1786 31.0839 67.0509 33.4041 67.7389 36.6014C67.7409 36.6084 67.7419 36.6164 67.7429 36.6234L69.2951 44.7643C69.3941 45.2813 69.0541 45.7814 68.537 45.8804C68.477 45.8924 68.417 45.8984 68.358 45.8984Z" fill="#333333"/>
</svg>
