<svg width="80" height="80" viewBox="0 0 80 80" fill="none" xmlns="http://www.w3.org/2000/svg">
<rect width="80" height="80" rx="10" fill="white"/>
<path d="M37.8023 14.5706C36.8539 18.3385 39.5699 20.0247 43.2121 20.9414C46.858 21.8602 50.0501 21.6606 50.997 17.8927C51.9329 14.181 49.3293 12.0453 45.6856 11.1272C42.0426 10.2098 38.7678 10.7332 37.8023 14.5706Z" fill="white"/>
<path d="M43.0316 21.6564C40.8324 21.1027 39.2734 20.348 38.265 19.3485C36.9758 18.0696 36.5788 16.4011 37.0852 14.3882C38.0255 10.6521 41.1466 9.21868 45.8659 10.4081C47.9764 10.9404 49.5732 11.8016 50.6111 12.9696C51.8286 14.3394 52.21 16.1032 51.714 18.0711C51.0354 20.7693 49.2449 22.1377 46.393 22.1377C45.4164 22.1384 44.3164 21.9809 43.0316 21.6564ZM38.5186 14.7497C38.1431 16.2407 38.401 17.4013 39.3051 18.2988C40.1205 19.1068 41.4563 19.7359 43.3917 20.2238C47.5314 21.2661 49.5665 20.5505 50.2791 17.7118C50.6613 16.1979 50.4078 14.9685 49.5052 13.9535C48.6794 13.0243 47.2956 12.2947 45.5037 11.8437C44.533 11.599 43.6386 11.4756 42.8453 11.4756C40.4894 11.4741 39.0738 12.5453 38.5186 14.7497Z" fill="#1F1E1F"/>
<path d="M22.1829 62.7026C22.7144 59.2023 25.709 57.848 27.4817 57.3172C29.2544 56.7842 32.1944 56.5898 34.0558 55.526C35.9165 54.463 35.6208 49.1449 35.6208 49.1449H39.6378H43.6548C43.6548 49.1449 43.3591 54.463 45.2198 55.526C47.0797 56.5898 50.0204 56.7842 51.7924 57.3172C53.5651 57.848 56.5612 59.2023 57.0912 62.7026C57.517 65.5065 57.5363 69.2582 57.5363 69.2582H39.6385H21.7408C21.7393 69.2582 21.7571 65.5065 22.1829 62.7026Z" fill="white"/>
<path d="M21.2151 69.7801C21.0762 69.6403 20.9993 69.4526 21 69.2552C21.0007 69.1 21.0222 65.4171 21.4517 62.5917C21.8863 59.7264 23.9525 57.6018 27.268 56.609C27.9126 56.4153 28.6777 56.2689 29.488 56.1137C30.9339 55.8358 32.5721 55.5216 33.6883 54.8844C34.6959 54.3092 34.9931 51.2051 34.8822 49.1863C34.8704 48.9837 34.9435 48.7849 35.0833 48.637C35.223 48.4899 35.4174 48.4056 35.6207 48.4056H43.654C43.8573 48.4056 44.0517 48.4892 44.1915 48.637C44.3304 48.7849 44.4036 48.9837 44.3918 49.1863C44.2802 51.2044 44.5758 54.3077 45.5856 54.8844C46.7004 55.5216 48.3393 55.8358 49.7845 56.113C50.5947 56.269 51.3599 56.4153 52.0037 56.609C55.3214 57.6018 57.3876 59.7271 57.8208 62.5917C58.2503 65.4163 58.2732 69.1 58.274 69.2552C58.2747 69.4518 58.1978 69.6411 58.0589 69.7801C57.9199 69.919 57.7314 69.9981 57.5347 69.9981H21.7392C21.5433 69.9981 21.3541 69.9198 21.2151 69.7801ZM56.3593 62.8135C55.9188 59.9068 53.517 58.6057 51.5779 58.0254C51.0065 57.8531 50.2769 57.7134 49.5051 57.5656C47.9468 57.2662 46.18 56.9276 44.8516 56.1677C43.0634 55.1468 42.8726 51.6014 42.8911 49.8841H36.3821C36.3999 51.6014 36.2099 55.1468 34.4217 56.1677C33.0925 56.9269 31.3257 57.2662 29.7667 57.5656C28.9949 57.7134 28.266 57.8539 27.6931 58.0254C25.7555 58.605 23.3545 59.9068 22.9124 62.8142C22.6123 64.7954 22.5184 67.2962 22.4903 68.5197H56.7829C56.7541 67.2962 56.6595 64.7946 56.3593 62.8135Z" fill="#1F1E1F"/>
<path d="M28.1965 35.8737C28.1965 35.8737 26.5014 28.6328 28.4737 24.6054C30.599 20.2646 33.7895 17.783 39.6377 17.783C45.4836 17.783 48.6763 20.2639 50.8017 24.6054C52.774 28.6328 51.0774 35.8737 51.0774 35.8737C53.7357 35.3407 53.2375 38.2503 52.4073 39.5639C51.7183 40.6558 51.7043 40.7726 51.2881 41.9702C50.69 43.6978 49.3173 42.5024 49.3173 42.5024C48.5189 44.7179 47.9541 45.2421 44.7761 48.1717C42.0084 50.7258 41.0363 50.6977 39.6377 50.6977C38.239 50.6977 37.2884 50.7258 34.4992 48.1717C31.3094 45.2546 30.755 44.7179 29.9581 42.5024C29.9581 42.5024 28.5853 43.6978 27.9872 41.9702C27.571 40.7726 27.557 40.6558 26.868 39.5639C26.0364 38.2503 25.5381 35.3407 28.1965 35.8737Z" fill="white"/>
<path d="M33.9995 48.7165C31.1475 46.1077 30.3063 45.2997 29.57 43.5492C29.3933 43.6061 29.1967 43.6438 28.9897 43.6438C28.5395 43.6438 27.7196 43.4575 27.2887 42.2126L27.1985 41.9531C26.874 41.0136 26.8326 40.8931 26.2434 39.9594C25.7008 39.1019 25.0887 37.2878 25.7592 36.0703C26.0674 35.5099 26.6019 35.1684 27.2828 35.0878C26.8865 32.9315 26.1628 27.6437 27.8098 24.2801C30.2604 19.2747 33.9078 17.0437 39.6377 17.0437C45.3676 17.0437 49.0157 19.2755 51.4656 24.2801C53.1126 27.6437 52.3881 32.9315 51.9912 35.0878C52.672 35.1684 53.2057 35.5099 53.5147 36.0695C54.1845 37.2863 53.5746 39.1004 53.0327 39.9579C52.4428 40.8938 52.4014 41.0143 52.0769 41.9531L51.9875 42.2119C51.5557 43.4582 50.7367 43.6445 50.2857 43.6445C50.078 43.6445 49.8814 43.6068 49.704 43.5499C48.9529 45.327 48.0961 46.1173 45.2781 48.715C42.5274 51.2535 41.3468 51.4369 39.6835 51.4369L39.6384 50.6976L39.5941 51.4369C39.5934 51.4369 39.5483 51.4369 39.5483 51.4369C37.9493 51.4361 36.8264 51.3045 33.9995 48.7165ZM39.7272 49.9576C40.9447 49.9576 41.749 49.9576 44.2742 47.6275C47.4005 44.7452 47.8817 44.3024 48.621 42.2518C48.7023 42.0241 48.893 41.8533 49.1266 41.7905C49.3617 41.7284 49.6116 41.7861 49.7971 41.9406C49.9058 42.0315 50.1349 42.166 50.2843 42.166C50.4292 42.166 50.5629 41.8016 50.5888 41.7277L50.6775 41.4704C51.0324 40.4429 51.1203 40.2167 51.7805 39.1692C52.2617 38.4077 52.4746 37.2486 52.2181 36.7836C52.176 36.7068 52.0887 36.5485 51.6703 36.5485C51.538 36.5485 51.3865 36.5648 51.2209 36.5981C50.974 36.6447 50.7197 36.5685 50.5445 36.3874C50.37 36.207 50.299 35.9498 50.356 35.7043C50.3722 35.6348 51.9712 28.6771 50.1357 24.9299C47.9364 20.439 44.7961 18.5222 39.6362 18.5222C34.4763 18.5222 31.336 20.439 29.1368 24.9299C27.3042 28.672 28.8995 35.6348 28.915 35.7051C28.9719 35.9498 28.9017 36.207 28.7257 36.3874C28.5513 36.5685 28.2963 36.6454 28.0501 36.5981C27.8845 36.5648 27.733 36.5485 27.6014 36.5485C27.183 36.5485 27.095 36.7075 27.0536 36.7836C26.7971 37.2486 27.01 38.4077 27.4927 39.1699C28.1536 40.2167 28.2408 40.4436 28.5956 41.4704L28.6851 41.7284C28.7102 41.8016 28.844 42.166 28.9889 42.166C29.1383 42.166 29.3682 42.0315 29.4716 41.945C29.655 41.7831 29.9086 41.7247 30.1429 41.7868C30.3787 41.8482 30.5694 42.0219 30.6522 42.2518C31.3745 44.2625 31.8091 44.7113 34.9967 47.6268C37.5427 49.9584 38.3396 49.9584 39.5453 49.9584H39.6355H39.7272V49.9576Z" fill="#1F1E1F"/>
<path d="M32.0206 17.7873C38.531 14.3861 44.0059 17.7873 44.0059 17.7873C57.5 19.2791 52.7769 36.2949 52.7769 36.2949H52.7696C52.479 35.9039 51.9512 35.7028 51.076 35.878C51.2622 34.6383 49.7387 33.1288 47.3465 31.3575C44.9543 29.5856 44.0059 27.016 44.0059 27.016C44.0059 27.016 41.6122 31.5342 35.6199 32.7303C29.6254 33.9264 28.3621 34.7713 28.1957 35.878C27.322 35.7035 26.7941 35.9039 26.5036 36.2949H26.4948C26.4955 36.2949 22.871 22.5672 32.0206 17.7873Z" fill="white"/>
<path d="M25.7806 36.4835C25.6261 35.9002 22.1162 22.1275 31.6782 17.1317C33.7045 16.0731 35.8387 15.5364 38.0209 15.5364C41.2758 15.5364 43.634 16.728 44.2438 17.0703C47.7745 17.4954 50.4291 18.9879 52.136 21.5095C56.0007 27.2193 53.5938 36.1168 53.4895 36.4931C53.4008 36.8132 53.1022 37.0342 52.7695 37.0342C52.5359 37.0342 52.3156 36.9233 52.1759 36.7356C52.1382 36.686 52.0406 36.5537 51.6643 36.5537C51.5335 36.5537 51.3842 36.57 51.2208 36.6025C51.1728 36.6121 51.124 36.6173 51.0759 36.6173C51.0715 36.6166 51.067 36.6166 51.0611 36.6173C50.6523 36.6173 50.3219 36.2869 50.3219 35.8781C50.3219 35.8041 50.3322 35.7339 50.3522 35.6666C50.3559 34.8978 49.1982 33.6493 46.9066 31.952C45.417 30.849 44.453 29.4703 43.9023 28.4945C42.7417 30.0026 40.1832 32.5737 35.764 33.4556C31.16 34.3745 29.0517 35.1558 28.9268 35.9882C28.8965 36.1885 28.7863 36.3674 28.62 36.4835C28.4552 36.5996 28.2489 36.6424 28.0501 36.6033C27.8867 36.5707 27.7381 36.5545 27.6072 36.5545C27.231 36.5545 27.1334 36.6868 27.0964 36.7363C26.9567 36.9241 26.7372 37.035 26.5028 37.035H26.494C26.1598 37.0342 25.8663 36.8088 25.7806 36.4835ZM32.3628 18.4431C25.2055 22.1822 26.4156 32.0222 27.0033 35.144C27.2029 35.096 27.4357 35.0664 27.6841 35.076C28.3457 33.7978 30.4422 33.0098 35.4757 32.0059C41.0267 30.8978 43.3309 26.7107 43.3523 26.6701C43.4883 26.4128 43.7523 26.2679 44.0539 26.279C44.3444 26.2975 44.5965 26.486 44.6985 26.7588C44.7074 26.7824 45.6115 29.1532 47.7863 30.764C50.2199 32.5663 51.4566 33.891 51.7582 35.0775C51.9519 35.0841 52.1264 35.1085 52.2838 35.1477C52.7732 32.7696 53.7032 26.4594 50.9096 22.3359C49.4318 20.1551 47.0818 18.8718 43.9252 18.5237C43.8166 18.5111 43.7101 18.4749 43.6177 18.4179C43.5948 18.4039 41.3002 17.0163 38.0217 17.0163C36.0804 17.0149 34.1761 17.4961 32.3628 18.4431Z" fill="#1F1E1F"/>
<path d="M45.219 55.5292C47.0789 56.593 50.0196 56.7874 51.7916 57.3204C53.5643 57.8511 56.5604 59.2054 57.0905 62.7058C57.5163 65.5097 57.5355 69.2614 57.5355 69.2614H39.6377H21.74C21.74 69.2614 21.757 65.5097 22.1835 62.7058C22.7151 59.2054 25.7097 57.8511 27.4824 57.3204C29.2551 56.7874 32.1951 56.593 34.0565 55.5292C34.1371 55.4841 34.211 55.4257 34.2834 55.3666L39.6836 61.0913L44.9943 55.3666C45.0645 55.4257 45.1384 55.4834 45.219 55.5292Z" fill="#F7B96F"/>
<path d="M21.2151 69.7833C21.0762 69.6435 20.9993 69.4558 21 69.2584C21.0007 69.1032 21.0222 65.4203 21.4517 62.5949C21.8863 59.7296 23.9525 57.605 27.268 56.6122C27.9126 56.4186 28.6777 56.2722 29.488 56.1169C30.9339 55.839 32.5721 55.5248 33.6928 54.8854C33.7364 54.861 33.7741 54.827 33.8133 54.7952C34.1141 54.5483 34.5532 54.5771 34.8194 54.8595L39.6769 60.0098L44.4494 54.8647C44.7156 54.5771 45.1584 54.5475 45.46 54.7952C45.4992 54.827 45.5376 54.861 45.5849 54.8876C46.6997 55.5248 48.3386 55.839 49.7838 56.1162C50.594 56.2722 51.3591 56.4186 52.003 56.6122C55.3207 57.605 57.3869 59.7303 57.8201 62.5949C58.2496 65.4195 58.2725 69.1032 58.2732 69.2584C58.274 69.455 58.1971 69.6443 58.0581 69.7833C57.9191 69.9222 57.7306 70.0013 57.534 70.0013H21.7385C21.5433 70.0013 21.3541 69.923 21.2151 69.7833ZM56.3593 62.8167C55.9188 59.91 53.517 58.6089 51.5779 58.0286C51.0065 57.8564 50.2769 57.7167 49.5051 57.5688C48.0473 57.2886 46.4084 56.9745 45.1192 56.3165L40.2232 61.5947C40.0835 61.7448 39.8891 61.8305 39.6843 61.8313C39.6836 61.8313 39.6821 61.8313 39.6813 61.8313C39.4781 61.8313 39.2836 61.7477 39.1432 61.5999L34.1578 56.3143C32.8641 56.9759 31.2244 57.2894 29.7667 57.5696C28.9949 57.7174 28.266 57.8579 27.6931 58.0294C25.7555 58.6089 23.3545 59.9107 22.9124 62.8181C22.6123 64.7993 22.5184 67.3002 22.4903 68.5236H56.7829C56.7541 67.2994 56.6595 64.7978 56.3593 62.8167Z" fill="#1F1E1F"/>
<path d="M34.1458 55.5292C34.2264 55.4841 34.3018 55.4257 34.3743 55.3666C34.3743 55.3666 37.0163 57.1629 39.6835 57.1629C42.4069 57.1629 44.9927 55.3666 44.9927 55.3666C45.0651 55.4257 45.1383 55.4834 45.2197 55.5292C46.0602 56.0097 47.121 56.3084 48.1936 56.5457V56.5493L39.6835 65.8882L31.1719 56.5493V56.5457C32.246 56.3084 33.3075 56.0097 34.1458 55.5292Z" fill="white"/>
<path d="M39.1364 66.3864L30.6248 57.0476C30.5006 56.9108 30.4319 56.7297 30.4319 56.5457C30.4319 56.199 30.6729 55.8988 31.0114 55.8234C31.8704 55.6335 32.9616 55.3555 33.7829 54.8846C33.8265 54.8595 33.8657 54.8262 33.9048 54.7944C34.1584 54.5874 34.5162 54.5712 34.789 54.7545C34.8134 54.7708 37.2706 56.4229 39.682 56.4229C42.1326 56.4229 44.5455 54.7752 44.5699 54.7582C44.8412 54.5719 45.2049 54.5859 45.4592 54.7944C45.4983 54.8262 45.5368 54.8602 45.5848 54.8868C46.4024 55.3555 47.4928 55.6335 48.3511 55.8234C48.6896 55.8988 48.9306 56.2027 48.9306 56.5486C48.9306 56.7327 48.8619 56.9101 48.7377 57.0469L40.2276 66.3857C40.0878 66.5395 39.889 66.6267 39.6813 66.6267C39.475 66.6274 39.2769 66.5402 39.1364 66.3864ZM44.986 56.247C44.099 56.78 41.9589 57.9029 39.6827 57.9029C37.4451 57.9029 35.2761 56.7741 34.3824 56.2441C33.8102 56.5538 33.1678 56.7837 32.5483 56.9641L39.6827 64.7919L46.8164 56.9633C46.1977 56.7844 45.5567 56.5546 44.986 56.247Z" fill="#1F1E1F"/>
<path d="M36.6424 47.0569C37.0512 47.0569 37.3816 46.7264 37.3816 46.3176C37.3816 45.9088 37.0512 45.5784 36.6424 45.5784C32.1182 45.5784 28.938 44.6078 27.4454 42.7715C26.2205 41.2642 26.5325 39.6881 26.5355 39.6734C26.619 39.2734 26.3632 38.8816 25.964 38.7981C25.5604 38.7101 25.173 38.9711 25.0888 39.3695C25.0695 39.4619 24.6349 41.656 26.2989 43.7037C28.1063 45.9288 31.5874 47.0569 36.6424 47.0569Z" fill="#1F1E1F"/>
<path d="M23.4041 37.946C23.4041 35.1554 24.5595 32.8926 25.9869 32.8785V32.8771H26.9169V33.189C27.9681 33.8994 28.8072 35.7586 28.8072 37.9468C28.8072 40.1342 27.9681 41.9934 26.9169 42.7038V43.0165H25.9869V43.015C24.5595 42.9987 23.4041 40.7352 23.4041 37.946Z" fill="white"/>
<path d="M25.9795 43.7528C24.09 43.7328 22.6655 41.2364 22.6655 37.946C22.6655 34.6557 24.0908 32.1585 25.9877 32.1378H26.9176C27.3087 32.1378 27.6295 32.4424 27.6554 32.8275C28.7997 33.8351 29.5471 35.8244 29.5471 37.9468C29.5471 40.0684 28.7997 42.0577 27.6554 43.0653C27.6303 43.4512 27.3094 43.7557 26.9176 43.7557H25.9877C25.984 43.7543 25.9818 43.7528 25.9795 43.7528ZM26.5029 42.0902C27.2806 41.5646 28.0672 39.9723 28.0672 37.946C28.0672 35.919 27.2806 34.3267 26.5029 33.8011C26.429 33.7516 26.3654 33.6888 26.3137 33.617L25.9936 33.6178C25.1198 33.6266 24.1425 35.4799 24.1425 37.946C24.1425 40.4085 25.1176 42.261 25.9914 42.2758H26.313C26.364 42.2033 26.4283 42.1412 26.5029 42.0902Z" fill="#1F1E1F"/>
<path d="M25.9189 41.946C25.9189 42.6077 26.3507 43.1444 26.8822 43.1444H27.8454C28.3769 43.1444 28.8072 42.6069 28.8072 41.946V33.9438C28.8072 33.2814 28.3769 32.7462 27.8454 32.7462H26.8822C26.3507 32.7462 25.9189 33.2822 25.9189 33.9438V41.946Z" fill="white"/>
<path d="M25.1797 41.946V33.9438C25.1797 32.8763 25.9433 32.007 26.8822 32.007H27.8454C28.7828 32.007 29.5464 32.8763 29.5464 33.9438V41.946C29.5464 43.0142 28.7835 43.8836 27.8454 43.8836H26.8822C25.9441 43.8836 25.1797 43.0142 25.1797 41.946ZM26.8822 33.4847C26.8134 33.4847 26.6582 33.6577 26.6582 33.943V41.9453C26.6582 42.2314 26.8134 42.4044 26.8822 42.4044H27.8454C27.9134 42.4044 28.0679 42.2314 28.0679 41.9453V33.943C28.0679 33.6577 27.9134 33.4847 27.8454 33.4847H26.8822Z" fill="#1F1E1F"/>
<path d="M55.8684 37.949C55.8684 35.1583 54.7145 32.8955 53.287 32.8815V32.88H52.357V33.192C51.3058 33.9024 50.4653 35.7616 50.4653 37.9497C50.4653 40.1371 51.3058 41.9963 52.357 42.7067V43.0194H53.287V43.0179C54.7152 43.0017 55.8684 40.7381 55.8684 37.949Z" fill="white"/>
<path d="M51.6193 43.0653C50.4742 42.0577 49.7261 40.0684 49.7261 37.9468C49.7261 35.8251 50.4742 33.8359 51.6193 32.8275C51.6318 32.6501 51.7072 32.4808 51.8344 32.3537C51.9741 32.2155 52.1611 32.1378 52.357 32.1378C52.3578 32.1378 52.3578 32.1378 52.3585 32.1378L53.2944 32.1393C55.1839 32.1585 56.6077 34.6549 56.6077 37.946C56.6077 41.2356 55.1839 43.7328 53.287 43.7542H52.357C51.9652 43.7557 51.6444 43.4512 51.6193 43.0653ZM52.961 33.617C52.91 33.6887 52.8464 33.7516 52.771 33.8019C51.9926 34.3282 51.2053 35.9205 51.2053 37.9468C51.2053 39.9723 51.9926 41.5654 52.771 42.091C52.8464 42.1412 52.91 42.2041 52.9603 42.2758L53.2796 42.275C54.1534 42.2654 55.1299 40.4121 55.1299 37.9468C55.1299 35.4799 54.1534 33.6259 53.2877 33.617H52.961Z" fill="#1F1E1F"/>
<path d="M53.3535 41.946C53.3535 42.6077 52.9233 43.1444 52.3918 43.1444H51.4286C50.8971 43.1444 50.4653 42.6069 50.4653 41.946V33.9438C50.4653 33.2814 50.8971 32.7462 51.4286 32.7462H52.3918C52.9233 32.7462 53.3535 33.2822 53.3535 33.9438V41.946Z" fill="white"/>
<path d="M49.7268 41.946V33.9438C49.7268 32.8763 50.4904 32.007 51.4292 32.007H52.3925C53.3298 32.007 54.0934 32.8763 54.0934 33.9438V41.946C54.0934 43.0142 53.3306 43.8836 52.3925 43.8836H51.4292C50.4904 43.8836 49.7268 43.0142 49.7268 41.946ZM51.4285 33.4847C51.3598 33.4847 51.2045 33.6577 51.2045 33.943V41.9453C51.2045 42.2314 51.3598 42.4044 51.4285 42.4044H52.3917C52.4597 42.4044 52.6142 42.2314 52.6142 41.9453V33.943C52.6142 33.6577 52.4597 33.4847 52.3917 33.4847H51.4285Z" fill="#1F1E1F"/>
<path d="M25.9324 34.019C26.3412 34.019 26.6716 33.6885 26.6716 33.2797C26.6716 26.1305 32.4879 20.3142 39.6371 20.3142C46.7863 20.3142 52.6027 26.1305 52.6027 33.2797C52.6027 33.6885 52.9331 34.019 53.3419 34.019C53.7507 34.019 54.0812 33.6885 54.0812 33.2797C54.0812 25.3159 47.601 18.8357 39.6371 18.8357C31.6733 18.8357 25.1931 25.3159 25.1931 33.2797C25.1931 33.6885 25.5236 34.019 25.9324 34.019Z" fill="#1F1E1F"/>
<path d="M35.2563 46.3301C35.2563 46.8697 35.7369 47.3073 36.3275 47.3073H39.986C40.5767 47.3073 41.0572 46.8697 41.0572 46.3301V46.3005C41.0572 45.7608 40.5767 45.324 39.986 45.324H36.3275C35.7369 45.324 35.2563 45.7608 35.2563 46.3005V46.3301Z" fill="white"/>
<path d="M34.5171 46.3005C34.5171 45.3542 35.3295 44.5847 36.3275 44.5847H39.986C40.9847 44.5847 41.7964 45.3543 41.7964 46.33C41.7964 47.2763 40.984 48.0465 39.986 48.0465H36.3275C35.3295 48.0473 34.5171 47.277 34.5171 46.3005ZM36.3282 46.0632C36.1323 46.0632 35.9963 46.1881 35.9963 46.33C35.9963 46.4424 36.1323 46.5681 36.3282 46.5681H39.9867C40.1826 46.5681 40.3186 46.4424 40.3186 46.3005C40.3186 46.1881 40.1819 46.0632 39.9867 46.0632H36.3282Z" fill="#1F1E1F"/>
</svg>
