<svg width="60" height="60" viewBox="0 0 60 60" fill="none" xmlns="http://www.w3.org/2000/svg">
<path d="M13.7151 44.1714C23.9699 43.7741 24.9467 41.1086 34.5491 45.7575C28.4996 43.3238 25.5957 43.6681 21.4666 44.0092C20.013 44.1284 18.4104 44.2509 16.4667 44.2509C15.6191 44.2509 14.7085 44.2277 13.7151 44.1714ZM47.072 22.1819C45.4297 29.5791 40.3801 32.7876 40.9629 43.8867C39.2212 32.8339 44.1217 29.7843 47.072 22.1819ZM18.0263 15.9734C25.6619 27.6453 25.4698 34.6816 37.5722 44.0191C24.5692 37.2643 22.5825 23.9037 18.0263 15.9734ZM30.3903 42.0556C20.023 37.5954 20.4998 41.9 10 43.9297C16.1058 46.0853 17.7184 49.8071 23.3573 49.8203C25.6553 49.8236 27.4466 49.0323 29.1155 48.2409C31.6585 47.0389 33.9167 45.8337 37.2411 47.4296C36.1716 45.7707 33.6352 44.0953 33.0756 43.5754C35.6749 44.8635 38.102 45.7741 41.1284 46.1184C41.2973 46.4992 41.4596 46.7244 41.7013 46.9462C41.496 41.6251 43.7112 41.0755 46.2343 38.4298C50.8931 33.1518 50.5156 29.3837 48.8932 23.3441C48.4462 21.8176 48.3568 19.5031 48.2806 17.4999C46.9329 20.5627 45.2409 22.715 42.3304 25.3772C37.0292 30.0625 38.0225 39.7543 40.8735 45.5125C34.4696 41.6649 38.7013 29.3771 32.5922 23.1289C29.8042 18.9899 19.0097 15.4701 14.8211 11C21.4799 25.3374 12.6556 30.7744 30.3903 42.0556Z" fill="url(#paint0_linear_889_5)"/>
<defs>
<linearGradient id="paint0_linear_889_5" x1="53.3438" y1="30.4101" x2="21.9204" y2="30.4101" gradientUnits="userSpaceOnUse">
<stop stop-color="#236734"/>
<stop offset="1" stop-color="#8DB03F"/>
</linearGradient>
</defs>
</svg>
