<svg width="325" height="75" viewBox="0 0 325 75" fill="none" xmlns="http://www.w3.org/2000/svg">
<path opacity="0.2" d="M162.4 86.3C147.4 86.3 133.5 78.4 119.9 70.8C113 66.9 105.8 62.8 98.6 59.9C65.7 46.5 24.3 57.5 2.4 85.3L0 83.4C22.8 54.5 65.6 43.2 99.7 57.1C107.1 60.1 114.3 64.2 121.4 68.2C137.4 77.2 152.5 85.8 169.3 82.7C183.1 80.2 193.4 70.5 204.3 60.2C213 52 222 43.5 233 38.9C246.5 33.3 261.6 34 274.9 34.7C288 35.3 302.7 36.1 315.5 30.9C327 26.2 338.3 13.9 336.4 0.4L339.4 0C341.5 15.1 329.5 28.4 316.6 33.7C303.2 39.2 288.1 38.4 274.7 37.8C261.7 37.2 247 36.4 234.1 41.8C223.5 46.1 214.8 54.4 206.3 62.4C195.6 72.5 184.5 83 169.8 85.7C167.3 86.1 164.8 86.3 162.4 86.3Z" fill="white"/>
</svg>
