<svg width="345" height="35" viewBox="0 0 345 35" fill="none" xmlns="http://www.w3.org/2000/svg">
<path opacity="0.2" d="M9.2 81.1512C6.1 81.1512 3.1 80.7512 0 79.8512L0.300003 78.8512C16 83.5512 32.3 74.6512 42.3 64.7512C49.6 57.5512 55.5 48.7512 61.1 40.3512C64 35.9512 67.1 31.4512 70.3 27.1512C82.1 11.4512 94.8 2.45122 108 0.451221C125.3 -2.14878 141.3 6.95122 156.9 15.8512C172.4 24.6512 188.5 33.8512 205.5 30.9512C216.3 29.1512 225.7 22.6512 234.7 16.3512C243 10.6512 251.5 4.65122 261.3 2.15122C277.8 -2.14878 297.6 4.15121 313 18.4512C326.9 31.3512 335.8 48.3512 344.4 64.6512L343.5 65.1512C334.9 48.8512 326 32.0512 312.3 19.1512C300.5 8.15122 280.9 -1.84878 261.6 3.15122C252 5.65122 243.5 11.5512 235.3 17.2512C226.2 23.6512 216.7 30.1512 205.7 32.0512C188.3 34.9512 172.1 25.7512 156.4 16.8512C141 8.05123 125.1 -0.948788 108.2 1.55121C95.2 3.55121 82.7 12.3512 71.1 27.8512C67.9 32.1512 64.9 36.6512 61.9 41.0512C56.2 49.5512 50.3 58.2512 43 65.5512C34.8 73.6512 22.3 81.1512 9.2 81.1512Z" fill="white"/>
</svg>
