<svg width="355" height="51" viewBox="0 0 355 51" fill="none" xmlns="http://www.w3.org/2000/svg">
<path opacity="0.2" d="M162.1 50.7C149.7 50.7 137.9 42.9 130.6 35C124.4 28.2 119.5 20.3 114.7 12.6C111.7 7.8 108.6 2.7 105.2 -1.9C81.9001 -33.9 40.0001 -52 0.700096 -47L0.600098 -48C20.1001 -50.5 40.5001 -47.5 59.4001 -39.3C78.3001 -31.1 94.4001 -18.4 106 -2.5C109.4 2.2 112.5 7.2 115.5 12.1C120.2 19.8 125.1 27.7 131.3 34.3C140.1 43.9 155.7 53.3 170.7 48.3C179.9 45.2 186.7 37.4 193.2 29.9C200.3 21.6 207.7 13.1 218.3 10.8C229.7 8.3 240.4 13.9 250.9 19.3C260.3 24.2 270.1 29.2 280.4 28.4C295.7 27.2 306.8 13.6 316.1 0.899998L354 -51L354.8 -50.4L316.9 1.5C307.5 14.3 296.2 28.1 280.5 29.4C269.9 30.2 260.1 25.1 250.5 20.2C239.8 14.6 229.6 9.4 218.6 11.8C208.3 14 201.4 22.1 194 30.6C187.4 38.3 180.5 46.2 171.1 49.3C168 50.2 165 50.7 162.1 50.7Z" fill="white"/>
</svg>
